<?xml version="1.0" encoding="iso-8859-1"?>
<!-- Generator: Adobe Illustrator 19.0.0, SVG Export Plug-In . SVG Version: 6.00 Build 0)  -->
<svg version="1.1" id="Capa_1" xmlns="http://www.w3.org/2000/svg" xmlns:xlink="http://www.w3.org/1999/xlink" x="0px" y="0px"
	 viewBox="0 0 60 60" style="enable-background:new 0 0 60 60;" xml:space="preserve">
<g>
	<path style="fill:none;stroke:#556080;stroke-width:2;stroke-linecap:round;stroke-miterlimit:10;" d="M23.5,3.677
		c-3.013,0.684-5.833,1.87-8.369,3.468"/>
	<path style="fill:none;stroke:#556080;stroke-width:2;stroke-linecap:round;stroke-miterlimit:10;" d="M43.869,7.145
		c-2.537-1.598-5.357-2.784-8.369-3.468"/>
	<path style="fill:none;stroke:#556080;stroke-width:2;stroke-linecap:round;stroke-miterlimit:10;" d="M55.823,24
		c-0.684-3.013-1.87-5.833-3.468-8.369"/>
	<path style="fill:none;stroke:#556080;stroke-width:2;stroke-linecap:round;stroke-miterlimit:10;" d="M52.355,44.369
		c1.598-2.537,2.784-5.357,3.468-8.369"/>
	<path style="fill:none;stroke:#556080;stroke-width:2;stroke-linecap:round;stroke-miterlimit:10;" d="M35.5,56.323
		c3.013-0.684,5.833-1.87,8.369-3.468"/>
	<path style="fill:none;stroke:#556080;stroke-width:2;stroke-linecap:round;stroke-miterlimit:10;" d="M15.131,52.855
		c2.537,1.598,5.357,2.784,8.369,3.468"/>
	<path style="fill:none;stroke:#556080;stroke-width:2;stroke-linecap:round;stroke-miterlimit:10;" d="M3.177,36
		c0.684,3.013,1.87,5.833,3.468,8.369"/>
	<path style="fill:none;stroke:#556080;stroke-width:2;stroke-linecap:round;stroke-miterlimit:10;" d="M6.645,15.631
		C5.047,18.167,3.861,20.987,3.177,24"/>
	
		<circle style="fill:#FFFFFF;stroke:#556080;stroke-width:2;stroke-linecap:round;stroke-miterlimit:10;" cx="29.5" cy="30" r="12.536"/>
	<g>
		<circle style="fill:#F3D55B;" cx="4.5" cy="4" r="1"/>
		<circle style="fill:#F3D55B;" cx="21.5" cy="13" r="1"/>
		<circle style="fill:#F3D55B;" cx="10.5" cy="32" r="1"/>
		<circle style="fill:#F3D55B;" cx="1.5" cy="53" r="1"/>
		<circle style="fill:#F3D55B;" cx="16.5" cy="59" r="1"/>
		<circle style="fill:#F3D55B;" cx="58.5" cy="1" r="1"/>
		<circle style="fill:#F3D55B;" cx="57.5" cy="10" r="1"/>
		<circle style="fill:#F3D55B;" cx="50.5" cy="5" r="1"/>
		<circle style="fill:#F3D55B;" cx="56.5" cy="53" r="1"/>
		<circle style="fill:#F3D55B;" cx="49.5" cy="57" r="1"/>
	</g>
	<circle style="fill:#8697CB;stroke:#556080;stroke-width:2;stroke-linecap:round;stroke-miterlimit:10;" cx="29.5" cy="30" r="9"/>
	<circle style="fill:none;stroke:#556080;stroke-width:2;stroke-linecap:round;stroke-miterlimit:10;" cx="29.5" cy="30" r="4"/>
	
		<line style="fill:none;stroke:#556080;stroke-width:2;stroke-linecap:round;stroke-miterlimit:10;" x1="32.328" y1="27.172" x2="35.864" y2="23.636"/>
	
		<line style="fill:none;stroke:#556080;stroke-width:2;stroke-linecap:round;stroke-miterlimit:10;" x1="26.672" y1="32.828" x2="23.136" y2="36.364"/>
	
		<line style="fill:none;stroke:#556080;stroke-width:2;stroke-linecap:round;stroke-miterlimit:10;" x1="32.328" y1="32.828" x2="35.864" y2="36.364"/>
	
		<line style="fill:none;stroke:#556080;stroke-width:2;stroke-linecap:round;stroke-miterlimit:10;" x1="26.672" y1="27.172" x2="23.136" y2="23.636"/>
	
		<line style="fill:none;stroke:#556080;stroke-width:2;stroke-linecap:round;stroke-miterlimit:10;" x1="29.5" y1="21" x2="29.5" y2="11"/>
	
		<line style="fill:none;stroke:#556080;stroke-width:2;stroke-linecap:round;stroke-miterlimit:10;" x1="29.5" y1="11" x2="34" y2="6.5"/>
	
		<line style="fill:none;stroke:#556080;stroke-width:2;stroke-linecap:round;stroke-miterlimit:10;" x1="29.5" y1="11" x2="25" y2="6.5"/>
	
		<line style="fill:none;stroke:#556080;stroke-width:2;stroke-linecap:round;stroke-miterlimit:10;" x1="36.025" y1="36.525" x2="42.5" y2="43"/>
	
		<line style="fill:none;stroke:#556080;stroke-width:2;stroke-linecap:round;stroke-miterlimit:10;" x1="42.5" y1="43.636" x2="42.5" y2="50"/>
	
		<line style="fill:none;stroke:#556080;stroke-width:2;stroke-linecap:round;stroke-miterlimit:10;" x1="43.096" y1="43" x2="49.46" y2="43"/>
	
		<line style="fill:none;stroke:#556080;stroke-width:2;stroke-linecap:round;stroke-miterlimit:10;" x1="22.975" y1="36.525" x2="16.5" y2="43"/>
	
		<line style="fill:none;stroke:#556080;stroke-width:2;stroke-linecap:round;stroke-miterlimit:10;" x1="15.864" y1="43" x2="9.5" y2="43"/>
	
		<line style="fill:none;stroke:#556080;stroke-width:2;stroke-linecap:round;stroke-miterlimit:10;" x1="16.5" y1="43.596" x2="16.5" y2="49.96"/>
	<path style="fill:#BDC3C7;" d="M44.234,11.062c0.378,0.294,0.747,0.599,1.106,0.915c0.013,0.011,0.025,0.022,0.038,0.033
		c0.747,0.66,1.453,1.365,2.113,2.113c0.011,0.013,0.022,0.025,0.033,0.038c0.316,0.359,0.621,0.728,0.915,1.106
		c0.016,0.02,0.032,0.041,0.048,0.061c0.612,0.791,1.176,1.62,1.687,2.485l0,0l3.629-3.629c-2.207-3.385-5.101-6.278-8.485-8.485
		l-3.608,3.608c0.002,0.016,0.002,0.019,0.004,0.035c0.856,0.507,1.677,1.066,2.46,1.672C44.193,11.03,44.213,11.046,44.234,11.062z
		"/>
	<path style="fill:#BDC3C7;" d="M52.744,24c0.113,0.438,0.21,0.882,0.298,1.33c0.028,0.139,0.05,0.28,0.075,0.42
		c0.056,0.315,0.108,0.632,0.151,0.952c0.022,0.16,0.042,0.321,0.061,0.482c0.037,0.32,0.067,0.643,0.092,0.967
		c0.011,0.146,0.025,0.292,0.033,0.439C53.482,29.057,53.5,29.526,53.5,30s-0.018,0.943-0.045,1.41
		c-0.009,0.147-0.022,0.293-0.033,0.439c-0.025,0.324-0.055,0.647-0.092,0.967c-0.019,0.161-0.039,0.321-0.061,0.482
		c-0.044,0.32-0.095,0.636-0.152,0.952c-0.025,0.14-0.048,0.281-0.075,0.42c-0.088,0.448-0.185,0.892-0.298,1.33l0,0h5.131
		c0.407-1.936,0.625-3.943,0.625-6s-0.218-4.064-0.625-6L52.744,24L52.744,24z"/>
	<path style="fill:#BDC3C7;" d="M53.802,45.817l-3.629-3.629l0,0c-0.511,0.865-1.075,1.694-1.687,2.485
		c-0.016,0.021-0.032,0.041-0.048,0.061c-0.294,0.378-0.599,0.747-0.915,1.106c-0.011,0.013-0.022,0.025-0.033,0.038
		c-0.66,0.747-1.366,1.453-2.113,2.113c-0.012,0.011-0.025,0.022-0.038,0.033c-0.359,0.316-0.728,0.621-1.106,0.915
		c-0.02,0.016-0.041,0.032-0.061,0.048c-0.757,0.586-1.549,1.128-2.375,1.622c-0.009,0.07-0.011,0.086-0.02,0.156l3.538,3.538
		C48.701,52.095,51.595,49.201,53.802,45.817z"/>
	<path style="fill:#BDC3C7;" d="M35.5,58.375v-5.131l0,0c-0.438,0.113-0.882,0.21-1.33,0.298c-0.139,0.028-0.28,0.05-0.42,0.075
		c-0.315,0.056-0.632,0.108-0.952,0.151c-0.16,0.022-0.321,0.042-0.482,0.061c-0.32,0.037-0.643,0.067-0.967,0.092
		c-0.146,0.011-0.292,0.025-0.439,0.033C30.443,53.982,29.974,54,29.5,54s-0.943-0.018-1.41-0.045
		c-0.147-0.009-0.293-0.022-0.439-0.033c-0.324-0.025-0.647-0.055-0.967-0.092c-0.161-0.019-0.321-0.039-0.482-0.061
		c-0.32-0.044-0.636-0.095-0.952-0.152c-0.14-0.025-0.281-0.048-0.42-0.075c-0.448-0.088-0.892-0.185-1.33-0.298l0,0v5.131
		c1.936,0.407,3.943,0.625,6,0.625S33.564,58.782,35.5,58.375z"/>
	<path style="fill:#BDC3C7;" d="M14.766,48.938c-0.378-0.294-0.747-0.599-1.106-0.915c-0.013-0.011-0.025-0.022-0.038-0.033
		c-0.747-0.66-1.453-1.365-2.113-2.113c-0.011-0.012-0.022-0.025-0.033-0.038c-0.316-0.359-0.621-0.728-0.915-1.106
		c-0.016-0.02-0.032-0.041-0.048-0.061c-0.612-0.791-1.176-1.62-1.687-2.485l0,0l-3.629,3.629c2.207,3.385,5.101,6.278,8.485,8.485
		l3.361-3.361c-0.025-0.207-0.032-0.257-0.057-0.463c-0.748-0.458-1.469-0.957-2.16-1.492C14.807,48.97,14.787,48.954,14.766,48.938
		z"/>
	<path style="fill:#BDC3C7;" d="M5.883,34.25c-0.056-0.315-0.108-0.632-0.152-0.952c-0.022-0.16-0.042-0.32-0.061-0.482
		c-0.037-0.321-0.067-0.643-0.092-0.967c-0.011-0.146-0.025-0.292-0.033-0.439C5.518,30.943,5.5,30.474,5.5,30
		s0.018-0.943,0.045-1.41c0.009-0.147,0.022-0.293,0.033-0.439c0.025-0.324,0.055-0.647,0.092-0.967
		c0.019-0.161,0.039-0.322,0.061-0.482c0.044-0.319,0.095-0.636,0.151-0.952c0.025-0.14,0.048-0.281,0.075-0.42
		c0.088-0.448,0.185-0.892,0.298-1.33l0,0H1.125C0.718,25.936,0.5,27.943,0.5,30s0.218,4.064,0.625,6h5.131l0,0
		c-0.113-0.438-0.21-0.882-0.298-1.33C5.93,34.53,5.908,34.39,5.883,34.25z"/>
	<path style="fill:#BDC3C7;" d="M5.198,14.183l3.629,3.629l0,0c0.511-0.865,1.075-1.694,1.687-2.485
		c0.016-0.021,0.032-0.041,0.048-0.061c0.294-0.378,0.599-0.747,0.915-1.106c0.011-0.013,0.022-0.025,0.033-0.038
		c0.66-0.747,1.366-1.453,2.113-2.113c0.012-0.011,0.025-0.022,0.038-0.033c0.359-0.316,0.728-0.621,1.106-0.915
		c0.02-0.016,0.041-0.032,0.061-0.048c0.748-0.579,1.531-1.116,2.346-1.605c0.011-0.088,0.014-0.109,0.025-0.197l-3.515-3.515
		C10.299,7.905,7.405,10.799,5.198,14.183z"/>
	<path style="fill:#BDC3C7;" d="M23.5,1.625v5.131l0,0c0.438-0.113,0.882-0.21,1.33-0.298c0.139-0.027,0.28-0.05,0.42-0.075
		c0.315-0.056,0.632-0.108,0.952-0.152c0.16-0.022,0.32-0.042,0.482-0.061c0.321-0.037,0.643-0.067,0.967-0.092
		c0.146-0.011,0.292-0.025,0.439-0.033C28.557,6.018,29.026,6,29.5,6s0.943,0.018,1.41,0.045c0.147,0.009,0.293,0.022,0.439,0.033
		c0.324,0.025,0.647,0.055,0.967,0.092c0.161,0.019,0.322,0.039,0.482,0.061c0.319,0.044,0.636,0.095,0.952,0.151
		c0.14,0.025,0.281,0.048,0.42,0.075c0.448,0.088,0.892,0.185,1.33,0.298l0,0V1.625C33.564,1.218,31.557,1,29.5,1
		S25.436,1.218,23.5,1.625z"/>
</g>
<g>
</g>
<g>
</g>
<g>
</g>
<g>
</g>
<g>
</g>
<g>
</g>
<g>
</g>
<g>
</g>
<g>
</g>
<g>
</g>
<g>
</g>
<g>
</g>
<g>
</g>
<g>
</g>
<g>
</g>
</svg>
