<?xml version="1.0" encoding="iso-8859-1"?>
<!-- Generator: Adobe Illustrator 19.0.0, SVG Export Plug-In . SVG Version: 6.00 Build 0)  -->
<svg version="1.1" id="Capa_1" xmlns="http://www.w3.org/2000/svg" xmlns:xlink="http://www.w3.org/1999/xlink" x="0px" y="0px"
	 viewBox="0 0 60 60" style="enable-background:new 0 0 60 60;" xml:space="preserve">
<g>
	<g>
		<path style="fill:#BDC3C7;" d="M9.625,11.524C8.95,7.406,11.079,3.706,14.401,2H6.826C4.989,2,3.5,3.489,3.5,5.326v11.392
			c1.434-1.765,3.32-3.175,5.534-4.036l0.802-0.312l0,0C9.76,12.09,9.673,11.814,9.625,11.524z"/>
		<path style="fill:#BDC3C7;" d="M22.643,2c2.457,1.277,4.272,3.672,4.732,6.476c0.224,1.364,0.126,2.678-0.207,3.895l0.798,0.31
			c1.734,0.674,3.261,1.69,4.534,2.943V5.326C32.5,3.489,31.011,2,29.174,2H22.643z"/>
	</g>
	<path style="fill:#E6E6E6;" d="M28.5,40V27c0-0.552-0.448-1-1-1c-0.553,0-1-0.447-1-1s0.447-1,1-1c1.654,0,3,1.346,3,3v6h6v-7.843
		c0-5.52-3.389-10.475-8.534-12.476l-0.798-0.31c-1.168,4.277-5.397,7.29-10.192,6.504c-3.441-0.564-6.242-3.177-7.14-6.505
		l-0.802,0.312C3.889,14.682,0.5,19.636,0.5,25.156V33h6v-6c0-1.654,1.346-3,3-3c0.553,0,1,0.447,1,1s-0.447,1-1,1
		c-0.552,0-1,0.448-1,1v13c0,0.553-0.447,1-1,1v10.312C7.5,52.244,6.744,53,5.812,53h-2.18c-1.451,0-2.789,0.972-3.072,2.395
		C0.181,57.307,1.652,59,3.5,59h4h5h1c1.657,0,3-1.343,3-3V43c0-0.997,0.675-1.928,1.658-2.093c1.249-0.21,2.342,0.759,2.342,1.971
		V56c0,1.657,1.343,3,3,3h6h3.869c1.451,0,2.789-0.972,3.071-2.396C36.819,54.693,35.348,53,33.5,53h-2.312
		c-0.932,0-1.688-0.756-1.688-1.688V41C28.947,41,28.5,40.553,28.5,40z"/>
	<path style="fill:#E6E6E6;" d="M0.591,35c0.48,2.827,2.95,5,5.909,5v-5H0.591z"/>
	<path style="fill:#E6E6E6;" d="M30.5,40c2.959,0,5.429-2.173,5.909-5H30.5V40z"/>
	<path style="fill:#BDC3C7;" d="M8.5,40V27c0-0.552,0.448-1,1-1c0.553,0,1-0.447,1-1s-0.447-1-1-1c-1.654,0-3,1.346-3,3v6h-6v1
		c0,0.341,0.035,0.674,0.091,1H6.5v5h1v1C8.053,41,8.5,40.553,8.5,40z"/>
	<path style="fill:#BDC3C7;" d="M36.5,33h-6v-6c0-1.654-1.346-3-3-3c-0.553,0-1,0.447-1,1s0.447,1,1,1c0.552,0,1,0.448,1,1v13
		c0,0.553,0.447,1,1,1v-1h1v-5h5.909c0.055-0.326,0.091-0.659,0.091-1V33z"/>
	<circle style="fill:#556080;" cx="13.5" cy="56" r="1"/>
	<circle style="fill:#556080;" cx="10.5" cy="56" r="1"/>
	<circle style="fill:#556080;" cx="7.5" cy="56" r="1"/>
	<circle style="fill:#556080;" cx="29.5" cy="56" r="1"/>
	<circle style="fill:#556080;" cx="26.5" cy="56" r="1"/>
	<circle style="fill:#556080;" cx="23.5" cy="56" r="1"/>
	<path style="fill:#FFFFFF;stroke:#ECF0F1;stroke-width:2;stroke-linecap:round;stroke-miterlimit:10;" d="M27.375,8.476
		c1.01,6.16-4.239,11.409-10.399,10.399c-3.73-0.612-6.738-3.62-7.35-7.35c-1.01-6.16,4.239-11.409,10.399-10.399
		C23.754,1.737,26.763,4.746,27.375,8.476z"/>
	<circle style="fill:#9777A8;" cx="22" cy="25.5" r="2.5"/>
	<circle style="fill:#F18D46;" cx="15" cy="30.5" r="2.5"/>
	<path style="fill:#556080;" d="M40.5,60c-0.553,0-1-0.447-1-1V3c0-0.553,0.447-1,1-1s1,0.447,1,1v56C41.5,59.553,41.053,60,40.5,60
		z"/>
	<path style="fill:#556080;" d="M40.5,5c-0.553,0-1-0.447-1-1V2c0-0.553,0.447-1,1-1s1,0.447,1,1v2C41.5,4.553,41.053,5,40.5,5z"/>
	<path style="fill:#8697CB;" d="M27.5,10c0,2.761-4.029,5-9,5s-9-2.239-9-5c0-5.062,4.029-4,9-4S27.5,5.187,27.5,10z"/>
	<rect x="24.5" y="9" style="fill:#556080;" width="3" height="2"/>
	<rect x="9.5" y="9" style="fill:#556080;" width="3" height="2"/>
	<g>
		<path style="fill:#8697CB;" d="M7.5,42v8c2.209,0,4-1.791,4-4C11.5,43.791,9.709,42,7.5,42z"/>
		<path style="fill:#8697CB;" d="M25.5,46c0,2.209,1.791,4,4,4v-8C27.291,42,25.5,43.791,25.5,46z"/>
	</g>
	<g>
		<path style="fill:#8697CB;" d="M0.5,23.925V31l2.44-1.743c0.825-0.589,0.95-1.766,0.266-2.515
			C2.441,25.903,1.255,24.827,0.5,23.925z"/>
		<path style="fill:#8697CB;" d="M36.5,23.925c-0.755,0.902-1.941,1.978-2.707,2.818c-0.683,0.749-0.559,1.925,0.266,2.515L36.5,31
			V23.925z"/>
	</g>
	<rect x="41.5" y="4" style="fill:#E6E7E8;" width="18" height="17.995"/>
	<rect x="41.5" y="20" style="fill:#E64C3C;" width="18" height="2"/>
	<rect x="41.5" y="16" style="fill:#E64C3C;" width="18" height="2"/>
	<rect x="50.517" y="4" style="fill:#E64C3C;" width="8.983" height="2"/>
	<rect x="50.517" y="8" style="fill:#E64C3C;" width="8.983" height="2"/>
	<rect x="50.517" y="12" style="fill:#E64C3C;" width="8.983" height="2"/>
	<rect x="41.5" y="4" style="fill:#3B97D3;" width="9.047" height="10.045"/>
</g>
<g>
</g>
<g>
</g>
<g>
</g>
<g>
</g>
<g>
</g>
<g>
</g>
<g>
</g>
<g>
</g>
<g>
</g>
<g>
</g>
<g>
</g>
<g>
</g>
<g>
</g>
<g>
</g>
<g>
</g>
</svg>
