<?xml version="1.0" encoding="iso-8859-1"?>
<!-- Generator: Adobe Illustrator 19.0.0, SVG Export Plug-In . SVG Version: 6.00 Build 0)  -->
<svg version="1.1" id="Capa_1" xmlns="http://www.w3.org/2000/svg" xmlns:xlink="http://www.w3.org/1999/xlink" x="0px" y="0px"
	 viewBox="0 0 59 59" style="enable-background:new 0 0 59 59;" xml:space="preserve">
<g>
	<path style="fill:#D1D4D1;" d="M43.857,7.985C43.685,8.287,43.373,8.5,43,8.5c-2.757,0-5,2.243-5,5c0,0.552-0.448,1-1,1
		s-1-0.448-1-1c0-3.528,2.626-6.447,6.025-6.924C38.573,4.188,34.446,2.718,30,2.526v4.8c0,0.552-0.448,1-1,1s-1-0.448-1-1v-4.8
		c-4.446,0.193-8.573,1.663-12.025,4.051C19.374,7.053,22,9.972,22,13.5c0,0.552-0.448,1-1,1s-1-0.448-1-1c0-2.757-2.243-5-5-5
		c-0.373,0-0.685-0.213-0.857-0.515C9.171,12.212,6,18.502,6,25.5v16.936c5.594,5.536,14.044,9.064,23.5,9.064
		c8.909,0,16.924-3.132,22.5-8.125V25.5C52,18.502,48.829,12.212,43.857,7.985z"/>
	<path style="fill:#ECF0F1;" d="M36,13.5c0,0.552,0.448,1,1,1s1-0.448,1-1c0-2.757,2.243-5,5-5c0.373,0,0.685-0.213,0.857-0.515
		c-0.587-0.499-1.198-0.97-1.832-1.409C38.626,7.053,36,9.972,36,13.5z"/>
	<path style="fill:#ECF0F1;" d="M15,8.5c2.757,0,5,2.243,5,5c0,0.552,0.448,1,1,1s1-0.448,1-1c0-3.528-2.626-6.447-6.025-6.924
		c-0.635,0.439-1.246,0.91-1.832,1.409C14.315,8.287,14.627,8.5,15,8.5z"/>
	<path style="fill:#ECF0F1;" d="M29,8.326c0.552,0,1-0.448,1-1v-4.8C29.668,2.511,29.335,2.5,29,2.5s-0.668,0.011-1,0.026v4.8
		C28,7.878,28.448,8.326,29,8.326z"/>
	<path style="fill:#E6E7E8;" d="M29.5,51.5c-8.318,0-15.855-2.731-21.357-7.157v6.628c4.969,4.917,12.474,6.529,20.873,6.529
		c7.913,0,15.032-1.26,19.984-5.695v-6.093C43.713,49.323,36.919,51.5,29.5,51.5z"/>
	<path style="fill:#ECF0F1;" d="M3.658,23.529C2.675,23.694,2,24.624,2,25.622l0,2.489C2,28.326,1.826,28.5,1.611,28.5h0
		C0.721,28.5,0,29.221,0,30.111v3.168C0,33.953,0.547,34.5,1.221,34.5h0.389C1.826,34.5,2,34.674,2,34.889l0,2.489
		c0,0.997,0.675,1.927,1.658,2.093C4.907,39.681,6,38.712,6,37.5v-12C6,24.288,4.907,23.319,3.658,23.529z"/>
	<path style="fill:#A5A5A4;" d="M3,32.5c-0.26,0-0.52-0.11-0.71-0.29C2.11,32.02,2,31.76,2,31.5c0-0.26,0.11-0.52,0.29-0.71
		c0.38-0.37,1.05-0.37,1.42,0C3.89,30.98,4,31.24,4,31.5c0,0.26-0.11,0.52-0.29,0.71C3.52,32.39,3.26,32.5,3,32.5z"/>
	<path style="fill:#ECF0F1;" d="M54.342,39.471C55.325,39.306,56,38.376,56,37.378v-2.111c0-0.424,0.343-0.767,0.767-0.767h0.012
		c0.674,0,1.221-0.547,1.221-1.221v-3.558c0-0.674-0.547-1.221-1.221-1.221h-0.012C56.343,28.5,56,28.157,56,27.733v-2.111
		c0-0.997-0.675-1.927-1.658-2.093C53.093,23.319,52,24.288,52,25.5v12C52,38.712,53.093,39.681,54.342,39.471z"/>
	<path style="fill:#A5A5A4;" d="M55,32.5c-0.26,0-0.52-0.11-0.71-0.29C54.11,32.02,54,31.77,54,31.5s0.11-0.52,0.29-0.71
		c0.37-0.37,1.05-0.37,1.42,0C55.89,30.98,56,31.24,56,31.5c0,0.26-0.11,0.52-0.29,0.71C55.52,32.39,55.26,32.5,55,32.5z"/>
	<path style="fill:#F3D55B;" d="M58,6.5h-1.586L54,4.086V2.5c0-0.552-0.448-1-1-1s-1,0.448-1,1v1.586L49.586,6.5H48
		c-0.552,0-1,0.448-1,1s0.448,1,1,1h1.586L52,10.914V12.5c0,0.552,0.448,1,1,1s1-0.448,1-1v-1.586L56.414,8.5H58
		c0.552,0,1-0.448,1-1S58.552,6.5,58,6.5z"/>
	<path style="fill:#ECF0F1;" d="M29,9.5c-12.65,0-23,8.92-23,18.378v12.663c5.594,4.14,14.044,7.959,23.5,7.959
		c8.909,0,16.924-3.524,22.5-7.256V27.878C52,18.42,41.65,9.5,29,9.5z"/>
	<path style="fill:#38454F;" d="M29,12.5c-12.65,0-23,7.548-23,15.551v10.714c5.594,3.503,14.044,6.735,23.5,6.735
		c8.909,0,16.924-2.982,22.5-6.14V28.051C52,20.048,41.65,12.5,29,12.5z"/>
	<path style="fill:#475B68;" d="M15.095,15.853C9.578,18.802,6,23.347,6,28.051v10.714c2.393,1.498,5.311,2.944,8.604,4.112
		C15.489,38.546,16,33.453,16,28C16,23.655,15.674,19.539,15.095,15.853z"/>
	<path style="fill:#475B68;" d="M52,28.051c0-4.704-3.578-9.249-9.095-12.198C42.326,19.539,42,23.655,42,28
		c0,5.57,0.535,10.763,1.455,15.153c3.225-1.077,6.116-2.418,8.545-3.793V28.051z"/>
	<path style="fill:#FFFFFF;" d="M8.143,44.343v2.628c4.969,4.917,12.474,6.529,20.873,6.529c7.913,0,15.032-1.26,19.984-5.695
		v-2.093c-5.287,3.61-12.081,5.788-19.5,5.788C21.182,51.5,13.645,48.769,8.143,44.343z"/>
	<path style="fill:#546A79;" d="M26.999,21.698c-0.508,0-0.942-0.385-0.994-0.9c-0.055-0.549,0.346-1.04,0.896-1.095
		c1.341-0.134,2.721-0.203,4.1-0.203c0.552,0,1,0.448,1,1s-0.448,1-1,1c-1.313,0-2.625,0.065-3.9,0.193
		C27.066,21.696,27.032,21.698,26.999,21.698z"/>
	<path style="fill:#546A79;" d="M11,32.5c-0.552,0-1-0.448-1-1c0-5.028,4.284-9.002,11.754-10.904
		c0.534-0.136,1.079,0.187,1.216,0.723c0.136,0.535-0.188,1.08-0.723,1.216C15.735,24.192,12,27.46,12,31.5
		C12,32.052,11.552,32.5,11,32.5z"/>
</g>
<g>
</g>
<g>
</g>
<g>
</g>
<g>
</g>
<g>
</g>
<g>
</g>
<g>
</g>
<g>
</g>
<g>
</g>
<g>
</g>
<g>
</g>
<g>
</g>
<g>
</g>
<g>
</g>
<g>
</g>
</svg>
