<?xml version="1.0" encoding="iso-8859-1"?>
<!-- Generator: Adobe Illustrator 19.0.0, SVG Export Plug-In . SVG Version: 6.00 Build 0)  -->
<svg version="1.1" id="Capa_1" xmlns="http://www.w3.org/2000/svg" xmlns:xlink="http://www.w3.org/1999/xlink" x="0px" y="0px"
	 viewBox="0 0 59 59" style="enable-background:new 0 0 59 59;" xml:space="preserve">
<g>
	<path style="fill:#F3D55B;" d="M56.5,5h-1.586L52.5,2.586V1c0-0.552-0.447-1-1-1s-1,0.448-1,1v1.586L48.086,5H46.5
		c-0.553,0-1,0.448-1,1s0.447,1,1,1h1.586L50.5,9.414V11c0,0.552,0.447,1,1,1s1-0.448,1-1V9.414L54.914,7H56.5c0.553,0,1-0.448,1-1
		S57.053,5,56.5,5z"/>
	<circle style="fill:#E57E25;" cx="42.77" cy="44.545" r="9.455"/>
	<path style="fill:none;stroke:#F3D55B;stroke-width:2;stroke-linecap:round;stroke-miterlimit:10;" d="M38.5,4l10.391,23.342
		c1.493,3.354,3.1,6.674,5.119,9.741c3.445,5.233,2.871,12.385-1.723,16.979l0,0c-4.594,4.594-11.746,5.168-16.979,1.723
		c-3.21-2.113-6.674-3.813-10.168-5.413L2.5,40"/>
	
		<line style="fill:none;stroke:#F29C1F;stroke-width:2;stroke-linecap:round;stroke-miterlimit:10;" x1="40.5" y1="29" x2="36.5" y2="24"/>
	
		<line style="fill:none;stroke:#F29C1F;stroke-width:2;stroke-linecap:round;stroke-miterlimit:10;" x1="38.5" y1="19" x2="34.5" y2="12"/>
	
		<line style="fill:none;stroke:#F29C1F;stroke-width:2;stroke-linecap:round;stroke-miterlimit:10;" x1="29.5" y1="21" x2="25.5" y2="16"/>
	
		<line style="fill:none;stroke:#F29C1F;stroke-width:2;stroke-linecap:round;stroke-miterlimit:10;" x1="21.5" y1="31" x2="16.5" y2="27"/>
	
		<line style="fill:none;stroke:#F29C1F;stroke-width:2;stroke-linecap:round;stroke-miterlimit:10;" x1="13.5" y1="34" x2="8.5" y2="31"/>
	
		<line style="fill:none;stroke:#F29C1F;stroke-width:2;stroke-linecap:round;stroke-miterlimit:10;" x1="27.5" y1="41" x2="22.5" y2="37"/>
	
		<line style="fill:none;stroke:#F3D55B;stroke-width:2;stroke-linecap:round;stroke-miterlimit:10;" x1="33.5" y1="34" x2="22.5" y2="23"/>
	<circle style="fill:#F0C419;" cx="14.5" cy="11" r="1"/>
	<circle style="fill:#F0C419;" cx="29.5" cy="12" r="1"/>
	<circle style="fill:#F0C419;" cx="42.5" cy="24" r="1"/>
	<circle style="fill:#F0C419;" cx="31.5" cy="26" r="1"/>
	<g>
		<circle style="fill:#F3D55B;" cx="47.5" cy="46" r="1"/>
		<circle style="fill:#F3D55B;" cx="49.5" cy="48" r="1"/>
		<circle style="fill:#F3D55B;" cx="45.5" cy="48" r="1"/>
		<circle style="fill:#F3D55B;" cx="47.5" cy="50" r="1"/>
		<circle style="fill:#F3D55B;" cx="41.5" cy="48" r="1"/>
		<circle style="fill:#F3D55B;" cx="43.5" cy="50" r="1"/>
		<circle style="fill:#F3D55B;" cx="41.5" cy="52" r="1"/>
		<circle style="fill:#F3D55B;" cx="45.5" cy="52" r="1"/>
		<circle style="fill:#F3D55B;" cx="49.5" cy="44" r="1"/>
		<circle style="fill:#F3D55B;" cx="44.5" cy="45" r="1"/>
	</g>
	<circle style="fill:#F0C419;" cx="14.5" cy="21" r="1"/>
	<circle style="fill:#F0C419;" cx="3.5" cy="22" r="1"/>
	<circle style="fill:#F0C419;" cx="21.5" cy="7" r="1"/>
	<circle style="fill:#F0C419;" cx="26.5" cy="33" r="1"/>
	<circle style="fill:#F0C419;" cx="17.5" cy="40" r="1"/>
	<circle style="fill:#F0C419;" cx="5.5" cy="37" r="1"/>
</g>
<g>
</g>
<g>
</g>
<g>
</g>
<g>
</g>
<g>
</g>
<g>
</g>
<g>
</g>
<g>
</g>
<g>
</g>
<g>
</g>
<g>
</g>
<g>
</g>
<g>
</g>
<g>
</g>
<g>
</g>
</svg>
