<?xml version="1.0" encoding="iso-8859-1"?>
<!-- Generator: Adobe Illustrator 19.0.0, SVG Export Plug-In . SVG Version: 6.00 Build 0)  -->
<svg version="1.1" id="Capa_1" xmlns="http://www.w3.org/2000/svg" xmlns:xlink="http://www.w3.org/1999/xlink" x="0px" y="0px"
	 viewBox="0 0 56 56" style="enable-background:new 0 0 56 56;" xml:space="preserve">
<g>
	<path style="fill:#F3D55B;" d="M36.295,23.727l2.644-5.667l-5.822,2.717c1.245-2.376,2.637-5.013,3.819-7.205L8.045,30.425
		c-6.166,3.597-8.854,11.354-5.748,17.781c0.663,1.372,1.564,2.658,2.701,3.795c1.137,1.137,2.423,2.038,3.795,2.701
		c6.427,3.107,14.184,0.419,17.781-5.748l17.004-29.15L36.295,23.727z"/>
	<circle style="fill:#AF8066;" cx="15" cy="42" r="9"/>
	<circle style="fill:#F29C1F;" cx="15" cy="46" r="1"/>
	<circle style="fill:#F29C1F;" cx="13" cy="48" r="1"/>
	<circle style="fill:#F29C1F;" cx="13" cy="44" r="1"/>
	<circle style="fill:#F29C1F;" cx="11" cy="46" r="1"/>
	<circle style="fill:#F29C1F;" cx="13" cy="40" r="1"/>
	<circle style="fill:#F29C1F;" cx="11" cy="42" r="1"/>
	<circle style="fill:#F29C1F;" cx="9" cy="40" r="1"/>
	<circle style="fill:#F29C1F;" cx="9" cy="44" r="1"/>
	<circle style="fill:#F29C1F;" cx="17" cy="48" r="1"/>
	<circle style="fill:#F29C1F;" cx="16" cy="43" r="1"/>
	<g>
		<path style="fill:#F3D55B;" d="M16.414,7H18c0.553,0,1-0.448,1-1s-0.447-1-1-1h-1.586L14,2.586V1c0-0.552-0.447-1-1-1
			s-1,0.448-1,1v1.586L9.586,5H8C7.447,5,7,5.448,7,6s0.447,1,1,1h1.586L12,9.414V11c0,0.552,0.447,1,1,1s1-0.448,1-1V9.414
			L16.414,7z"/>
		<circle style="fill:#F3D55B;" cx="36" cy="6" r="1"/>
		<circle style="fill:#F3D55B;" cx="44" cy="42" r="1"/>
		<circle style="fill:#F3D55B;" cx="54" cy="8" r="1"/>
		<circle style="fill:#F3D55B;" cx="54" cy="27" r="1"/>
		<circle style="fill:#F3D55B;" cx="33" cy="50" r="1"/>
		<circle style="fill:#F3D55B;" cx="11" cy="22" r="1"/>
		<circle style="fill:#F3D55B;" cx="19" cy="12" r="1"/>
		<circle style="fill:#F3D55B;" cx="4" cy="11" r="1"/>
	</g>
</g>
<g>
</g>
<g>
</g>
<g>
</g>
<g>
</g>
<g>
</g>
<g>
</g>
<g>
</g>
<g>
</g>
<g>
</g>
<g>
</g>
<g>
</g>
<g>
</g>
<g>
</g>
<g>
</g>
<g>
</g>
</svg>
