<?xml version="1.0" encoding="iso-8859-1"?>
<!-- Generator: Adobe Illustrator 19.0.0, SVG Export Plug-In . SVG Version: 6.00 Build 0)  -->
<svg version="1.1" id="Capa_1" xmlns="http://www.w3.org/2000/svg" xmlns:xlink="http://www.w3.org/1999/xlink" x="0px" y="0px"
	 viewBox="0 0 58 58" style="enable-background:new 0 0 58 58;" xml:space="preserve">
<g>
	<circle style="fill:#7F6E5D;" cx="29" cy="29" r="29"/>
	
		<ellipse transform="matrix(0.8591 -0.5118 0.5118 0.8591 -7.2163 9.7186)" style="fill:#AF8066;" cx="14.043" cy="17.966" rx="10" ry="5.5"/>
	
		<ellipse transform="matrix(0.9515 0.3077 -0.3077 0.9515 12.8338 -8.384)" style="fill:#AF8066;" cx="33" cy="36.5" rx="4" ry="5.5"/>
	
		<ellipse transform="matrix(0.7819 0.6234 -0.6234 0.7819 19.8848 -23.8325)" style="fill:#AF8066;" cx="44" cy="16.5" rx="4" ry="2.5"/>
	
		<ellipse transform="matrix(0.6653 -0.7466 0.7466 0.6653 -28.4346 31.5794)" style="fill:#AF8066;" cx="21" cy="47.5" rx="4" ry="2.5"/>
	
		<ellipse transform="matrix(0.864 0.5034 -0.5034 0.864 19.2321 -0.2074)" style="fill:#AF8066;" cx="10" cy="35.5" rx="4" ry="2.5"/>
	
		<ellipse transform="matrix(0.9552 -0.2959 0.2959 0.9552 -11.6985 15.692)" style="fill:#AF8066;" cx="46" cy="46.5" rx="4" ry="2.5"/>
	<ellipse style="fill:#AF8066;" cx="28" cy="3.5" rx="4" ry="2.5"/>
	<g>
		<path style="fill:#F3D55B;" d="M41,18h-1.586L37,15.586V14c0-0.552-0.447-1-1-1s-1,0.448-1,1v1.586L32.586,18H31
			c-0.553,0-1,0.448-1,1s0.447,1,1,1h1.586L35,22.414V24c0,0.552,0.447,1,1,1s1-0.448,1-1v-1.586L39.414,20H41c0.553,0,1-0.448,1-1
			S41.553,18,41,18z"/>
		<path style="fill:#F3D55B;" d="M12.646,37.81c-0.387,0.104-0.71,0.352-0.91,0.699c-0.201,0.347-0.254,0.752-0.15,1.138
			c0.176,0.655,0.771,1.112,1.448,1.112c0.131,0,0.262-0.017,0.389-0.051c0.799-0.213,1.274-1.037,1.062-1.836
			C14.273,38.089,13.436,37.598,12.646,37.81z"/>
		<path style="fill:#F3D55B;" d="M37.612,46.551c-0.388,0.104-0.712,0.352-0.912,0.699s-0.253,0.751-0.149,1.138
			C36.727,49.042,37.322,49.5,38,49.5c0.131,0,0.261-0.017,0.389-0.051c0.798-0.214,1.273-1.038,1.06-1.838
			C39.238,46.83,38.395,46.338,37.612,46.551z"/>
		<path style="fill:#F3D55B;" d="M50.449,25.612c-0.21-0.782-1.049-1.271-1.838-1.061c-0.798,0.214-1.273,1.038-1.061,1.836
			c0.176,0.655,0.771,1.112,1.448,1.112c0.131,0,0.262-0.017,0.39-0.051C50.187,27.234,50.662,26.411,50.449,25.612z"/>
		<path style="fill:#F3D55B;" d="M22.999,11.5c0.131,0,0.262-0.017,0.39-0.051c0.798-0.214,1.273-1.038,1.061-1.836
			c-0.21-0.782-1.048-1.271-1.838-1.061c-0.798,0.214-1.273,1.038-1.061,1.836C21.727,11.043,22.321,11.5,22.999,11.5z"/>
		<path style="fill:#F3D55B;" d="M22.611,48.551c-0.798,0.214-1.273,1.038-1.061,1.836c0.176,0.655,0.771,1.112,1.448,1.112
			c0.131,0,0.262-0.017,0.39-0.051c0.798-0.214,1.273-1.038,1.061-1.836C24.239,48.831,23.401,48.339,22.611,48.551z"/>
		<path style="fill:#F3D55B;" d="M26,31h-1v-1c0-0.552-0.447-1-1-1s-1,0.448-1,1v1h-1c-0.553,0-1,0.448-1,1s0.447,1,1,1h1v1
			c0,0.552,0.447,1,1,1s1-0.448,1-1v-1h1c0.553,0,1-0.448,1-1S26.553,31,26,31z"/>
		<path style="fill:#F3D55B;" d="M15,15h-1v-1c0-0.552-0.447-1-1-1s-1,0.448-1,1v1h-1c-0.553,0-1,0.448-1,1s0.447,1,1,1h1v1
			c0,0.552,0.447,1,1,1s1-0.448,1-1v-1h1c0.553,0,1-0.448,1-1S15.553,15,15,15z"/>
		<path style="fill:#F3D55B;" d="M48,38h-1v-1c0-0.552-0.447-1-1-1s-1,0.448-1,1v1h-1c-0.553,0-1,0.448-1,1s0.447,1,1,1h1v1
			c0,0.552,0.447,1,1,1s1-0.448,1-1v-1h1c0.553,0,1-0.448,1-1S48.553,38,48,38z"/>
		<path style="fill:#F3D55B;" d="M34,7h1v1c0,0.552,0.447,1,1,1s1-0.448,1-1V7h1c0.553,0,1-0.448,1-1s-0.447-1-1-1h-1V4
			c0-0.552-0.447-1-1-1s-1,0.448-1,1v1h-1c-0.553,0-1,0.448-1,1S33.447,7,34,7z"/>
	</g>
</g>
<g>
</g>
<g>
</g>
<g>
</g>
<g>
</g>
<g>
</g>
<g>
</g>
<g>
</g>
<g>
</g>
<g>
</g>
<g>
</g>
<g>
</g>
<g>
</g>
<g>
</g>
<g>
</g>
<g>
</g>
</svg>
