<?xml version="1.0" encoding="iso-8859-1"?>
<!-- Generator: Adobe Illustrator 19.0.0, SVG Export Plug-In . SVG Version: 6.00 Build 0)  -->
<svg version="1.1" id="Capa_1" xmlns="http://www.w3.org/2000/svg" xmlns:xlink="http://www.w3.org/1999/xlink" x="0px" y="0px"
	 viewBox="0 0 58 58" style="enable-background:new 0 0 58 58;" xml:space="preserve">
<g>
	<path style="fill:#ECF0F1;" d="M32,47c-0.552,0-1-0.447-1-1v-4c0-0.553,0.448-1,1-1s1,0.447,1,1v4C33,46.553,32.552,47,32,47z"/>
	<path style="fill:#ECF0F1;" d="M28,47c-0.552,0-1-0.447-1-1v-4c0-0.553,0.448-1,1-1s1,0.447,1,1v4C29,46.553,28.552,47,28,47z"/>
	<path style="fill:#ECF0F1;" d="M28,17c-0.552,0-1-0.447-1-1v-4c0-0.553,0.448-1,1-1s1,0.447,1,1v4C29,16.553,28.552,17,28,17z"/>
	<path style="fill:#ECF0F1;" d="M32,17c-0.552,0-1-0.447-1-1v-4c0-0.553,0.448-1,1-1s1,0.447,1,1v4C33,16.553,32.552,17,32,17z"/>
	<rect x="38" y="15" style="fill:#ECF0F1;" width="14" height="28"/>
	<path style="fill:#8697CB;" d="M52,16v26c2.761,0,5-5.82,5-13S54.761,16,52,16z"/>
	<rect x="21" y="16" style="fill:#CBB292;" width="17" height="26"/>
	<rect x="5" y="18" style="fill:#ECF0F1;" width="16" height="22"/>
	<rect x="1" y="19" style="fill:#D1D4D1;" width="4" height="5"/>
	<rect x="1" y="34" style="fill:#D1D4D1;" width="4" height="5"/>
	<line style="fill:none;stroke:#556080;stroke-width:2;stroke-miterlimit:10;" x1="1" y1="27" x2="5" y2="27"/>
	<line style="fill:none;stroke:#556080;stroke-width:2;stroke-miterlimit:10;" x1="1" y1="31" x2="5" y2="31"/>
	<rect x="8" y="33" style="fill:#BDC3C7;" width="3" height="7"/>
	<rect x="15" y="33" style="fill:#BDC3C7;" width="3" height="7"/>
	<rect x="34" y="21" style="fill:#F5EFCA;" width="4" height="16"/>
	<rect x="21" y="20" style="fill:#F5EFCA;" width="4" height="4"/>
	<rect x="21" y="27" style="fill:#F5EFCA;" width="4" height="4"/>
	<rect x="21" y="34" style="fill:#F5EFCA;" width="4" height="4"/>
	<rect x="8" y="18" style="fill:#BDC3C7;" width="10" height="5"/>
	<circle style="fill:#A5A5A4;" cx="41" cy="23" r="1"/>
	<circle style="fill:#A5A5A4;" cx="41" cy="19" r="1"/>
	<circle style="fill:#A5A5A4;" cx="41" cy="27" r="1"/>
	<circle style="fill:#A5A5A4;" cx="41" cy="31" r="1"/>
	<circle style="fill:#A5A5A4;" cx="41" cy="35" r="1"/>
	<circle style="fill:#A5A5A4;" cx="41" cy="39" r="1"/>
	<rect x="3" y="46" style="fill:#0096E6;" width="54" height="12"/>
	<rect x="3" y="0" style="fill:#0096E6;" width="54" height="12"/>
	<g>
		<polygon style="fill:#556080;" points="52,46 50,46 50,51 46,51 46,46 44,46 44,51 40,51 40,46 38,46 38,51 34,51 34,46 32,46 
			32,51 28,51 28,46 26,46 26,51 22,51 22,46 20,46 20,51 16,51 16,46 14,46 14,51 10,51 10,46 8,46 8,51 3,51 3,53 8,53 8,58 
			10,58 10,53 14,53 14,58 16,58 16,53 20,53 20,58 22,58 22,53 26,53 26,58 28,58 28,53 32,53 32,58 34,58 34,53 38,53 38,58 
			40,58 40,53 44,53 44,58 46,58 46,53 50,53 50,58 52,58 52,53 57,53 57,51 52,51 		"/>
		<polygon style="fill:#556080;" points="52,5 52,0 50,0 50,5 46,5 46,0 44,0 44,5 40,5 40,0 38,0 38,5 34,5 34,0 32,0 32,5 28,5 
			28,0 26,0 26,5 22,5 22,0 20,0 20,5 16,5 16,0 14,0 14,5 10,5 10,0 8,0 8,5 3,5 3,7 8,7 8,12 10,12 10,7 14,7 14,12 16,12 16,7 
			20,7 20,12 22,12 22,7 26,7 26,12 28,12 28,7 32,7 32,12 34,12 34,7 38,7 38,12 40,12 40,7 44,7 44,12 46,12 46,7 50,7 50,12 
			52,12 52,7 57,7 57,5 		"/>
	</g>
</g>
<g>
</g>
<g>
</g>
<g>
</g>
<g>
</g>
<g>
</g>
<g>
</g>
<g>
</g>
<g>
</g>
<g>
</g>
<g>
</g>
<g>
</g>
<g>
</g>
<g>
</g>
<g>
</g>
<g>
</g>
</svg>
