<?xml version="1.0" encoding="iso-8859-1"?>
<!-- Generator: Adobe Illustrator 19.0.0, SVG Export Plug-In . SVG Version: 6.00 Build 0)  -->
<svg version="1.1" id="Capa_1" xmlns="http://www.w3.org/2000/svg" xmlns:xlink="http://www.w3.org/1999/xlink" x="0px" y="0px"
	 viewBox="0 0 58 58" style="enable-background:new 0 0 58 58;" xml:space="preserve">
<g>
	<path style="fill:#CBB292;" d="M3.771,31c3.573,0,7.051-0.978,10.056-2.828C16.134,26.751,18.96,26,22,26s5.866,0.751,8.174,2.172
		C33.179,30.022,36.657,31,40.23,31h17.615c0.027,0,0.05,0.013,0.077,0.016C57.968,30.349,58,29.678,58,29
		c0-0.678-0.032-1.349-0.078-2.016C57.896,26.986,57.873,27,57.846,27H39c-0.553,0-1-0.448-1-1s0.447-1,1-1h18.719
		c-0.189-1.368-0.474-2.704-0.846-4.003c-0.091,0.027-0.181,0.057-0.28,0.057H27c-0.553,0-1-0.448-1-1s0.447-1,1-1h29.248
		c-0.525-1.437-1.165-2.819-1.9-4.139c-0.147,0.085-0.308,0.146-0.49,0.146H48c-0.553,0-1-0.448-1-1s0.447-1,1-1h5.223
		C48.036,5.194,39.127,0,29,0C21.265,0,14.242,3.035,9.043,7.971h8.02c0.553,0,1,0.448,1,1s-0.447,1-1,1H8.029
		c-0.26,0-0.492-0.105-0.67-0.268c-0.939,1.053-1.802,2.175-2.582,3.357H10c0.553,0,1,0.448,1,1s-0.447,1-1,1H4.142
		c-0.182,0-0.343-0.062-0.49-0.146C3.098,15.908,2.601,16.938,2.165,18h5.693c0.553,0,1,0.448,1,1s-0.447,1-1,1H2
		c-0.192,0-0.362-0.069-0.514-0.163c-0.349,1.05-0.646,2.123-0.875,3.222H14c0.553,0,1,0.448,1,1s-0.447,1-1,1H0.42
		c-0.051,0-0.094-0.022-0.143-0.029C0.099,26.329,0,27.653,0,29c0,0.678,0.032,1.349,0.078,2.016C0.104,31.013,0.127,31,0.154,31
		H3.771z"/>
	<path style="fill:#FBD490;" d="M30.174,43.828C27.866,45.249,25.04,46,22,46s-5.866-0.751-8.174-2.172
		C10.821,41.978,7.344,41,3.771,41h-1.17c0.688,1.511,1.496,2.955,2.423,4.314c0.2-0.142,0.45-0.216,0.713-0.18
		c1.963,0.27,3.803,0.926,5.469,1.952C14.301,48.992,18.033,50,22,50s7.699-1.008,10.795-2.914C35.012,45.721,37.582,45,40.229,45
		h12.259c0.216,0,0.405,0.083,0.568,0.199c0.894-1.325,1.674-2.731,2.342-4.199H40.23C36.657,41,33.179,41.978,30.174,43.828z"/>
	<path style="fill:#D6BFA5;" d="M29.125,29.875C27.134,28.648,24.67,28,22,28s-5.134,0.648-7.125,1.875
		C11.554,31.919,7.714,33,3.771,33H0.281c0.291,2.105,0.802,4.138,1.519,6.074C1.914,39.029,2.036,39,2.165,39h1.605
		c3.943,0,7.783,1.081,11.104,3.125C16.866,43.352,19.33,44,22,44s5.134-0.648,7.125-1.875C32.446,40.081,36.286,39,40.23,39h15.604
		c0.129,0,0.251,0.029,0.365,0.074c0.717-1.935,1.228-3.969,1.519-6.074H40.23C36.286,33,32.446,31.919,29.125,29.875z"/>
	<circle style="fill:#D6BFA5;" cx="22" cy="26" r="19"/>
	<path style="fill:#CBB292;" d="M33.844,48.789C30.433,50.89,26.337,52,22,52s-8.433-1.11-11.844-3.211
		c-1.125-0.693-2.347-1.182-3.638-1.474C11.836,53.835,19.931,58,29,58c5.363,0,10.383-1.462,14.692-4H34c-0.553,0-1-0.448-1-1
		s0.447-1,1-1h11.146c0.365,0,0.669,0.205,0.844,0.496c2.156-1.562,4.087-3.412,5.739-5.496H40.229
		C37.952,47,35.744,47.619,33.844,48.789z"/>
	<circle style="fill:#E5C5A5;" cx="19" cy="23" r="12"/>
	<path style="fill:#AF8066;" d="M40.229,45c-2.647,0-5.218,0.721-7.435,2.086C29.699,48.992,25.967,50,22,50
		s-7.699-1.008-10.795-2.914c-1.666-1.026-3.506-1.683-5.469-1.952c-0.263-0.037-0.513,0.037-0.713,0.18
		c0.47,0.689,0.969,1.356,1.495,2.001c1.291,0.293,2.512,0.781,3.638,1.474C13.567,50.89,17.663,52,22,52s8.433-1.11,11.844-3.211
		c1.9-1.17,4.108-1.789,6.386-1.789h11.499c0.463-0.584,0.91-1.181,1.328-1.801C52.893,45.083,52.704,45,52.488,45H40.229z"/>
	<path style="fill:#AF8066;" d="M57.846,31H40.23c-3.573,0-7.052-0.978-10.057-2.828C27.866,26.751,25.04,26,22,26
		s-5.866,0.751-8.174,2.172C10.821,30.022,7.344,31,3.771,31H0.154c-0.027,0-0.05,0.013-0.077,0.016
		c0.046,0.668,0.113,1.33,0.204,1.984h3.489c3.943,0,7.783-1.081,11.104-3.125C16.866,28.648,19.33,28,22,28
		s5.134,0.648,7.125,1.875C32.446,31.919,36.286,33,40.23,33h17.488c0.09-0.655,0.158-1.317,0.204-1.984
		C57.896,31.013,57.873,31,57.846,31z"/>
	<path style="fill:#AF8066;" d="M40.23,39c-3.944,0-7.784,1.081-11.105,3.125C27.134,43.352,24.67,44,22,44
		s-5.134-0.648-7.125-1.875C11.554,40.081,7.714,39,3.771,39H2.165c-0.13,0-0.251,0.029-0.365,0.074
		C2.043,39.728,2.313,40.369,2.601,41h1.17c3.573,0,7.051,0.978,10.056,2.828C16.134,45.249,18.96,46,22,46s5.866-0.751,8.174-2.172
		C33.179,41.978,36.657,41,40.23,41h15.169c0.287-0.631,0.558-1.272,0.801-1.926C56.086,39.029,55.964,39,55.835,39H40.23z"/>
	<path style="fill:#AF8066;" d="M45.146,52H34c-0.553,0-1,0.448-1,1s0.447,1,1,1h9.692c0.791-0.466,1.557-0.968,2.297-1.504
		C45.815,52.205,45.51,52,45.146,52z"/>
	<path style="fill:#AF8066;" d="M38,26c0,0.552,0.447,1,1,1h18.846c0.027,0,0.05-0.013,0.077-0.016
		c-0.046-0.668-0.113-1.33-0.204-1.984H39C38.447,25,38,25.447,38,26z"/>
	<path style="fill:#AF8066;" d="M26,20.053c0,0.552,0.447,1,1,1h29.592c0.099,0,0.19-0.03,0.28-0.057
		c-0.188-0.657-0.391-1.307-0.624-1.943H27C26.447,19.053,26,19.5,26,20.053z"/>
	<path style="fill:#AF8066;" d="M14,25.06c0.553,0,1-0.448,1-1s-0.447-1-1-1H0.611c-0.135,0.649-0.243,1.307-0.334,1.971
		c0.049,0.007,0.092,0.029,0.143,0.029H14z"/>
	<path style="fill:#AF8066;" d="M47,14.06c0,0.552,0.447,1,1,1h5.858c0.182,0,0.343-0.062,0.49-0.146
		c-0.352-0.633-0.728-1.251-1.126-1.854H48C47.447,13.06,47,13.507,47,14.06z"/>
	<path style="fill:#AF8066;" d="M10,15.06c0.553,0,1-0.448,1-1s-0.447-1-1-1H4.777c-0.397,0.603-0.773,1.221-1.126,1.854
		c0.147,0.085,0.308,0.146,0.49,0.146H10z"/>
	<path style="fill:#AF8066;" d="M7.858,20c0.553,0,1-0.448,1-1s-0.447-1-1-1H2.165c-0.247,0.602-0.472,1.216-0.679,1.837
		C1.638,19.931,1.808,20,2,20H7.858z"/>
	<path style="fill:#AF8066;" d="M17.062,9.971c0.553,0,1-0.448,1-1s-0.447-1-1-1h-8.02C8.458,8.525,7.895,9.102,7.359,9.703
		c0.178,0.163,0.41,0.268,0.67,0.268H17.062z"/>
	<path style="fill:#FBD490;" d="M41.393,10h-2.245c-0.057,0-0.074-0.082-0.02-0.1c0.896-0.296,1.512-1.209,1.345-2.236
		C40.313,6.681,39.389,6,38.393,6H33.5c-1.088,0-1.973,0.869-1.999,1.951C31.5,7.978,31.479,8,31.452,8h-2.845
		c-0.996,0-1.92,0.681-2.08,1.664c-0.167,1.027,0.449,1.94,1.345,2.236c0.054,0.018,0.037,0.1-0.02,0.1h-3.245
		c-0.996,0-1.92,0.681-2.08,1.664C22.323,14.917,23.285,16,24.5,16h10c1.088,0,1.973-0.869,1.999-1.951
		C36.5,14.022,36.521,14,36.548,14H41.5c1.215,0,2.177-1.083,1.973-2.336C43.313,10.681,42.389,10,41.393,10z"/>
	<path style="fill:#FBD490;" d="M22,41c-4.337,0-8-2.29-8-5s3.663-5,8-5s8,2.29,8,5S26.337,41,22,41z"/>
	<circle style="fill:#F3D55B;" cx="4" cy="4" r="1"/>
	<circle style="fill:#F3D55B;" cx="18" cy="19" r="1"/>
	<circle style="fill:#F3D55B;" cx="21" cy="23" r="1"/>
	<circle style="fill:#F3D55B;" cx="40" cy="36" r="1"/>
	<circle style="fill:#F3D55B;" cx="7" cy="55" r="1"/>
	<circle style="fill:#F3D55B;" cx="2" cy="48" r="1"/>
	<circle style="fill:#F3D55B;" cx="13" cy="1" r="1"/>
	<circle style="fill:#F3D55B;" cx="47" cy="11" r="1"/>
	<circle style="fill:#F3D55B;" cx="55" cy="54" r="1"/>
</g>
<g>
</g>
<g>
</g>
<g>
</g>
<g>
</g>
<g>
</g>
<g>
</g>
<g>
</g>
<g>
</g>
<g>
</g>
<g>
</g>
<g>
</g>
<g>
</g>
<g>
</g>
<g>
</g>
<g>
</g>
</svg>
