<?xml version="1.0" encoding="iso-8859-1"?>
<!-- Generator: Adobe Illustrator 19.0.0, SVG Export Plug-In . SVG Version: 6.00 Build 0)  -->
<svg version="1.1" id="Capa_1" xmlns="http://www.w3.org/2000/svg" xmlns:xlink="http://www.w3.org/1999/xlink" x="0px" y="0px"
	 viewBox="0 0 59 59" style="enable-background:new 0 0 59 59;" xml:space="preserve">
<g>
	<g>
		<path style="fill:#556080;" d="M49.5,14c-0.553,0-1,0.447-1,1v3c0,0.553,0.447,1,1,1s1-0.447,1-1v-3
			C50.5,14.447,50.053,14,49.5,14z"/>
		<path style="fill:#556080;" d="M33.5,4c0-2.206-1.794-4-4-4s-4,1.794-4,4c0,1.859,1.279,3.411,3,3.858V12h-2v6h6v-6h-2V7.858
			C32.221,7.411,33.5,5.859,33.5,4z M27.5,4c0-1.103,0.897-2,2-2s2,0.897,2,2s-0.897,2-2,2S27.5,5.103,27.5,4z"/>
		<rect x="6.5" y="12" style="fill:#556080;" width="4" height="6"/>
	</g>
	<g>
		<path style="fill:#556080;" d="M56.5,57h-1.586l-9.706-9.706c-0.092-0.093-0.203-0.166-0.327-0.217C44.76,47.026,44.63,47,44.5,47
			h-5c-0.553,0-1,0.447-1,1s0.447,1,1,1h4.586l8,8H51.5c-0.553,0-1,0.447-1,1s0.447,1,1,1h5c0.553,0,1-0.447,1-1S57.053,57,56.5,57z
			"/>
		<path style="fill:#556080;" d="M31.5,57h-1v-7c0-0.553-0.447-1-1-1s-1,0.447-1,1v7h-1c-0.553,0-1,0.447-1,1s0.447,1,1,1h4
			c0.553,0,1-0.447,1-1S32.053,57,31.5,57z"/>
		<path style="fill:#556080;" d="M19.5,47h-5c-0.13,0-0.26,0.026-0.382,0.077c-0.123,0.051-0.234,0.125-0.326,0.217L4.086,57H2.5
			c-0.553,0-1,0.447-1,1s0.447,1,1,1h5c0.553,0,1-0.447,1-1s-0.447-1-1-1H6.914l8-8H19.5c0.553,0,1-0.447,1-1S20.053,47,19.5,47z"/>
	</g>
	<path style="fill:none;stroke:#ECF0F1;stroke-width:2;stroke-linecap:round;stroke-miterlimit:10;" d="M40.5,1
		c2.667,2.211,2.667,5.789,0,8"/>
	<path style="fill:none;stroke:#ECF0F1;stroke-width:2;stroke-linecap:round;stroke-miterlimit:10;" d="M46.5,1
		c2.667,2.211,2.667,5.789,0,8"/>
	<path style="fill:none;stroke:#ECF0F1;stroke-width:2;stroke-linecap:round;stroke-miterlimit:10;" d="M18.5,1
		c-2.667,2.211-2.667,5.789,0,8"/>
	<path style="fill:none;stroke:#ECF0F1;stroke-width:2;stroke-linecap:round;stroke-miterlimit:10;" d="M12.5,1
		c-2.667,2.211-2.667,5.789,0,8"/>
	<rect x="0.5" y="23" style="fill:#ECF0F1;" width="58" height="19"/>
	<rect x="4.5" y="18" style="fill:#CBB292;" width="50" height="5"/>
	<rect x="46.5" y="23" style="fill:#BDC3C7;" width="6" height="6"/>
	<rect x="0.5" y="23" style="fill:#BDC3C7;" width="6" height="4"/>
	<polygon style="fill:#BDC3C7;" points="29.5,33 0.5,33 0.5,31 27.5,31 27.5,23 29.5,23 	"/>
	<rect x="19.5" y="42" style="fill:#CBB292;" width="20" height="8"/>
	<circle style="fill:#ECF0F1;" cx="23.5" cy="47" r="1"/>
	<circle style="fill:#ECF0F1;" cx="27.5" cy="47" r="1"/>
	<circle style="fill:#ECF0F1;" cx="31.5" cy="47" r="1"/>
	<circle style="fill:#ECF0F1;" cx="35.5" cy="47" r="1"/>
	<circle style="fill:#BDC3C7;" cx="31.5" cy="29" r="1"/>
	<circle style="fill:#BDC3C7;" cx="31.5" cy="26" r="1"/>
	<circle style="fill:#BDC3C7;" cx="31.5" cy="32" r="1"/>
	<circle style="fill:#BDC3C7;" cx="34.5" cy="26" r="1"/>
	<circle style="fill:#BDC3C7;" cx="37.5" cy="26" r="1"/>
	<circle style="fill:#BDC3C7;" cx="40.5" cy="26" r="1"/>
	<circle style="fill:#BDC3C7;" cx="43.5" cy="26" r="1"/>
</g>
<g>
</g>
<g>
</g>
<g>
</g>
<g>
</g>
<g>
</g>
<g>
</g>
<g>
</g>
<g>
</g>
<g>
</g>
<g>
</g>
<g>
</g>
<g>
</g>
<g>
</g>
<g>
</g>
<g>
</g>
</svg>
