<?xml version="1.0" encoding="iso-8859-1"?>
<!-- Generator: Adobe Illustrator 19.0.0, SVG Export Plug-In . SVG Version: 6.00 Build 0)  -->
<svg version="1.1" id="Capa_1" xmlns="http://www.w3.org/2000/svg" xmlns:xlink="http://www.w3.org/1999/xlink" x="0px" y="0px"
	 viewBox="0 0 58 58" style="enable-background:new 0 0 58 58;" xml:space="preserve">
<g>
	<path style="fill:#C68630;" d="M41.618,29c0-0.552,0.448-1,1-1h15.357c-0.108-3.181-0.722-6.233-1.775-9.074
		C56.086,18.971,55.964,19,55.835,19H31.263c-0.552,0-1-0.448-1-1s0.448-1,1-1h24.136c-0.719-1.58-1.574-3.085-2.554-4.498
		C52.671,12.794,52.365,13,52,13H42c-0.552,0-1-0.448-1-1s0.448-1,1-1h9.729C46.417,4.301,38.213,0,29,0
		C17.265,0,7.166,6.974,2.601,17h22.06c0.552,0,1,0.448,1,1s-0.448,1-1,1H2.166c-0.13,0-0.252-0.029-0.365-0.074
		C0.748,21.767,0.133,24.819,0.025,28h8.712c0.552,0,1,0.448,1,1s-0.448,1-1,1H0.025c0.121,3.563,0.88,6.962,2.174,10.087
		C2.323,40.032,2.457,40,2.601,40h20.342c0.552,0,1,0.448,1,1s-0.448,1-1,1H3.079c1.825,3.632,4.385,6.831,7.493,9.392
		C10.754,51.159,11.026,51,11.345,51h21.461c0.552,0,1,0.448,1,1s-0.448,1-1,1H12.719c4.642,3.155,10.245,5,16.281,5
		s11.639-1.845,16.281-5h-6.077c-0.552,0-1-0.448-1-1s0.448-1,1-1h7.452c0.319,0,0.591,0.159,0.774,0.392
		c3.108-2.561,5.667-5.76,7.492-9.392H29.174c-0.552,0-1-0.448-1-1s0.448-1,1-1h26.225c0.143,0,0.278,0.032,0.401,0.086
		c1.294-3.124,2.053-6.524,2.174-10.086H42.618C42.065,30,41.618,29.552,41.618,29z"/>
	<circle style="fill:#DC9628;" cx="23.5" cy="25.5" r="20.5"/>
	<circle style="fill:#EEAF4B;" cx="21" cy="24" r="12"/>
	<path style="fill:#FAC176;" d="M29.174,40c-0.552,0-1,0.448-1,1s0.448,1,1,1h25.747c0.315-0.626,0.61-1.263,0.879-1.914
		C55.677,40.032,55.543,40,55.399,40H29.174z"/>
	<path style="fill:#F18D46;" d="M23.943,41c0-0.552-0.448-1-1-1H2.601c-0.143,0-0.278,0.032-0.401,0.087
		C2.469,40.737,2.764,41.374,3.079,42h19.864C23.495,42,23.943,41.552,23.943,41z"/>
	<path style="fill:#F3D55B;" d="M9.737,29c0-0.552-0.448-1-1-1H0.025C0.014,28.333,0,28.665,0,29s0.014,0.667,0.025,1h8.712
		C9.29,30,9.737,29.552,9.737,29z"/>
	<path style="fill:#F09372;" d="M41,12c0,0.552,0.448,1,1,1h10c0.365,0,0.671-0.206,0.845-0.498
		c-0.356-0.513-0.729-1.013-1.117-1.502H42C41.448,11,41,11.448,41,12z"/>
	<path style="fill:#F29C1F;" d="M57.975,28H42.618c-0.552,0-1,0.448-1,1s0.448,1,1,1h15.357C57.986,29.667,58,29.335,58,29
		S57.986,28.333,57.975,28z"/>
	<path style="fill:#FAC176;" d="M33.806,52c0-0.552-0.448-1-1-1H11.345c-0.319,0-0.591,0.159-0.774,0.392
		c0.69,0.568,1.407,1.104,2.148,1.608h20.087C33.358,53,33.806,52.552,33.806,52z"/>
	<path style="fill:#F18D46;" d="M46.655,51h-7.452c-0.552,0-1,0.448-1,1s0.448,1,1,1h6.077c0.741-0.504,1.459-1.04,2.148-1.608
		C47.246,51.159,46.975,51,46.655,51z"/>
	<path style="fill:#FAC176;" d="M30.263,18c0,0.552,0.448,1,1,1h24.572c0.129,0,0.251-0.029,0.365-0.074
		c-0.243-0.655-0.513-1.295-0.801-1.926H31.263C30.71,17,30.263,17.448,30.263,18z"/>
	<path style="fill:#F3D55B;" d="M24.661,19c0.552,0,1-0.448,1-1s-0.448-1-1-1H2.601c-0.287,0.631-0.558,1.272-0.801,1.926
		C1.914,18.971,2.036,19,2.166,19H24.661z"/>
	<g>
		<circle style="fill:#F3D55B;" cx="4" cy="4" r="1"/>
		<circle style="fill:#F3D55B;" cx="7" cy="55" r="1"/>
		<circle style="fill:#F3D55B;" cx="2" cy="48" r="1"/>
		<circle style="fill:#F3D55B;" cx="13" cy="1" r="1"/>
		<circle style="fill:#F3D55B;" cx="53" cy="4" r="1"/>
	</g>
	<path style="fill:#F3D55B;" d="M35.625,28H15.349c-0.552,0-1,0.448-1,1s0.448,1,1,1h20.277c0.552,0,1-0.448,1-1
		S36.178,28,35.625,28z"/>
	<path style="fill:#F0C419;" d="M42,34H21.723c-0.552,0-1,0.448-1,1s0.448,1,1,1H42c0.552,0,1-0.448,1-1S42.552,34,42,34z"/>
	<path style="fill:#FAC176;" d="M36.277,47H16c-0.552,0-1-0.448-1-1s0.448-1,1-1h20.277c0.552,0,1,0.448,1,1S36.829,47,36.277,47z"
		/>
	<path style="fill:#F3D55B;" d="M34,24H24c-0.552,0-1-0.448-1-1s0.448-1,1-1h10c0.552,0,1,0.448,1,1S34.552,24,34,24z"/>
	<path style="fill:#F0C419;" d="M15,22H5c-0.552,0-1,0.448-1,1s0.448,1,1,1h10c0.552,0,1-0.448,1-1S15.552,22,15,22z"/>
	<path style="fill:#F3D55B;" d="M33,13H23c-0.552,0-1-0.448-1-1s0.448-1,1-1h10c0.552,0,1,0.448,1,1S33.552,13,33,13z"/>
	<path style="fill:#F3D55B;" d="M26.623,7H16.206c-0.552,0-1-0.448-1-1s0.448-1,1-1h10.417c0.552,0,1,0.448,1,1S27.175,7,26.623,7z"
		/>
	<path style="fill:#F3D55B;" d="M41.9,7h-8.333c-0.552,0-1-0.448-1-1s0.448-1,1-1H41.9c0.552,0,1,0.448,1,1S42.453,7,41.9,7z"/>
</g>
<g>
</g>
<g>
</g>
<g>
</g>
<g>
</g>
<g>
</g>
<g>
</g>
<g>
</g>
<g>
</g>
<g>
</g>
<g>
</g>
<g>
</g>
<g>
</g>
<g>
</g>
<g>
</g>
<g>
</g>
</svg>
