<?xml version="1.0" encoding="iso-8859-1"?>
<!-- Generator: Adobe Illustrator 19.0.0, SVG Export Plug-In . SVG Version: 6.00 Build 0)  -->
<svg version="1.1" id="Capa_1" xmlns="http://www.w3.org/2000/svg" xmlns:xlink="http://www.w3.org/1999/xlink" x="0px" y="0px"
	 viewBox="0 0 58.008 58.008" style="enable-background:new 0 0 58.008 58.008;" xml:space="preserve">
<g>
	<g>
		<path style="fill:#5E5F62;" d="M57.236,22.477l-13.888,3.721l-0.518-1.932l13.904-3.726c-0.919-3.018-2.285-5.786-4.016-8.241
			l-22.11,5.924l-0.518-1.932L51.4,10.583c-2.698-3.275-6.071-5.899-9.849-7.714L5.099,12.636c-2.37,3.462-3.982,7.419-4.684,11.608
			l4.181-1.12l0.518,1.932l-4.975,1.333c-0.273,2.993-0.078,6.072,0.635,9.147l35.812-9.596l0.518,1.932L1.295,37.467
			c0.388,1.265,0.835,2.497,1.374,3.67c2.763-0.451,4.167,2.917,2.768,4.771c0.164,0.229,0.346,0.441,0.516,0.664L21.2,42.486
			l0.518,1.932l-14.366,3.85c2.57,2.885,5.677,5.215,9.127,6.872l22.228-5.956l0.518,1.932l-19.706,5.28
			c5.294,1.841,11.172,2.183,16.995,0.623c5.829-1.562,10.762-4.795,14.429-9.043L44.504,49.7l-0.518-1.932l8.954-2.399
			c0.151-0.221,0.304-0.44,0.449-0.664c-0.843-1.531-0.499-3.773,1.69-4.36c0.228-0.061,0.447-0.095,0.657-0.108
			c0.726-1.724,1.266-3.529,1.65-5.376l-6.264,1.679l-0.518-1.932l7.148-1.915C58.182,29.367,58.033,25.921,57.236,22.477z"/>
		<path style="fill:#5E5F62;" d="M21.5,0.995c-1.862,0.499-3.631,1.172-5.299,1.991c0.06,1.234-0.561,2.477-2.106,2.892
			c-0.871,0.233-1.616,0.085-2.207-0.279c-1.778,1.301-3.386,2.793-4.806,4.436L38.52,1.61C33.22-0.235,27.33-0.567,21.5,0.995z"/>
	</g>
	<circle style="fill:#77797F;" cx="24.499" cy="27.499" r="20.5"/>
	<circle style="fill:#868C9B;" cx="20.499" cy="26.499" r="11.5"/>
	<circle style="fill:#F3D55B;" cx="2.011" cy="2.556" r="1"/>
	<circle style="fill:#F3D55B;" cx="10.011" cy="56.556" r="1"/>
	<circle style="fill:#F3D55B;" cx="55.011" cy="51.556" r="1"/>
	<circle style="fill:#F3D55B;" cx="2.011" cy="54.556" r="1"/>
	<circle style="fill:#F3D55B;" cx="6.304" cy="6.102" r="1"/>
	<circle style="fill:#F3D55B;" cx="52.011" cy="3.556" r="1"/>
	<g>
		<path style="fill:#7684A3;" d="M51.537,34.358c-0.005-0.058-0.002-0.118-0.01-0.176c-0.232-1.762-1.606-3.546-3.784-3.546
			c-0.357,0-0.725,0.05-1.093,0.149c-2.259,0.605-3.046,2.577-2.824,4.264c0.057,0.433,0.184,0.866,0.374,1.275l-16.121,4.32
			c-0.606-1.184-1.753-2.121-3.328-2.121c-0.357,0-0.725,0.05-1.093,0.149c-2.107,0.564-2.921,2.316-2.843,3.918L5.953,46.572
			c0.446,0.585,0.912,1.15,1.398,1.696l14.025-3.758c0.625,1.111,1.736,1.972,3.243,1.972c0.357,0,0.725-0.05,1.093-0.149
			c2.032-0.545,2.866-2.195,2.852-3.749l17.077-4.576c0.551,0.36,1.208,0.587,1.97,0.587c0.357,0,0.725-0.05,1.093-0.149
			c1.214-0.326,1.991-1.05,2.427-1.909l6.255-1.676c0.149-0.716,0.272-1.439,0.366-2.168L51.537,34.358z M25.194,44.401
			c-1.372,0.365-2.242-0.708-2.377-1.728c-0.051-0.387-0.103-1.679,1.359-2.071c0.199-0.053,0.393-0.081,0.575-0.081
			c1.074,0,1.687,0.937,1.802,1.808C26.604,42.716,26.656,44.009,25.194,44.401z M48.186,36.514
			c-1.371,0.367-2.242-0.708-2.377-1.728c-0.051-0.387-0.103-1.679,1.359-2.071c0.199-0.053,0.393-0.081,0.575-0.081
			c1.074,0,1.687,0.937,1.802,1.808C49.596,34.83,49.648,36.122,48.186,36.514z"/>
		<path style="fill:#7684A3;" d="M38.52,1.61L7.082,10.034c-0.715,0.827-1.367,1.702-1.983,2.602l36.452-9.768
			C40.566,2.395,39.556,1.971,38.52,1.61z"/>
		<path style="fill:#7684A3;" d="M8.041,27.112c0.356,0,0.724-0.05,1.092-0.148c2.032-0.545,2.866-2.195,2.852-3.749l11.728-3.143
			c0.583,1.256,1.767,2.272,3.41,2.272c0.357,0,0.725-0.05,1.093-0.149c2.182-0.584,2.981-2.443,2.834-4.089L52.719,12.3
			c-0.417-0.592-0.861-1.161-1.319-1.717l-20.986,5.623c-0.64-1.037-1.718-1.822-3.157-1.822c-0.357,0-0.725,0.05-1.093,0.149
			c-1.957,0.525-2.806,2.075-2.855,3.577l-11.807,3.164c-0.606-1.183-1.753-2.121-3.329-2.121c-0.356,0-0.724,0.05-1.092,0.148
			c-2.107,0.565-2.921,2.317-2.843,3.919l-3.823,1.024c-0.119,0.709-0.211,1.424-0.276,2.144l4.659-1.249
			C5.423,26.251,6.534,27.112,8.041,27.112z M26.681,16.465c0.199-0.053,0.393-0.081,0.575-0.081c1.074,0,1.687,0.938,1.802,1.808
			c0.051,0.387,0.103,1.679-1.359,2.071c-1.37,0.367-2.242-0.708-2.377-1.727C25.271,18.149,25.219,16.857,26.681,16.465z
			 M7.598,21.233c0.199-0.053,0.393-0.08,0.574-0.08c1.075,0,1.688,0.937,1.803,1.808c0.051,0.387,0.104,1.679-1.359,2.071
			c-1.379,0.368-2.242-0.71-2.377-1.728C6.188,22.917,6.135,21.625,7.598,21.233z"/>
		<path style="fill:#7684A3;" d="M44.957,47.332c-0.232-1.763-1.606-3.548-3.785-3.548c-0.357,0-0.725,0.05-1.093,0.149
			c-2.259,0.605-3.046,2.578-2.823,4.264c0.057,0.433,0.184,0.867,0.374,1.275L16.478,55.14c0.988,0.475,2.001,0.895,3.039,1.256
			l19.553-5.239c0.551,0.36,1.208,0.587,1.97,0.587c0.357,0,0.725-0.05,1.093-0.149c1.215-0.325,1.992-1.051,2.427-1.91l6.38-1.709
			c0.717-0.831,1.383-1.702,2-2.606l-7.974,2.136C44.962,47.448,44.965,47.389,44.957,47.332z M41.616,49.663
			c-1.371,0.365-2.242-0.709-2.377-1.728c-0.051-0.387-0.104-1.679,1.358-2.071c0.199-0.053,0.393-0.081,0.575-0.081
			c1.074,0,1.688,0.938,1.802,1.809C43.025,47.979,43.078,49.271,41.616,49.663z"/>
		<path style="fill:#7684A3;" d="M39.785,29.994c0.357,0,0.725-0.05,1.093-0.149c2.033-0.544,2.866-2.195,2.852-3.749l13.506-3.619
			c-0.075-0.326-0.131-0.651-0.218-0.977c-0.087-0.324-0.186-0.641-0.283-0.959l-13.489,3.614c-0.606-1.183-1.753-2.121-3.328-2.121
			c-0.357,0-0.725,0.05-1.093,0.149c-2.107,0.565-2.921,2.317-2.843,3.919L0.773,35.536c0.075,0.325,0.134,0.651,0.221,0.976
			c0.087,0.326,0.203,0.635,0.301,0.955l35.247-9.444C37.167,29.133,38.277,29.994,39.785,29.994z M39.342,24.115
			c0.199-0.053,0.393-0.081,0.575-0.081c1.074,0,1.687,0.938,1.802,1.808c0.051,0.387,0.103,1.679-1.359,2.071
			c-1.372,0.365-2.242-0.708-2.377-1.727C37.932,25.8,37.88,24.507,39.342,24.115z"/>
	</g>
</g>
<g>
</g>
<g>
</g>
<g>
</g>
<g>
</g>
<g>
</g>
<g>
</g>
<g>
</g>
<g>
</g>
<g>
</g>
<g>
</g>
<g>
</g>
<g>
</g>
<g>
</g>
<g>
</g>
<g>
</g>
</svg>
