<?xml version="1.0" encoding="iso-8859-1"?>
<!-- Generator: Adobe Illustrator 19.0.0, SVG Export Plug-In . SVG Version: 6.00 Build 0)  -->
<svg version="1.1" id="Capa_1" xmlns="http://www.w3.org/2000/svg" xmlns:xlink="http://www.w3.org/1999/xlink" x="0px" y="0px"
	 viewBox="0 0 59.009 59.009" style="enable-background:new 0 0 59.009 59.009;" xml:space="preserve">
<g>
	<path style="fill:#CBB292;" d="M29.836,56.138c0.11-0.235,11.847-9.531,7-18c-4.501-7.864-1.979-13.256-6.825-13.38
		c-3.207-0.082-6.4-0.474-9.565-0.999c-6.869-1.138-16.677-1.594-15.61,5.379c1.625,10.625-10.875,5-1,19
		C6.927,52.52,19.406,64.435,29.836,56.138z"/>
	<g>
		<path style="fill:#F0C419;" d="M38.13,20.884c-0.391-0.391-1.023-0.391-1.414,0l-1.414,1.414c-0.391,0.391-0.391,1.023,0,1.414
			c0.195,0.195,0.451,0.293,0.707,0.293s0.512-0.098,0.707-0.293l1.414-1.414C38.521,21.907,38.521,21.274,38.13,20.884z"/>
		<path style="fill:#F0C419;" d="M48.514,10.499c0.195,0.195,0.451,0.293,0.707,0.293s0.512-0.098,0.707-0.293l2.95-2.949
			c0.391-0.391,0.391-1.023,0-1.414s-1.023-0.391-1.414,0l-2.95,2.949C48.123,9.475,48.123,10.108,48.514,10.499z"/>
		<path style="fill:#F0C419;" d="M44.09,13.509l-2.95,2.949c-0.391,0.391-0.391,1.023,0,1.414c0.195,0.195,0.451,0.293,0.707,0.293
			s0.512-0.098,0.707-0.293l2.95-2.949c0.391-0.391,0.391-1.023,0-1.414S44.481,13.119,44.09,13.509z"/>
		<path style="fill:#F0C419;" d="M58.716,0.298c-0.391-0.391-1.023-0.391-1.414,0l-1.414,1.414c-0.391,0.391-0.391,1.023,0,1.414
			c0.195,0.195,0.451,0.293,0.707,0.293s0.512-0.098,0.707-0.293l1.414-1.414C59.107,1.321,59.107,0.688,58.716,0.298z"/>
		<path style="fill:#F0C419;" d="M40.13,25.884c-0.391-0.391-1.023-0.391-1.414,0l-1.414,1.414c-0.391,0.391-0.391,1.023,0,1.414
			c0.195,0.195,0.451,0.293,0.707,0.293s0.512-0.098,0.707-0.293l1.414-1.414C40.521,26.907,40.521,26.274,40.13,25.884z"/>
		<path style="fill:#F0C419;" d="M44.936,19.663l-2.488,2.488c-0.391,0.391-0.391,1.023,0,1.414
			c0.195,0.195,0.451,0.293,0.707,0.293s0.512-0.098,0.707-0.293l2.488-2.488c0.391-0.391,0.391-1.023,0-1.414
			S45.327,19.272,44.936,19.663z"/>
		<path style="fill:#F0C419;" d="M52.57,14.857c0.391-0.391,0.391-1.023,0-1.414s-1.023-0.391-1.414,0l-2.488,2.488
			c-0.391,0.391-0.391,1.023,0,1.414c0.195,0.195,0.451,0.293,0.707,0.293s0.512-0.098,0.707-0.293L52.57,14.857z"/>
		<path style="fill:#F0C419;" d="M56.302,8.298l-1.414,1.414c-0.391,0.391-0.391,1.023,0,1.414c0.195,0.195,0.451,0.293,0.707,0.293
			s0.512-0.098,0.707-0.293l1.414-1.414c0.391-0.391,0.391-1.023,0-1.414C57.326,7.907,56.693,7.907,56.302,8.298z"/>
		<path style="fill:#F0C419;" d="M30.716,18.884l-1.414,1.414c-0.391,0.391-0.391,1.023,0,1.414
			c0.195,0.195,0.451,0.293,0.707,0.293s0.512-0.098,0.707-0.293l1.414-1.414c0.391-0.391,0.391-1.023,0-1.414
			C31.74,18.493,31.107,18.493,30.716,18.884z"/>
		<path style="fill:#F0C419;" d="M40.668,10.345c0.195,0.195,0.451,0.293,0.707,0.293s0.512-0.098,0.707-0.293l2.488-2.488
			c0.391-0.391,0.391-1.023,0-1.414s-1.023-0.391-1.414,0l-2.488,2.488C40.278,9.322,40.278,9.955,40.668,10.345z"/>
		<path style="fill:#F0C419;" d="M35.862,16.565l2.488-2.488c0.391-0.391,0.391-1.023,0-1.414s-1.023-0.391-1.414,0l-2.488,2.488
			c-0.391,0.391-0.391,1.023,0,1.414c0.195,0.195,0.451,0.293,0.707,0.293S35.667,16.76,35.862,16.565z"/>
		<path style="fill:#F0C419;" d="M47.595,4.419c0.256,0,0.512-0.098,0.707-0.293l1.414-1.414c0.391-0.391,0.391-1.023,0-1.414
			s-1.023-0.391-1.414,0l-1.414,1.414c-0.391,0.391-0.391,1.023,0,1.414C47.083,4.321,47.339,4.419,47.595,4.419z"/>
		<path style="fill:#F0C419;" d="M25.716,16.884l-1.414,1.414c-0.391,0.391-0.391,1.023,0,1.414
			c0.195,0.195,0.451,0.293,0.707,0.293s0.512-0.098,0.707-0.293l1.414-1.414c0.391-0.391,0.391-1.023,0-1.414
			S26.107,16.493,25.716,16.884z"/>
		<path style="fill:#F0C419;" d="M30.281,13.733c0.195,0.195,0.451,0.293,0.707,0.293s0.512-0.098,0.707-0.293l3.043-3.043
			c0.391-0.391,0.391-1.023,0-1.414s-1.023-0.391-1.414,0l-3.043,3.043C29.89,12.71,29.89,13.342,30.281,13.733z"/>
		<path style="fill:#F0C419;" d="M38.595,6.419c0.256,0,0.512-0.098,0.707-0.293l1.414-1.414c0.391-0.391,0.391-1.023,0-1.414
			s-1.023-0.391-1.414,0l-1.414,1.414c-0.391,0.391-0.391,1.023,0,1.414C38.083,6.321,38.339,6.419,38.595,6.419z"/>
		<path style="fill:#F0C419;" d="M40.716,34.712l1.414-1.414c0.391-0.391,0.391-1.023,0-1.414s-1.023-0.391-1.414,0l-1.414,1.414
			c-0.391,0.391-0.391,1.023,0,1.414c0.195,0.195,0.451,0.293,0.707,0.293S40.521,34.907,40.716,34.712z"/>
		<path style="fill:#F0C419;" d="M48.324,24.276l-3.043,3.043c-0.391,0.391-0.391,1.023,0,1.414
			c0.195,0.195,0.451,0.293,0.707,0.293s0.512-0.098,0.707-0.293l3.043-3.043c0.391-0.391,0.391-1.023,0-1.414
			S48.714,23.885,48.324,24.276z"/>
		<path style="fill:#F0C419;" d="M54.302,18.298l-1.414,1.414c-0.391,0.391-0.391,1.023,0,1.414
			c0.195,0.195,0.451,0.293,0.707,0.293s0.512-0.098,0.707-0.293l1.414-1.414c0.391-0.391,0.391-1.023,0-1.414
			S54.693,17.907,54.302,18.298z"/>
		<path style="fill:#F0C419;" d="M12.716,15.884l-1.414,1.414c-0.391,0.391-0.391,1.023,0,1.414
			c0.195,0.195,0.451,0.293,0.707,0.293s0.512-0.098,0.707-0.293l1.414-1.414c0.391-0.391,0.391-1.023,0-1.414
			C13.74,15.493,13.107,15.493,12.716,15.884z"/>
		<path style="fill:#F0C419;" d="M19.238,10.776c-0.391-0.391-1.023-0.391-1.414,0l-2.043,2.043c-0.391,0.391-0.391,1.023,0,1.414
			c0.195,0.195,0.451,0.293,0.707,0.293s0.512-0.098,0.707-0.293l2.043-2.043C19.628,11.8,19.628,11.167,19.238,10.776z"/>
		<path style="fill:#F0C419;" d="M23.716,6.298c-0.391-0.391-1.023-0.391-1.414,0l-1.414,1.414c-0.391,0.391-0.391,1.023,0,1.414
			c0.195,0.195,0.451,0.293,0.707,0.293s0.512-0.098,0.707-0.293l1.414-1.414C24.107,7.321,24.107,6.688,23.716,6.298z"/>
		<path style="fill:#F0C419;" d="M41.716,45.884l-1.414,1.414c-0.391,0.391-0.391,1.023,0,1.414
			c0.195,0.195,0.451,0.293,0.707,0.293s0.512-0.098,0.707-0.293l1.414-1.414c0.391-0.391,0.391-1.023,0-1.414
			S42.107,45.493,41.716,45.884z"/>
		<path style="fill:#F0C419;" d="M46.824,40.776l-2.043,2.043c-0.391,0.391-0.391,1.023,0,1.414
			c0.195,0.195,0.451,0.293,0.707,0.293s0.512-0.098,0.707-0.293l2.043-2.043c0.391-0.391,0.391-1.023,0-1.414
			S47.214,40.385,46.824,40.776z"/>
		<path style="fill:#F0C419;" d="M51.302,36.298l-1.414,1.414c-0.391,0.391-0.391,1.023,0,1.414
			c0.195,0.195,0.451,0.293,0.707,0.293s0.512-0.098,0.707-0.293l1.414-1.414c0.391-0.391,0.391-1.023,0-1.414
			S51.693,35.907,51.302,36.298z"/>
		<path style="fill:#F0C419;" d="M42.716,37.884l-1.414,1.414c-0.391,0.391-0.391,1.023,0,1.414
			c0.195,0.195,0.451,0.293,0.707,0.293s0.512-0.098,0.707-0.293l1.414-1.414c0.391-0.391,0.391-1.023,0-1.414
			S43.107,37.493,42.716,37.884z"/>
		<path style="fill:#F0C419;" d="M47.824,32.776l-2.043,2.043c-0.391,0.391-0.391,1.023,0,1.414
			c0.195,0.195,0.451,0.293,0.707,0.293s0.512-0.098,0.707-0.293l2.043-2.043c0.391-0.391,0.391-1.023,0-1.414
			S48.214,32.385,47.824,32.776z"/>
		<path style="fill:#F0C419;" d="M52.302,28.298l-1.414,1.414c-0.391,0.391-0.391,1.023,0,1.414
			c0.195,0.195,0.451,0.293,0.707,0.293s0.512-0.098,0.707-0.293l1.414-1.414c0.391-0.391,0.391-1.023,0-1.414
			S52.693,27.907,52.302,28.298z"/>
		<path style="fill:#F0C419;" d="M19.716,15.884l-1.414,1.414c-0.391,0.391-0.391,1.023,0,1.414
			c0.195,0.195,0.451,0.293,0.707,0.293s0.512-0.098,0.707-0.293l1.414-1.414c0.391-0.391,0.391-1.023,0-1.414
			C20.74,15.493,20.107,15.493,19.716,15.884z"/>
		<path style="fill:#F0C419;" d="M26.238,12.19c0.391-0.391,0.391-1.023,0-1.414s-1.023-0.391-1.414,0l-2.043,2.043
			c-0.391,0.391-0.391,1.023,0,1.414c0.195,0.195,0.451,0.293,0.707,0.293s0.512-0.098,0.707-0.293L26.238,12.19z"/>
		<path style="fill:#F0C419;" d="M30.716,7.712c0.391-0.391,0.391-1.023,0-1.414s-1.023-0.391-1.414,0l-1.414,1.414
			c-0.391,0.391-0.391,1.023,0,1.414c0.195,0.195,0.451,0.293,0.707,0.293s0.512-0.098,0.707-0.293L30.716,7.712z"/>
	</g>
	<g>
		<path style="fill:#7F6E5D;" d="M15.95,43.218c-0.391-0.391-1.023-0.391-1.414,0c-1.134,1.133-3.109,1.133-4.243,0
			c-0.566-0.566-0.878-1.319-0.878-2.121s0.312-1.555,0.878-2.121c0.391-0.391,0.391-1.023,0-1.414s-1.023-0.391-1.414,0
			c-0.944,0.944-1.464,2.199-1.464,3.535s0.52,2.591,1.464,3.535s2.2,1.465,3.536,1.465c1.335,0,2.591-0.521,3.535-1.465
			C16.34,44.242,16.34,43.609,15.95,43.218z"/>
		<path style="fill:#7F6E5D;" d="M15,33.097c2.757,0,5-2.243,5-5c0-0.553-0.448-1-1-1s-1,0.447-1,1c0,1.654-1.346,3-3,3
			s-3-1.346-3-3c0-0.553-0.448-1-1-1s-1,0.447-1,1C10,30.854,12.243,33.097,15,33.097z"/>
		<path style="fill:#7F6E5D;" d="M24,37.924c1.281,0,2.561-0.487,3.536-1.462c1.949-1.949,1.949-5.122,0-7.071
			c-0.391-0.391-1.023-0.391-1.414,0s-0.391,1.023,0,1.414c1.169,1.17,1.169,3.073,0,4.243c-1.171,1.17-3.074,1.169-4.243,0
			c-0.391-0.391-1.023-0.391-1.414,0s-0.391,1.023,0,1.414C21.439,37.436,22.72,37.924,24,37.924z"/>
		<path style="fill:#7F6E5D;" d="M21,48.097c-2.757,0-5,2.243-5,5c0,0.553,0.448,1,1,1s1-0.447,1-1c0-1.654,1.346-3,3-3s3,1.346,3,3
			c0,0.553,0.448,1,1,1s1-0.447,1-1C26,50.341,23.757,48.097,21,48.097z"/>
		<path style="fill:#7F6E5D;" d="M31,47.097c-1.654,0-3-1.346-3-3s1.346-3,3-3c0.552,0,1-0.447,1-1s-0.448-1-1-1
			c-2.757,0-5,2.243-5,5s2.243,5,5,5c0.552,0,1-0.447,1-1S31.552,47.097,31,47.097z"/>
	</g>
</g>
<g>
</g>
<g>
</g>
<g>
</g>
<g>
</g>
<g>
</g>
<g>
</g>
<g>
</g>
<g>
</g>
<g>
</g>
<g>
</g>
<g>
</g>
<g>
</g>
<g>
</g>
<g>
</g>
<g>
</g>
</svg>
