<?xml version="1.0" encoding="iso-8859-1"?>
<!-- Generator: Adobe Illustrator 19.0.0, SVG Export Plug-In . SVG Version: 6.00 Build 0)  -->
<svg version="1.1" id="Capa_1" xmlns="http://www.w3.org/2000/svg" xmlns:xlink="http://www.w3.org/1999/xlink" x="0px" y="0px"
	 viewBox="0 0 58.3 58.3" style="enable-background:new 0 0 58.3 58.3;" xml:space="preserve">
<g>
	<circle style="fill:#61537C;" cx="28" cy="28.15" r="25"/>
	<circle style="fill:#7D6599;" cx="27.5" cy="27.65" r="18.5"/>
	<circle style="fill:#936AAD;" cx="27" cy="27.15" r="9"/>
	<circle style="fill:#F09372;" cx="27.5" cy="28.65" r="4.5"/>
	<circle style="fill:#F29C1F;" cx="54" cy="7.15" r="1"/>
	<circle style="fill:#F29C1F;" cx="57" cy="32.15" r="1"/>
	<circle style="fill:#38454F;" cx="48" cy="29.15" r="1"/>
	<circle style="fill:#38454F;" cx="38" cy="44.15" r="1"/>
	<circle style="fill:#84B5CB;" cx="37.687" cy="34.65" r="1"/>
	<circle style="fill:#F3D55B;" cx="24" cy="36.65" r="1"/>
	<circle style="fill:#38454F;" cx="27.5" cy="28.65" r="1"/>
	<circle style="fill:#84B5CB;" cx="32" cy="21.582" r="1"/>
	<circle style="fill:#38454F;" cx="25" cy="20.15" r="1"/>
	<circle style="fill:#84B5CB;" cx="16" cy="28.15" r="1"/>
	<circle style="fill:#F29C1F;" cx="49" cy="55.15" r="1"/>
	<circle style="fill:#F3D55B;" cx="57" cy="52.15" r="1"/>
	<circle style="fill:#F29C1F;" cx="56" cy="56.15" r="1"/>
	<circle style="fill:#F3D55B;" cx="15" cy="56.15" r="1"/>
	<circle style="fill:#FF5364;" cx="11" cy="52.15" r="1"/>
	<circle style="fill:#F3D55B;" cx="2" cy="43.15" r="1"/>
	<circle style="fill:#F3D55B;" cx="2" cy="28.15" r="1"/>
	<circle style="fill:#38454F;" cx="1" cy="36.15" r="1"/>
	<circle style="fill:#F29C1F;" cx="1" cy="5.15" r="1"/>
	<circle style="fill:#F3D55B;" cx="15" cy="7.15" r="1"/>
	<circle style="fill:#F3D55B;" cx="26" cy="12.15" r="1"/>
	<circle style="fill:#0096E6;" cx="12" cy="19.15" r="1"/>
	<circle style="fill:#F3D55B;" cx="10" cy="40.15" r="1"/>
	<circle style="fill:#F3D55B;" cx="27" cy="52.15" r="1"/>
	<circle style="fill:#F3D55B;" cx="50" cy="43.15" r="1"/>
	<circle style="fill:#F29C1F;" cx="47" cy="3.15" r="1"/>
	<circle style="fill:#F3D55B;" cx="35" cy="7.15" r="1"/>
	<circle style="fill:#FF5364;" cx="56" cy="15.15" r="2"/>
	<circle style="fill:#F29C1F;" cx="4" cy="18.15" r="2"/>
	<circle style="fill:#14A085;" cx="4" cy="51.15" r="2"/>
	<path style="fill:none;stroke:#955BA5;stroke-width:2;stroke-linecap:round;stroke-miterlimit:10;" d="M26.891,24.15
		c-4.975,0-9,4.025-9,9s5.025,9,10,9c8.492,0.279,15.257-3.953,16.923-12.285c1.96-9.802-4.397-19.337-14.199-21.298
		C19.083,6.261,7.865,13.74,5.559,25.272C2.846,38.839,11.644,52.036,25.211,54.75c13.284,2.657,26.267-4.068,32.089-15.6"/>
	<path style="fill:none;stroke:#8697CB;stroke-width:2;stroke-linecap:round;stroke-miterlimit:10;" d="M28,33.15
		c6.062,0.333,10.068-3.848,10.068-8.822s-4.025-9-9-9c-8.492-0.279-16.257,3.953-17.923,12.285
		c-1.96,9.802,4.397,19.337,14.199,21.298c11.532,2.306,22.75-5.172,25.056-16.704c2.713-13.567-6.085-26.765-19.652-29.478
		C19.603,0.499,8.67,4.873,2,13.149"/>
</g>
<g>
</g>
<g>
</g>
<g>
</g>
<g>
</g>
<g>
</g>
<g>
</g>
<g>
</g>
<g>
</g>
<g>
</g>
<g>
</g>
<g>
</g>
<g>
</g>
<g>
</g>
<g>
</g>
<g>
</g>
</svg>
