<?xml version="1.0" encoding="iso-8859-1"?>
<!-- Generator: Adobe Illustrator 19.0.0, SVG Export Plug-In . SVG Version: 6.00 Build 0)  -->
<svg version="1.1" id="Capa_1" xmlns="http://www.w3.org/2000/svg" xmlns:xlink="http://www.w3.org/1999/xlink" x="0px" y="0px"
	 viewBox="0 0 59 59" style="enable-background:new 0 0 59 59;" xml:space="preserve">
<g>
	<path style="fill:#D1D4D1;" d="M43.857,7.985C43.685,8.287,43.373,8.5,43,8.5c-2.757,0-5,2.243-5,5c0,0.552-0.448,1-1,1
		s-1-0.448-1-1c0-3.528,2.626-6.447,6.025-6.924C38.573,4.188,34.446,2.718,30,2.526v4.8c0,0.552-0.448,1-1,1s-1-0.448-1-1v-4.8
		c-4.446,0.193-8.573,1.663-12.025,4.051C19.374,7.053,22,9.972,22,13.5c0,0.552-0.448,1-1,1s-1-0.448-1-1c0-2.757-2.243-5-5-5
		c-0.373,0-0.685-0.213-0.857-0.515C9.171,12.212,6,18.502,6,25.5v16.936c5.594,5.536,14.044,9.064,23.5,9.064
		c8.909,0,16.924-3.132,22.5-8.125V25.5C52,18.502,48.829,12.212,43.857,7.985z"/>
	<path style="fill:#ECF0F1;" d="M36,13.5c0,0.552,0.448,1,1,1s1-0.448,1-1c0-2.757,2.243-5,5-5c0.373,0,0.685-0.213,0.857-0.515
		c-0.587-0.499-1.198-0.97-1.832-1.409C38.626,7.053,36,9.972,36,13.5z"/>
	<path style="fill:#ECF0F1;" d="M15,8.5c2.757,0,5,2.243,5,5c0,0.552,0.448,1,1,1s1-0.448,1-1c0-3.528-2.626-6.447-6.025-6.924
		c-0.635,0.439-1.246,0.91-1.832,1.409C14.315,8.287,14.627,8.5,15,8.5z"/>
	<path style="fill:#ECF0F1;" d="M29,8.326c0.552,0,1-0.448,1-1v-4.8C29.668,2.511,29.335,2.5,29,2.5s-0.668,0.011-1,0.026v4.8
		C28,7.878,28.448,8.326,29,8.326z"/>
	<path style="fill:#E6E7E8;" d="M29.5,51.5c-8.318,0-15.855-2.731-21.357-7.157v6.628c4.969,4.917,12.474,6.529,20.873,6.529
		c7.913,0,15.032-1.26,19.984-5.695v-6.093C43.713,49.323,36.919,51.5,29.5,51.5z"/>
	<path style="fill:#ECF0F1;" d="M3.658,23.529C2.675,23.694,2,24.624,2,25.622l0,2.489C2,28.326,1.826,28.5,1.611,28.5h0
		C0.721,28.5,0,29.221,0,30.111v3.168C0,33.953,0.547,34.5,1.221,34.5h0.389C1.826,34.5,2,34.674,2,34.889l0,2.489
		c0,0.997,0.675,1.927,1.658,2.093C4.907,39.681,6,38.712,6,37.5v-12C6,24.288,4.907,23.319,3.658,23.529z"/>
	<path style="fill:#A5A5A4;" d="M3,32.5c-0.26,0-0.52-0.11-0.71-0.29C2.11,32.02,2,31.76,2,31.5c0-0.26,0.11-0.52,0.29-0.71
		c0.38-0.37,1.05-0.37,1.42,0C3.89,30.98,4,31.24,4,31.5c0,0.26-0.11,0.52-0.29,0.71C3.52,32.39,3.26,32.5,3,32.5z"/>
	<path style="fill:#ECF0F1;" d="M54.342,39.471C55.325,39.306,56,38.376,56,37.378v-2.111c0-0.424,0.343-0.767,0.767-0.767h0.012
		c0.674,0,1.221-0.547,1.221-1.221v-3.558c0-0.674-0.547-1.221-1.221-1.221h-0.012C56.343,28.5,56,28.157,56,27.733v-2.111
		c0-0.997-0.675-1.927-1.658-2.093C53.093,23.319,52,24.288,52,25.5v12C52,38.712,53.093,39.681,54.342,39.471z"/>
	<path style="fill:#A5A5A4;" d="M55,32.5c-0.26,0-0.52-0.11-0.71-0.29C54.11,32.02,54,31.77,54,31.5s0.11-0.52,0.29-0.71
		c0.37-0.37,1.05-0.37,1.42,0C55.89,30.98,56,31.24,56,31.5c0,0.26-0.11,0.52-0.29,0.71C55.52,32.39,55.26,32.5,55,32.5z"/>
	<path style="fill:#F3D55B;" d="M58,6.5h-1.586L54,4.086V2.5c0-0.552-0.448-1-1-1s-1,0.448-1,1v1.586L49.586,6.5H48
		c-0.552,0-1,0.448-1,1s0.448,1,1,1h1.586L52,10.914V12.5c0,0.552,0.448,1,1,1s1-0.448,1-1v-1.586L56.414,8.5H58
		c0.552,0,1-0.448,1-1S58.552,6.5,58,6.5z"/>
	<path style="fill:#ECF0F1;" d="M29,9.5c-12.65,0-23,8.92-23,18.378v12.663c5.594,4.14,14.044,7.959,23.5,7.959
		c8.909,0,16.924-3.524,22.5-7.256V27.878C52,18.42,41.65,9.5,29,9.5z"/>
	<path style="fill:#38454F;" d="M29,12.5c-12.65,0-23,7.548-23,15.551v10.714c5.594,3.503,14.044,6.735,23.5,6.735
		c8.909,0,16.924-2.982,22.5-6.14V28.051C52,20.048,41.65,12.5,29,12.5z"/>
	<path style="fill:#FFFFFF;" d="M8.143,44.343v2.628c4.969,4.917,12.474,6.529,20.873,6.529c7.913,0,15.032-1.26,19.984-5.695
		v-2.093c-5.287,3.61-12.081,5.788-19.5,5.788C21.182,51.5,13.645,48.769,8.143,44.343z"/>
	<path style="fill:#546A79;" d="M26.999,21.698c-0.508,0-0.942-0.385-0.994-0.9c-0.055-0.549,0.346-1.04,0.896-1.095
		c1.341-0.134,2.721-0.203,4.1-0.203c0.552,0,1,0.448,1,1s-0.448,1-1,1c-1.313,0-2.625,0.065-3.9,0.193
		C27.066,21.696,27.032,21.698,26.999,21.698z"/>
	<path style="fill:#59474E;" d="M26.908,12.573c-0.569,0.038-1.133,0.091-1.69,0.158c-0.093,0.011-0.185,0.024-0.278,0.036
		c-1.181,0.154-2.331,0.371-3.443,0.649c-0.044,0.011-0.089,0.021-0.134,0.033c-0.561,0.143-1.113,0.301-1.654,0.472
		c-0.036,0.011-0.071,0.023-0.106,0.034c-1.692,0.545-3.278,1.225-4.725,2.018c-3.045,3.373-4.912,7.831-4.912,12.734
		c0,5.245,2.122,9.994,5.554,13.437l2.259,1.735C21.387,44.876,25.346,45.5,29.5,45.5c3.613,0,7.075-0.496,10.291-1.29l2.69-2.066
		c3.432-3.443,5.554-8.192,5.554-13.437c0-4.902-1.865-9.36-4.91-12.733h0c-1.447-0.792-3.033-1.473-4.725-2.018
		c-0.036-0.012-0.072-0.024-0.109-0.035c-0.541-0.172-1.092-0.33-1.653-0.472c-0.044-0.011-0.088-0.021-0.132-0.032
		c-1.112-0.278-2.263-0.495-3.444-0.649c-0.093-0.012-0.186-0.025-0.28-0.036c-0.557-0.068-1.12-0.12-1.69-0.158
		c-0.101-0.007-0.203-0.011-0.304-0.017C30.197,12.522,29.602,12.5,29,12.5c-0.602,0-1.196,0.022-1.786,0.056
		C27.112,12.561,27.009,12.566,26.908,12.573z"/>
	<path style="fill:#AF8066;" d="M42.416,43.483c0.043-0.415,0.067-0.845,0.067-1.293c0-1.904-0.399-3.452-1.111-4.709
		c2.18-2.513,3.491-5.698,3.491-9.171c0-8.103-7.102-14.672-15.862-14.672S13.138,20.207,13.138,28.31
		c0,3.472,1.311,6.658,3.491,9.171c-0.712,1.256-1.111,2.805-1.111,4.709c0,0.352,0.026,0.683,0.053,1.015
		c4.177,1.379,8.909,2.296,13.93,2.296C34.119,45.5,38.493,44.695,42.416,43.483z"/>
	<path style="fill:none;stroke:#59474E;stroke-width:2;stroke-linecap:round;stroke-miterlimit:10;" d="M18.69,23.075
		c2.79-2.79,7.305-2.79,10.095,0"/>
	<path style="fill:none;stroke:#59474E;stroke-width:2;stroke-linecap:round;stroke-miterlimit:10;" d="M28.784,23.075
		c2.79-2.79,7.305-2.79,10.095,0"/>
	<circle style="fill:#FFFFFF;" cx="21.862" cy="28.914" r="3.172"/>
	<circle style="fill:#FFFFFF;" cx="36.138" cy="28.914" r="3.172"/>
	<path style="fill:#7F5B53;" d="M37.559,37.765c-2.344-2.344-6.032-2.531-8.598-0.574c-2.566-1.957-6.255-1.77-8.598,0.574
		c-0.391,0.391-0.391,1.023,0,1.414s1.023,0.391,1.414,0c1.709-1.708,4.438-1.754,6.224-0.174v4.184c0,0.552,0.448,1,1,1
		s1-0.448,1-1V38.94c1.787-1.51,4.46-1.444,6.145,0.239c0.195,0.195,0.451,0.293,0.707,0.293s0.512-0.098,0.707-0.293
		C37.949,38.789,37.949,38.156,37.559,37.765z"/>
	<circle style="fill:#38454F;" cx="22.655" cy="28.914" r="0.793"/>
	<circle style="fill:#38454F;" cx="35.345" cy="28.914" r="0.793"/>
</g>
<g>
</g>
<g>
</g>
<g>
</g>
<g>
</g>
<g>
</g>
<g>
</g>
<g>
</g>
<g>
</g>
<g>
</g>
<g>
</g>
<g>
</g>
<g>
</g>
<g>
</g>
<g>
</g>
<g>
</g>
</svg>
