<?xml version="1.0" encoding="iso-8859-1"?>
<!-- Generator: Adobe Illustrator 19.0.0, SVG Export Plug-In . SVG Version: 6.00 Build 0)  -->
<svg version="1.1" id="Capa_1" xmlns="http://www.w3.org/2000/svg" xmlns:xlink="http://www.w3.org/1999/xlink" x="0px" y="0px"
	 viewBox="0 0 58.879 58.879" style="enable-background:new 0 0 58.879 58.879;" xml:space="preserve">
<g>
	<path style="fill:#A5A5A4;" d="M35,28.439c-0.553,0-1-0.447-1-1v-7c0-0.553,0.447-1,1-1s1,0.447,1,1v7
		C36,27.992,35.553,28.439,35,28.439z"/>
	<path style="fill:#A5A5A4;" d="M27,28.439c-0.553,0-1-0.447-1-1v-15c0-0.553,0.447-1,1-1s1,0.447,1,1v15
		C28,27.992,27.553,28.439,27,28.439z"/>
	<g>
		<path style="fill:#546A79;" d="M5,18.581V9.439c0-0.553-0.447-1-1-1s-1,0.447-1,1v9.142c-1.721,0.447-3,1.999-3,3.858
			c0,0.553,0.447,1,1,1s1-0.447,1-1c0-1.103,0.897-2,2-2s2,0.897,2,2c0,0.553,0.447,1,1,1s1-0.447,1-1
			C8,20.581,6.721,19.029,5,18.581z"/>
		<path style="fill:#546A79;" d="M17,21.439c-0.553,0-1,0.447-1,1v5c0,0.553,0.447,1,1,1s1-0.447,1-1v-5
			C18,21.887,17.553,21.439,17,21.439z"/>
		<path style="fill:#546A79;" d="M6.825,7.851c-0.391-0.391-1.023-0.391-1.414,0s-0.391,1.023,0,1.414l8.762,8.762
			c0.195,0.195,0.451,0.293,0.707,0.293s0.512-0.098,0.707-0.293c0.391-0.391,0.391-1.023,0-1.414L6.825,7.851z"/>
	</g>
	<path style="fill:#556080;" d="M38,21.439h-6v-6h6V21.439z M34,19.439h2v-2h-2V19.439z"/>
	<path style="fill:#8697CB;" d="M48.707,14.732c-0.256,0-0.512-0.098-0.707-0.293c-0.391-0.391-0.391-1.023,0-1.414l4.052-4.052
		c0.391-0.391,1.023-0.391,1.414,0s0.391,1.023,0,1.414l-4.052,4.052C49.219,14.635,48.963,14.732,48.707,14.732z"/>
	<path style="fill:#8697CB;" d="M54.879,11.561c-2.206,0-4-1.794-4-4s1.794-4,4-4s4,1.794,4,4S57.085,11.561,54.879,11.561z
		 M54.879,5.561c-1.103,0-2,0.897-2,2s0.897,2,2,2s2-0.897,2-2S55.981,5.561,54.879,5.561z"/>
	<g>
		<line style="fill:#A5A5A4;" x1="47" y1="21.439" x2="47" y2="27.439"/>
		<path style="fill:#A5A5A4;" d="M47,28.439c-0.553,0-1-0.447-1-1v-6c0-0.553,0.447-1,1-1s1,0.447,1,1v6
			C48,27.992,47.553,28.439,47,28.439z"/>
	</g>
	<polygon style="fill:#BDC3C7;" points="49,27.439 9,27.439 1,38.439 3.646,49.439 54.354,49.439 57,38.439 	"/>
	<polygon style="fill:#ECF0F1;" points="53.364,33.439 49,27.439 9,27.439 4.636,33.439 	"/>
	<rect x="19" y="33.439" style="fill:#D1D4D1;" width="4" height="4"/>
	<rect x="27" y="33.439" style="fill:#D1D4D1;" width="4" height="4"/>
	<rect x="35" y="33.439" style="fill:#D1D4D1;" width="4" height="4"/>
	<path style="fill:#556080;" d="M17.353,50.611c-0.858-0.564-0.858-1.779,0-2.342v0c1.218-0.8,0.598-2.63-0.878-2.59
		c-1.04,0.028-1.784-0.955-1.436-1.895c0.495-1.334-1.128-2.464-2.297-1.601c-0.824,0.609-2.029,0.233-2.323-0.724
		c-0.417-1.358-2.423-1.358-2.84,0c-0.294,0.957-1.498,1.332-2.323,0.724c-1.17-0.864-2.792,0.267-2.297,1.601
		c0.349,0.94-0.396,1.923-1.436,1.895c-1.476-0.039-2.095,1.79-0.878,2.59v0c0.858,0.564,0.858,1.779,0,2.342
		c-1.218,0.8-0.598,2.63,0.878,2.59c1.04-0.028,1.784,0.955,1.436,1.895c-0.495,1.334,1.128,2.464,2.297,1.601
		c0.824-0.609,2.029-0.233,2.323,0.724c0.417,1.358,2.423,1.358,2.84,0c0.294-0.957,1.498-1.332,2.323-0.724
		c1.17,0.863,2.792-0.267,2.297-1.601c-0.349-0.94,0.396-1.923,1.436-1.895C17.951,53.24,18.571,51.411,17.353,50.611z M9,52.439
		c-1.657,0-3-1.343-3-3s1.343-3,3-3s3,1.343,3,3S10.657,52.439,9,52.439z"/>
	<path style="fill:#556080;" d="M57.353,50.611c-0.858-0.564-0.858-1.779,0-2.342v0c1.218-0.8,0.598-2.63-0.878-2.59
		c-1.04,0.028-1.784-0.955-1.436-1.895c0.495-1.334-1.128-2.464-2.297-1.601c-0.824,0.609-2.029,0.233-2.323-0.724
		c-0.417-1.358-2.423-1.358-2.84,0c-0.294,0.957-1.498,1.332-2.323,0.724c-1.17-0.864-2.792,0.267-2.297,1.601
		c0.349,0.94-0.396,1.923-1.436,1.895c-1.476-0.039-2.095,1.79-0.878,2.59v0c0.858,0.564,0.858,1.779,0,2.342
		c-1.218,0.8-0.598,2.63,0.878,2.59c1.04-0.028,1.784,0.955,1.436,1.895c-0.495,1.334,1.128,2.464,2.297,1.601
		c0.824-0.609,2.029-0.233,2.323,0.724c0.417,1.358,2.423,1.358,2.84,0c0.294-0.957,1.498-1.332,2.323-0.724
		c1.17,0.863,2.792-0.267,2.297-1.601c-0.349-0.94,0.396-1.923,1.436-1.895C57.951,53.24,58.571,51.411,57.353,50.611z M49,52.439
		c-1.657,0-3-1.343-3-3s1.343-3,3-3s3,1.343,3,3S50.657,52.439,49,52.439z"/>
	<path style="fill:#556080;" d="M37.353,50.611c-0.858-0.564-0.858-1.779,0-2.342v0c1.218-0.8,0.598-2.63-0.878-2.59
		c-1.04,0.028-1.784-0.955-1.436-1.895c0.495-1.334-1.128-2.464-2.297-1.601c-0.824,0.609-2.029,0.233-2.323-0.724
		c-0.417-1.358-2.423-1.358-2.84,0c-0.294,0.957-1.498,1.332-2.323,0.724c-1.17-0.864-2.792,0.267-2.297,1.601
		c0.349,0.94-0.396,1.923-1.436,1.895c-1.476-0.039-2.095,1.79-0.878,2.59v0c0.858,0.564,0.858,1.779,0,2.342
		c-1.218,0.8-0.598,2.63,0.878,2.59c1.04-0.028,1.784,0.955,1.436,1.895c-0.495,1.334,1.128,2.464,2.297,1.601
		c0.824-0.609,2.029-0.233,2.323,0.724c0.417,1.358,2.423,1.358,2.84,0c0.294-0.957,1.498-1.332,2.323-0.724
		c1.17,0.863,2.792-0.267,2.297-1.601c-0.349-0.94,0.396-1.923,1.436-1.895C37.951,53.24,38.571,51.411,37.353,50.611z M29,52.439
		c-1.657,0-3-1.343-3-3s1.343-3,3-3s3,1.343,3,3S30.657,52.439,29,52.439z"/>
	<path style="fill:#556080;" d="M43.758,7.368l-1.415,1.414c-3.118,3.119-3.118,8.195,0,11.314c1.512,1.511,3.521,2.343,5.657,2.343
		s4.146-0.832,5.658-2.343l1.413-1.415L43.758,7.368z"/>
	<circle style="fill:#556080;" cx="17" cy="19.439" r="3"/>
	<circle style="fill:#556080;" cx="4" cy="6.439" r="3"/>
	<rect x="16" y="0.439" style="fill:#556080;" width="22" height="12"/>
	<circle style="fill:#ED7161;" cx="32" cy="6.439" r="3"/>
	<circle style="fill:#F18D46;" cx="22" cy="6.439" r="3"/>
	<circle style="fill:#CBB292;" cx="9" cy="49.439" r="3"/>
	<circle style="fill:#CBB292;" cx="29" cy="49.439" r="3"/>
	<circle style="fill:#CBB292;" cx="49" cy="49.439" r="3"/>
</g>
<g>
</g>
<g>
</g>
<g>
</g>
<g>
</g>
<g>
</g>
<g>
</g>
<g>
</g>
<g>
</g>
<g>
</g>
<g>
</g>
<g>
</g>
<g>
</g>
<g>
</g>
<g>
</g>
<g>
</g>
</svg>
