<?xml version="1.0" encoding="iso-8859-1"?>
<!-- Generator: Adobe Illustrator 19.0.0, SVG Export Plug-In . SVG Version: 6.00 Build 0)  -->
<svg version="1.1" id="Capa_1" xmlns="http://www.w3.org/2000/svg" xmlns:xlink="http://www.w3.org/1999/xlink" x="0px" y="0px"
	 viewBox="0 0 57 57" style="enable-background:new 0 0 57 57;" xml:space="preserve">
<g>
	<circle style="fill:#A5A5A4;" cx="27" cy="34" r="23"/>
	<line style="fill:none;stroke:#8697CB;stroke-width:2;stroke-miterlimit:10;" x1="27" y1="11" x2="27" y2="1"/>
	<rect x="28" y="1" style="fill:#48A0DC;" width="8" height="6"/>
	<circle style="fill:#D1D4D1;" cx="36.5" cy="31.5" r="5.5"/>
	<path style="fill:#5E5F62;" d="M5.548,25.705C6.74,27.108,8.515,28,10.5,28c3.59,0,6.5-2.91,6.5-6.5
		c0-2.623-1.557-4.878-3.794-5.905C9.789,18.16,7.115,21.657,5.548,25.705z"/>
	<path style="fill:#BDC3C7;" d="M18.5,45c-3.566,0-6.459,2.873-6.497,6.431c2.961,2.55,6.575,4.359,10.561,5.138
		C24.048,55.377,25,53.551,25,51.5C25,47.91,22.09,45,18.5,45z"/>
	<circle style="fill:#F18D46;" cx="9" cy="7" r="1"/>
	<circle style="fill:#F18D46;" cx="2" cy="50" r="1"/>
	<circle style="fill:#F18D46;" cx="50" cy="55" r="1"/>
	<g>
		<circle style="fill:#F3D55B;" cx="19" cy="35" r="1"/>
		<circle style="fill:#F3D55B;" cx="26" cy="28" r="1"/>
		<circle style="fill:#F3D55B;" cx="12" cy="41" r="1"/>
		<circle style="fill:#F3D55B;" cx="8" cy="34" r="1"/>
		<circle style="fill:#F3D55B;" cx="31" cy="49" r="1"/>
		<circle style="fill:#F3D55B;" cx="37" cy="21" r="1"/>
		<circle style="fill:#F3D55B;" cx="21" cy="16" r="1"/>
		<circle style="fill:#F3D55B;" cx="28" cy="19" r="1"/>
		<circle style="fill:#F3D55B;" cx="39" cy="46" r="1"/>
	</g>
	<path style="fill:#F3D55B;" d="M55,5h-1.586L51,2.586V1c0-0.552-0.447-1-1-1s-1,0.448-1,1v1.586L46.586,5H45c-0.553,0-1,0.448-1,1
		s0.447,1,1,1h1.586L49,9.414V11c0,0.552,0.447,1,1,1s1-0.448,1-1V9.414L53.414,7H55c0.553,0,1-0.448,1-1S55.553,5,55,5z"/>
</g>
<g>
</g>
<g>
</g>
<g>
</g>
<g>
</g>
<g>
</g>
<g>
</g>
<g>
</g>
<g>
</g>
<g>
</g>
<g>
</g>
<g>
</g>
<g>
</g>
<g>
</g>
<g>
</g>
<g>
</g>
</svg>
