<?xml version="1.0" encoding="iso-8859-1"?>
<!-- Generator: Adobe Illustrator 19.0.0, SVG Export Plug-In . SVG Version: 6.00 Build 0)  -->
<svg version="1.1" id="Capa_1" xmlns="http://www.w3.org/2000/svg" xmlns:xlink="http://www.w3.org/1999/xlink" x="0px" y="0px"
	 viewBox="0 0 59 59" style="enable-background:new 0 0 59 59;" xml:space="preserve">
<g>
	<path style="fill:#E4C05C;" d="M33.5,4c0-2.206-1.794-4-4-4s-4,1.794-4,4c0,1.858,1.28,3.411,3,3.858V12c0,0.552,0.447,1,1,1
		s1-0.448,1-1V7.858C32.221,7.411,33.5,5.859,33.5,4z M29.5,6c-1.103,0-2-0.897-2-2s0.897-2,2-2s2,0.897,2,2S30.603,6,29.5,6z"/>
	<g>
		<path style="fill:#ECF0F1;" d="M41.139,0.23c-0.428-0.353-1.057-0.292-1.408,0.132c-0.353,0.425-0.294,1.056,0.131,1.408
			C40.918,2.646,41.5,3.793,41.5,5s-0.582,2.354-1.639,3.23c-0.425,0.353-0.483,0.983-0.131,1.408C39.928,9.877,40.213,10,40.501,10
			c0.225,0,0.45-0.076,0.638-0.23C42.661,8.508,43.5,6.813,43.5,5S42.661,1.493,41.139,0.23z"/>
		<path style="fill:#ECF0F1;" d="M47.139,0.23c-0.428-0.353-1.057-0.292-1.408,0.132c-0.353,0.425-0.294,1.056,0.131,1.408
			C46.918,2.646,47.5,3.793,47.5,5s-0.582,2.354-1.639,3.23c-0.425,0.353-0.483,0.983-0.131,1.408C45.928,9.877,46.213,10,46.501,10
			c0.225,0,0.45-0.076,0.638-0.23C48.661,8.508,49.5,6.813,49.5,5S48.661,1.493,47.139,0.23z"/>
		<path style="fill:#ECF0F1;" d="M19.27,0.362c-0.352-0.425-0.981-0.485-1.408-0.132C16.339,1.493,15.5,3.187,15.5,5
			s0.839,3.507,2.361,4.77C18.049,9.925,18.275,10,18.499,10c0.288,0,0.573-0.123,0.771-0.362c0.353-0.425,0.294-1.056-0.131-1.408
			C18.082,7.354,17.5,6.207,17.5,5s0.582-2.354,1.639-3.23C19.564,1.418,19.622,0.787,19.27,0.362z"/>
		<path style="fill:#ECF0F1;" d="M13.27,0.362c-0.352-0.425-0.98-0.485-1.408-0.132C10.339,1.493,9.5,3.187,9.5,5
			s0.839,3.507,2.361,4.77C12.049,9.925,12.275,10,12.499,10c0.288,0,0.573-0.123,0.771-0.362c0.353-0.425,0.294-1.056-0.131-1.408
			C12.082,7.354,11.5,6.207,11.5,5s0.582-2.354,1.639-3.23C13.564,1.418,13.622,0.787,13.27,0.362z"/>
	</g>
	<rect x="6.5" y="12" style="fill:#556080;" width="4" height="6"/>
	<path style="fill:#556080;" d="M51.5,19c-0.553,0-1-0.448-1-1v-3c0-0.552,0.447-1,1-1s1,0.448,1,1v3C52.5,18.553,52.053,19,51.5,19
		z"/>
	<rect x="26.5" y="12" style="fill:#556080;" width="6" height="6"/>
	<path style="fill:#556080;" d="M57.5,24c-0.553,0-1-0.448-1-1V1c0-0.552,0.447-1,1-1s1,0.448,1,1v22C58.5,23.553,58.053,24,57.5,24
		z"/>
	<rect x="4.5" y="42" style="fill:#BDC3C7;" width="50" height="10"/>
	<rect x="0.5" y="23" style="fill:#ECF0F1;" width="58" height="19"/>
	<circle style="fill:#BDC3C7;" cx="4.5" cy="38" r="1"/>
	<circle style="fill:#BDC3C7;" cx="8.5" cy="38" r="1"/>
	<circle style="fill:#BDC3C7;" cx="12.5" cy="38" r="1"/>
	<circle style="fill:#BDC3C7;" cx="16.5" cy="38" r="1"/>
	<circle style="fill:#BDC3C7;" cx="20.5" cy="38" r="1"/>
	<circle style="fill:#BDC3C7;" cx="24.5" cy="38" r="1"/>
	<circle style="fill:#BDC3C7;" cx="28.5" cy="38" r="1"/>
	<circle style="fill:#BDC3C7;" cx="32.5" cy="38" r="1"/>
	<circle style="fill:#BDC3C7;" cx="32.5" cy="34" r="1"/>
	<circle style="fill:#BDC3C7;" cx="32.5" cy="30" r="1"/>
	<circle style="fill:#BDC3C7;" cx="32.5" cy="26" r="1"/>
	<path style="fill:#556080;" d="M11.605,45.793L11.605,45.793c0.229,0.744,1.165,1.036,1.807,0.563l0,0
		c0.91-0.672,2.172,0.208,1.787,1.245l0,0c-0.271,0.731,0.308,1.495,1.117,1.474h0c1.148-0.03,1.63,1.392,0.683,2.015l0,0
		c-0.667,0.439-0.667,1.383,0,1.822l0,0c0.947,0.622,0.465,2.045-0.683,2.015h0c-0.809-0.021-1.388,0.743-1.117,1.474l0,0
		c0.385,1.037-0.877,1.917-1.787,1.245l0,0c-0.641-0.473-1.578-0.181-1.807,0.563l0,0c-0.324,1.056-1.884,1.056-2.209,0l0,0
		c-0.229-0.744-1.165-1.036-1.807-0.563l0,0c-0.91,0.672-2.172-0.208-1.787-1.245l0,0c0.271-0.731-0.308-1.495-1.117-1.474h0
		c-1.148,0.03-1.63-1.392-0.683-2.015l0,0c0.667-0.439,0.667-1.383,0-1.822l0,0c-0.947-0.622-0.465-2.045,0.683-2.015h0
		c0.809,0.021,1.388-0.743,1.117-1.474l0,0c-0.385-1.037,0.877-1.917,1.787-1.245l0,0c0.641,0.473,1.578,0.181,1.807-0.563l0,0
		C9.72,44.736,11.28,44.736,11.605,45.793z"/>
	<circle style="fill:#8697CB;" cx="10.5" cy="52" r="3"/>
	<path style="fill:#556080;" d="M49.605,45.793L49.605,45.793c0.229,0.744,1.165,1.036,1.807,0.563l0,0
		c0.91-0.672,2.172,0.208,1.787,1.245v0c-0.271,0.731,0.308,1.495,1.117,1.474h0c1.148-0.03,1.63,1.392,0.683,2.015l0,0
		c-0.667,0.439-0.667,1.383,0,1.822l0,0c0.947,0.622,0.465,2.045-0.683,2.015h0c-0.809-0.021-1.388,0.743-1.117,1.474v0
		c0.385,1.037-0.877,1.917-1.787,1.245l0,0c-0.641-0.473-1.578-0.181-1.807,0.563v0c-0.324,1.056-1.884,1.056-2.209,0l0,0
		c-0.229-0.744-1.165-1.036-1.807-0.563l0,0c-0.91,0.672-2.172-0.208-1.787-1.245v0c0.271-0.731-0.308-1.495-1.117-1.474h0
		c-1.148,0.03-1.63-1.392-0.683-2.015l0,0c0.667-0.439,0.667-1.383,0-1.822l0,0c-0.947-0.622-0.465-2.045,0.683-2.015h0
		c0.809,0.021,1.388-0.743,1.117-1.474v0c-0.385-1.037,0.877-1.917,1.787-1.245l0,0c0.641,0.473,1.578,0.181,1.807-0.563l0,0
		C47.72,44.736,49.28,44.736,49.605,45.793z"/>
	<circle style="fill:#8697CB;" cx="48.5" cy="52" r="3"/>
	<rect x="4.5" y="18" style="fill:#8697CB;" width="50" height="5"/>
	<rect x="47.5" y="23" style="fill:#BDC3C7;" width="6" height="6"/>
	<rect x="0.5" y="23" style="fill:#BDC3C7;" width="6" height="6"/>
	<polygon style="fill:#BDC3C7;" points="29.5,35 0.5,35 0.5,33 27.5,33 27.5,23 29.5,23 	"/>
	<rect x="25.5" y="46" style="fill:#ECF0F1;" width="8" height="6"/>
</g>
<g>
</g>
<g>
</g>
<g>
</g>
<g>
</g>
<g>
</g>
<g>
</g>
<g>
</g>
<g>
</g>
<g>
</g>
<g>
</g>
<g>
</g>
<g>
</g>
<g>
</g>
<g>
</g>
<g>
</g>
</svg>
