<?xml version="1.0" encoding="iso-8859-1"?>
<!-- Generator: Adobe Illustrator 19.0.0, SVG Export Plug-In . SVG Version: 6.00 Build 0)  -->
<svg version="1.1" id="Capa_1" xmlns="http://www.w3.org/2000/svg" xmlns:xlink="http://www.w3.org/1999/xlink" x="0px" y="0px"
	 viewBox="0 0 56 56" style="enable-background:new 0 0 56 56;" xml:space="preserve">
<g>
	<circle style="fill:#8697CB;" cx="27.5" cy="31" r="24"/>
	<circle style="fill:#92A8DD;" cx="25" cy="29.5" r="18.5"/>
	<circle style="fill:#A4B9ED;" cx="20.5" cy="27" r="11"/>
	<path style="fill:#F3D55B;" d="M54.5,5h-1.586L50.5,2.586V1c0-0.552-0.447-1-1-1s-1,0.448-1,1v1.586L46.086,5H44.5
		c-0.553,0-1,0.448-1,1s0.447,1,1,1h1.586L48.5,9.414V11c0,0.552,0.447,1,1,1s1-0.448,1-1V9.414L52.914,7H54.5c0.553,0,1-0.448,1-1
		S55.053,5,54.5,5z"/>
	<circle style="fill:#F3D55B;" cx="6.5" cy="6" r="1"/>
	<circle style="fill:#F3D55B;" cx="53.5" cy="21" r="1"/>
	<circle style="fill:#F3D55B;" cx="41.5" cy="3" r="1"/>
	<circle style="fill:#F3D55B;" cx="32.5" cy="13" r="1"/>
	<circle style="fill:#F3D55B;" cx="35.5" cy="46" r="1"/>
	<circle style="fill:#F3D55B;" cx="3.5" cy="55" r="1"/>
	<circle style="fill:#F3D55B;" cx="1.5" cy="44" r="1"/>
	<path style="fill:#556080;" d="M33,23.444c-2.514,0-3.993-1.59-4.451-3.473c-0.256-1.053-1.444-1.63-2.395-1.112
		c-2.113,1.151-3.568,3.356-3.65,5.912c-0.124,3.834,3.039,7.164,6.875,7.229C33.3,32.066,36.5,28.906,36.5,25
		c0-0.061-0.001-0.122-0.002-0.182c-0.028-1.073-1.086-1.853-2.118-1.559C33.962,23.378,33.503,23.444,33,23.444z"/>
	<path style="fill:#556080;" d="M8.576,16.249C8.934,18.376,10.771,20,13,20c2.485,0,4.5-2.015,4.5-4.5
		c0-2.127-1.48-3.899-3.464-4.369C11.958,12.542,10.118,14.273,8.576,16.249z"/>
	<path style="fill:none;stroke:#556080;stroke-width:2;stroke-linecap:round;stroke-miterlimit:10;" d="M45.008,22.186
		c-1.489,0.73-3.284,0.117-4.015-1.372"/>
	<path style="fill:none;stroke:#556080;stroke-width:2;stroke-linecap:round;stroke-miterlimit:10;" d="M27.5,11
		c0,1.658-1.342,3-3,3"/>
	<path style="fill:none;stroke:#556080;stroke-width:2;stroke-linecap:round;stroke-miterlimit:10;" d="M23.5,36
		c0,1.658-1.342,3-3,3"/>
	<path style="fill:none;stroke:#556080;stroke-width:2;stroke-linecap:round;stroke-miterlimit:10;" d="M40.188,31.54
		c1.532,0.634,2.259,2.387,1.624,3.919"/>
	<path style="fill:none;stroke:#556080;stroke-width:2;stroke-linecap:round;stroke-miterlimit:10;" d="M10.647,31
		c1.532,0.634,2.259,2.387,1.624,3.919"/>
</g>
<g>
</g>
<g>
</g>
<g>
</g>
<g>
</g>
<g>
</g>
<g>
</g>
<g>
</g>
<g>
</g>
<g>
</g>
<g>
</g>
<g>
</g>
<g>
</g>
<g>
</g>
<g>
</g>
<g>
</g>
</svg>
