<?xml version="1.0" encoding="iso-8859-1"?>
<!-- Generator: Adobe Illustrator 19.0.0, SVG Export Plug-In . SVG Version: 6.00 Build 0)  -->
<svg version="1.1" id="Capa_1" xmlns="http://www.w3.org/2000/svg" xmlns:xlink="http://www.w3.org/1999/xlink" x="0px" y="0px"
	 viewBox="0 0 59 59" style="enable-background:new 0 0 59 59;" xml:space="preserve">
<g>
	<path style="fill:#ECF0F1;" d="M35.5,1h-5h-5c-12.703,0-23,10.297-23,23v0h28h28v0C58.5,11.297,48.203,1,35.5,1z"/>
	<path style="fill:#556080;" d="M51.5,7.485C47.36,3.474,41.72,1,35.5,1h-5h-2v23h23V7.485z"/>
	<rect x="0.5" y="56" style="fill:#556080;" width="58" height="3"/>
	<rect x="2.5" y="29" style="fill:#ECF0F1;" width="54" height="27"/>
	<path style="fill:#FFFFFF;" d="M6.925,21c-0.07,0-0.14-0.007-0.211-0.022c-0.54-0.116-0.883-0.647-0.767-1.188
		C7.914,10.641,16.137,4,25.5,4h1c0.552,0,1,0.447,1,1s-0.448,1-1,1h-1C17.073,6,9.672,11.977,7.901,20.21
		C7.801,20.68,7.386,21,6.925,21z"/>
	<rect x="11.5" y="40" style="fill:#8697CB;" width="14" height="16"/>
	<rect x="3.5" y="45" style="fill:#8697CB;" width="3" height="5"/>
	<rect x="16.5" y="40" style="fill:#556080;" width="2" height="16"/>
	<polygon style="fill:#556080;" points="9.5,38 9.5,40 9.5,56 11.5,56 11.5,40 24.5,40 24.5,56 26.5,56 26.5,40 26.5,38 	"/>
	
		<line style="fill:none;stroke:#8697CB;stroke-width:2;stroke-linecap:round;stroke-miterlimit:10;" x1="8.5" y1="29" x2="8.5" y2="32"/>
	
		<line style="fill:none;stroke:#8697CB;stroke-width:2;stroke-linecap:round;stroke-miterlimit:10;" x1="14.5" y1="29" x2="14.5" y2="32"/>
	
		<line style="fill:none;stroke:#8697CB;stroke-width:2;stroke-linecap:round;stroke-miterlimit:10;" x1="20.5" y1="29" x2="20.5" y2="32"/>
	
		<line style="fill:none;stroke:#8697CB;stroke-width:2;stroke-linecap:round;stroke-miterlimit:10;" x1="26.5" y1="29" x2="26.5" y2="32"/>
	
		<line style="fill:none;stroke:#8697CB;stroke-width:2;stroke-linecap:round;stroke-miterlimit:10;" x1="32.5" y1="29" x2="32.5" y2="32"/>
	
		<line style="fill:none;stroke:#8697CB;stroke-width:2;stroke-linecap:round;stroke-miterlimit:10;" x1="38.5" y1="29" x2="38.5" y2="32"/>
	
		<line style="fill:none;stroke:#8697CB;stroke-width:2;stroke-linecap:round;stroke-miterlimit:10;" x1="44.5" y1="29" x2="44.5" y2="32"/>
	
		<line style="fill:none;stroke:#8697CB;stroke-width:2;stroke-linecap:round;stroke-miterlimit:10;" x1="50.5" y1="29" x2="50.5" y2="32"/>
	<rect x="0.5" y="24" style="fill:#BDC3C7;" width="58" height="5"/>
	<path style="fill:#8697CB;" d="M52.5,52c-0.552,0-1-0.447-1-1V37c0-0.553,0.448-1,1-1s1,0.447,1,1v14
		C53.5,51.553,53.052,52,52.5,52z"/>
	<circle style="fill:#8697CB;" cx="29.5" cy="53" r="1"/>
	<circle style="fill:#8697CB;" cx="33.5" cy="53" r="1"/>
	<circle style="fill:#8697CB;" cx="37.5" cy="53" r="1"/>
	<circle style="fill:#8697CB;" cx="41.5" cy="53" r="1"/>
	<circle style="fill:#8697CB;" cx="45.5" cy="53" r="1"/>
	<polygon style="fill:#D1D4D1;" points="44.528,24 55.198,13.33 42.471,0.602 28.5,14.573 28.5,24 	"/>
	<polygon style="fill:#ECF0F1;" points="51.663,8.38 47.42,4.138 27.558,24 36.043,24 	"/>
	
		<ellipse transform="matrix(0.7071 0.7071 -0.7071 0.7071 19.229 -32.4909)" style="fill:#BDC3C7;" cx="48.835" cy="6.966" rx="9" ry="4"/>
	
		<ellipse transform="matrix(0.7071 0.7071 -0.7071 0.7071 19.229 -32.4909)" style="fill:#556080;" cx="48.835" cy="6.966" rx="6.75" ry="3"/>
	
		<ellipse transform="matrix(0.7071 0.7071 -0.7071 0.7071 19.088 -32.2025)" style="fill:#8697CB;" cx="48.416" cy="6.94" rx="4.686" ry="2.083"/>
	
		<ellipse transform="matrix(0.7071 0.7071 -0.7071 0.7071 18.338 -31.8918)" style="fill:#48A0DC;" cx="47.666" cy="6.19" rx="3.625" ry="1.611"/>
	
		<ellipse transform="matrix(0.7071 0.7071 -0.7071 0.7071 17.013 -31.9429)" style="fill:#FFFFFF;" cx="47.065" cy="4.565" rx="1.793" ry="0.797"/>
</g>
<g>
</g>
<g>
</g>
<g>
</g>
<g>
</g>
<g>
</g>
<g>
</g>
<g>
</g>
<g>
</g>
<g>
</g>
<g>
</g>
<g>
</g>
<g>
</g>
<g>
</g>
<g>
</g>
<g>
</g>
</svg>
