<?xml version="1.0" encoding="iso-8859-1"?>
<!-- Generator: Adobe Illustrator 19.0.0, SVG Export Plug-In . SVG Version: 6.00 Build 0)  -->
<svg version="1.1" id="Capa_1" xmlns="http://www.w3.org/2000/svg" xmlns:xlink="http://www.w3.org/1999/xlink" x="0px" y="0px"
	 viewBox="0 0 60 60" style="enable-background:new 0 0 60 60;" xml:space="preserve">
<g>
	<path style="fill:#285680;" d="M45,23c-4.694,0-8.5-3.806-8.5-8.5c0-1.514,0.4-2.933,1.094-4.165
		c-2.166-1.057-4.533-1.795-7.053-2.131C17.95,6.526,6.383,15.373,4.704,27.964c-1.678,12.591,7.169,24.159,19.76,25.837
		s24.159-7.169,25.837-19.76c0.559-4.193-0.055-8.27-1.58-11.908C47.596,22.683,46.337,23,45,23z"/>
	<path style="fill:#FAC176;" d="M42.22,35.737c-1.481-0.769-2.035-2.997-3.48-4.515c-0.166-0.174-0.402-0.261-0.641-0.292
		c-1.771-0.228-2.569-1.576-3.76-0.68c-0.893,0.671-1.896,0.262-2.208-0.81c-0.102-0.35-0.28-0.662-0.923-0.86
		c-0.488-0.151-0.726-0.703-0.55-1.183c0.003-0.007,0.005-0.014,0.008-0.021c0.235-0.641-1.089-0.543-1.763-0.431
		c-0.189,0.031,0.452-0.731,0.241-0.606c-0.828,0.489-1.856-0.355-1.812-1.315l0.863-17.013c-4.034-0.126-7.899,0.817-11.298,2.587
		l-0.001,0.001c-0.073,0.038-0.098,0.134-0.059,0.207c1.561,2.87,1.877,4.378,1.705,7.726c-0.01,0.185,0.023,0.369,0.101,0.537
		c1.356,2.922,3.101,7.882,6.081,9.024c1.449,0.555,2.788,0.346,4.161,1.019c0.147,0.072,0.361,0.239,0.453,0.374
		c0.698,1.021,0.296,2.517,0.988,2.883c0.548,0.29,0.859,0.881,0.625,1.454c-0.955,2.343-0.129,5.024,2.092,6.863
		c1.563,1.294,0.262,4.294-1.053,6.65c-0.47,0.842,0.368,1.816,1.277,1.492c1.437-0.511,2.627-1.252,4.004-2.437
		c1.997-1.718,2.429-3.589,4.409-5.047c0.022-0.016,0.039-0.036,0.047-0.062C42.234,39.8,43.806,36.561,42.22,35.737z"/>
	<path style="fill:#F3D55B;" d="M45,23c-4.694,0-8.5-3.806-8.5-8.5c0-1.514,0.4-2.933,1.094-4.165
		c-2.166-1.057-4.533-1.795-7.053-2.131c-3.112-0.415-6.161-0.185-9.014,0.584c-1.612,2.434-1.926,5.633,1.216,9.66
		c0,0-7.094,8.643,2.609,11.742c0,0,5.871,16.227,16.961-1.305c0,0-1.468,12.802,6.523,10.437c0.044-0.013,0.081-0.032,0.124-0.045
		c0.636-1.653,1.096-3.404,1.34-5.237c0.559-4.193-0.055-8.27-1.58-11.908C47.596,22.683,46.337,23,45,23z"/>
	<g>
		<path style="fill:#F3D55B;" d="M11.5,53H9.914L7.5,50.586V49c0-0.553-0.448-1-1-1s-1,0.447-1,1v1.586L3.086,53H1.5
			c-0.552,0-1,0.447-1,1s0.448,1,1,1h1.586L5.5,57.414V59c0,0.553,0.448,1,1,1s1-0.447,1-1v-1.586L9.914,55H11.5
			c0.552,0,1-0.447,1-1S12.052,53,11.5,53z"/>
		<circle style="fill:#F3D55B;" cx="56.5" cy="42" r="1"/>
		<circle style="fill:#F3D55B;" cx="50.5" cy="56" r="1"/>
		<circle style="fill:#F3D55B;" cx="34.5" cy="57" r="1"/>
		<circle style="fill:#F3D55B;" cx="7.5" cy="7" r="1"/>
		<circle style="fill:#F3D55B;" cx="2.625" cy="47" r="1"/>
	</g>
	<g>
		<path style="fill:#88C057;" d="M21.5,46c0.042-0.958-1.667-2.417-2-3c-0.333-0.583-4.25-1.625-7-4s-0.208-1.625-1-4
			c-0.055-0.165-0.098-0.327-0.132-0.486c-0.438-2.099-2.038-3.751-4.171-3.955c-0.922-0.088-1.852-0.179-2.685-0.261
			c-0.323,10.151,6.094,19.249,15.555,22.47C20.2,52.543,20.343,52.288,20.5,52c1.25-2.292,0.75-2.958,1-4
			C21.75,46.958,21.458,46.958,21.5,46z"/>
	</g>
	<path style="fill:#FDD7AD;" d="M45,23c-4.694,0-8.5-3.806-8.5-8.5c0-1.514,0.4-2.933,1.094-4.165
		c-2.166-1.057-4.533-1.795-7.053-2.131c-1.089-0.145-2.17-0.206-3.238-0.198c-0.355,0.474-0.585,0.943-0.668,1.393
		c-0.242,1.312,0.706,2.867,1.544,3.941l1.927,2.47l-1.988,2.421c-0.71,0.864-1.874,3.016-1.569,4.047
		c0.148,0.501,1.046,1.069,2.344,1.484l1.835,0.585l0.655,1.812c0.523,1.445,2.256,4.258,3.566,4.258
		c1.11,0,3.454-1.656,6.407-6.323l7.196,2.538c-0.288,2.511,0.139,5.811,0.718,6.363c0,0,0.027,0.006,0.087,0.006h0.001
		c0.104,0,0.335-0.018,0.718-0.131c0.127-0.038,0.236-0.093,0.356-0.138c0.283-3.729-0.344-7.339-1.71-10.597
		C47.596,22.683,46.337,23,45,23z"/>
	
		<ellipse transform="matrix(0.6213 0.7836 -0.7836 0.6213 29.5337 -25.2572)" style="fill:#E64C3C;" cx="40.896" cy="17.924" rx="8.48" ry="5.219"/>
	<circle style="fill:#F29C1F;" cx="52.5" cy="23" r="1"/>
	<circle style="fill:#F29C1F;" cx="53.5" cy="27" r="1"/>
	<circle style="fill:#556080;" cx="56.5" cy="23" r="1"/>
	<circle style="fill:#F29C1F;" cx="38.5" cy="4" r="1"/>
	<circle style="fill:#556080;" cx="44.5" cy="2" r="1"/>
	<circle style="fill:#556080;" cx="56.5" cy="16" r="1"/>
	<circle style="fill:#556080;" cx="34.5" cy="6" r="1"/>
	<circle style="fill:#F29C1F;" cx="31.5" cy="11" r="1"/>
	<circle style="fill:#F29C1F;" cx="31.5" cy="18" r="1"/>
	<circle style="fill:#F29C1F;" cx="35.5" cy="23" r="1"/>
	<circle style="fill:#F29C1F;" cx="42.5" cy="27" r="1"/>
	<circle style="fill:#F29C1F;" cx="28.5" cy="3" r="1"/>
	<circle style="fill:#556080;" cx="34.5" cy="2" r="1"/>
	<circle style="fill:#CBB292;" cx="45" cy="14.5" r="8.5"/>
	<g>
		<path style="fill:#E64C3C;" d="M33.5,15c0.552,0,1-0.447,1-1s-0.448-1-1-1h-2.697l-2.748-1.832
			c-0.46-0.306-1.081-0.182-1.387,0.277c-0.306,0.46-0.182,1.08,0.277,1.387l2.168,1.445l-1.445,2.168
			c-0.306,0.46-0.182,1.08,0.277,1.387C28.116,17.945,28.309,18,28.499,18c0.323,0,0.64-0.156,0.833-0.445L31.035,15H33.5z"/>
		<path style="fill:#E64C3C;" d="M39.947,23.105c-0.495-0.246-1.095-0.047-1.342,0.447L37.882,25H35.5c-0.552,0-1,0.447-1,1
			s0.448,1,1,1h2.279l0.772,2.316C38.691,29.735,39.081,30,39.5,30c0.104,0,0.211-0.017,0.316-0.052
			c0.524-0.174,0.807-0.74,0.632-1.265l-0.869-2.607l0.815-1.63C40.642,23.953,40.441,23.353,39.947,23.105z"/>
		<path style="fill:#E64C3C;" d="M46.5,25c-0.552,0-1,0.447-1,1v4c0,0.553,0.448,1,1,1s1-0.447,1-1v-4
			C47.5,25.447,47.052,25,46.5,25z"/>
		<path style="fill:#E64C3C;" d="M35.144,18.571c-0.308-0.46-0.928-0.583-1.387-0.277l-2.812,1.874
			c-0.459,0.307-0.583,0.927-0.277,1.387C30.861,21.844,31.178,22,31.501,22c0.19,0,0.383-0.055,0.554-0.168l2.812-1.874
			C35.326,19.651,35.45,19.031,35.144,18.571z"/>
	</g>
	<path style="fill:#7F6E5D;" d="M45,6c-1.239,0-2.413,0.271-3.475,0.748C41.654,8.563,43.152,10,45,10s3.346-1.437,3.475-3.252
		C47.413,6.271,46.239,6,45,6z"/>
	<path style="fill:#7F6E5D;" d="M51.288,20.205C50.729,18.355,49.032,17,47,17c-2.485,0-4.5,2.015-4.5,4.5
		c0,0.407,0.072,0.794,0.173,1.169C43.413,22.88,44.192,23,45,23C47.496,23,49.733,21.918,51.288,20.205z"/>
	<path style="fill:#F3D55B;" d="M48.5,4c-0.256,0-0.512-0.098-0.707-0.293c-0.391-0.391-0.391-1.023,0-1.414l2-2
		c0.391-0.391,1.023-0.391,1.414,0s0.391,1.023,0,1.414l-2,2C49.012,3.902,48.756,4,48.5,4z"/>
	<path style="fill:#F3D55B;" d="M53.5,7c-0.256,0-0.512-0.098-0.707-0.293c-0.391-0.391-0.391-1.023,0-1.414l5-5
		c0.391-0.391,1.023-0.391,1.414,0s0.391,1.023,0,1.414l-5,5C54.012,6.902,53.756,7,53.5,7z"/>
	<path style="fill:#F3D55B;" d="M56.5,12c-0.256,0-0.512-0.098-0.707-0.293c-0.391-0.391-0.391-1.023,0-1.414l2-2
		c0.391-0.391,1.023-0.391,1.414,0s0.391,1.023,0,1.414l-2,2C57.012,11.902,56.756,12,56.5,12z"/>
</g>
<g>
</g>
<g>
</g>
<g>
</g>
<g>
</g>
<g>
</g>
<g>
</g>
<g>
</g>
<g>
</g>
<g>
</g>
<g>
</g>
<g>
</g>
<g>
</g>
<g>
</g>
<g>
</g>
<g>
</g>
</svg>
