<?xml version="1.0" encoding="iso-8859-1"?>
<!-- Generator: Adobe Illustrator 19.0.0, SVG Export Plug-In . SVG Version: 6.00 Build 0)  -->
<svg version="1.1" id="Capa_1" xmlns="http://www.w3.org/2000/svg" xmlns:xlink="http://www.w3.org/1999/xlink" x="0px" y="0px"
	 viewBox="0 0 59 59" style="enable-background:new 0 0 59 59;" xml:space="preserve">
<g>
	<circle style="fill:#285680;" cx="29" cy="30" r="29"/>
	<g>
		<path style="fill:#24AE5F;" d="M29,1c-4.03,0-7.866,0.823-11.353,2.308c-0.159,0.949-0.952,2.57-0.928,3.087
			c0.112,0.022,7.373-7.4,6.472-2.39c-0.581,3.225-6.517,3.206-6.262,6.453c6.236,2.445,8.411-4.642,13.708-4.613
			c1.767,0.01,6.292-2.784,7.155-2.215c3.496,2.303-0.799,10.467-3.474,7.75c-2.572-2.572-6.242,0.901-6.077,4.912
			c1.337,0.06,1.908-3.796,3.11-2.51c1.324,1.417,0.846,4.27-0.986,4.925c-1.844,0.659-9.077-4.89-7.3-0.684
			c1.954,4.668-5.854,8.275,2.028,6.393c3.716-0.891,2.481,1.937,4.234,3.286c2.088,1.603,1.164-2.214,2.686-1.633
			c2.215,0.857-0.381,3.065,3.088,1.462c4.069-1.856,2.54,1.038,3.786,2.93c2.336,3.532,8.077,6.922,11.086,2.254
			c0.709-1.101,0.254-9.807,4.72-3.967c2.836,3.71,1.863-4.383,2.247-6.509C53.547,9.993,42.327,1,29,1z"/>
	</g>
	<path style="fill:#FAC176;" d="M32.919,43.082l-5.348-4.008l-3.585,0.141l-3.719-1.17l-2.911-2.007l-6.603,1.526L8.03,38.881
		L5,42.963l1.072,4.784c0.306,0.395,0.623,0.782,0.949,1.161l5.608,2.618l3.785,0.511l2.252,4.622l0.068,0.465
		C21.926,58.333,25.385,59,29,59c2.494,0,4.914-0.315,7.224-0.908l0.761-4.544l3.459-2.807l1.437-4.481l-7.222-0.03L32.919,43.082z"
		/>
	<path style="fill:#88C057;" d="M0.375,34.647c0.138-0.012,0.156-0.024,0.168-0.036c1.297-1.296,2.377-1.513,3.458-3.458
		c1.081-1.945-0.216-1.945,0-5.187c0.216-3.242-0.216-1.729,0-5.187c0.078-1.244-0.053-1.928-1.565-2.417C0.873,21.926,0,25.86,0,30
		C0,31.582,0.131,33.133,0.375,34.647z"/>
	<path style="fill:#FAC176;" d="M30,54c-1.083-0.083-5.083-1.333-6-3c-0.917-1.667-2.917-4.5-3-4
		c-0.057,0.34-9.111-2.743-15.331-4.938L5,42.963l1.072,4.784c0.306,0.395,0.623,0.782,0.949,1.161l5.608,2.618l3.785,0.511
		l2.252,4.622l0.068,0.465C21.926,58.333,25.385,59,29,59c2.494,0,4.914-0.315,7.224-0.908l0.577-3.445
		C36.292,54.488,35.705,54.278,35,54C32.25,52.917,31.083,54.083,30,54z"/>
	<path style="fill:#88C057;" d="M40.444,50.741l1.437-4.481l-7.222-0.03l-1.741-3.148l-5.348-4.008l-3.585,0.141l-3.719-1.17
		l-2.911-2.007l-6.603,1.526L8.03,38.881l-2.361,3.18C11.889,44.257,20.943,47.34,21,47c0.083-0.5,2.083,2.333,3,4
		c0.917,1.667,4.917,2.917,6,3c1.083,0.083,2.25-1.083,5,0c0.705,0.278,1.292,0.488,1.801,0.647l0.184-1.099L40.444,50.741z"/>
	<path style="fill:#FAC176;" d="M35.29,1.692C32.245,3.532,29.026,6.907,33,12c0,0-5.438,6.625,2,9c0,0,4.5,12.438,13-1
		c0,0-1.125,9.813,5,8c2.381-0.705,3.659-2.374,4.34-4.15C54.958,12.819,46.302,4.128,35.29,1.692z"/>
	<path style="fill:#F18D46;" d="M51.597,25.224c-0.045,0-0.066-0.005-0.066-0.005c-0.444-0.423-0.771-2.952-0.55-4.877l-5.516-1.945
		c-2.263,3.577-4.06,4.847-4.911,4.847c-1.004,0-2.333-2.156-2.733-3.264l-0.502-1.389l-1.406-0.448
		c-0.995-0.318-1.683-0.754-1.796-1.138c-0.233-0.79,0.659-2.439,1.203-3.102l1.523-1.855l-1.477-1.894
		c-0.642-0.823-1.369-2.015-1.183-3.021c0.13-0.706,0.717-1.472,1.681-2.211c8.975,2.449,16.01,9.585,18.32,18.608
		c-0.475,0.82-1.125,1.322-2.035,1.592C51.854,25.21,51.677,25.224,51.597,25.224C51.598,25.224,51.598,25.224,51.597,25.224z"/>
	<circle style="fill:#E64C3C;" cx="52" cy="20" r="1"/>
	<circle style="fill:#E64C3C;" cx="39" cy="7" r="1"/>
	<circle style="fill:#E64C3C;" cx="38" cy="12" r="1"/>
	<circle style="fill:#E64C3C;" cx="39" cy="17" r="1"/>
	<circle style="fill:#E64C3C;" cx="44" cy="21" r="1"/>
	
		<ellipse transform="matrix(0.6213 0.7836 -0.7836 0.6213 27.7956 -30.1729)" style="fill:#E64C3C;" cx="45.112" cy="13.669" rx="6.5" ry="4"/>
	<circle style="fill:#F0C419;" cx="47.5" cy="11.5" r="5.5"/>
	<circle style="fill:#F0C419;" cx="58" cy="8" r="1"/>
	<circle style="fill:#F0C419;" cx="56" cy="10" r="1"/>
	<circle style="fill:#F0C419;" cx="58" cy="1" r="1"/>
	<circle style="fill:#F0C419;" cx="56" cy="3" r="1"/>
	<circle style="fill:#F0C419;" cx="54" cy="5" r="1"/>
	<circle style="fill:#F0C419;" cx="52" cy="7" r="1"/>
	<circle style="fill:#F0C419;" cx="51" cy="1" r="1"/>
	<circle style="fill:#F0C419;" cx="49" cy="3" r="1"/>
</g>
<g>
</g>
<g>
</g>
<g>
</g>
<g>
</g>
<g>
</g>
<g>
</g>
<g>
</g>
<g>
</g>
<g>
</g>
<g>
</g>
<g>
</g>
<g>
</g>
<g>
</g>
<g>
</g>
<g>
</g>
</svg>
