<?xml version="1.0" encoding="iso-8859-1"?>
<!-- Generator: Adobe Illustrator 19.0.0, SVG Export Plug-In . SVG Version: 6.00 Build 0)  -->
<svg version="1.1" id="Capa_1" xmlns="http://www.w3.org/2000/svg" xmlns:xlink="http://www.w3.org/1999/xlink" x="0px" y="0px"
	 viewBox="0 0 56.625 56.625" style="enable-background:new 0 0 56.625 56.625;" xml:space="preserve">
<g>
	<path style="fill:#F3D55B;" d="M54.5,49.625h-1.586L50.5,47.211v-1.586c0-0.552-0.448-1-1-1s-1,0.448-1,1v1.586l-2.414,2.414H44.5
		c-0.552,0-1,0.448-1,1s0.448,1,1,1h1.586l2.414,2.414v1.586c0,0.552,0.448,1,1,1s1-0.448,1-1v-1.586l2.414-2.414H54.5
		c0.552,0,1-0.448,1-1S55.052,49.625,54.5,49.625z"/>
	<circle style="fill:#4482C3;" cx="28.5" cy="27.625" r="23"/>
	<circle style="fill:#F3D55B;" cx="2.125" cy="2.625" r="1"/>
	<circle style="fill:#F3D55B;" cx="4.125" cy="50.628" r="1"/>
	<circle style="fill:#F3D55B;" cx="20.625" cy="54.875" r="1"/>
	<circle style="fill:#F3D55B;" cx="14.625" cy="30.625" r="1"/>
	<circle style="fill:#F3D55B;" cx="44.908" cy="1" r="1"/>
	<circle style="fill:#F3D55B;" cx="54" cy="43" r="1"/>
	<path style="fill:#A4E869;" d="M29.882,25.735c0.147,0.072,0.361,0.239,0.453,0.374c0.698,1.021,0.296,2.517,0.988,2.883
		c0.548,0.29,0.859,0.881,0.625,1.454c-0.955,2.343-0.129,5.024,2.092,6.863c1.563,1.294,0.262,4.294-1.053,6.65
		c-0.47,0.842,0.368,1.816,1.277,1.492c1.437-0.511,2.627-1.252,4.004-2.437c1.997-1.718,2.429-3.589,4.409-5.047
		c0.022-0.016,0.038-0.036,0.047-0.062c0.506-1.483,2.078-4.722,0.492-5.547c-1.481-0.769-2.035-2.997-3.48-4.515
		c-0.166-0.174-0.402-0.261-0.641-0.292c-1.771-0.228-2.569-1.576-3.76-0.68c-0.893,0.671-1.896,0.262-2.208-0.81
		c-0.102-0.35-0.28-0.662-0.923-0.86c-0.488-0.151-0.726-0.703-0.55-1.183c0.003-0.007,0.005-0.014,0.008-0.021
		c0.235-0.641-1.089-0.543-1.763-0.431c-0.189,0.031,0.452-0.731,0.241-0.606c-0.828,0.489-1.856-0.355-1.812-1.315
		c0.045-0.974,0.227-0.928,1.897-1.12c1.798-0.837,2.668-0.227,2.61,1.829c1.111,0.164,1.5-0.327,1.165-1.473
		c-0.098-0.335-0.019-0.709,0.193-0.986c2.048-2.664,3.758-3.825,6.893-4.901c0.511-0.175,0.797-0.718,0.655-1.239
		c-0.503-1.844-1.283-4.753-2.614-4.963c-0.341-0.054-0.728-0.377-0.866-0.693c-0.468-1.073-0.783-1.527-1.667-1.787
		c-0.674-0.198-1.356,0.3-1.36,1.002c-0.012,2.149-0.005,4.002-2.466,1.548c-2.036-2.03-2.626-3.135-1.502-3.665
		c-0.052-0.435,0.002,0.021-0.049-0.414c-4.761-0.568-9.361,0.37-13.326,2.435c-0.073,0.038-0.098,0.134-0.059,0.207
		c1.561,2.87,1.877,4.378,1.705,7.726c-0.01,0.185,0.023,0.369,0.101,0.537c1.356,2.922,3.101,7.882,6.081,9.024
		C27.17,25.271,28.509,25.062,29.882,25.735z"/>
</g>
<g>
</g>
<g>
</g>
<g>
</g>
<g>
</g>
<g>
</g>
<g>
</g>
<g>
</g>
<g>
</g>
<g>
</g>
<g>
</g>
<g>
</g>
<g>
</g>
<g>
</g>
<g>
</g>
<g>
</g>
</svg>
