<?xml version="1.0" encoding="iso-8859-1"?>
<!-- Generator: Adobe Illustrator 19.0.0, SVG Export Plug-In . SVG Version: 6.00 Build 0)  -->
<svg version="1.1" id="Capa_1" xmlns="http://www.w3.org/2000/svg" xmlns:xlink="http://www.w3.org/1999/xlink" x="0px" y="0px"
	 viewBox="0 0 58 58" style="enable-background:new 0 0 58 58;" xml:space="preserve">
<g>
	<path style="fill:#88C057;" d="M10.38,8.106c1.562-1.143,3.776-1.024,5.185,0.385c1.556,1.556,1.556,4.101,0,5.657l-7.071,7.071
		c-1.556,1.556-1.556,4.101,0,5.657s4.101,1.556,5.657,0l12.021-12.021c1.556-1.556,4.101-1.556,5.657,0
		c1.556,1.556,1.556,4.101,0,5.657L15.565,36.775c-1.556,1.556-1.556,4.101,0,5.657c1.556,1.556,4.101,1.556,5.657,0l20.506-20.506
		c1.556-1.556,4.101-1.556,5.657,0c1.556,1.556,1.556,4.101,0,5.657L33.243,41.725c-1.556,1.556-1.556,4.101,0,5.657
		c1.556,1.556,4.101,1.556,5.657,0l4.95-4.95c1.556-1.556,4.101-1.556,5.657,0c1.409,1.409,1.528,3.623,0.385,5.185
		c9.815-10.995,9.46-27.866-1.092-38.419C38.246-1.355,21.375-1.709,10.38,8.106z"/>
	<path style="fill:#556080;" d="M50.237,47.043c0.01-0.021,0.022-0.04,0.032-0.061c0.088-0.184,0.158-0.375,0.217-0.568
		c0.013-0.042,0.026-0.084,0.037-0.126c0.048-0.177,0.081-0.357,0.104-0.538c0.008-0.066,0.014-0.133,0.019-0.199
		c0.012-0.162,0.016-0.325,0.009-0.488c-0.004-0.092-0.015-0.183-0.026-0.274c-0.016-0.141-0.035-0.282-0.066-0.421
		c-0.026-0.116-0.064-0.229-0.101-0.343c-0.037-0.115-0.07-0.23-0.117-0.342c-0.06-0.141-0.138-0.275-0.214-0.409
		c-0.046-0.081-0.084-0.166-0.137-0.244c-0.141-0.21-0.301-0.411-0.487-0.597c-1.556-1.556-4.101-1.556-5.657,0l-0.707,0.707
		l-4.243,4.243c-1.556,1.556-4.101,1.556-5.657,0c-1.556-1.556-1.556-4.101,0-5.657L46.678,28.29l0.707-0.707
		c1.556-1.556,1.556-4.101,0-5.657c-1.556-1.556-4.101-1.556-5.657,0l-0.707,0.707L21.222,42.432c-1.556,1.556-4.101,1.556-5.657,0
		c-1.556-1.556-1.556-4.101,0-5.657l15.556-15.556l0.707-0.707c1.556-1.556,1.556-4.101,0-5.657c-1.556-1.556-4.101-1.556-5.657,0
		l-0.707,0.707L14.151,26.876c-1.556,1.556-4.101,1.556-5.657,0s-1.556-4.101,0-5.657l6.364-6.364l0.707-0.707
		c1.556-1.556,1.556-4.101,0-5.657c-0.185-0.185-0.387-0.346-0.597-0.487c-0.078-0.053-0.163-0.09-0.244-0.137
		c-0.134-0.077-0.268-0.154-0.409-0.214c-0.112-0.047-0.227-0.08-0.342-0.117c-0.114-0.037-0.228-0.075-0.344-0.101
		c-0.139-0.031-0.279-0.049-0.42-0.065c-0.091-0.011-0.183-0.022-0.275-0.026c-0.163-0.007-0.325-0.004-0.488,0.009
		c-0.067,0.005-0.133,0.011-0.199,0.019c-0.181,0.023-0.361,0.056-0.538,0.104c-0.042,0.011-0.084,0.025-0.126,0.037
		C11.39,7.57,11.199,7.64,11.015,7.728c-0.021,0.01-0.041,0.022-0.061,0.032c-0.198,0.099-0.391,0.212-0.574,0.346
		c-0.163,0.119-0.325,0.238-0.472,0.385L8.494,9.905c-0.08,0.08-0.138,0.173-0.21,0.258C-1.722,21.152-1.418,38.177,9.201,48.796
		c10.619,10.619,27.644,10.923,38.633,0.918c0.085-0.072,0.178-0.13,0.258-0.21l1.414-1.414c0.147-0.147,0.266-0.309,0.385-0.472
		C50.025,47.434,50.138,47.241,50.237,47.043z"/>
	<circle style="fill:#F3D55B;" cx="55" cy="2.997" r="1"/>
	<circle style="fill:#F3D55B;" cx="55" cy="52.997" r="1"/>
	<circle style="fill:#F3D55B;" cx="57" cy="44.997" r="1"/>
	<circle style="fill:#F3D55B;" cx="6" cy="3.997" r="1"/>
	<circle style="fill:#F3D55B;" cx="7" cy="52.997" r="1"/>
	<circle style="fill:#F3D55B;" cx="1" cy="43.997" r="1"/>
</g>
<g>
</g>
<g>
</g>
<g>
</g>
<g>
</g>
<g>
</g>
<g>
</g>
<g>
</g>
<g>
</g>
<g>
</g>
<g>
</g>
<g>
</g>
<g>
</g>
<g>
</g>
<g>
</g>
<g>
</g>
</svg>
