<?xml version="1.0" encoding="iso-8859-1"?>
<!-- Generator: Adobe Illustrator 19.0.0, SVG Export Plug-In . SVG Version: 6.00 Build 0)  -->
<svg version="1.1" id="Capa_1" xmlns="http://www.w3.org/2000/svg" xmlns:xlink="http://www.w3.org/1999/xlink" x="0px" y="0px"
	 viewBox="0 0 57.804 57.804" style="enable-background:new 0 0 57.804 57.804;" xml:space="preserve">
<g>
	<path style="fill:#95A5A5;" d="M19.293,23.009h4.684l1.401,1.401c0.391,0.391,1.023,0.391,1.414,0s0.391-1.023,0-1.414
		l-1.401-1.401v-4.684c0-0.553-0.447-1-1-1s-1,0.447-1,1v4.098h-4.098c-0.553,0-1,0.447-1,1S18.74,23.009,19.293,23.009z"/>
	<polygon style="fill:#F3D55B;" points="23.8,17.502 23.8,17.502 13.193,6.895 13.193,6.895 11.779,8.31 22.385,18.917 	"/>
	<polygon style="fill:#F3D55B;" points="25.214,16.088 25.214,16.088 26.628,14.674 26.628,14.674 16.022,4.067 16.022,4.067 
		14.607,5.481 14.607,5.481 	"/>
	<polygon style="fill:#F3D55B;" points="19.557,21.745 19.557,21.745 20.971,20.331 10.365,9.724 8.95,11.139 8.95,11.139 	"/>
	<polygon style="fill:#F3D55B;" points="28.042,13.26 28.042,13.26 30.164,11.138 19.557,0.532 17.436,2.653 17.436,2.653 	"/>
	<polygon style="fill:#F3D55B;" points="4.708,15.381 4.708,15.381 2.586,17.502 13.193,28.109 15.315,25.987 15.314,25.987 	"/>
	<polygon style="fill:#F3D55B;" points="16.729,24.573 16.729,24.573 18.143,23.159 18.143,23.159 7.536,12.553 7.536,12.553 
		6.122,13.967 6.122,13.967 	"/>
	<polygon style="fill:#CBB292;" points="26.628,14.674 26.628,14.674 28.042,13.26 28.042,13.26 17.436,2.653 17.436,2.653 
		16.022,4.067 16.022,4.067 	"/>
	<polygon style="fill:#CBB292;" points="23.8,17.502 23.8,17.502 25.214,16.088 25.214,16.088 14.607,5.481 14.607,5.481 
		13.193,6.895 13.193,6.895 	"/>
	
		<rect x="8.875" y="13.32" transform="matrix(0.7071 0.7071 -0.7071 0.7071 14.9221 -7.3846)" style="fill:#CBB292;" width="15" height="2"/>
	<polygon style="fill:#CBB292;" points="18.143,23.159 18.143,23.159 19.557,21.745 19.557,21.745 8.95,11.139 8.95,11.139 
		7.536,12.553 7.536,12.553 	"/>
	<polygon style="fill:#CBB292;" points="4.708,15.381 15.314,25.987 15.315,25.987 16.729,24.573 16.729,24.573 6.122,13.967 
		6.122,13.967 4.708,15.381 	"/>
	<path style="fill:#95A5A5;" d="M41.098,33.272h-4.684l-1.401-1.401c-0.391-0.391-1.023-0.391-1.414,0s-0.391,1.023,0,1.414
		L35,34.687v4.684c0,0.553,0.447,1,1,1s1-0.447,1-1v-4.098h4.098c0.553,0,1-0.447,1-1S41.65,33.272,41.098,33.272z"/>
	<polygon style="fill:#556080;" points="21.132,51.23 6.99,37.088 12.647,34.259 23.961,45.573 	"/>
	<path style="fill:#8697CB;" d="M55.87,2.529c-1.511-1.511-4.145-1.513-5.657,0c-1.313,1.314-1.506,3.317-0.606,4.85l-1.515,1.515
		c-0.391,0.391-0.391,1.023,0,1.414c0.195,0.195,0.451,0.293,0.707,0.293s0.512-0.098,0.707-0.293l1.514-1.514
		c0.608,0.359,1.297,0.564,2.021,0.564c1.068,0,2.073-0.416,2.829-1.171c0.756-0.756,1.172-1.76,1.172-2.828
		C57.042,4.289,56.626,3.285,55.87,2.529z M54.456,6.772c-0.756,0.753-2.073,0.754-2.829,0c-0.779-0.78-0.779-2.049,0-2.829
		c0.378-0.378,0.88-0.586,1.414-0.586c0.535,0,1.037,0.208,1.415,0.586s0.586,0.88,0.586,1.415
		C55.042,5.893,54.834,6.395,54.456,6.772z"/>
	<polygon style="fill:#F3D55B;" points="36.591,38.779 36.591,38.779 47.197,49.386 47.197,49.386 48.612,47.971 38.005,37.365 	"/>
	<polygon style="fill:#F3D55B;" points="35.177,40.193 35.177,40.193 33.763,41.607 33.763,41.607 44.369,52.214 44.369,52.214 
		45.783,50.8 45.783,50.8 	"/>
	<polygon style="fill:#F3D55B;" points="40.834,34.536 40.834,34.536 39.419,35.951 50.026,46.557 51.44,45.143 51.44,45.143 	"/>
	<polygon style="fill:#F3D55B;" points="32.349,43.021 32.349,43.021 30.227,45.143 40.834,55.749 42.955,53.628 42.955,53.628 	"/>
	<polygon style="fill:#F3D55B;" points="55.683,40.9 55.683,40.9 57.804,38.779 47.198,28.172 45.076,30.294 45.076,30.294 	"/>
	<polygon style="fill:#F3D55B;" points="43.662,31.708 43.662,31.708 42.248,33.122 42.248,33.122 52.854,43.729 52.855,43.729 
		54.269,42.315 54.269,42.314 	"/>
	<polygon style="fill:#CBB292;" points="33.763,41.607 33.763,41.607 32.349,43.021 32.349,43.021 42.955,53.628 42.955,53.628 
		44.369,52.214 44.369,52.214 	"/>
	<polygon style="fill:#CBB292;" points="36.591,38.779 36.591,38.779 35.177,40.193 35.177,40.193 45.783,50.8 45.783,50.8 
		47.197,49.386 47.197,49.386 	"/>
	
		<rect x="36.516" y="40.961" transform="matrix(-0.7071 -0.7071 0.7071 -0.7071 45.4685 102.7555)" style="fill:#CBB292;" width="15" height="2"/>
	<polygon style="fill:#CBB292;" points="42.248,33.122 42.248,33.122 40.834,34.536 40.834,34.536 51.44,45.143 51.44,45.143 
		52.855,43.729 52.854,43.729 	"/>
	<polygon style="fill:#CBB292;" points="55.683,40.9 45.076,30.294 45.076,30.294 43.662,31.708 43.662,31.708 54.269,42.314 
		54.269,42.315 55.683,40.9 	"/>
	<path style="fill:#E6E7E8;" d="M43.142,23.743L22.636,44.249l-8.485-8.485l20.506-20.506c2.333-2.333,6.152-2.333,8.485,0l0,0
		C45.476,17.591,45.476,21.409,43.142,23.743z"/>
	<path style="fill:#556080;" d="M43.142,3.944c-3.124,3.124-3.124,8.19,0,11.314s8.19,3.124,11.314,0L43.142,3.944z"/>
	<g>
		<circle style="fill:#F18D46;" cx="11" cy="56.272" r="1"/>
		<circle style="fill:#F18D46;" cx="4" cy="53.272" r="1"/>
		<circle style="fill:#F18D46;" cx="6" cy="51.272" r="1"/>
		<circle style="fill:#F18D46;" cx="8" cy="49.272" r="1"/>
		<circle style="fill:#F18D46;" cx="10" cy="47.272" r="1"/>
		<path style="fill:#F18D46;" d="M13.242,48.303c-0.537-0.138-1.079,0.19-1.212,0.728l-1,4c-0.135,0.535,0.191,1.078,0.728,1.212
			c0.081,0.021,0.163,0.03,0.243,0.03c0.448,0,0.855-0.303,0.969-0.758l1-4C14.104,48.98,13.778,48.437,13.242,48.303z"/>
		<circle style="fill:#F18D46;" cx="1" cy="46.272" r="1"/>
		<path style="fill:#F18D46;" d="M3.999,46.272c0.08,0,0.162-0.01,0.243-0.03l4-1c0.536-0.134,0.862-0.677,0.728-1.212
			c-0.134-0.536-0.678-0.864-1.212-0.728l-4,1c-0.536,0.134-0.862,0.677-0.728,1.212C3.144,45.97,3.551,46.272,3.999,46.272z"/>
	</g>
	
		<rect x="21.165" y="30.684" transform="matrix(0.7071 0.7071 -0.7071 0.7071 32.0238 -5.0974)" style="fill:#95A5A5;" width="2" height="10.847"/>
</g>
<g>
</g>
<g>
</g>
<g>
</g>
<g>
</g>
<g>
</g>
<g>
</g>
<g>
</g>
<g>
</g>
<g>
</g>
<g>
</g>
<g>
</g>
<g>
</g>
<g>
</g>
<g>
</g>
<g>
</g>
</svg>
