<?xml version="1.0" encoding="iso-8859-1"?>
<!-- Generator: Adobe Illustrator 19.0.0, SVG Export Plug-In . SVG Version: 6.00 Build 0)  -->
<svg version="1.1" id="Capa_1" xmlns="http://www.w3.org/2000/svg" xmlns:xlink="http://www.w3.org/1999/xlink" x="0px" y="0px"
	 viewBox="0 0 56.414 56.414" style="enable-background:new 0 0 56.414 56.414;" xml:space="preserve">
<g>
	<path style="fill:#8697CB;" d="M39.5,28.828L17.086,6.414h16.823l-0.65,3.592l3.471,3.47l2.771-0.708V28.828z M21.914,8.414
		L37.5,24v-8.657l-1.38,0.353l-5.016-5.016l0.41-2.266H21.914z"/>
	
		<circle style="fill:#8697CB;stroke:#556080;stroke-width:2;stroke-linecap:round;stroke-miterlimit:10;" cx="19.454" cy="26.414" r="5"/>
	
		<line style="fill:none;stroke:#556080;stroke-width:2;stroke-linecap:round;stroke-miterlimit:10;" x1="19.5" y1="31.414" x2="19.5" y2="40.414"/>
	<path style="fill:#556080;" d="M13.5,0l-0.707,0.707c-2.96,2.961-3.559,13.527,2.284,22.707l0.669,1.05l0.881-0.879
		c0.757-0.755,1.761-1.17,2.827-1.17c2.206,0,4,1.794,4,4c0,1.129-0.472,2.178-1.328,2.954l-0.924,0.836l1.016,0.721
		c6.76,4.796,13.729,5.314,16.411,5.314c0.001,0,0.001,0,0.001,0c3.47,0,6.231-0.771,7.577-2.117l0.707-0.707L13.5,0z"/>
	<polygon style="fill:#F0C419;" points="43.496,7.515 42.081,13.171 36.425,14.586 32.182,10.343 33.596,4.686 39.253,3.272 	"/>
	<path style="fill:#ECF0F1;" d="M16.524,42.316L15.5,44.414h8l-1.062-2.125C21.217,39.844,17.723,39.86,16.524,42.316z"/>
	<rect x="9.5" y="52.414" style="fill:#A5A5A4;" width="20" height="4"/>
	<rect x="12.5" y="44.414" style="fill:#D1D4D1;" width="14" height="8"/>
</g>
<g>
</g>
<g>
</g>
<g>
</g>
<g>
</g>
<g>
</g>
<g>
</g>
<g>
</g>
<g>
</g>
<g>
</g>
<g>
</g>
<g>
</g>
<g>
</g>
<g>
</g>
<g>
</g>
<g>
</g>
</svg>
