<?xml version="1.0" encoding="iso-8859-1"?>
<!-- Generator: Adobe Illustrator 19.0.0, SVG Export Plug-In . SVG Version: 6.00 Build 0)  -->
<svg version="1.1" id="Capa_1" xmlns="http://www.w3.org/2000/svg" xmlns:xlink="http://www.w3.org/1999/xlink" x="0px" y="0px"
	 viewBox="0 0 58 58" style="enable-background:new 0 0 58 58;" xml:space="preserve">
<g>
	<path style="fill:#ECF0F1;" d="M37.067,5.57l-5.355-3.708c-1.631-1.129-3.791-1.129-5.423,0L20.933,5.57
		C17.844,7.709,16,11.227,16,14.985v37h26v-37C42,11.227,40.156,7.709,37.067,5.57z"/>
	<rect x="31" y="22.985" style="fill:#BDC3C7;" width="11" height="18"/>
	<circle style="fill:#FFFFFF;" cx="34" cy="25.985" r="1"/>
	<circle style="fill:#FFFFFF;" cx="34" cy="29.985" r="1"/>
	<circle style="fill:#FFFFFF;" cx="34" cy="33.985" r="1"/>
	<circle style="fill:#FFFFFF;" cx="34" cy="37.985" r="1"/>
	<circle style="fill:#BDC3C7;" cx="19" cy="48.985" r="1"/>
	<circle style="fill:#BDC3C7;" cx="29" cy="48.985" r="1"/>
	<circle style="fill:#BDC3C7;" cx="39" cy="48.985" r="1"/>
	<rect x="16" y="44.985" style="fill:#BDC3C7;" width="26" height="2"/>
	<path style="fill:#BDC3C7;" d="M26.289,1.862L20.933,5.57c-2.532,1.753-4.207,4.437-4.736,7.415h25.606
		c-0.53-2.978-2.205-5.663-4.736-7.415l-5.355-3.708C30.08,0.733,27.92,0.733,26.289,1.862z"/>
	<rect x="18" y="51.985" style="fill:#A5A5A4;" width="22" height="5"/>
	<rect x="46" y="1.985" style="fill:#556080;" width="12" height="54"/>
	<path style="fill:#D1D4D1;" d="M42.014,28.971L46,24.985v8c0,0-3.724-3.724-3.986-3.986C42.006,28.991,42.006,28.979,42.014,28.971
		z"/>
	<polygon style="fill:#8697CB;" points="53,48.985 53,44.985 58,44.985 58,42.985 53,42.985 53,38.985 58,38.985 58,36.985 
		53,36.985 53,32.985 58,32.985 58,30.985 53,30.985 53,26.985 58,26.985 58,24.985 53,24.985 53,20.985 58,20.985 58,18.985 
		53,18.985 53,14.985 58,14.985 58,12.985 53,12.985 53,8.985 58,8.985 58,6.985 53,6.985 53,1.985 51,1.985 51,6.985 46,6.985 
		46,8.985 51,8.985 51,12.985 46,12.985 46,14.985 51,14.985 51,18.985 46,18.985 46,20.985 51,20.985 51,24.985 46,24.985 
		46,26.985 51,26.985 51,30.985 46,30.985 46,32.985 51,32.985 51,36.985 46,36.985 46,38.985 51,38.985 51,42.985 46,42.985 
		46,44.985 51,44.985 51,48.985 46,48.985 46,50.985 51,50.985 51,55.985 53,55.985 53,50.985 58,50.985 58,48.985 	"/>
	<rect x="0" y="1.985" style="fill:#556080;" width="12" height="54"/>
	<path style="fill:#D1D4D1;" d="M15.986,28.971L12,24.985v8c0,0,3.724-3.724,3.986-3.986C15.994,28.991,15.994,28.979,15.986,28.971
		z"/>
	<polygon style="fill:#8697CB;" points="5,48.985 5,44.985 0,44.985 0,42.985 5,42.985 5,38.985 0,38.985 0,36.985 5,36.985 
		5,32.985 0,32.985 0,30.985 5,30.985 5,26.985 0,26.985 0,24.985 5,24.985 5,20.985 0,20.985 0,18.985 5,18.985 5,14.985 0,14.985 
		0,12.985 5,12.985 5,8.985 0,8.985 0,6.985 5,6.985 5,1.985 7,1.985 7,6.985 12,6.985 12,8.985 7,8.985 7,12.985 12,12.985 
		12,14.985 7,14.985 7,18.985 12,18.985 12,20.985 7,20.985 7,24.985 12,24.985 12,26.985 7,26.985 7,30.985 12,30.985 12,32.985 
		7,32.985 7,36.985 12,36.985 12,38.985 7,38.985 7,42.985 12,42.985 12,44.985 7,44.985 7,48.985 12,48.985 12,50.985 7,50.985 
		7,55.985 5,55.985 5,50.985 0,50.985 0,48.985 	"/>
	<polygon style="fill:#BDC3C7;" points="16,21.985 16,23.985 23,23.985 23,27.985 16,27.985 16,29.985 23,29.985 23,33.985 
		16,33.985 16,35.985 23,35.985 23,39.985 16,39.985 16,41.985 25,41.985 25,35.985 25,33.985 25,29.985 25,27.985 25,21.985 	"/>
</g>
<g>
</g>
<g>
</g>
<g>
</g>
<g>
</g>
<g>
</g>
<g>
</g>
<g>
</g>
<g>
</g>
<g>
</g>
<g>
</g>
<g>
</g>
<g>
</g>
<g>
</g>
<g>
</g>
<g>
</g>
</svg>
