<?xml version="1.0" encoding="iso-8859-1"?>
<!-- Generator: Adobe Illustrator 19.0.0, SVG Export Plug-In . SVG Version: 6.00 Build 0)  -->
<svg version="1.1" id="Capa_1" xmlns="http://www.w3.org/2000/svg" xmlns:xlink="http://www.w3.org/1999/xlink" x="0px" y="0px"
	 viewBox="0 0 57.615 57.615" style="enable-background:new 0 0 57.615 57.615;" xml:space="preserve">
<g>
	<g>
		<circle style="fill:#F9C38A;" cx="29.5" cy="28.115" r="20.5"/>
	</g>
	<g>
		<circle style="fill:#FFD199;" cx="26.5" cy="25.115" r="14.5"/>
	</g>
	<g>
		<circle style="fill:#FFD8AE;" cx="23.5" cy="21.115" r="7.5"/>
	</g>
	<path style="fill:#F3D55B;" d="M12,7.615h-1.586L8,5.201V3.615c0-0.552-0.447-1-1-1s-1,0.448-1,1v1.586L3.586,7.615H2
		c-0.553,0-1,0.448-1,1s0.447,1,1,1h1.586L6,12.029v1.586c0,0.552,0.447,1,1,1s1-0.448,1-1v-1.586l2.414-2.414H12
		c0.553,0,1-0.448,1-1S12.553,7.615,12,7.615z"/>
	<circle style="fill:#F3D55B;" cx="50" cy="54.615" r="1"/>
	<circle style="fill:#F3D55B;" cx="55" cy="34.615" r="1"/>
	<circle style="fill:#F3D55B;" cx="5" cy="23.615" r="1"/>
	<circle style="fill:#F3D55B;" cx="24" cy="24.615" r="1"/>
	<circle style="fill:#F3D55B;" cx="31" cy="55.615" r="1"/>
	<path style="fill:#F9EAB0;" d="M34.965,8.928c0,0-0.005,0.005-0.004,0.005C35.031,8.959,34.965,8.928,34.965,8.928z"/>
	<polygon style="fill:#F9EAB0;" points="34.965,8.928 34.965,8.928 34.965,8.928 	"/>
	<path style="fill:#F9EAB0;" d="M57.395,0.221c-1.28-1.28-7.9,3.098-16.755,10.712c0.579,0.378,1.134,0.788,1.67,1.22
		c5.919-5.043,10.185-8.06,12.378-9.225c-2.024,3.809-9.6,13.843-23.759,28.001S6.737,52.664,2.928,54.688
		c1.262-2.375,4.684-7.171,10.512-13.877c-0.426-0.538-0.832-1.092-1.204-1.672C3.826,48.74-1.13,56.044,0.221,57.395
		c1.953,1.953,16.334-9.263,32.122-25.051C48.131,16.555,59.347,2.173,57.395,0.221z"/>
</g>
<g>
</g>
<g>
</g>
<g>
</g>
<g>
</g>
<g>
</g>
<g>
</g>
<g>
</g>
<g>
</g>
<g>
</g>
<g>
</g>
<g>
</g>
<g>
</g>
<g>
</g>
<g>
</g>
<g>
</g>
</svg>
