<?xml version="1.0" encoding="iso-8859-1"?>
<!-- Generator: Adobe Illustrator 19.0.0, SVG Export Plug-In . SVG Version: 6.00 Build 0)  -->
<svg version="1.1" id="Capa_1" xmlns="http://www.w3.org/2000/svg" xmlns:xlink="http://www.w3.org/1999/xlink" x="0px" y="0px"
	 viewBox="0 0 58 58" style="enable-background:new 0 0 58 58;" xml:space="preserve">
<g>
	<path style="fill:#38454F;" d="M36.75,48v-9c0-0.552,0.448-1,1-1s1,0.448,1,1v2h12.881c-1.064-4.299-6.313-8.115-9.927-10.632
		c-1.511-1.052-2.126-2.724-2.954-4.368c-1.561-3.099-3.197-7.479-3.769-10.914l-0.53-3.067c-0.056,0.01-0.112,0.024-0.168,0.024
		c-0.329,0-0.651-0.162-0.842-0.459C32.384,9.942,30.833,9,29.186,9c-1.603,0-3.125,0.896-4.177,2.458
		c-0.227,0.336-0.623,0.487-0.999,0.423l-0.554,3.205C22.883,18.521,21.311,22.901,19.75,26c-0.828,1.644-1.507,3.316-3.018,4.368
		C13.118,32.885,7.928,36.701,6.868,41H19.75v-2c0-0.552,0.448-1,1-1s1,0.448,1,1v9c0,0.478-0.343,0.859-0.791,0.958
		C21.017,48.984,21.08,49,21.147,49h2.009c0.191,0,0.362,0.118,0.43,0.296l0.922,2.408C24.577,51.882,24.748,52,24.939,52h4.279
		h4.279c0.191,0,0.362-0.118,0.431-0.296l0.922-2.408C34.918,49.118,35.089,49,35.28,49h2.009c0.074,0,0.141-0.021,0.203-0.052
		C37.068,48.832,36.75,48.461,36.75,48z"/>
	<path style="fill:#38454F;" d="M38.75,46.008c0.009-0.001,0.017-0.007,0.026-0.008l12.493-1.004
		c0.272-0.022,0.481-0.249,0.481-0.521V43h-13V46.008z"/>
	<path style="fill:#38454F;" d="M6.75,43v1.475c0,0.272,0.209,0.499,0.481,0.521l12.43,1.003c0.032,0.003,0.058,0.021,0.089,0.027
		V43H6.75z"/>
	<path style="fill:#546A79;" d="M21.75,48v-9c0-0.552-0.448-1-1-1s-1,0.448-1,1v2H6.868c-0.042,0.17-0.09,0.339-0.118,0.511V43h13
		v3.026c0.535,0.101,0.936,0.558,0.936,1.111v1.402c0,0.187,0.113,0.347,0.273,0.419C21.407,48.859,21.75,48.478,21.75,48z"/>
	<path style="fill:#546A79;" d="M51.631,41H38.75v-2c0-0.552-0.448-1-1-1s-1,0.448-1,1v9c0,0.461,0.318,0.832,0.742,0.948
		c0.151-0.076,0.258-0.228,0.258-0.409v-1.401c0-0.577,0.431-1.057,1-1.13V43h13v-1.489C51.721,41.339,51.673,41.17,51.631,41z"/>
	<g>
		<path style="fill:#F3D55B;" d="M54.75,5h-1.586L50.75,2.586V1c0-0.552-0.448-1-1-1s-1,0.448-1,1v1.586L46.336,5H44.75
			c-0.552,0-1,0.448-1,1s0.448,1,1,1h1.586l2.414,2.414V11c0,0.552,0.448,1,1,1s1-0.448,1-1V9.414L53.164,7h1.586
			c0.552,0,1-0.448,1-1S55.302,5,54.75,5z"/>
		<circle style="fill:#F3D55B;" cx="44.75" cy="11" r="1.5"/>
		<circle style="fill:#F3D55B;" cx="3.75" cy="32" r="1.5"/>
		<circle style="fill:#F3D55B;" cx="4.75" cy="7" r="1.5"/>
		<circle style="fill:#F3D55B;" cx="15.75" cy="16" r="1.5"/>
		<circle style="fill:#F3D55B;" cx="52.75" cy="30" r="1.5"/>
		<circle style="fill:#F3D55B;" cx="11.75" cy="53" r="1.5"/>
		<circle style="fill:#F3D55B;" cx="50.75" cy="54" r="1.5"/>
	</g>
	<g>
		<path style="fill:#E57E25;" d="M24.686,54c-0.552,0-1,0.448-1,1v1c0,0.552,0.448,1,1,1s1-0.448,1-1v-1
			C25.686,54.448,25.238,54,24.686,54z"/>
		<path style="fill:#E57E25;" d="M27.686,54c-0.552,0-1,0.448-1,1v2c0,0.552,0.448,1,1,1s1-0.448,1-1v-2
			C28.686,54.448,28.238,54,27.686,54z"/>
		<path style="fill:#E57E25;" d="M30.686,54c-0.552,0-1,0.448-1,1v2c0,0.552,0.448,1,1,1s1-0.448,1-1v-2
			C31.686,54.448,31.238,54,30.686,54z"/>
		<path style="fill:#E57E25;" d="M33.686,54c-0.552,0-1,0.448-1,1v1c0,0.552,0.448,1,1,1s1-0.448,1-1v-1
			C34.686,54.448,34.238,54,33.686,54z"/>
	</g>
	<path style="fill:#38454F;" d="M29.186,7c1.762,0,3.423,0.724,4.748,2.031l-0.467-2.704c-0.432-2.59-1.525-3.762-3.162-5.791
		c-0.557-0.691-1.616-0.691-2.173,0c-1.637,2.029-2.73,3.2-3.162,5.791l-0.454,2.626C25.829,7.697,27.463,7,29.186,7z"/>
	<path style="fill:#8697CB;" d="M29.186,9c1.647,0,3.198,0.942,4.255,2.583c0.191,0.297,0.513,0.459,0.842,0.459
		c0.056,0,0.112-0.014,0.168-0.024l-0.517-2.988C32.609,7.724,30.948,7,29.186,7c-1.723,0-3.357,0.697-4.67,1.953l-0.506,2.928
		c0.376,0.064,0.772-0.087,0.999-0.423C26.061,9.896,27.583,9,29.186,9z"/>
	<g>
		<path style="fill:#546A79;" d="M33.75,40h-9c-0.552,0-1,0.448-1,1s0.448,1,1,1h9c0.552,0,1-0.448,1-1S34.302,40,33.75,40z"/>
		<path style="fill:#546A79;" d="M33.75,35h-9c-0.552,0-1,0.448-1,1s0.448,1,1,1h9c0.552,0,1-0.448,1-1S34.302,35,33.75,35z"/>
		<path style="fill:#546A79;" d="M24.75,32h9c0.552,0,1-0.448,1-1s-0.448-1-1-1h-9c-0.552,0-1,0.448-1,1S24.198,32,24.75,32z"/>
		<path style="fill:#546A79;" d="M32.75,44h-7c-0.552,0-1,0.448-1,1v2c0,0.552,0.448,1,1,1s1-0.448,1-1v-1h5v1c0,0.552,0.448,1,1,1
			s1-0.448,1-1v-2C33.75,44.448,33.302,44,32.75,44z"/>
	</g>
	<path style="fill:#546A79;" d="M41.704,30.368c-1.511-1.052-2.126-2.724-2.954-4.368c-1.56-3.097-3.194-7.472-3.768-10.906
		C34.285,21.77,34.262,36.935,48.429,37c0.364,0.002,0.701-0.01,1.026-0.028C47.312,34.348,44.138,32.063,41.704,30.368z"/>
	<path style="fill:#546A79;" d="M23.493,14.87l-0.037,0.216C22.883,18.521,21.311,22.901,19.75,26
		c-0.828,1.644-1.507,3.316-3.018,4.368c-2.433,1.694-5.58,3.979-7.704,6.602c0.33,0.019,0.673,0.031,1.043,0.03
		C24.403,36.934,24.212,21.419,23.493,14.87z"/>
</g>
<g>
</g>
<g>
</g>
<g>
</g>
<g>
</g>
<g>
</g>
<g>
</g>
<g>
</g>
<g>
</g>
<g>
</g>
<g>
</g>
<g>
</g>
<g>
</g>
<g>
</g>
<g>
</g>
<g>
</g>
</svg>
