<?xml version="1.0" encoding="iso-8859-1"?>
<!-- Generator: Adobe Illustrator 19.0.0, SVG Export Plug-In . SVG Version: 6.00 Build 0)  -->
<svg version="1.1" id="Capa_1" xmlns="http://www.w3.org/2000/svg" xmlns:xlink="http://www.w3.org/1999/xlink" x="0px" y="0px"
	 viewBox="0 0 56.042 56.042" style="enable-background:new 0 0 56.042 56.042;" xml:space="preserve">
<g>
	<path style="fill:#E6E6E6;" d="M52.521,45.042h-8l-1.086-5.433c-0.601-3.008-0.528-6.111,0.216-9.087v0
		c0.576-2.303,1.543-4.491,2.861-6.466l0.97-1.455c0.495-0.742,1.585-0.742,2.08,0l0.97,1.455c1.317,1.976,2.285,4.163,2.861,6.466
		v0c0.744,2.975,0.818,6.079,0.216,9.087L52.521,45.042z"/>
	<path style="fill:#E6E6E6;" d="M11.521,45.042h-8l-1.086-5.433c-0.601-3.008-0.528-6.111,0.216-9.087l0,0
		c0.576-2.303,1.543-4.491,2.861-6.466l0.97-1.455c0.495-0.742,1.585-0.742,2.08,0l0.97,1.455c1.317,1.976,2.285,4.163,2.861,6.466
		l0,0c0.744,2.975,0.818,6.079,0.216,9.087L11.521,45.042z"/>
	<path style="fill:#E6E6E6;" d="M30.299,2.267L28.032,0l-2.267,2.267c-9.962,9.962-11.672,25.051-5.129,36.773
		c0.005,0.009,0.01,0.018,0.015,0.026c1.492,2.64,2.381,5.58,2.381,8.612v1.363h10v-1.363c0-3.033,0.891-5.972,2.381-8.613
		c0.004-0.008,0.009-0.016,0.013-0.023C41.971,27.32,40.261,12.229,30.299,2.267z"/>
	
		<line style="fill:none;stroke:#F29C1F;stroke-width:2;stroke-linecap:round;stroke-miterlimit:10;" x1="5.032" y1="48.042" x2="5.032" y2="50.042"/>
	
		<line style="fill:none;stroke:#F29C1F;stroke-width:2;stroke-linecap:round;stroke-miterlimit:10;" x1="10.032" y1="48.042" x2="10.032" y2="50.042"/>
	
		<line style="fill:none;stroke:#F29C1F;stroke-width:2;stroke-linecap:round;stroke-miterlimit:10;" x1="46.032" y1="48.042" x2="46.032" y2="50.042"/>
	
		<line style="fill:none;stroke:#F29C1F;stroke-width:2;stroke-linecap:round;stroke-miterlimit:10;" x1="51.032" y1="48.042" x2="51.032" y2="50.042"/>
	<g>
		<path style="fill:#A5A5A4;" d="M38.584,30.637c-0.494,2.26-1.236,4.474-2.243,6.598l7.564,4.728l-0.471-2.353
			c-0.404-2.021-0.496-4.084-0.292-6.124L38.584,30.637z"/>
		<path style="fill:#A5A5A4;" d="M17.48,30.637l-4.579,2.862c0.202,2.035,0.11,4.094-0.293,6.11l-0.474,2.369l7.59-4.744
			C18.716,35.111,17.973,32.897,17.48,30.637z"/>
	</g>
	<circle style="fill:#556080;" cx="28.032" cy="14.042" r="5"/>
	<circle style="fill:#8697CB;" cx="28.032" cy="27.042" r="3"/>
	<circle style="fill:#8697CB;" cx="28.032" cy="38.042" r="3"/>
	<polygon style="fill:#38454F;" points="34.032,56.042 22.032,56.042 23.032,49.042 33.032,49.042 	"/>
	<path style="fill:#546A79;" d="M26.032,54.042c-0.552,0-1-0.448-1-1v-1c0-0.552,0.448-1,1-1s1,0.448,1,1v1
		C27.032,53.594,26.584,54.042,26.032,54.042z"/>
	<path style="fill:#546A79;" d="M30.032,54.042c-0.552,0-1-0.448-1-1v-1c0-0.552,0.448-1,1-1s1,0.448,1,1v1
		C31.032,53.594,30.584,54.042,30.032,54.042z"/>
</g>
<g>
</g>
<g>
</g>
<g>
</g>
<g>
</g>
<g>
</g>
<g>
</g>
<g>
</g>
<g>
</g>
<g>
</g>
<g>
</g>
<g>
</g>
<g>
</g>
<g>
</g>
<g>
</g>
<g>
</g>
</svg>
