<?xml version="1.0" encoding="iso-8859-1"?>
<!-- Generator: Adobe Illustrator 19.0.0, SVG Export Plug-In . SVG Version: 6.00 Build 0)  -->
<svg version="1.1" id="Capa_1" xmlns="http://www.w3.org/2000/svg" xmlns:xlink="http://www.w3.org/1999/xlink" x="0px" y="0px"
	 viewBox="0 0 60 60" style="enable-background:new 0 0 60 60;" xml:space="preserve">
<g>
	<path style="fill:#F3D55B;" d="M44.51,50.526c-0.974-2.362-3.296-4.026-6.01-4.026c-0.254,0-0.504,0.018-0.75,0.046
		c-0.228-0.908-0.612-1.401-1.12-1.752c-1.316-0.909-2.924-1.295-4.523-1.295h-4.213c-1.599,0-3.207,0.386-4.523,1.295
		c-0.508,0.351-0.892,0.844-1.12,1.752c-0.246-0.028-0.496-0.046-0.75-0.046c-2.713,0-5.036,1.664-6.01,4.026
		C11.311,50.79,8,54.254,8,58.5h44C52,54.254,48.689,50.79,44.51,50.526z"/>
	<path style="fill:#EEAF4B;" d="M12.008,58.5c0.851-1.125,2.167-1.885,3.672-1.98l1.87-0.118l0.714-1.733
		c0.543-1.317,1.813-2.169,3.236-2.169c0.138,0,0.273,0.011,0.407,0.027l2.61,0.3l1.876-1.849C27.355,50.031,28.65,49.5,30,49.5h0
		c1.35,0,2.645,0.531,3.607,1.479l1.876,1.849l2.61-0.3c0.134-0.016,0.27-0.027,0.407-0.027c1.423,0,2.693,0.852,3.236,2.169
		l0.714,1.733l1.87,0.118c1.505,0.095,2.821,0.854,3.672,1.98H12.008z"/>
	<path style="fill:#F18D46;" d="M27,52.5c-0.553,0-1-0.448-1-1v-5c0-0.552,0.447-1,1-1s1,0.448,1,1v5C28,52.052,27.553,52.5,27,52.5
		z"/>
	<path style="fill:#F18D46;" d="M30,55.5c-0.553,0-1-0.448-1-1v-4c0-0.552,0.447-1,1-1s1,0.448,1,1v4C31,55.052,30.553,55.5,30,55.5
		z"/>
	<path style="fill:#F18D46;" d="M33,50.5c-0.553,0-1-0.448-1-1v-3c0-0.552,0.447-1,1-1s1,0.448,1,1v3C34,50.052,33.553,50.5,33,50.5
		z"/>
	<path style="fill:#F18D46;" d="M30,47.5c-0.553,0-1-0.448-1-1v-3c0-0.552,0.447-1,1-1s1,0.448,1,1v3C31,47.052,30.553,47.5,30,47.5
		z"/>
	<polygon style="fill:#38454F;" points="35,39.5 25,39.5 27,33.5 33,33.5 	"/>
	<path style="fill:#E57E25;" d="M26,22.5L26,22.5v-9c0-2.007,0.683-3.954,1.937-5.521l0.741-0.927c0.678-0.847,1.966-0.847,2.644,0
		l0.741,0.927C33.317,9.546,34,11.493,34,13.5v9l0,0l3,1.8V7.4c0-3.866-3.134-6.9-7-6.9s-7,3.034-7,6.9v16.787L26,22.5z"/>
	<g>
		<path style="fill:#D1D4D1;" d="M45,29.1V9.167c0-0.5-0.148-0.988-0.425-1.404l-2.567-3.851c-0.479-0.719-1.536-0.719-2.015,0
			l-2.567,3.851C37.148,8.179,37,8.667,37,9.167V24.3L45,29.1z"/>
		<rect x="37" y="34.5" style="fill:#D1D4D1;" width="8" height="3"/>
	</g>
	<g>
		<path style="fill:#D1D4D1;" d="M23,24.188V9.167c0-0.5-0.148-0.988-0.425-1.404l-2.567-3.851c-0.479-0.719-1.536-0.719-2.015,0
			l-2.567,3.851C15.148,8.179,15,8.667,15,9.167v19.521L23,24.188z"/>
		<rect x="15" y="34.5" style="fill:#D1D4D1;" width="8" height="3"/>
	</g>
	<path style="fill:#F18D46;" d="M16,43.5c-0.553,0-1-0.448-1-1v-2c0-0.552,0.447-1,1-1s1,0.448,1,1v2C17,43.052,16.553,43.5,16,43.5
		z"/>
	<path style="fill:#F18D46;" d="M19,44.5c-0.553,0-1-0.448-1-1v-2c0-0.552,0.447-1,1-1s1,0.448,1,1v2C20,44.052,19.553,44.5,19,44.5
		z"/>
	<path style="fill:#F18D46;" d="M22,43.5c-0.553,0-1-0.448-1-1v-2c0-0.552,0.447-1,1-1s1,0.448,1,1v2C23,43.052,22.553,43.5,22,43.5
		z"/>
	<path style="fill:#F18D46;" d="M38,43.5c-0.553,0-1-0.448-1-1v-2c0-0.552,0.447-1,1-1s1,0.448,1,1v2C39,43.052,38.553,43.5,38,43.5
		z"/>
	<path style="fill:#F18D46;" d="M41,44.5c-0.553,0-1-0.448-1-1v-2c0-0.552,0.447-1,1-1s1,0.448,1,1v2C42,44.052,41.553,44.5,41,44.5
		z"/>
	<path style="fill:#F18D46;" d="M44,43.5c-0.553,0-1-0.448-1-1v-2c0-0.552,0.447-1,1-1s1,0.448,1,1v2C45,43.052,44.553,43.5,44,43.5
		z"/>
	
		<line style="fill:none;stroke:#0096E6;stroke-width:2;stroke-linecap:round;stroke-miterlimit:10;" x1="29" y1="12.5" x2="31" y2="12.5"/>
	
		<line style="fill:none;stroke:#AF8066;stroke-width:2;stroke-linecap:round;stroke-miterlimit:10;" x1="1" y1="58.5" x2="59" y2="58.5"/>
	<path style="fill:#ECF0F1;" d="M34,22.5v-9c0-2.007-0.683-3.954-1.937-5.521l-0.741-0.927c-0.678-0.847-1.966-0.847-2.644,0
		l-0.741,0.927C26.683,9.546,26,11.493,26,13.5v9l-16,9v4h13h2h10h2h12v-4L34,22.5z"/>
	<rect x="10" y="33.5" style="fill:#546A79;" width="39" height="2"/>
	<path style="fill:#546A79;" d="M28.213,13.198l-0.87-0.87l2.036-2.036c0.438-0.438,1.147-0.438,1.585,0L33,12.328l-0.87,0.87
		C31.048,14.28,29.295,14.28,28.213,13.198z"/>
	<rect x="15" y="11.5" style="fill:#ECF0F1;" width="8" height="2"/>
	<rect x="15" y="19.5" style="fill:#ECF0F1;" width="8" height="2"/>
	<rect x="37" y="11.5" style="fill:#ECF0F1;" width="8" height="2"/>
	<rect x="37" y="19.5" style="fill:#ECF0F1;" width="8" height="2"/>
</g>
<g>
</g>
<g>
</g>
<g>
</g>
<g>
</g>
<g>
</g>
<g>
</g>
<g>
</g>
<g>
</g>
<g>
</g>
<g>
</g>
<g>
</g>
<g>
</g>
<g>
</g>
<g>
</g>
<g>
</g>
</svg>
