<?xml version="1.0" encoding="iso-8859-1"?>
<!-- Generator: Adobe Illustrator 19.0.0, SVG Export Plug-In . SVG Version: 6.00 Build 0)  -->
<svg version="1.1" id="Capa_1" xmlns="http://www.w3.org/2000/svg" xmlns:xlink="http://www.w3.org/1999/xlink" x="0px" y="0px"
	 viewBox="0 0 59 59" style="enable-background:new 0 0 59 59;" xml:space="preserve">
<g>
	<g>
		<path style="fill:#556080;" d="M19.5,47h-5c-0.13,0-0.26,0.026-0.382,0.077c-0.123,0.051-0.234,0.125-0.326,0.217L4.086,57H2.5
			c-0.553,0-1,0.447-1,1s0.447,1,1,1h5c0.553,0,1-0.447,1-1s-0.447-1-1-1H6.914l8-8H19.5c0.553,0,1-0.447,1-1S20.053,47,19.5,47z"/>
		<path style="fill:#556080;" d="M56.5,57h-1.586l-9.706-9.706c-0.092-0.093-0.203-0.166-0.326-0.217C44.76,47.026,44.63,47,44.5,47
			h-5c-0.553,0-1,0.447-1,1s0.447,1,1,1h4.586l8,8H51.5c-0.553,0-1,0.447-1,1s0.447,1,1,1h5c0.553,0,1-0.447,1-1S57.053,57,56.5,57z
			"/>
		<path style="fill:#556080;" d="M31.5,57h-1v-7c0-0.553-0.447-1-1-1s-1,0.447-1,1v7h-1c-0.553,0-1,0.447-1,1s0.447,1,1,1h4
			c0.553,0,1-0.447,1-1S32.053,57,31.5,57z"/>
	</g>
	<rect x="19.5" y="42" style="fill:#BDC3C7;" width="20" height="3.077"/>
	<path style="fill:#ECF0F1;" d="M29.5,0L29.5,0c-2.575,0-5.059,0.953-6.973,2.676l0,0c-4.473,4.025-7.027,9.76-7.027,15.778V45h4v-3
		h20v3h4V18.454c0-6.017-2.554-11.752-7.027-15.778l0,0C34.559,0.953,32.075,0,29.5,0z"/>
	<g>
		<polygon style="fill:#8697CB;" points="43.5,16 15.5,16 15.5,18 34.5,18 34.5,23 36.5,23 36.5,18 43.5,18 		"/>
		<rect x="34.5" y="33" style="fill:#8697CB;" width="2" height="9"/>
	</g>
	<circle style="fill:#0096E6;" cx="19.5" cy="38" r="1"/>
	<circle style="fill:#0096E6;" cx="23.5" cy="38" r="1"/>
	<circle style="fill:#0096E6;" cx="27.5" cy="38" r="1"/>
	<circle style="fill:#0096E6;" cx="31.5" cy="38" r="1"/>
	<circle style="fill:#0096E6;" cx="39.5" cy="38" r="1"/>
	<polygon style="fill:#556080;" points="15.5,42 10.5,41 10.5,39 15.5,38 	"/>
	<polygon style="fill:#556080;" points="43.5,38 48.5,39 48.5,41 43.5,42 	"/>
	<g>
		<circle style="fill:#556080;" cx="35.5" cy="28" r="5"/>
		<path style="fill:#8697CB;" d="M35.5,34c-3.309,0-6-2.691-6-6s2.691-6,6-6s6,2.691,6,6S38.809,34,35.5,34z M35.5,24
			c-2.206,0-4,1.794-4,4s1.794,4,4,4s4-1.794,4-4S37.706,24,35.5,24z"/>
	</g>
	<polygon style="fill:#BDC3C7;" points="15.5,23 15.5,25 22.5,25 22.5,26 15.5,26 15.5,28 22.5,28 22.5,29 15.5,29 15.5,31 22.5,31 
		22.5,32 15.5,32 15.5,34 24.5,34 24.5,23 	"/>
	<rect x="19.5" y="44.968" style="fill:#556080;" width="20" height="5.032"/>
</g>
<g>
</g>
<g>
</g>
<g>
</g>
<g>
</g>
<g>
</g>
<g>
</g>
<g>
</g>
<g>
</g>
<g>
</g>
<g>
</g>
<g>
</g>
<g>
</g>
<g>
</g>
<g>
</g>
<g>
</g>
</svg>
