<?xml version="1.0" encoding="iso-8859-1"?>
<!-- Generator: Adobe Illustrator 19.0.0, SVG Export Plug-In . SVG Version: 6.00 Build 0)  -->
<svg version="1.1" id="Capa_1" xmlns="http://www.w3.org/2000/svg" xmlns:xlink="http://www.w3.org/1999/xlink" x="0px" y="0px"
	 viewBox="0 0 59 59" style="enable-background:new 0 0 59 59;" xml:space="preserve">
<g>
	<polygon style="fill:#ECF0F1;" points="35,35 45,45 45,16 35,16 	"/>
	<path style="fill:#ECF0F1;" d="M40,7c-2.569,1.541-4.292,4.11-4.816,7h9.631C44.292,11.11,42.569,8.541,40,7z"/>
	<path style="fill:#ECF0F1;" d="M10,7c-2.569,1.541-4.292,4.11-4.816,7h9.631C14.292,11.11,12.569,8.541,10,7z"/>
	<polygon style="fill:#ECF0F1;" points="5,45 15,35 15,16 5,16 	"/>
	<path style="fill:#D1D4D1;" d="M35.184,14C35.076,14.6,35,15.209,35,15.831V16h10v-0.169c0-0.622-0.076-1.231-0.184-1.831H35.184z"
		/>
	<path style="fill:#D1D4D1;" d="M5.184,14C5.076,14.6,5,15.209,5,15.831V16h10v-0.169c0-0.622-0.076-1.231-0.184-1.831H5.184z"/>
	<line style="fill:none;stroke:#BDC3C7;stroke-width:2;stroke-miterlimit:10;" x1="45" y1="17" x2="51" y2="17"/>
	<line style="fill:none;stroke:#BDC3C7;stroke-width:2;stroke-miterlimit:10;" x1="45" y1="36" x2="51" y2="36"/>
	<path style="fill:#F18D46;" d="M32,48.961l-2-5V30l5,5V17.662c0-7.076-3.631-13.644-9.594-17.412c-0.245-0.155-0.567-0.155-0.812,0
		C18.631,4.018,15,10.586,15,17.662V35l5-5v13.961l-2,5V50v1.961V52h14v-0.039V48.961z"/>
	<path style="fill:#38454F;" d="M46,58H34c-0.319,0-0.501-0.364-0.31-0.619L35,52h10l1.31,5.381C46.501,57.636,46.319,58,46,58z"/>
	<path style="fill:#38454F;" d="M16,58H4c-0.319,0-0.501-0.364-0.31-0.619L5,52h10l1.31,5.381C16.501,57.636,16.319,58,16,58z"/>
	<path style="fill:#ECF0F1;" d="M30,43.961v-26c0-3.12-1.239-6.111-3.445-8.317c-0.859-0.859-2.251-0.859-3.11,0
		C21.239,11.85,20,14.842,20,17.961v26l-2,5V52h14v-3.039L30,43.961z"/>
	<polygon style="fill:#D1D4D1;" points="32,52 50,52 50,50 30,30 30,43.961 32,48.961 32,51.961 	"/>
	<polygon style="fill:#D1D4D1;" points="18,51.961 18,50 18,48.961 20,43.961 20,30 0,50 0,52 18,52 	"/>
	<rect x="51" y="7" style="fill:none;stroke:#BDC3C7;stroke-width:2;stroke-miterlimit:10;" width="7" height="51"/>
	<line style="fill:none;stroke:#BDC3C7;stroke-width:2;stroke-miterlimit:10;" x1="58" y1="15" x2="51" y2="22"/>
	<line style="fill:none;stroke:#BDC3C7;stroke-width:2;stroke-miterlimit:10;" x1="51" y1="22" x2="58" y2="29"/>
	<line style="fill:none;stroke:#BDC3C7;stroke-width:2;stroke-miterlimit:10;" x1="58" y1="29" x2="51" y2="36"/>
	<line style="fill:none;stroke:#BDC3C7;stroke-width:2;stroke-miterlimit:10;" x1="51" y1="36" x2="58" y2="43"/>
	<line style="fill:none;stroke:#BDC3C7;stroke-width:2;stroke-miterlimit:10;" x1="58" y1="42" x2="51" y2="49"/>
	<line style="fill:none;stroke:#BDC3C7;stroke-width:2;stroke-miterlimit:10;" x1="51" y1="49" x2="58" y2="56"/>
	<line style="fill:none;stroke:#BDC3C7;stroke-width:2;stroke-miterlimit:10;" x1="58" y1="15" x2="51" y2="8"/>
	<rect x="52" y="1" style="fill:none;stroke:#BDC3C7;stroke-width:2;stroke-miterlimit:10;" width="5" height="6"/>
	<polygon style="fill:#546A79;" points="2,48 0,50 0,52 18,52 18,51.961 18,50 18,48.961 18.385,48 	"/>
	<polygon style="fill:#546A79;" points="32,48.961 32,51.961 32,52 50,52 50,50 48,48 31.615,48 	"/>
	<path style="fill:#38454F;" d="M27,19h-4v-2c0-1.105,0.895-2,2-2h0c1.105,0,2,0.895,2,2V19z"/>
	<line style="fill:none;stroke:#38454F;stroke-width:2;stroke-miterlimit:10;" x1="23" y1="42" x2="23" y2="45"/>
	<line style="fill:none;stroke:#38454F;stroke-width:2;stroke-miterlimit:10;" x1="27" y1="42" x2="27" y2="45"/>
	<polygon style="fill:#38454F;" points="30,55 20,55 21,52 29,52 	"/>
	<line style="fill:none;stroke:#38454F;stroke-width:2;stroke-miterlimit:10;" x1="25" y1="51.961" x2="25" y2="47.961"/>
</g>
<g>
</g>
<g>
</g>
<g>
</g>
<g>
</g>
<g>
</g>
<g>
</g>
<g>
</g>
<g>
</g>
<g>
</g>
<g>
</g>
<g>
</g>
<g>
</g>
<g>
</g>
<g>
</g>
<g>
</g>
</svg>
