<?xml version="1.0" encoding="iso-8859-1"?>
<!-- Generator: Adobe Illustrator 19.0.0, SVG Export Plug-In . SVG Version: 6.00 Build 0)  -->
<svg version="1.1" id="Capa_1" xmlns="http://www.w3.org/2000/svg" xmlns:xlink="http://www.w3.org/1999/xlink" x="0px" y="0px"
	 viewBox="0 0 59 59" style="enable-background:new 0 0 59 59;" xml:space="preserve">
<g>
	<circle style="fill:#0096E6;" cx="7.5" cy="6" r="1"/>
	<circle style="fill:#0096E6;" cx="54.5" cy="29" r="1"/>
	<circle style="fill:#0096E6;" cx="54.5" cy="7" r="1"/>
	<circle style="fill:#0096E6;" cx="49.5" cy="16" r="1"/>
	<circle style="fill:#0096E6;" cx="8.5" cy="38" r="1"/>
	<circle style="fill:#0096E6;" cx="3.5" cy="24" r="1"/>
	<rect x="16.5" y="15" style="fill:#ECF0F1;" width="26" height="37"/>
	<path style="fill:#556080;" d="M42.5,15h-26v0c0-3.758,1.844-7.276,4.933-9.415L29.5,0l8.067,5.585
		C40.656,7.724,42.5,11.242,42.5,15L42.5,15z"/>
	<polygon style="fill:#556080;" points="39.5,58 19.5,58 21.5,52 37.5,52 	"/>
	<rect x="31.5" y="23" style="fill:#CBB292;" width="11" height="18"/>
	<polygon style="fill:#D1D4D1;" points="16.5,41.879 10.5,47.879 12.621,50 16.5,46.121 	"/>
	<polygon style="fill:#D1D4D1;" points="42.5,41.879 48.5,47.879 46.379,50 42.5,46.121 	"/>
	<circle style="fill:#F5EFCA;" cx="34.5" cy="26" r="1"/>
	<circle style="fill:#F5EFCA;" cx="34.5" cy="30" r="1"/>
	<circle style="fill:#F5EFCA;" cx="34.5" cy="34" r="1"/>
	<circle style="fill:#F5EFCA;" cx="34.5" cy="38" r="1"/>
	<circle style="fill:#556080;" cx="19.5" cy="49" r="1"/>
	<circle style="fill:#556080;" cx="29.5" cy="49" r="1"/>
	<circle style="fill:#556080;" cx="39.5" cy="49" r="1"/>
	<g>
		<path style="fill:#E6E6E6;" d="M5.501,51c0.15,0,0.303-0.034,0.446-0.105l2-1c0.494-0.247,0.694-0.848,0.447-1.342
			c-0.248-0.494-0.848-0.694-1.342-0.447l-2,1c-0.494,0.247-0.694,0.848-0.447,1.342C4.781,50.798,5.134,51,5.501,51z"/>
		<path style="fill:#E6E6E6;" d="M11.947,52.105c-0.495-0.248-1.094-0.047-1.342,0.447l-1,2c-0.247,0.494-0.047,1.095,0.447,1.342
			C10.196,55.966,10.349,56,10.499,56c0.367,0,0.72-0.202,0.896-0.553l1-2C12.642,52.953,12.441,52.353,11.947,52.105z"/>
		<circle style="fill:#E6E6E6;" cx="9.5" cy="58" r="1"/>
		<circle style="fill:#E6E6E6;" cx="2.5" cy="58" r="1"/>
		<circle style="fill:#E6E6E6;" cx="4.5" cy="56" r="1"/>
		<circle style="fill:#E6E6E6;" cx="6.5" cy="54" r="1"/>
		<circle style="fill:#E6E6E6;" cx="8.5" cy="52" r="1"/>
		<circle style="fill:#E6E6E6;" cx="2.5" cy="51" r="1"/>
		<path style="fill:#E6E6E6;" d="M51.053,49.895l2,1C53.196,50.966,53.349,51,53.499,51c0.367,0,0.72-0.202,0.896-0.553
			c0.247-0.494,0.047-1.095-0.447-1.342l-2-1c-0.493-0.247-1.094-0.047-1.342,0.447C50.358,49.047,50.559,49.647,51.053,49.895z"/>
		<path style="fill:#E6E6E6;" d="M48.947,55.895c0.494-0.247,0.694-0.848,0.447-1.342l-1-2c-0.248-0.494-0.848-0.695-1.342-0.447
			c-0.494,0.247-0.694,0.848-0.447,1.342l1,2C47.781,55.798,48.134,56,48.501,56C48.651,56,48.804,55.966,48.947,55.895z"/>
		<circle style="fill:#E6E6E6;" cx="49.5" cy="58" r="1"/>
		<circle style="fill:#E6E6E6;" cx="56.5" cy="58" r="1"/>
		<circle style="fill:#E6E6E6;" cx="54.5" cy="56" r="1"/>
		<circle style="fill:#E6E6E6;" cx="52.5" cy="54" r="1"/>
		<circle style="fill:#E6E6E6;" cx="50.5" cy="52" r="1"/>
		<circle style="fill:#E6E6E6;" cx="56.5" cy="51" r="1"/>
	</g>
	<rect x="16.5" y="45" style="fill:#D1D4D1;" width="26" height="2"/>
	<polygon style="fill:#CBB292;" points="16.5,22 16.5,24 23.5,24 23.5,28 16.5,28 16.5,30 23.5,30 23.5,34 16.5,34 16.5,36 23.5,36 
		23.5,40 16.5,40 16.5,42 25.5,42 25.5,36 25.5,34 25.5,30 25.5,28 25.5,22 	"/>
</g>
<g>
</g>
<g>
</g>
<g>
</g>
<g>
</g>
<g>
</g>
<g>
</g>
<g>
</g>
<g>
</g>
<g>
</g>
<g>
</g>
<g>
</g>
<g>
</g>
<g>
</g>
<g>
</g>
<g>
</g>
</svg>
