<?xml version="1.0" encoding="iso-8859-1"?>
<!-- Generator: Adobe Illustrator 19.0.0, SVG Export Plug-In . SVG Version: 6.00 Build 0)  -->
<svg version="1.1" id="Capa_1" xmlns="http://www.w3.org/2000/svg" xmlns:xlink="http://www.w3.org/1999/xlink" x="0px" y="0px"
	 viewBox="0 0 58.675 58.675" style="enable-background:new 0 0 58.675 58.675;" xml:space="preserve">
<g>
	<path style="fill:#8697CB;" d="M50.471,23.761c0.391-0.391,1.023-0.391,1.414,0l2.793,2.793c5.33-6.035,5.33-15.107,0-21.142
		l-2.793,2.793c-0.195,0.195-0.451,0.293-0.707,0.293S50.666,8.4,50.471,8.204c-0.391-0.391-0.391-1.023,0-1.414l2.793-2.793
		c-6.035-5.33-15.107-5.33-21.142,0l2.793,2.793c0.391,0.391,0.391,1.023,0,1.414c-0.195,0.195-0.451,0.293-0.707,0.293
		S33.695,8.4,33.5,8.204l-2.793-2.793c-5.551,6.284-5.338,15.875,0.671,21.885c6.01,6.01,15.601,6.222,21.885,0.671l-2.793-2.793
		C50.08,24.784,50.08,24.152,50.471,23.761z"/>
	
		<line style="fill:none;stroke:#0096E6;stroke-width:2;stroke-linecap:round;stroke-miterlimit:10;" x1="4.509" y1="35.782" x2="1" y2="39.29"/>
	
		<line style="fill:none;stroke:#0096E6;stroke-width:2;stroke-linecap:round;stroke-miterlimit:10;" x1="16.278" y1="42.397" x2="14.734" y2="43.941"/>
	
		<line style="fill:none;stroke:#0096E6;stroke-width:2;stroke-linecap:round;stroke-miterlimit:10;" x1="22.893" y1="54.166" x2="19.385" y2="57.675"/>
	<circle style="fill:#B2BDD3;" cx="42.692" cy="15.983" r="12"/>
	<path style="fill:#556080;" d="M27.966,22.224l-7.901,7.901c-1.569,1.569-2.082,3.791-1.549,5.792l1.549-1.549
		c1.167-1.167,3.076-1.167,4.243,0c1.167,1.167,1.167,3.076,0,4.243l-1.549,1.549c2.001,0.533,4.222,0.02,5.792-1.549l7.901-7.901
		c-1.842-0.78-3.571-1.911-5.073-3.413S28.746,24.066,27.966,22.224z"/>
	
		<line style="fill:none;stroke:#0096E6;stroke-width:2;stroke-linecap:round;stroke-miterlimit:10;" x1="35.621" y1="23.054" x2="34.207" y2="24.468"/>
	<g>
		<path style="fill:#E6E7E8;" d="M34.914,6.79l-2.793-2.793c-0.25,0.22-0.504,0.433-0.743,0.671s-0.451,0.493-0.671,0.743
			L33.5,8.204l1.414,1.414c0.195,0.195,0.451,0.293,0.707,0.293s0.512-0.098,0.707-0.293c0.391-0.391,0.391-1.023,0-1.414
			L34.914,6.79z"/>
		<path style="fill:#E6E7E8;" d="M50.471,22.347c-0.391-0.391-1.023-0.391-1.414,0s-0.391,1.023,0,1.414l1.414,1.414l2.793,2.793
			c0.25-0.22,0.504-0.433,0.743-0.671s0.451-0.493,0.671-0.743l-2.793-2.793L50.471,22.347z"/>
		<path style="fill:#E6E7E8;" d="M49.764,9.911c0.256,0,0.512-0.098,0.707-0.293l1.414-1.414l2.793-2.793
			c-0.22-0.25-0.433-0.504-0.671-0.743s-0.493-0.451-0.743-0.671L50.471,6.79l-1.414,1.414c-0.391,0.391-0.391,1.023,0,1.414
			C49.252,9.814,49.508,9.911,49.764,9.911z"/>
		<path style="fill:#E6E7E8;" d="M42.692,2.983c-0.552,0-1,0.447-1,1v2c0,0.553,0.448,1,1,1s1-0.447,1-1v-2
			C43.692,3.43,43.245,2.983,42.692,2.983z"/>
		<path style="fill:#E6E7E8;" d="M42.692,24.983c-0.552,0-1,0.447-1,1v2c0,0.553,0.448,1,1,1s1-0.447,1-1v-2
			C43.692,25.43,43.245,24.983,42.692,24.983z"/>
		<path style="fill:#E6E7E8;" d="M54.692,14.983h-2c-0.552,0-1,0.447-1,1s0.448,1,1,1h2c0.552,0,1-0.447,1-1
			S55.245,14.983,54.692,14.983z"/>
		<path style="fill:#E6E7E8;" d="M32.692,14.983h-2c-0.552,0-1,0.447-1,1s0.448,1,1,1h2c0.552,0,1-0.447,1-1
			S33.245,14.983,32.692,14.983z"/>
	</g>
	<circle style="fill:#E6E7E8;" cx="42.692" cy="15.983" r="3"/>
	<path style="fill:#8697CB;" d="M22.186,22.347l-9.899,9.899l-2.829,2.829l-4.243-4.243l2.829-2.829l9.899-9.899
		c1.172-1.172,3.071-1.172,4.243,0l0,0C23.358,19.276,23.358,21.175,22.186,22.347z"/>
	
		<rect x="3.923" y="32.367" transform="matrix(0.7071 -0.7071 0.7071 0.7071 -22.5667 14.2541)" style="fill:#B2BDD3;" width="4" height="4"/>
	
		<rect x="15.64" y="38.857" transform="matrix(0.7071 -0.7071 0.7071 0.7071 -23.6715 24.566)" style="fill:#B2BDD3;" width="4.355" height="4"/>
	<path style="fill:#8697CB;" d="M36.328,36.489l-9.899,9.899l-2.829,2.829l4.243,4.243l2.829-2.829l9.899-9.899
		c1.172-1.172,1.172-3.071,0-4.243l0,0C39.4,35.317,37.5,35.317,36.328,36.489z"/>
	<g>
		
			<rect x="14.943" y="21.347" transform="matrix(-0.7071 -0.7071 0.7071 -0.7071 14.8288 50.8356)" style="fill:#D1D4D1;" width="6" height="2"/>
		
			<rect x="35.329" y="37.731" transform="matrix(0.7071 -0.7071 0.7071 0.7071 -18.161 37.6179)" style="fill:#D1D4D1;" width="2" height="6"/>
	</g>
	
		<rect x="22.308" y="50.752" transform="matrix(0.7071 -0.7071 0.7071 0.7071 -30.1819 32.6389)" style="fill:#B2BDD3;" width="4" height="4"/>
	<g>
		
			<rect x="19.479" y="23.882" transform="matrix(-0.7071 -0.7071 0.7071 -0.7071 18.3659 59.3717)" style="fill:#B2BDD3;" width="4" height="4"/>
		
			<rect x="30.793" y="35.196" transform="matrix(0.7071 -0.7071 0.7071 0.7071 -16.6966 34.0825)" style="fill:#B2BDD3;" width="4" height="4"/>
	</g>
	<circle style="fill:#F3D55B;" cx="54.692" cy="53.983" r="1"/>
	<circle style="fill:#F3D55B;" cx="51.692" cy="39.983" r="1"/>
	<circle style="fill:#F3D55B;" cx="38.692" cy="52.983" r="1"/>
	<circle style="fill:#F3D55B;" cx="14.692" cy="8.983" r="1"/>
	<circle style="fill:#F3D55B;" cx="4.692" cy="45.983" r="1"/>
	<path style="fill:#8697CB;" d="M24.308,38.61l-2.828,2.828l-4.243-4.243l2.828-2.828c1.167-1.167,3.076-1.167,4.243,0l0,0
		C25.474,35.534,25.474,37.443,24.308,38.61z"/>
	<path style="fill:#ECF0F1;" d="M29.257,30.417c-0.256,0-0.512-0.098-0.707-0.293c-0.391-0.391-0.391-1.023,0-1.414l6.364-6.363
		c0.391-0.391,1.023-0.391,1.414,0s0.391,1.023,0,1.414l-6.364,6.363C29.769,30.32,29.513,30.417,29.257,30.417z"/>
</g>
<g>
</g>
<g>
</g>
<g>
</g>
<g>
</g>
<g>
</g>
<g>
</g>
<g>
</g>
<g>
</g>
<g>
</g>
<g>
</g>
<g>
</g>
<g>
</g>
<g>
</g>
<g>
</g>
<g>
</g>
</svg>
