<?xml version="1.0" encoding="iso-8859-1"?>
<!-- Generator: Adobe Illustrator 19.0.0, SVG Export Plug-In . SVG Version: 6.00 Build 0)  -->
<svg version="1.1" id="Capa_1" xmlns="http://www.w3.org/2000/svg" xmlns:xlink="http://www.w3.org/1999/xlink" x="0px" y="0px"
	 viewBox="0 0 60 60" style="enable-background:new 0 0 60 60;" xml:space="preserve">
<g>
	<rect x="3.924" y="28" style="fill:#556080;" width="52" height="4"/>
	<g>
		<path style="fill:#8697CB;" d="M59.922,27.932C58.854,12.27,45.711,0,30,0C14.29,0,1.147,12.27,0.078,27.932L0.006,29h59.988
			L59.922,27.932z"/>
		<path style="fill:#8697CB;" d="M0.078,32.068C1.147,47.73,14.29,60,30,60c15.711,0,28.854-12.27,29.922-27.932L59.994,31H0.006
			L0.078,32.068z"/>
	</g>
	<circle style="fill:#556080;stroke:#E6E7E8;stroke-width:2;stroke-linecap:round;stroke-miterlimit:10;" cx="30" cy="15" r="10"/>
	<g>
		<path style="fill:#ECF0F1;" d="M40,14h-4.09c-0.154-0.909-0.51-1.749-1.024-2.471l2.893-2.894c0.391-0.391,0.391-1.023,0-1.414
			s-1.023-0.391-1.414,0l-2.893,2.893C32.749,9.6,31.91,9.244,31,9.09V5c0-0.553-0.447-1-1-1s-1,0.447-1,1v4.09
			c-0.909,0.154-1.749,0.51-2.471,1.025l-2.893-2.893c-0.391-0.391-1.023-0.391-1.414,0s-0.391,1.023,0,1.414l2.893,2.893
			C24.6,12.251,24.244,13.091,24.09,14H20c-0.553,0-1,0.447-1,1s0.447,1,1,1h4.09c0.154,0.909,0.51,1.749,1.025,2.471l-2.893,2.893
			c-0.391,0.391-0.391,1.023,0,1.414c0.195,0.195,0.451,0.293,0.707,0.293s0.512-0.098,0.707-0.293l2.893-2.893
			C27.251,20.4,28.091,20.756,29,20.91V25c0,0.553,0.447,1,1,1s1-0.447,1-1v-4.09c0.91-0.154,1.749-0.51,2.472-1.025l2.893,2.893
			c0.195,0.195,0.451,0.293,0.707,0.293s0.512-0.098,0.707-0.293c0.391-0.391,0.391-1.023,0-1.414l-2.893-2.894
			C35.4,17.749,35.756,16.909,35.91,16H40c0.553,0,1-0.447,1-1S40.553,14,40,14z M30,19c-2.206,0-4-1.794-4-4s1.794-4,4-4
			s4,1.794,4,4S32.206,19,30,19z"/>
		<circle style="fill:#ECF0F1;" cx="30" cy="15" r="1"/>
	</g>
	<g>
		<path style="fill:#556080;" d="M14,40c0-0.553-0.447-1-1-1H3.489c-0.223-0.657-0.422-1.326-0.596-2H16c0.553,0,1-0.447,1-1
			s-0.447-1-1-1H0.401l0.254,1.206c0.295,1.403,0.694,2.796,1.188,4.139L2.083,41H13C13.553,41,14,40.553,14,40z"/>
		<path style="fill:#556080;" d="M49,36c0,0.553,0.447,1,1,1h7.106c-0.174,0.676-0.372,1.344-0.595,2H46c-0.553,0-1,0.447-1,1
			s0.447,1,1,1h11.918l0.24-0.655c0.491-1.337,0.891-2.729,1.188-4.139L59.6,35H50C49.447,35,49,35.447,49,36z"/>
		<path style="fill:#556080;" d="M20,48H8.565c-0.543-0.646-1.056-1.314-1.535-2H15c0.553,0,1-0.447,1-1s-0.447-1-1-1H3.409
			l0.92,1.519c0.876,1.444,1.892,2.836,3.021,4.137L7.648,50H20c0.553,0,1-0.447,1-1S20.553,48,20,48z"/>
		<path style="fill:#556080;" d="M38,45c0,0.553,0.447,1,1,1h13.971c-0.479,0.686-0.992,1.354-1.535,2H43c-0.553,0-1,0.447-1,1
			s0.447,1,1,1h9.353l0.299-0.345c1.13-1.302,2.146-2.693,3.02-4.138L56.59,44H39C38.447,44,38,44.447,38,45z"/>
		<path style="fill:#556080;" d="M20,53h-6.267c-0.553,0-1,0.447-1,1s0.447,1,1,1H20c0.553,0,1-0.447,1-1S20.553,53,20,53z"/>
		<path style="fill:#556080;" d="M46.267,53H38c-0.553,0-1,0.447-1,1s0.447,1,1,1h8.267c0.553,0,1-0.447,1-1S46.819,53,46.267,53z"
			/>
		<path style="fill:#556080;" d="M47,21h9.512c0.223,0.656,0.421,1.324,0.595,2H51c-0.553,0-1,0.447-1,1s0.447,1,1,1h8.6
			l-0.254-1.206c-0.297-1.409-0.696-2.802-1.188-4.139L57.918,19H47c-0.553,0-1,0.447-1,1S46.447,21,47,21z"/>
		<path style="fill:#556080;" d="M11,24c0-0.553-0.447-1-1-1H2.894c0.174-0.674,0.373-1.343,0.596-2H14c0.553,0,1-0.447,1-1
			s-0.447-1-1-1H2.083l-0.24,0.655c-0.493,1.343-0.893,2.735-1.188,4.139L0.401,25H10C10.553,25,11,24.553,11,24z"/>
		<path style="fill:#556080;" d="M48,16h6.815c0.553,0,1-0.447,1-1s-0.447-1-1-1H48c-0.553,0-1,0.447-1,1S47.447,16,48,16z"/>
		<path style="fill:#556080;" d="M5.185,16H11c0.553,0,1-0.447,1-1s-0.447-1-1-1H5.185c-0.553,0-1,0.447-1,1S4.632,16,5.185,16z"/>
	</g>
</g>
<g>
</g>
<g>
</g>
<g>
</g>
<g>
</g>
<g>
</g>
<g>
</g>
<g>
</g>
<g>
</g>
<g>
</g>
<g>
</g>
<g>
</g>
<g>
</g>
<g>
</g>
<g>
</g>
<g>
</g>
</svg>
