<?xml version="1.0" encoding="iso-8859-1"?>
<!-- Generator: Adobe Illustrator 19.0.0, SVG Export Plug-In . SVG Version: 6.00 Build 0)  -->
<svg version="1.1" id="Capa_1" xmlns="http://www.w3.org/2000/svg" xmlns:xlink="http://www.w3.org/1999/xlink" x="0px" y="0px"
	 viewBox="0 0 59 59" style="enable-background:new 0 0 59 59;" xml:space="preserve">
<g>
	<rect x="15.5" y="20" style="fill:#ECF0F1;" width="12" height="18"/>
	<rect x="31.5" y="20" style="fill:#ECF0F1;" width="12" height="18"/>
	<rect x="49.5" y="20" style="fill:#ECF0F1;" width="9" height="18"/>
	<rect x="0.5" y="42" style="fill:#8697CB;" width="20" height="16"/>
	<rect x="38.5" y="42" style="fill:#8697CB;" width="20" height="16"/>
	<rect x="0.5" y="0" style="fill:#8697CB;" width="20" height="16"/>
	<rect x="38.5" y="0" style="fill:#8697CB;" width="20" height="16"/>
	<g>
		<rect x="4.5" y="42" style="fill:#556080;" width="2" height="16"/>
		<rect x="9.5" y="42" style="fill:#556080;" width="2" height="16"/>
		<rect x="14.5" y="42" style="fill:#556080;" width="2" height="16"/>
		<rect x="42.5" y="42" style="fill:#556080;" width="2" height="16"/>
		<rect x="47.5" y="42" style="fill:#556080;" width="2" height="16"/>
		<rect x="52.5" y="42" style="fill:#556080;" width="2" height="16"/>
		<rect x="4.5" y="0" style="fill:#556080;" width="2" height="16"/>
		<rect x="9.5" y="0" style="fill:#556080;" width="2" height="16"/>
		<rect x="14.5" y="0" style="fill:#556080;" width="2" height="16"/>
		<rect x="42.5" y="0" style="fill:#556080;" width="2" height="16"/>
		<rect x="47.5" y="0" style="fill:#556080;" width="2" height="16"/>
		<rect x="52.5" y="0" style="fill:#556080;" width="2" height="16"/>
	</g>
	<rect x="21.5" y="31" style="fill:#BDC3C7;" width="3" height="7"/>
	<rect x="31.5" y="20" style="fill:#BDC3C7;" width="4" height="4"/>
	<rect x="31.5" y="27" style="fill:#BDC3C7;" width="4" height="4"/>
	<rect x="31.5" y="34" style="fill:#BDC3C7;" width="4" height="4"/>
	<g>
		<circle style="fill:#BDC3C7;" cx="52.5" cy="23" r="1"/>
		<circle style="fill:#BDC3C7;" cx="52.5" cy="26" r="1"/>
		<circle style="fill:#BDC3C7;" cx="52.5" cy="29" r="1"/>
		<circle style="fill:#BDC3C7;" cx="52.5" cy="32" r="1"/>
		<circle style="fill:#BDC3C7;" cx="52.5" cy="35" r="1"/>
	</g>
	<path style="fill:#556080;" d="M30.5,13V8c0-0.553-0.448-1-1-1s-1,0.447-1,1v5h-1v32h1v5c0,0.553,0.448,1,1,1s1-0.447,1-1v-5h1V13
		H30.5z"/>
	<rect x="0.5" y="20" style="fill:#ECF0F1;" width="9" height="18"/>
	<rect x="43.5" y="25" style="fill:#BDC3C7;" width="6" height="8"/>
	<rect x="9.5" y="25" style="fill:#BDC3C7;" width="6" height="8"/>
	<g>
		<rect x="0.5" y="7" style="fill:#556080;" width="58" height="2"/>
		<rect x="0.5" y="49" style="fill:#556080;" width="58" height="2"/>
	</g>
	<rect x="26.5" y="4" style="fill:#8697CB;" width="6" height="4"/>
	<rect x="26.5" y="50" style="fill:#8697CB;" width="6" height="4"/>
	<circle style="fill:#BDC3C7;" cx="34.5" cy="58" r="1"/>
	<circle style="fill:#BDC3C7;" cx="23.5" cy="12" r="1"/>
</g>
<g>
</g>
<g>
</g>
<g>
</g>
<g>
</g>
<g>
</g>
<g>
</g>
<g>
</g>
<g>
</g>
<g>
</g>
<g>
</g>
<g>
</g>
<g>
</g>
<g>
</g>
<g>
</g>
<g>
</g>
</svg>
