<?xml version="1.0" encoding="iso-8859-1"?>
<!-- Generator: Adobe Illustrator 19.0.0, SVG Export Plug-In . SVG Version: 6.00 Build 0)  -->
<svg version="1.1" id="Capa_1" xmlns="http://www.w3.org/2000/svg" xmlns:xlink="http://www.w3.org/1999/xlink" x="0px" y="0px"
	 viewBox="0 0 59.995 59.995" style="enable-background:new 0 0 59.995 59.995;" xml:space="preserve">
<g>
	<polygon style="fill:#8697CB;" points="36.995,11.998 22.995,11.998 25.995,0.998 33.995,0.998 	"/>
	<g>
		<polygon style="fill:#CBB292;" points="38.995,25.998 20.995,25.998 24.995,32.998 21.995,35.998 26.995,39.998 26.995,35.998 
			32.995,35.998 32.995,39.998 37.995,35.998 34.995,32.998 		"/>
		<rect x="22.995" y="11.998" style="fill:#CBB292;" width="14" height="6"/>
		<rect x="27.995" y="37.101" style="fill:#CBB292;" width="4" height="14.772"/>
	</g>
	<path style="fill:#556080;" d="M39.833,25.998c-0.536-1.226-0.838-2.577-0.838-4c0-1.423,0.302-2.774,0.838-4h-8.838v-6h1.132
		h2.404l-3.535-8.303V0.998h-2v2.697l-3.535,8.303h2.404h1.132v6h-8.842c1.111,2.546,1.111,5.454,0,8h8.842v10h-2v17h2v2h-3h-3v3v1
		h3v-1h4h4v1h3v-1v-3h-3h-3v-2h2v-17h-2v-10H39.833z M30.995,50.998h-2v-3h2V50.998z M30.995,45.998h-2v-3h2V45.998z M30.995,40.998
		h-2v-3h2V40.998z"/>
	<circle style="fill:#8697CB;" cx="23.995" cy="22.998" r="1"/>
	<circle style="fill:#8697CB;" cx="27.995" cy="22.998" r="1"/>
	<circle style="fill:#8697CB;" cx="31.995" cy="22.998" r="1"/>
	<circle style="fill:#8697CB;" cx="35.995" cy="22.998" r="1"/>
	<path style="fill:#8697CB;" d="M10.995,32.998c-2.938,0-5.701-1.144-7.778-3.222c-4.289-4.289-4.289-11.268,0-15.557
		c2.077-2.078,4.84-3.222,7.778-3.222s5.701,1.144,7.778,3.222c4.289,4.289,4.289,11.268,0,15.557
		C16.696,31.854,13.934,32.998,10.995,32.998z M10.995,12.998c-2.404,0-4.664,0.936-6.364,2.636c-3.509,3.51-3.509,9.219,0,12.729
		c1.7,1.7,3.96,2.636,6.364,2.636s4.664-0.936,6.364-2.636c3.509-3.51,3.509-9.219,0-12.729
		C15.659,13.933,13.399,12.998,10.995,12.998z"/>
	<circle style="fill:#D1D4D1;" cx="10.995" cy="21.998" r="1"/>
	<path style="fill:#8697CB;" d="M48.995,32.998c-6.065,0-11-4.935-11-11s4.935-11,11-11s11,4.935,11,11S55.061,32.998,48.995,32.998
		z M48.995,12.998c-4.963,0-9,4.037-9,9s4.037,9,9,9s9-4.037,9-9S53.958,12.998,48.995,12.998z"/>
	<g>
		<path style="fill:#556080;" d="M17.359,14.219l-4.352,4.352c-1.522-0.859-3.574-0.669-4.841,0.599
			c-0.525,0.525-0.874,1.174-1.045,1.878H1.045c-0.553,0-1,0.447-1,1s0.447,1,1,1h6.107c0.181,0.664,0.515,1.279,1.015,1.778
			c0.499,0.5,1.114,0.835,1.778,1.015v6.107c0,0.553,0.447,1,1,1s1-0.447,1-1v-6.077c0.704-0.171,1.353-0.52,1.878-1.045
			c0.756-0.755,1.172-1.76,1.172-2.828c0-0.725-0.206-1.413-0.565-2.021l4.343-4.343c0.391-0.391,0.391-1.023,0-1.414
			S17.75,13.829,17.359,14.219z M12.409,23.412c-0.756,0.756-2.072,0.756-2.828,0c-0.378-0.378-0.586-0.88-0.586-1.414
			s0.208-1.036,0.586-1.414s0.88-0.586,1.414-0.586s1.036,0.208,1.414,0.586s0.586,0.88,0.586,1.414S12.787,23.034,12.409,23.412z"
			/>
		<path style="fill:#556080;" d="M58.995,20.998h-6.142c-0.447-1.721-1.999-3-3.858-3c-0.758,0-1.461,0.224-2.065,0.592
			l-4.299-4.299c-0.391-0.391-1.023-0.391-1.414,0s-0.391,1.023,0,1.414l4.32,4.32c-0.335,0.585-0.542,1.252-0.542,1.973
			s0.207,1.388,0.542,1.973l-4.32,4.32c-0.391,0.391-0.391,1.023,0,1.414c0.195,0.195,0.451,0.293,0.707,0.293
			s0.512-0.098,0.707-0.293l4.299-4.299c0.605,0.368,1.307,0.592,2.065,0.592c1.859,0,3.411-1.279,3.858-3h6.142
			c0.553,0,1-0.447,1-1S59.548,20.998,58.995,20.998z M48.995,23.998c-1.103,0-2-0.897-2-2s0.897-2,2-2s2,0.897,2,2
			S50.098,23.998,48.995,23.998z"/>
	</g>
	<circle style="fill:#D1D4D1;" cx="48.995" cy="21.998" r="1"/>
</g>
<g>
</g>
<g>
</g>
<g>
</g>
<g>
</g>
<g>
</g>
<g>
</g>
<g>
</g>
<g>
</g>
<g>
</g>
<g>
</g>
<g>
</g>
<g>
</g>
<g>
</g>
<g>
</g>
<g>
</g>
</svg>
