<?xml version="1.0" encoding="iso-8859-1"?>
<!-- Generator: Adobe Illustrator 19.0.0, SVG Export Plug-In . SVG Version: 6.00 Build 0)  -->
<svg version="1.1" id="Capa_1" xmlns="http://www.w3.org/2000/svg" xmlns:xlink="http://www.w3.org/1999/xlink" x="0px" y="0px"
	 viewBox="0 0 60 60" style="enable-background:new 0 0 60 60;" xml:space="preserve">
<g>
	<g>
		<path style="fill:#556080;" d="M30,6c-0.553,0-1,0.447-1,1v4c0,0.553,0.447,1,1,1s1-0.447,1-1V7C31,6.447,30.553,6,30,6z"/>
		<path style="fill:#556080;" d="M36,8c-0.553,0-1,0.447-1,1v3c0,0.553,0.447,1,1,1s1-0.447,1-1V9C37,8.447,36.553,8,36,8z"/>
		<path style="fill:#556080;" d="M24,8c-0.553,0-1,0.447-1,1v3c0,0.553,0.447,1,1,1s1-0.447,1-1V9C25,8.447,24.553,8,24,8z"/>
	</g>
	<path style="fill:#556080;" d="M32.707,50.293L31,48.586V47c0-0.553-0.447-1-1-1s-1,0.447-1,1v1.586l-1.707,1.707
		c-0.391,0.391-0.391,1.023,0,1.414C27.488,51.902,27.744,52,28,52s0.512-0.098,0.707-0.293L30,50.414l1.293,1.293
		C31.488,51.902,31.744,52,32,52s0.512-0.098,0.707-0.293C33.098,51.316,33.098,50.684,32.707,50.293z"/>
	<path style="fill:#BDC3C7;" d="M16,29c0-4.136,1.805-7.842,4.657-10.405L9,23.364l-4-1.636V25v8v3.273l4-1.636l11.657,4.769
		C17.805,36.842,16,33.136,16,29z"/>
	<path style="fill:#BDC3C7;" d="M44,29c0,4.136-1.805,7.842-4.657,10.405L51,34.636l4,1.636V33v-8v-3.273l-4,1.636l-11.657-4.769
		C42.195,21.158,44,24.864,44,29z"/>
	<path style="fill:#ECF0F1;" d="M44,29c0-4.136-1.805-7.842-4.657-10.405l6.981,2.856C43.467,15.286,37.241,11,30,11
		s-13.467,4.286-16.324,10.451l6.981-2.856C17.805,21.158,16,24.864,16,29s1.805,7.842,4.657,10.405l-6.981-2.856
		C16.533,42.714,22.759,47,30,47s13.467-4.286,16.324-10.451l-6.981,2.856C42.195,36.842,44,33.136,44,29z"/>
	<circle style="fill:#F3D55B;" cx="15" cy="5" r="1"/>
	<circle style="fill:#F3D55B;" cx="46" cy="52" r="1"/>
	<circle style="fill:#F3D55B;" cx="39" cy="56" r="1"/>
	<circle style="fill:#FFFFFF;" cx="30" cy="29" r="14"/>
	<path style="fill:#ECF0F1;" d="M9,30H5c-0.553,0-1-0.447-1-1s0.447-1,1-1h4c0.553,0,1,0.447,1,1S9.553,30,9,30z"/>
	<path style="fill:#ECF0F1;" d="M9,30c-0.256,0-0.512-0.098-0.707-0.293c-0.391-0.391-0.391-1.023,0-1.414l4-4
		c0.391-0.391,1.023-0.391,1.414,0s0.391,1.023,0,1.414l-4,4C9.512,29.902,9.256,30,9,30z"/>
	<path style="fill:#ECF0F1;" d="M13,34c-0.256,0-0.512-0.098-0.707-0.293l-4-4c-0.391-0.391-0.391-1.023,0-1.414
		s1.023-0.391,1.414,0l4,4c0.391,0.391,0.391,1.023,0,1.414C13.512,33.902,13.256,34,13,34z"/>
	<path style="fill:#ECF0F1;" d="M55,30h-4c-0.553,0-1-0.447-1-1s0.447-1,1-1h4c0.553,0,1,0.447,1,1S55.553,30,55,30z"/>
	<path style="fill:#ECF0F1;" d="M51,30c-0.256,0-0.512-0.098-0.707-0.293l-4-4c-0.391-0.391-0.391-1.023,0-1.414
		s1.023-0.391,1.414,0l4,4c0.391,0.391,0.391,1.023,0,1.414C51.512,29.902,51.256,30,51,30z"/>
	<path style="fill:#ECF0F1;" d="M47,34c-0.256,0-0.512-0.098-0.707-0.293c-0.391-0.391-0.391-1.023,0-1.414l4-4
		c0.391-0.391,1.023-0.391,1.414,0s0.391,1.023,0,1.414l-4,4C47.512,33.902,47.256,34,47,34z"/>
	<circle style="fill:#ECF0F1;" cx="30" cy="29" r="8"/>
	<path style="fill:#95A5A5;" d="M37.09,36.043C38.887,34.234,40,31.745,40,29s-1.113-5.234-2.91-7.043
		c-0.008-0.009-0.011-0.02-0.019-0.029s-0.02-0.011-0.029-0.019C35.234,20.113,32.745,19,30,19s-5.234,1.113-7.043,2.91
		c-0.009,0.008-0.02,0.011-0.029,0.019s-0.011,0.02-0.019,0.029C21.113,23.766,20,26.255,20,29s1.113,5.234,2.91,7.043
		c0.008,0.009,0.011,0.02,0.019,0.029s0.02,0.011,0.029,0.019C24.766,37.887,27.255,39,30,39s5.234-1.113,7.043-2.91
		c0.009-0.008,0.02-0.011,0.029-0.019S37.082,36.051,37.09,36.043z M36.312,33.898l-2.603-2.603
		c0.416-0.669,0.667-1.451,0.667-2.294s-0.251-1.625-0.667-2.294l2.603-2.603C37.366,25.458,38,27.154,38,29
		S37.366,32.542,36.312,33.898z M27.625,29c0-1.31,1.065-2.375,2.375-2.375S32.375,27.69,32.375,29S31.31,31.375,30,31.375
		S27.625,30.31,27.625,29z M34.898,22.688l-2.603,2.603c-0.669-0.415-1.451-0.667-2.294-0.667s-1.625,0.251-2.294,0.667
		l-2.603-2.603C26.458,21.634,28.154,21,30,21S33.542,21.634,34.898,22.688z M23.688,24.102l2.603,2.603
		c-0.416,0.669-0.667,1.451-0.667,2.294s0.251,1.625,0.667,2.294l-2.603,2.603C22.634,32.542,22,30.846,22,29
		S22.634,25.458,23.688,24.102z M25.102,35.312l2.603-2.603c0.669,0.415,1.451,0.667,2.294,0.667s1.625-0.251,2.294-0.667
		l2.603,2.603C33.542,36.366,31.846,37,30,37S26.458,36.366,25.102,35.312z"/>
	<path style="fill:#ECF0F1;" d="M3,55L3,55c-1.105,0-2-0.895-2-2V5c0-1.105,0.895-2,2-2h0c1.105,0,2,0.895,2,2v48
		C5,54.105,4.105,55,3,55z"/>
	<path style="fill:#ECF0F1;" d="M57,55L57,55c-1.105,0-2-0.895-2-2V5c0-1.105,0.895-2,2-2h0c1.105,0,2,0.895,2,2v48
		C59,54.105,58.105,55,57,55z"/>
	<path style="fill:#8697CB;" d="M5,10H1c-0.553,0-1-0.447-1-1s0.447-1,1-1h4c0.553,0,1,0.447,1,1S5.553,10,5,10z"/>
	<path style="fill:#8697CB;" d="M5,50H1c-0.553,0-1-0.447-1-1s0.447-1,1-1h4c0.553,0,1,0.447,1,1S5.553,50,5,50z"/>
	<path style="fill:#8697CB;" d="M59,10h-4c-0.553,0-1-0.447-1-1s0.447-1,1-1h4c0.553,0,1,0.447,1,1S59.553,10,59,10z"/>
	<path style="fill:#8697CB;" d="M59,50h-4c-0.553,0-1-0.447-1-1s0.447-1,1-1h4c0.553,0,1,0.447,1,1S59.553,50,59,50z"/>
</g>
<g>
</g>
<g>
</g>
<g>
</g>
<g>
</g>
<g>
</g>
<g>
</g>
<g>
</g>
<g>
</g>
<g>
</g>
<g>
</g>
<g>
</g>
<g>
</g>
<g>
</g>
<g>
</g>
<g>
</g>
</svg>
