<?xml version="1.0" encoding="iso-8859-1"?>
<!-- Generator: Adobe Illustrator 19.0.0, SVG Export Plug-In . SVG Version: 6.00 Build 0)  -->
<svg version="1.1" id="Capa_1" xmlns="http://www.w3.org/2000/svg" xmlns:xlink="http://www.w3.org/1999/xlink" x="0px" y="0px"
	 viewBox="0 0 60 60" style="enable-background:new 0 0 60 60;" xml:space="preserve">
<g>
	<path style="fill:#D1D4D1;" d="M58.501,60c-0.09,0-0.183-0.013-0.274-0.039l-37-10.512c-0.531-0.151-0.839-0.704-0.688-1.235
		s0.702-0.839,1.235-0.688l37,10.512c0.531,0.151,0.839,0.704,0.688,1.235C59.337,59.713,58.936,60,58.501,60z"/>
	<path style="fill:#D1D4D1;" d="M34.25,30.085c-0.501,0-0.934-0.376-0.992-0.886c-0.063-0.549,0.332-1.044,0.88-1.107l18.249-2.085
		c0.543-0.063,1.044,0.332,1.107,0.88c0.063,0.549-0.332,1.044-0.88,1.107l-18.249,2.085C34.326,30.083,34.288,30.085,34.25,30.085z
		"/>
	<path style="fill:#D1D4D1;" d="M58.501,43c-0.062,0-0.124-0.005-0.186-0.017L33.44,38.293c-0.543-0.103-0.9-0.625-0.798-1.168
		c0.103-0.543,0.626-0.898,1.168-0.798l24.875,4.689c0.543,0.103,0.9,0.625,0.798,1.168C59.392,42.666,58.973,43,58.501,43z"/>
	<path style="fill:#D1D4D1;" d="M27.499,19.273c-0.458,0-0.871-0.316-0.975-0.781c-0.121-0.539,0.218-1.074,0.757-1.194l28-6.273
		c0.54-0.123,1.074,0.218,1.194,0.757c0.121,0.539-0.218,1.074-0.757,1.194l-28,6.273C27.645,19.265,27.571,19.273,27.499,19.273z"
		/>
	<path style="fill:#F3D55B;" d="M36.5,5h-1.586L32.5,2.586V1c0-0.552-0.448-1-1-1c-0.552,0-1,0.448-1,1v1.586L28.086,5H26.5
		c-0.552,0-1,0.448-1,1s0.448,1,1,1h1.586L30.5,9.414V11c0,0.552,0.448,1,1,1c0.552,0,1-0.448,1-1V9.414L34.914,7H36.5
		c0.552,0,1-0.448,1-1S37.052,5,36.5,5z"/>
	<circle style="fill:#546A79;" cx="17.5" cy="32" r="17"/>
	<path style="fill:#38454F;" d="M17.5,15C8.172,15,0.606,22.516,0.509,31.821C6.052,32.58,12.126,33,18.5,33
		c5.617,0,11.003-0.326,15.996-0.922c0-0.026,0.004-0.052,0.004-0.078C34.5,22.611,26.889,15,17.5,15z"/>
	<circle style="fill:#546A79;" cx="7.5" cy="25" r="1"/>
	<circle style="fill:#546A79;" cx="8.5" cy="29" r="1"/>
	<circle style="fill:#546A79;" cx="11.5" cy="26" r="1"/>
	<circle style="fill:#546A79;" cx="4.5" cy="28" r="1"/>
	<circle style="fill:#546A79;" cx="10.5" cy="21" r="1"/>
</g>
<g>
</g>
<g>
</g>
<g>
</g>
<g>
</g>
<g>
</g>
<g>
</g>
<g>
</g>
<g>
</g>
<g>
</g>
<g>
</g>
<g>
</g>
<g>
</g>
<g>
</g>
<g>
</g>
<g>
</g>
</svg>
