<?xml version="1.0" encoding="iso-8859-1"?>
<!-- Generator: Adobe Illustrator 19.0.0, SVG Export Plug-In . SVG Version: 6.00 Build 0)  -->
<svg version="1.1" id="Capa_1" xmlns="http://www.w3.org/2000/svg" xmlns:xlink="http://www.w3.org/1999/xlink" x="0px" y="0px"
	 viewBox="0 0 60 60" style="enable-background:new 0 0 60 60;" xml:space="preserve">
<g>
	<circle style="fill:#F18D46;" cx="30" cy="30.5" r="27"/>
	<rect x="2" y="56.5" style="fill:#8697CB;" width="56" height="3"/>
	<rect x="7" y="53.5" style="fill:#556080;" width="46" height="3"/>
	<rect x="12" y="50.5" style="fill:#8697CB;" width="36" height="3"/>
	<path style="fill:#D1D4D1;" d="M7.153,31.654l-4.043,1.213c0.493,5.677,2.74,10.85,6.201,14.974l3.718-2.002
		c1.052-0.567,2.199,0.58,1.632,1.632L13.03,50.5h33.94l-1.631-3.029c-0.567-1.052,0.58-2.199,1.632-1.632l3.718,2.002
		c3.461-4.124,5.707-9.297,6.201-14.974l-4.043-1.213c-1.145-0.344-1.145-1.965,0-2.308l4.043-1.213
		c-0.494-5.677-2.74-10.85-6.201-14.974l-3.718,2.002c-1.052,0.567-2.199-0.58-1.632-1.632l2.002-3.718
		c-4.124-3.461-9.297-5.707-14.974-6.201l-1.213,4.043c-0.343,1.145-1.965,1.145-2.308,0l-1.213-4.043
		c-5.677,0.493-10.85,2.74-14.974,6.201l2.002,3.718c0.567,1.052-0.58,2.199-1.632,1.632L9.31,13.159
		c-3.461,4.124-5.707,9.297-6.201,14.974l4.043,1.213C8.298,29.689,8.298,31.311,7.153,31.654z"/>
	<path style="fill:#8697CB;" d="M20.852,50.5h18.296C46.724,47.021,52,39.367,52,30.5c0-12.131-9.869-22-22-22s-22,9.869-22,22
		C8,39.367,13.276,47.021,20.852,50.5z"/>
	<g>
		<circle style="fill:#556080;" cx="17" cy="16.5" r="1"/>
		<circle style="fill:#556080;" cx="23" cy="10.5" r="1"/>
		<circle style="fill:#556080;" cx="23" cy="16.5" r="1"/>
		<circle style="fill:#556080;" cx="29" cy="10.5" r="1"/>
		<circle style="fill:#556080;" cx="29" cy="16.5" r="1"/>
		<circle style="fill:#556080;" cx="20" cy="13.5" r="1"/>
		<circle style="fill:#556080;" cx="26" cy="13.5" r="1"/>
		<circle style="fill:#556080;" cx="35" cy="10.5" r="1"/>
		<circle style="fill:#556080;" cx="35" cy="16.5" r="1"/>
		<circle style="fill:#556080;" cx="41" cy="16.5" r="1"/>
		<circle style="fill:#556080;" cx="32" cy="13.5" r="1"/>
		<circle style="fill:#556080;" cx="38" cy="13.5" r="1"/>
		<circle style="fill:#556080;" cx="14" cy="19.5" r="1"/>
		<circle style="fill:#556080;" cx="11" cy="22.5" r="1"/>
		<circle style="fill:#556080;" cx="14" cy="25.5" r="1"/>
		<circle style="fill:#556080;" cx="11" cy="28.5" r="1"/>
		<circle style="fill:#556080;" cx="11" cy="34.5" r="1"/>
		<circle style="fill:#556080;" cx="17" cy="22.5" r="1"/>
		<circle style="fill:#556080;" cx="17" cy="28.5" r="1"/>
		<circle style="fill:#556080;" cx="17" cy="34.5" r="1"/>
		<circle style="fill:#556080;" cx="14" cy="31.5" r="1"/>
		<circle style="fill:#556080;" cx="20" cy="19.5" r="1"/>
		<circle style="fill:#556080;" cx="26" cy="19.5" r="1"/>
		<circle style="fill:#556080;" cx="23" cy="22.5" r="1"/>
		<circle style="fill:#556080;" cx="20" cy="25.5" r="1"/>
		<circle style="fill:#556080;" cx="26" cy="25.5" r="1"/>
		<circle style="fill:#556080;" cx="23" cy="28.5" r="1"/>
		<circle style="fill:#556080;" cx="23" cy="34.5" r="1"/>
		<circle style="fill:#556080;" cx="29" cy="22.5" r="1"/>
		<circle style="fill:#556080;" cx="29" cy="28.5" r="1"/>
		<circle style="fill:#556080;" cx="29" cy="34.5" r="1"/>
		<circle style="fill:#556080;" cx="20" cy="31.5" r="1"/>
		<circle style="fill:#556080;" cx="26" cy="31.5" r="1"/>
		<circle style="fill:#556080;" cx="32" cy="19.5" r="1"/>
		<circle style="fill:#556080;" cx="38" cy="19.5" r="1"/>
		<circle style="fill:#556080;" cx="35" cy="22.5" r="1"/>
		<circle style="fill:#556080;" cx="32" cy="25.5" r="1"/>
		<circle style="fill:#556080;" cx="38" cy="25.5" r="1"/>
		<circle style="fill:#556080;" cx="35" cy="28.5" r="1"/>
		<circle style="fill:#556080;" cx="35" cy="34.5" r="1"/>
		<circle style="fill:#556080;" cx="41" cy="22.5" r="1"/>
		<circle style="fill:#556080;" cx="41" cy="28.5" r="1"/>
		<circle style="fill:#556080;" cx="41" cy="34.5" r="1"/>
		<circle style="fill:#556080;" cx="32" cy="31.5" r="1"/>
		<circle style="fill:#556080;" cx="38" cy="31.5" r="1"/>
		<circle style="fill:#556080;" cx="44" cy="19.5" r="1"/>
		<circle style="fill:#556080;" cx="47" cy="22.5" r="1"/>
		<circle style="fill:#556080;" cx="44" cy="25.5" r="1"/>
		<circle style="fill:#556080;" cx="50" cy="25.5" r="1"/>
		<circle style="fill:#556080;" cx="47" cy="28.5" r="1"/>
		<circle style="fill:#556080;" cx="47" cy="34.5" r="1"/>
		<circle style="fill:#556080;" cx="44" cy="31.5" r="1"/>
		<circle style="fill:#556080;" cx="50" cy="31.5" r="1"/>
		<circle style="fill:#556080;" cx="14" cy="37.5" r="1"/>
		<circle style="fill:#556080;" cx="11" cy="40.5" r="1"/>
		<circle style="fill:#556080;" cx="14" cy="43.5" r="1"/>
		<circle style="fill:#556080;" cx="17" cy="40.5" r="1"/>
		<circle style="fill:#556080;" cx="17" cy="46.5" r="1"/>
		<circle style="fill:#556080;" cx="20" cy="37.5" r="1"/>
		<circle style="fill:#556080;" cx="26" cy="37.5" r="1"/>
		<circle style="fill:#556080;" cx="23" cy="40.5" r="1"/>
		<circle style="fill:#556080;" cx="20" cy="43.5" r="1"/>
		<circle style="fill:#556080;" cx="26" cy="43.5" r="1"/>
		<circle style="fill:#556080;" cx="23" cy="46.5" r="1"/>
		<circle style="fill:#556080;" cx="29" cy="40.5" r="1"/>
		<circle style="fill:#556080;" cx="29" cy="46.5" r="1"/>
		<circle style="fill:#556080;" cx="20" cy="49.5" r="1"/>
		<circle style="fill:#556080;" cx="26" cy="49.5" r="1"/>
		<circle style="fill:#556080;" cx="32" cy="37.5" r="1"/>
		<circle style="fill:#556080;" cx="38" cy="37.5" r="1"/>
		<circle style="fill:#556080;" cx="35" cy="40.5" r="1"/>
		<circle style="fill:#556080;" cx="32" cy="43.5" r="1"/>
		<circle style="fill:#556080;" cx="38" cy="43.5" r="1"/>
		<circle style="fill:#556080;" cx="35" cy="46.5" r="1"/>
		<circle style="fill:#556080;" cx="41" cy="40.5" r="1"/>
		<circle style="fill:#556080;" cx="41" cy="46.5" r="1"/>
		<circle style="fill:#556080;" cx="32" cy="49.5" r="1"/>
		<circle style="fill:#556080;" cx="38" cy="49.5" r="1"/>
		<circle style="fill:#556080;" cx="44" cy="37.5" r="1"/>
		<circle style="fill:#556080;" cx="50" cy="37.5" r="1"/>
		<circle style="fill:#556080;" cx="47" cy="40.5" r="1"/>
		<circle style="fill:#556080;" cx="44" cy="43.5" r="1"/>
	</g>
	<path style="fill:#A5A5A4;" d="M59,31.93c-0.284,0-0.541,0.119-0.723,0.31l-5.143-1.543c-0.036-0.011-0.119-0.049-0.136-0.169
		c0-0.009,0.001-0.018,0.001-0.028c0-0.01-0.001-0.019-0.001-0.029c0.017-0.118,0.099-0.157,0.135-0.168l5.144-1.543
		c0.182,0.19,0.438,0.31,0.723,0.31c0.553,0,1-0.447,1-1c0-0.448-0.215-0.876-0.575-1.144c-0.359-0.268-0.831-0.35-1.258-0.221
		l-5.276,1.582c-0.449-4.685-2.307-8.965-5.147-12.406l4.854-2.615c0.395-0.212,0.67-0.603,0.735-1.045
		c0.065-0.443-0.084-0.897-0.399-1.215c-0.391-0.392-1.024-0.395-1.414-0.004c-0.202,0.201-0.301,0.468-0.295,0.731l-4.727,2.546
		c-0.036,0.02-0.133,0.07-0.238-0.032c-0.002-0.003-0.005-0.005-0.007-0.007c-0.102-0.107-0.052-0.202-0.033-0.239l2.546-4.727
		c0.232-0.002,0.53-0.093,0.731-0.295c0.39-0.392,0.388-1.024-0.004-1.414c-0.316-0.315-0.764-0.469-1.215-0.399
		c-0.442,0.065-0.833,0.341-1.045,0.734l-2.614,4.855c-3.442-2.841-7.722-4.699-12.407-5.148l1.581-5.274
		c0.13-0.429,0.047-0.899-0.22-1.26C33.306,0.715,32.878,0.5,32.43,0.5c-0.552,0-1,0.447-1,1c0,0.284,0.119,0.541,0.309,0.723
		l-1.542,5.143c-0.011,0.036-0.05,0.119-0.168,0.135C30.019,7.501,30.01,7.5,30,7.5s-0.019,0.001-0.029,0.001
		c-0.118-0.017-0.157-0.099-0.168-0.135l-1.542-5.144c0.19-0.182,0.309-0.438,0.309-0.723c0-0.553-0.448-1-1-1
		c-0.449,0-0.876,0.215-1.144,0.575c-0.267,0.36-0.35,0.831-0.221,1.258l1.582,5.276c-4.685,0.449-8.966,2.307-12.408,5.148
		l-2.614-4.854c-0.211-0.395-0.603-0.67-1.045-0.735c-0.447-0.07-0.897,0.084-1.215,0.399c-0.391,0.39-0.393,1.022-0.003,1.414
		c0.202,0.202,0.466,0.29,0.732,0.295l2.545,4.728c0.019,0.036,0.069,0.131-0.033,0.238c-0.002,0.002-0.005,0.005-0.007,0.007
		c-0.108,0.103-0.202,0.052-0.238,0.032l-4.727-2.545c0.006-0.264-0.091-0.529-0.292-0.73c-0.391-0.391-1.023-0.391-1.414,0
		c-0.317,0.316-0.467,0.771-0.402,1.214s0.339,0.835,0.734,1.048l4.856,2.615c-2.841,3.442-4.698,7.722-5.148,12.407l-5.274-1.582
		c-0.428-0.129-0.9-0.046-1.26,0.221C0.215,27.194,0,27.622,0,28.07c0,0.553,0.448,1,1,1c0.284,0,0.541-0.119,0.723-0.31
		l5.142,1.543c0.036,0.011,0.119,0.05,0.135,0.168C7.001,30.481,7,30.49,7,30.5c0,0.009,0.001,0.018,0.001,0.028
		c-0.016,0.119-0.099,0.158-0.135,0.169l-5.143,1.543C1.541,32.049,1.284,31.93,1,31.93c-0.552,0-1,0.447-1,1
		c0,0.448,0.215,0.876,0.575,1.144c0.248,0.184,0.548,0.28,0.852,0.28c0.137,0,0.274-0.02,0.407-0.06l5.287-1.586
		c0.448,4.599,2.278,8.905,5.156,12.399L7.4,47.734c-0.394,0.212-0.668,0.604-0.733,1.047s0.085,0.897,0.402,1.214
		c0.195,0.195,0.451,0.293,0.707,0.293s0.512-0.098,0.707-0.293c0.201-0.201,0.299-0.467,0.292-0.73l4.727-2.545
		c0.037-0.02,0.135-0.073,0.243,0.035c0.108,0.108,0.055,0.206,0.036,0.242c-0.262,0.486-0.08,1.093,0.406,1.355
		c0.39,0.21,0.85,0.123,1.155-0.167c1.532,1.274,3.233,2.369,5.093,3.223l0.199,0.091h18.733l0.199-0.091
		c1.86-0.854,3.561-1.95,5.093-3.223c0.305,0.29,0.764,0.377,1.155,0.167c0.486-0.263,0.668-0.869,0.406-1.355
		c-0.02-0.036-0.072-0.134,0.036-0.242c0.109-0.108,0.206-0.055,0.242-0.035l4.727,2.546c-0.006,0.264,0.093,0.53,0.295,0.731
		c0.194,0.194,0.45,0.291,0.705,0.291c0.257,0,0.514-0.099,0.709-0.295c0.315-0.317,0.465-0.771,0.399-1.215
		c-0.065-0.442-0.341-0.833-0.733-1.045l-4.876-2.626c2.878-3.494,4.708-7.801,5.156-12.399l5.286,1.585
		c0.134,0.041,0.271,0.061,0.409,0.061c0.303,0,0.603-0.097,0.851-0.28C59.785,33.806,60,33.378,60,32.93
		C60,32.377,59.553,31.93,59,31.93z M38.927,49.5H21.073c-7.311-3.448-12.03-10.835-12.07-18.9c0.002-0.034,0.008-0.066,0.008-0.1
		c0-0.03-0.006-0.059-0.007-0.089c0.024-5.749,2.367-10.961,6.144-14.742c0.003-0.003,0.007-0.005,0.011-0.009
		c0.004-0.004,0.006-0.008,0.01-0.012c3.782-3.776,8.993-6.118,14.741-6.143c0.03,0.001,0.059,0.007,0.09,0.007
		s0.059-0.006,0.09-0.007c5.748,0.024,10.959,2.366,14.741,6.143c0.004,0.004,0.006,0.008,0.01,0.012
		c0.003,0.003,0.007,0.005,0.011,0.009c3.777,3.782,6.119,8.994,6.144,14.742c-0.001,0.03-0.007,0.059-0.007,0.09
		c0,0.034,0.007,0.067,0.008,0.101C50.957,38.665,46.238,46.052,38.927,49.5z"/>
</g>
<g>
</g>
<g>
</g>
<g>
</g>
<g>
</g>
<g>
</g>
<g>
</g>
<g>
</g>
<g>
</g>
<g>
</g>
<g>
</g>
<g>
</g>
<g>
</g>
<g>
</g>
<g>
</g>
<g>
</g>
</svg>
