<?xml version="1.0" encoding="iso-8859-1"?>
<!-- Generator: Adobe Illustrator 19.0.0, SVG Export Plug-In . SVG Version: 6.00 Build 0)  -->
<svg version="1.1" id="Capa_1" xmlns="http://www.w3.org/2000/svg" xmlns:xlink="http://www.w3.org/1999/xlink" x="0px" y="0px"
	 viewBox="0 0 60 60" style="enable-background:new 0 0 60 60;" xml:space="preserve">
<g>
	<circle style="fill:#F3D55B;" cx="30" cy="30" r="22.101"/>
	<circle style="fill:#F0C419;" cx="30" cy="30" r="17.101"/>
	<circle style="fill:#EDA71B;" cx="30" cy="30" r="10"/>
	<g>
		<path style="fill:#F0C419;" d="M30,8c-0.553,0-1,0.448-1,1v2c0,0.552,0.447,1,1,1s1-0.448,1-1V9C31,8.448,30.553,8,30,8z"/>
		<path style="fill:#F0C419;" d="M30,48c-0.553,0-1,0.448-1,1v2c0,0.552,0.447,1,1,1s1-0.448,1-1v-2C31,48.448,30.553,48,30,48z"/>
		<path style="fill:#F0C419;" d="M51,29h-2c-0.553,0-1,0.448-1,1s0.447,1,1,1h2c0.553,0,1-0.448,1-1S51.553,29,51,29z"/>
		<path style="fill:#F0C419;" d="M12,30c0-0.552-0.447-1-1-1H9c-0.553,0-1,0.448-1,1s0.447,1,1,1h2C11.553,31,12,30.552,12,30z"/>
		<path style="fill:#F0C419;" d="M44.143,14.443l-1.415,1.414c-0.391,0.391-0.391,1.024,0,1.415
			c0.195,0.195,0.451,0.293,0.707,0.293s0.512-0.098,0.707-0.292l1.415-1.414c0.391-0.391,0.391-1.024,0-1.415
			S44.533,14.054,44.143,14.443z"/>
		<path style="fill:#F0C419;" d="M15.858,42.728l-1.415,1.414c-0.391,0.391-0.391,1.024,0,1.415
			c0.195,0.195,0.451,0.293,0.707,0.293s0.512-0.098,0.707-0.292l1.415-1.414c0.391-0.391,0.391-1.024,0-1.415
			S16.249,42.338,15.858,42.728z"/>
		<path style="fill:#F0C419;" d="M44.142,42.728c-0.391-0.39-1.023-0.39-1.414,0s-0.391,1.024,0,1.415l1.415,1.414
			c0.195,0.195,0.451,0.292,0.707,0.292s0.512-0.098,0.707-0.293c0.391-0.391,0.391-1.024,0-1.415L44.142,42.728z"/>
		<path style="fill:#F0C419;" d="M15.857,14.443c-0.391-0.39-1.023-0.39-1.414,0s-0.391,1.024,0,1.415l1.415,1.414
			c0.195,0.195,0.451,0.292,0.707,0.292s0.512-0.098,0.707-0.293c0.391-0.391,0.391-1.024,0-1.415L15.857,14.443z"/>
		<path style="fill:#F0C419;" d="M38.596,9.749c-0.507-0.215-1.095,0.021-1.312,0.53l-0.781,1.841
			c-0.216,0.508,0.021,1.095,0.53,1.311c0.128,0.054,0.26,0.08,0.391,0.08c0.389,0,0.759-0.229,0.921-0.61l0.781-1.841
			C39.342,10.552,39.104,9.965,38.596,9.749z"/>
		<path style="fill:#F0C419;" d="M22.967,46.569c-0.509-0.215-1.095,0.021-1.312,0.53l-0.781,1.841
			c-0.216,0.508,0.021,1.095,0.53,1.311c0.128,0.054,0.26,0.08,0.391,0.08c0.389,0,0.759-0.229,0.921-0.61l0.781-1.841
			C23.713,47.372,23.476,46.785,22.967,46.569z"/>
		<path style="fill:#F0C419;" d="M49.722,37.285l-1.842-0.782c-0.508-0.216-1.096,0.021-1.312,0.53
			c-0.216,0.508,0.021,1.095,0.53,1.311l1.842,0.782c0.128,0.054,0.26,0.08,0.391,0.08c0.389,0,0.759-0.229,0.921-0.61
			C50.468,38.088,50.23,37.501,49.722,37.285z"/>
		<path style="fill:#F0C419;" d="M12.901,21.656l-1.842-0.782c-0.508-0.215-1.095,0.021-1.312,0.53
			c-0.216,0.508,0.021,1.095,0.53,1.311l1.842,0.782c0.128,0.054,0.26,0.08,0.391,0.08c0.389,0,0.759-0.229,0.921-0.61
			C13.647,22.458,13.41,21.872,12.901,21.656z"/>
		<path style="fill:#F0C419;" d="M47.616,23.723c0.125,0,0.252-0.024,0.375-0.073l1.854-0.75c0.512-0.207,0.759-0.79,0.552-1.302
			c-0.207-0.513-0.789-0.758-1.302-0.553l-1.854,0.75c-0.512,0.207-0.759,0.79-0.552,1.302
			C46.847,23.486,47.221,23.723,47.616,23.723z"/>
		<path style="fill:#F0C419;" d="M12.009,36.03l-1.854,0.75c-0.512,0.207-0.759,0.79-0.552,1.302
			c0.157,0.39,0.531,0.626,0.927,0.626c0.125,0,0.252-0.024,0.375-0.073l1.854-0.75c0.512-0.207,0.759-0.79,0.552-1.302
			C13.104,36.07,12.521,35.825,12.009,36.03z"/>
		<path style="fill:#F0C419;" d="M38.044,47.081c-0.207-0.512-0.79-0.758-1.302-0.552c-0.512,0.207-0.759,0.79-0.552,1.302
			l0.75,1.854c0.157,0.389,0.531,0.625,0.927,0.625c0.125,0,0.252-0.024,0.375-0.073c0.512-0.207,0.759-0.79,0.552-1.302
			L38.044,47.081z"/>
		<path style="fill:#F0C419;" d="M23.06,9.994c-0.207-0.512-0.79-0.757-1.302-0.552c-0.512,0.207-0.759,0.79-0.552,1.302l0.75,1.854
			c0.157,0.389,0.531,0.625,0.927,0.625c0.125,0,0.252-0.024,0.375-0.073c0.512-0.207,0.759-0.79,0.552-1.302L23.06,9.994z"/>
	</g>
	<g>
		<path style="fill:#EDA71B;" d="M30,14c-0.52,0-0.941,0.421-0.941,0.941v1.882c0,0.52,0.421,0.941,0.941,0.941
			s0.941-0.421,0.941-0.941v-1.882C30.941,14.421,30.52,14,30,14z"/>
		<path style="fill:#EDA71B;" d="M30,42.235c-0.52,0-0.941,0.421-0.941,0.941v1.882C29.059,45.579,29.48,46,30,46
			s0.941-0.421,0.941-0.941v-1.882C30.941,42.657,30.52,42.235,30,42.235z"/>
		<path style="fill:#EDA71B;" d="M45.059,29.059h-1.882c-0.52,0-0.941,0.421-0.941,0.941s0.421,0.941,0.941,0.941h1.882
			C45.579,30.941,46,30.52,46,30S45.579,29.059,45.059,29.059z"/>
		<path style="fill:#EDA71B;" d="M17.765,30c0-0.52-0.421-0.941-0.941-0.941h-1.882C14.421,29.059,14,29.48,14,30
			s0.421,0.941,0.941,0.941h1.882C17.344,30.941,17.765,30.52,17.765,30z"/>
		<path style="fill:#EDA71B;" d="M39.317,21.624c0.241,0,0.482-0.092,0.665-0.276l1.331-1.331c0.368-0.368,0.368-0.963,0-1.331
			c-0.368-0.368-0.963-0.368-1.331,0l-1.331,1.331c-0.368,0.368-0.368,0.963,0,1.331C38.835,21.532,39.076,21.624,39.317,21.624z"/>
		<path style="fill:#EDA71B;" d="M20.017,38.652l-1.331,1.331c-0.368,0.368-0.368,0.963,0,1.331
			c0.184,0.184,0.425,0.276,0.665,0.276s0.482-0.092,0.665-0.276l1.331-1.331c0.368-0.368,0.368-0.963,0-1.331
			C20.981,38.284,20.385,38.284,20.017,38.652z"/>
		<path style="fill:#EDA71B;" d="M39.983,38.652c-0.368-0.368-0.963-0.368-1.331,0c-0.368,0.368-0.368,0.963,0,1.331l1.331,1.331
			c0.184,0.184,0.425,0.276,0.665,0.276c0.241,0,0.482-0.092,0.665-0.276c0.368-0.368,0.368-0.963,0-1.331L39.983,38.652z"/>
		<path style="fill:#EDA71B;" d="M20.017,18.687c-0.368-0.368-0.963-0.368-1.331,0s-0.368,0.963,0,1.331l1.331,1.331
			c0.184,0.184,0.425,0.276,0.665,0.276c0.241,0,0.482-0.092,0.665-0.276c0.368-0.368,0.368-0.963,0-1.331L20.017,18.687z"/>
		<path style="fill:#EDA71B;" d="M36.252,15.272c-0.478-0.203-1.03,0.02-1.234,0.499l-0.735,1.733
			c-0.203,0.478,0.02,1.031,0.499,1.234c0.12,0.051,0.244,0.075,0.368,0.075c0.366,0,0.714-0.216,0.867-0.574l0.735-1.733
			C36.954,16.028,36.731,15.475,36.252,15.272z"/>
		<path style="fill:#EDA71B;" d="M25.219,41.263c-0.478-0.202-1.031,0.019-1.234,0.499l-0.735,1.733
			c-0.203,0.478,0.02,1.031,0.499,1.234c0.12,0.051,0.244,0.075,0.368,0.075c0.366,0,0.714-0.216,0.867-0.574l0.735-1.733
			C25.921,42.018,25.698,41.466,25.219,41.263z"/>
		<path style="fill:#EDA71B;" d="M44.23,35.017l-1.733-0.735c-0.477-0.202-1.03,0.019-1.234,0.499
			c-0.203,0.479,0.02,1.031,0.499,1.234l1.733,0.735c0.12,0.051,0.244,0.075,0.368,0.075c0.366,0,0.714-0.216,0.867-0.574
			C44.932,35.773,44.709,35.22,44.23,35.017z"/>
		<path style="fill:#EDA71B;" d="M15.77,24.983l1.733,0.735c0.12,0.051,0.244,0.075,0.368,0.075c0.366,0,0.714-0.216,0.867-0.574
			c0.203-0.479-0.02-1.031-0.499-1.234l-1.733-0.735c-0.479-0.202-1.03,0.02-1.234,0.499C15.068,24.227,15.291,24.78,15.77,24.983z"
			/>
		<path style="fill:#EDA71B;" d="M41.345,25.266c0.148,0.367,0.5,0.589,0.872,0.589c0.118,0,0.237-0.023,0.353-0.069l1.745-0.705
			c0.482-0.195,0.714-0.744,0.519-1.225c-0.195-0.483-0.743-0.714-1.225-0.52l-1.745,0.705
			C41.382,24.235,41.15,24.784,41.345,25.266z"/>
		<path style="fill:#EDA71B;" d="M18.655,34.432c-0.195-0.483-0.743-0.714-1.225-0.52l-1.745,0.705
			c-0.482,0.195-0.714,0.744-0.519,1.225c0.148,0.367,0.5,0.589,0.872,0.589c0.118,0,0.237-0.023,0.353-0.069l1.745-0.705
			C18.618,35.463,18.85,34.914,18.655,34.432z"/>
		<path style="fill:#EDA71B;" d="M35.808,41.713c-0.195-0.482-0.743-0.714-1.225-0.52c-0.482,0.195-0.714,0.744-0.519,1.226
			l0.706,1.745c0.148,0.366,0.5,0.589,0.872,0.589c0.118,0,0.237-0.023,0.353-0.069c0.482-0.195,0.714-0.744,0.519-1.226
			L35.808,41.713z"/>
		<path style="fill:#EDA71B;" d="M25.231,15.534c-0.195-0.482-0.743-0.712-1.225-0.52c-0.482,0.195-0.714,0.744-0.519,1.226
			l0.706,1.745c0.148,0.366,0.5,0.589,0.872,0.589c0.118,0,0.237-0.023,0.353-0.069c0.482-0.195,0.714-0.744,0.519-1.226
			L25.231,15.534z"/>
	</g>
	<g>
		<path style="fill:#F3D55B;" d="M30,0c-0.553,0-1,0.448-1,1v5c0,0.552,0.447,1,1,1s1-0.448,1-1V1C31,0.448,30.553,0,30,0z"/>
		<path style="fill:#F3D55B;" d="M30,53c-0.553,0-1,0.448-1,1v5c0,0.552,0.447,1,1,1s1-0.448,1-1v-5C31,53.448,30.553,53,30,53z"/>
		<path style="fill:#F3D55B;" d="M59,29h-5c-0.553,0-1,0.448-1,1s0.447,1,1,1h5c0.553,0,1-0.448,1-1S59.553,29,59,29z"/>
		<path style="fill:#F3D55B;" d="M7,30c0-0.552-0.447-1-1-1H1c-0.553,0-1,0.448-1,1s0.447,1,1,1h5C6.553,31,7,30.552,7,30z"/>
		<path style="fill:#F3D55B;" d="M46.971,14.029c0.256,0,0.512-0.098,0.707-0.293l3.535-3.535c0.391-0.391,0.391-1.023,0-1.414
			s-1.023-0.391-1.414,0l-3.535,3.535c-0.391,0.391-0.391,1.023,0,1.414C46.459,13.932,46.715,14.029,46.971,14.029z"/>
		<path style="fill:#F3D55B;" d="M12.322,46.264l-3.535,3.535c-0.391,0.391-0.391,1.023,0,1.414
			c0.195,0.195,0.451,0.293,0.707,0.293s0.512-0.098,0.707-0.293l3.535-3.535c0.391-0.391,0.391-1.023,0-1.414
			S12.713,45.873,12.322,46.264z"/>
		<path style="fill:#F3D55B;" d="M47.678,46.264c-0.391-0.391-1.023-0.391-1.414,0s-0.391,1.023,0,1.414l3.535,3.535
			c0.195,0.195,0.451,0.293,0.707,0.293s0.512-0.098,0.707-0.293c0.391-0.391,0.391-1.023,0-1.414L47.678,46.264z"/>
		<path style="fill:#F3D55B;" d="M10.201,8.787c-0.391-0.391-1.023-0.391-1.414,0s-0.391,1.023,0,1.414l3.535,3.535
			c0.195,0.195,0.451,0.293,0.707,0.293s0.512-0.098,0.707-0.293c0.391-0.391,0.391-1.023,0-1.414L10.201,8.787z"/>
		<path style="fill:#F3D55B;" d="M41.722,2.385c-0.508-0.216-1.095,0.021-1.312,0.53l-1.953,4.603
			c-0.216,0.508,0.021,1.095,0.53,1.311c0.128,0.054,0.26,0.08,0.391,0.08c0.389,0,0.759-0.229,0.921-0.61l1.953-4.603
			C42.468,3.188,42.23,2.601,41.722,2.385z"/>
		<path style="fill:#F3D55B;" d="M21.013,51.172c-0.509-0.215-1.095,0.021-1.312,0.53l-1.953,4.603
			c-0.216,0.508,0.021,1.095,0.53,1.311c0.128,0.054,0.26,0.08,0.391,0.08c0.389,0,0.759-0.229,0.921-0.61l1.953-4.603
			C21.759,51.975,21.521,51.388,21.013,51.172z"/>
		<path style="fill:#F3D55B;" d="M57.085,40.411l-4.603-1.954c-0.504-0.215-1.095,0.021-1.312,0.53
			c-0.216,0.508,0.021,1.095,0.53,1.311l4.603,1.954c0.127,0.054,0.26,0.08,0.391,0.08c0.389,0,0.759-0.229,0.921-0.61
			C57.831,41.213,57.594,40.626,57.085,40.411z"/>
		<path style="fill:#F3D55B;" d="M2.915,19.589l4.603,1.954c0.127,0.054,0.26,0.08,0.391,0.08c0.389,0,0.759-0.229,0.921-0.61
			c0.216-0.508-0.021-1.095-0.53-1.311l-4.603-1.954c-0.504-0.214-1.095,0.021-1.312,0.53C2.169,18.787,2.406,19.374,2.915,19.589z"
			/>
		<path style="fill:#F3D55B;" d="M51.325,21.224c0.157,0.39,0.531,0.626,0.927,0.626c0.125,0,0.252-0.024,0.375-0.073l4.637-1.873
			c0.512-0.207,0.759-0.79,0.552-1.302c-0.206-0.513-0.79-0.758-1.302-0.553l-4.637,1.873
			C51.365,20.129,51.118,20.711,51.325,21.224z"/>
		<path style="fill:#F3D55B;" d="M8.675,38.456c-0.207-0.513-0.789-0.757-1.302-0.553l-4.637,1.873
			c-0.512,0.207-0.759,0.79-0.552,1.302c0.157,0.39,0.531,0.626,0.927,0.626c0.125,0,0.252-0.024,0.375-0.073l4.637-1.873
			C8.635,39.55,8.882,38.968,8.675,38.456z"/>
		<path style="fill:#F3D55B;" d="M39.917,51.717c-0.207-0.513-0.79-0.758-1.302-0.553c-0.512,0.207-0.759,0.79-0.552,1.302
			l1.873,4.636c0.157,0.39,0.531,0.626,0.927,0.626c0.125,0,0.252-0.024,0.375-0.073c0.512-0.207,0.759-0.79,0.552-1.302
			L39.917,51.717z"/>
		<path style="fill:#F3D55B;" d="M20.063,2.577c-0.207-0.513-0.789-0.759-1.302-0.553c-0.512,0.207-0.759,0.79-0.552,1.302
			l1.873,4.636c0.157,0.39,0.531,0.626,0.927,0.626c0.125,0,0.252-0.024,0.375-0.073c0.512-0.207,0.759-0.79,0.552-1.302
			L20.063,2.577z"/>
	</g>
</g>
<g>
</g>
<g>
</g>
<g>
</g>
<g>
</g>
<g>
</g>
<g>
</g>
<g>
</g>
<g>
</g>
<g>
</g>
<g>
</g>
<g>
</g>
<g>
</g>
<g>
</g>
<g>
</g>
<g>
</g>
</svg>
