<?xml version="1.0" encoding="iso-8859-1"?>
<!-- Generator: Adobe Illustrator 19.0.0, SVG Export Plug-In . SVG Version: 6.00 Build 0)  -->
<svg version="1.1" id="Capa_1" xmlns="http://www.w3.org/2000/svg" xmlns:xlink="http://www.w3.org/1999/xlink" x="0px" y="0px"
	 viewBox="0 0 59.519 59.519" style="enable-background:new 0 0 59.519 59.519;" xml:space="preserve">
<g>
	<circle style="fill:#9FBDC2;" cx="30.26" cy="29.561" r="23"/>
	<circle style="fill:#9FCACC;" cx="26.016" cy="27.804" r="18.242"/>
	<circle style="fill:#ADD7DB;" cx="23.031" cy="26.307" r="14.739"/>
	<path style="fill:#F3D55B;" d="M53.26,51.561h-3l-1-1v-3c0-0.552-0.448-1-1-1s-1,0.448-1,1v3l-1,1h-3c-0.552,0-1,0.448-1,1
		s0.448,1,1,1h3l1,1v3c0,0.552,0.448,1,1,1s1-0.448,1-1v-3l1-1h3c0.552,0,1-0.448,1-1S53.812,51.561,53.26,51.561z"/>
	<circle style="fill:#F3D55B;" cx="5.26" cy="4.561" r="1"/>
	<circle style="fill:#F3D55B;" cx="8.26" cy="55.561" r="1"/>
	<circle style="fill:#ECF0F1;" cx="3.26" cy="48.561" r="1"/>
	<circle style="fill:#F3D55B;" cx="14.26" cy="1.561" r="1"/>
	<circle style="fill:#F3D55B;" cx="54.26" cy="4.561" r="1"/>
	<circle style="fill:#F3D55B;" cx="56.26" cy="52.563" r="1"/>
	<circle style="fill:#F3D55B;" cx="44.76" cy="39.936" r="1"/>
	<circle style="fill:#F3D55B;" cx="14.26" cy="26.311" r="1"/>
	<path style="fill:#ECF0F1;" d="M29.786,52.553c-1.773,4.055-3.168,5.039-3.723,4.961c-0.648-0.086-2.02-1.896-2.569-8.123
		c-0.487-5.521-0.197-12.75,0.817-20.358c2.258-16.939,6.916-27.293,9.151-27.028c0.519,0.069,1.547,1.259,2.205,5.201
		c0.679,0.163,1.344,0.358,1.995,0.579c0.049-0.146,0.076-0.301,0.051-0.465c-0.71-4.647-2.014-7.034-3.987-7.297
		c-5.457-0.721-9.805,16.793-11.398,28.746c-1.033,7.75-1.326,15.136-0.827,20.798c0.554,6.283,2,9.624,4.297,9.93
		c0.117,0.016,0.233,0.023,0.349,0.023c1.917,0,3.757-2.128,5.611-6.485c0.074-0.174,0.078-0.353,0.054-0.527
		C31.142,52.551,30.467,52.567,29.786,52.553z"/>
</g>
<g>
</g>
<g>
</g>
<g>
</g>
<g>
</g>
<g>
</g>
<g>
</g>
<g>
</g>
<g>
</g>
<g>
</g>
<g>
</g>
<g>
</g>
<g>
</g>
<g>
</g>
<g>
</g>
<g>
</g>
</svg>
