<?xml version="1.0" encoding="iso-8859-1"?>
<!-- Generator: Adobe Illustrator 19.0.0, SVG Export Plug-In . SVG Version: 6.00 Build 0)  -->
<svg version="1.1" id="Capa_1" xmlns="http://www.w3.org/2000/svg" xmlns:xlink="http://www.w3.org/1999/xlink" x="0px" y="0px"
	 viewBox="0 0 56 56" style="enable-background:new 0 0 56 56;" xml:space="preserve">
<g>
	<circle style="fill:#D75A4A;" cx="27" cy="30.5" r="24"/>
	<path style="fill:#F3D55B;" d="M55,5.5h-1.586L51,3.086V1.5c0-0.552-0.447-1-1-1s-1,0.448-1,1v1.586L46.586,5.5H45
		c-0.553,0-1,0.448-1,1s0.447,1,1,1h1.586L49,9.914V11.5c0,0.552,0.447,1,1,1s1-0.448,1-1V9.914L53.415,7.5H55c0.553,0,1-0.448,1-1
		S55.553,5.5,55,5.5z"/>
	<circle style="fill:#F3D55B;" cx="6" cy="9.5" r="1"/>
	<circle style="fill:#F3D55B;" cx="25" cy="12.5" r="1"/>
	<circle style="fill:#F3D55B;" cx="53" cy="17.5" r="1"/>
	<circle style="fill:#F3D55B;" cx="36.001" cy="5.5" r="1"/>
	<circle style="fill:#F3D55B;" cx="35" cy="45.5" r="1"/>
	<circle style="fill:#F3D55B;" cx="3" cy="54.5" r="1"/>
	<circle style="fill:#F3D55B;" cx="1" cy="43.5" r="1"/>
	<path style="fill:#E57E25;" d="M48.971,20.841c-0.925-2.1-2.139-4.042-3.597-5.776C38.436,16.169,24,18.5,24,18.5L48.971,20.841z"
		/>
	<path style="fill:#E57E25;" d="M48.171,41.809c0.984-1.839,1.732-3.821,2.212-5.907L18,39.5C18,39.5,37.048,40.92,48.171,41.809z"
		/>
	<path style="fill:#E57E25;" d="M3.362,26.371C3.129,27.713,3,29.091,3,30.5c0,0.544,0.025,1.082,0.06,1.617L24,29.5
		C24,29.5,11.372,27.548,3.362,26.371z"/>
	<circle style="fill:#F3D55B;" cx="44" cy="54.5" r="1"/>
	<circle style="fill:#F3D55B;" cx="53" cy="42.5" r="1"/>
	<circle style="fill:#F3D55B;" cx="1" cy="4.5" r="1"/>
	<circle style="fill:#F3D55B;" cx="12" cy="2.5" r="1"/>
</g>
<g>
</g>
<g>
</g>
<g>
</g>
<g>
</g>
<g>
</g>
<g>
</g>
<g>
</g>
<g>
</g>
<g>
</g>
<g>
</g>
<g>
</g>
<g>
</g>
<g>
</g>
<g>
</g>
<g>
</g>
</svg>
