<?xml version="1.0" encoding="iso-8859-1"?>
<!-- Generator: Adobe Illustrator 21.0.0, SVG Export Plug-In . SVG Version: 6.00 Build 0)  -->
<svg xmlns="http://www.w3.org/2000/svg" xmlns:xlink="http://www.w3.org/1999/xlink" version="1.1" id="Capa_1" x="0px" y="0px" viewBox="0 0 512 512" style="enable-background:new 0 0 512 512;" xml:space="preserve" width="512" height="512">
<g>
	<path style="fill:#EDF5FF;" d="M512,106v300c0,8.401-6.599,15-15,15H15c-8.401,0-15-6.599-15-15V106c0-4.2,1.8-7.8,4.501-10.499   l240.7,230.7C248.2,329.2,252.1,331,256,331s7.8-1.8,10.8-4.799l240.7-230.7C510.2,98.2,512,101.8,512,106z"/>
	<path style="fill:#D7E9FF;" d="M512,106v300c0,8.401-6.599,15-15,15H256v-90c3.9,0,7.8-1.8,10.8-4.799l240.7-230.7   C510.2,98.2,512,101.8,512,106z"/>
	<path style="fill:#D7E9FF;" d="M65.395,356.605c-5.859-5.859-5.859-15.352,0-21.211l90-90c5.859-5.859,15.352-5.859,21.211,0   s5.859,15.352,0,21.211l-90,90C80.746,362.465,71.254,362.465,65.395,356.605z"/>
	<path style="fill:#B0D5F7;" d="M425.395,356.605l-90-90c-5.859-5.859-5.859-15.352,0-21.211s15.352-5.859,21.211,0l90,90   c5.859,5.859,5.859,15.352,0,21.211C440.746,362.465,431.254,362.465,425.395,356.605z"/>
	<path style="fill:#76E2F8;" d="M507.499,95.501l-240.7,260.7C263.8,359.2,259.9,361,256,361s-7.8-1.8-10.8-4.799l-240.7-260.7   C7.2,92.8,10.8,91,15,91h482C501.2,91,504.8,92.8,507.499,95.501z"/>
	<path style="fill:#25D9F8;" d="M507.499,95.501l-240.7,260.7C263.8,359.2,259.9,361,256,361V91h241   C501.2,91,504.8,92.8,507.499,95.501z"/>
</g>















</svg>
