<?xml version="1.0" encoding="iso-8859-1"?>
<!-- Generator: Adobe Illustrator 21.0.0, SVG Export Plug-In . SVG Version: 6.00 Build 0)  -->
<svg xmlns="http://www.w3.org/2000/svg" xmlns:xlink="http://www.w3.org/1999/xlink" version="1.1" id="Capa_1" x="0px" y="0px" viewBox="0 0 512 512" style="enable-background:new 0 0 512 512;" xml:space="preserve" width="512" height="512">
<g>
	<path style="fill:#979FEF;" d="M256,0C115.3,0,0,115.3,0,256s115.3,256,256,256s256-115.3,256-256S396.7,0,256,0z"/>
	<path style="fill:#737EE6;" d="M512,256c0,140.7-115.3,256-256,256V0C396.7,0,512,115.3,512,256z"/>
	<path style="fill:#737EE6;" d="M482,256c0,124.2-101.8,226-226,226S30,380.2,30,256S131.8,30,256,30S482,131.8,482,256z"/>
	<path style="fill:#615AD3;" d="M482,256c0,124.2-101.8,226-226,226V30C380.2,30,482,131.8,482,256z"/>
	<path style="fill:#737EE6;" d="M386.141,147.173c-5.317,0-10.459-2.827-13.184-7.822c-3.97-7.266-1.289-16.377,5.991-20.347   c17.212-9.375,33.369-20.801,48.047-33.926c6.196-5.522,15.645-5.01,21.182,1.172c5.522,6.182,4.995,15.659-1.172,21.182   c-16.392,14.678-34.468,27.422-53.701,37.91C391.019,146.587,388.572,147.173,386.141,147.173z"/>
	<path style="fill:#737EE6;" d="M437,430.745c-3.56,0-7.134-1.26-10.005-3.823c-14.678-13.125-30.835-24.551-48.047-33.926   c-7.28-3.97-9.961-13.081-5.991-20.347c3.955-7.295,13.052-9.976,20.347-5.991c19.233,10.488,37.31,23.232,53.701,37.91   c6.167,5.522,6.694,15,1.172,21.182C445.218,429.061,441.116,430.745,437,430.745z"/>
	<path style="fill:#979FEF;" d="M105,271H15c-8.291,0-15-6.709-15-15s6.709-15,15-15h90c8.291,0,15,6.709,15,15S113.291,271,105,271   z"/>
	<path style="fill:#979FEF;" d="M512,256c0,8.401-6.599,15-15,15H165c-8.401,0-15-6.599-15-15s6.599-15,15-15h332   C505.401,241,512,247.599,512,256z"/>
	<path style="fill:#979FEF;" d="M271,15v482c0,8.401-6.599,15-15,15s-15-6.599-15-15V15c0-8.401,6.599-15,15-15S271,6.599,271,15z"/>
	<path style="fill:#737EE6;" d="M512,256c0,8.401-6.599,15-15,15H256v-30h241C505.401,241,512,247.599,512,256z"/>
	<path style="fill:#737EE6;" d="M271,15v482c0,8.401-6.599,15-15,15V0C264.401,0,271,6.599,271,15z"/>
	<g>
		<path style="fill:#979FEF;" d="M256,0c-75.601,0-136,112.899-136,256s60.399,256,136,256s136-112.899,136-256S331.601,0,256,0z     M256,482c-57.001,0-106-103.9-106-226S198.999,30,256,30s106,103.9,106,226S313.001,482,256,482z"/>
	</g>
	<path style="fill:#737EE6;" d="M392,256c0,143.101-60.399,256-136,256v-30c57.001,0,106-103.9,106-226S313.001,30,256,30V0   C331.601,0,392,112.899,392,256z"/>
	<path style="fill:#979FEF;" d="M336.501,168.6c-25.801,7.5-53.5,11.4-80.501,11.4c-70.201,0-138.701-25.8-190.901-72.599   c-6.299-5.4-6.899-15-1.199-21c5.4-6.301,15-6.899,21-1.199C131.4,126.899,194.2,149.399,256,149.7c24,0.3,48.999-2.999,72.1-9.6   c8.101-2.399,16.199,2.1,18.6,10.201C349.1,158.101,344.299,166.5,336.501,168.6z"/>
	<path style="fill:#737EE6;" d="M336.501,168.6c-25.801,7.5-53.5,11.4-80.501,11.4v-30.3c24,0.3,48.999-2.999,72.1-9.6   c8.101-2.399,16.199,2.1,18.6,10.201C349.1,158.101,344.299,166.5,336.501,168.6z"/>
	<path style="fill:#979FEF;" d="M346.7,361.7c-2.401,8.101-10.499,12.599-18.6,10.201C304.999,365.3,280,362,256,362   c-61.5,0.3-124.3,23.101-171.099,64.799c-2.701,2.701-6.301,3.9-9.901,3.9c-4.2,0-8.101-1.5-11.1-5.099   c-5.7-6-5.099-15.601,1.199-21C117.299,357.8,185.799,332,256,332c27.001,0,54.699,3.9,80.501,11.4   C344.299,345.5,349.1,353.899,346.7,361.7z"/>
	<path style="fill:#737EE6;" d="M346.7,361.7c-2.401,8.101-10.499,12.599-18.6,10.201C304.999,365.3,280,362,256,362v-30   c27.001,0,54.699,3.9,80.501,11.4C344.299,345.5,349.1,353.899,346.7,361.7z"/>
	<path style="fill:#76E2F8;" d="M362,195c-24.814,0-45-20.186-45-45s20.186-45,45-45s45,20.186,45,45S386.814,195,362,195z"/>
	<path style="fill:#76E2F8;" d="M362,407c-24.814,0-45-20.186-45-45s20.186-45,45-45s45,20.186,45,45S386.814,407,362,407z"/>
	<path style="fill:#9BFCFF;" d="M135,301c-24.814,0-45-20.186-45-45s20.186-45,45-45s45,20.186,45,45S159.814,301,135,301z"/>
</g>















</svg>
