<?xml version="1.0" encoding="iso-8859-1"?>
<!-- Generator: Adobe Illustrator 21.0.0, SVG Export Plug-In . SVG Version: 6.00 Build 0)  -->
<svg xmlns="http://www.w3.org/2000/svg" xmlns:xlink="http://www.w3.org/1999/xlink" version="1.1" id="Capa_1" x="0px" y="0px" viewBox="0 0 512 512" style="enable-background:new 0 0 512 512;" xml:space="preserve" width="512" height="512">
<g>
	<path style="fill:#EDF5FF;" d="M512,76v405c0,8.399-6.599,15-15,15H15c-8.401,0-15-6.601-15-15V76l30-30h452L512,76z"/>
	<path style="fill:#D7E9FF;" d="M512,76v405c0,8.399-6.599,15-15,15H256V46h226L512,76z"/>
	<path style="fill:#737EE6;" d="M392,16h105c8.284,0,15,6.716,15,15v45H392l-30-30L392,16z"/>
	<path style="fill:#979FEF;" d="M226,436H75c-8.291,0-15-6.709-15-15V151c0-8.291,6.709-15,15-15h151c8.291,0,15,6.709,15,15v270   C241,429.291,234.291,436,226,436z"/>
	<path style="fill:#B0D5F7;" d="M437,196H286c-8.291,0-15-6.709-15-15s6.709-15,15-15h151c8.291,0,15,6.709,15,15   S445.291,196,437,196z"/>
	<path style="fill:#B0D5F7;" d="M437,256H286c-8.291,0-15-6.709-15-15s6.709-15,15-15h151c8.291,0,15,6.709,15,15   S445.291,256,437,256z"/>
	<path style="fill:#B0D5F7;" d="M437,346H286c-8.291,0-15-6.709-15-15s6.709-15,15-15h151c8.291,0,15,6.709,15,15   S445.291,346,437,346z"/>
	<path style="fill:#B0D5F7;" d="M437,406H286c-8.291,0-15-6.709-15-15s6.709-15,15-15h151c8.291,0,15,6.709,15,15   S445.291,406,437,406z"/>
	<path style="fill:#47568C;" d="M392,16v60H0V31c0-8.401,6.599-15,15-15H392z"/>
	<rect x="256" y="16" style="fill:#2C3B73;" width="136" height="60"/>
</g>















</svg>
