<?xml version="1.0" encoding="iso-8859-1"?>
<!-- Generator: Adobe Illustrator 21.0.0, SVG Export Plug-In . SVG Version: 6.00 Build 0)  -->
<svg xmlns="http://www.w3.org/2000/svg" xmlns:xlink="http://www.w3.org/1999/xlink" version="1.1" id="Capa_1" x="0px" y="0px" viewBox="0 0 512 512" style="enable-background:new 0 0 512 512;" xml:space="preserve" width="512" height="512">
<g>
	<g>
		<polygon style="fill:#2C3B73;" points="346,61 346,391 316,421 76,421 46,391 46,61 76,30 316,30   "/>
		<polygon style="fill:#293939;" points="346,61 346,391 316,421 196,421 196,30 316,30   "/>
		<rect x="76" y="91" style="fill:#979FEF;" width="240" height="270"/>
		<rect x="196" y="91" style="fill:#737EE6;" width="120" height="270"/>
		<path style="fill:#EDF5FF;" d="M346,15v46H46V15c0-8.401,6.599-15,15-15h270C339.401,0,346,6.599,346,15z"/>
		<path style="fill:#D7E9FF;" d="M346,15v46H196V0h135C339.401,0,346,6.599,346,15z"/>
		<path style="fill:#EDF5FF;" d="M346,391v45c0,8.399-6.599,15-15,15H61c-8.401,0-15-6.601-15-15v-45H346z"/>
		<path style="fill:#D7E9FF;" d="M346,391v45c0,8.399-6.599,15-15,15H196v-60H346z"/>
	</g>
	<g>
		<path style="fill:#FDE4E4;" d="M466,304.6v64.2c0,46.199-10.8,93.699-31.5,134.799C431.8,508.7,426.7,512,421,512H181    c-5.7,0-10.8-3.3-13.5-8.401c-1.199-3.6-31.5-55-31.5-127.599c0-36.301,25.8-66.601,60-73.5V154.6c0-18.6,15-33.6,33.6-33.6    c18.9,0,34.4,15,34.4,33.6v120c0-18.6,14.5-33.6,33.4-33.6c18.6,0,33.6,15,33.6,33.6c0-18.6,15-33.6,33.6-33.6    c18.9,0,34.4,15,34.4,33.6V301h0.901c1.8-16.8,15.099-30,32.499-30C451,271,466,286,466,304.6z"/>
		<path style="fill:#FCCED3;" d="M466,304.6v64.2c0,46.199-10.8,93.699-31.5,134.799C431.8,508.7,426.7,512,421,512H196V154.6    c0-18.6,15-33.6,33.6-33.6c18.9,0,34.4,15,34.4,33.6v120c0-18.6,14.5-33.6,33.4-33.6c18.6,0,33.6,15,33.6,33.6    c0-18.6,15-33.6,33.6-33.6c18.9,0,34.4,15,34.4,33.6V301h0.901c1.8-16.8,15.099-30,32.499-30C451,271,466,286,466,304.6z"/>
	</g>
</g>















</svg>
