<?xml version="1.0" encoding="iso-8859-1"?>
<!-- Generator: Adobe Illustrator 21.0.0, SVG Export Plug-In . SVG Version: 6.00 Build 0)  -->
<svg xmlns="http://www.w3.org/2000/svg" xmlns:xlink="http://www.w3.org/1999/xlink" version="1.1" id="Capa_1" x="0px" y="0px" viewBox="0 0 512 512" style="enable-background:new 0 0 512 512;" xml:space="preserve" width="512" height="512">
<g>
	<path style="fill:#47568C;" d="M358.599,429.399c-2.999,4.2-7.8,6.601-12.599,6.601c-2.999,0-5.7-0.901-8.401-2.401L256,378.999   l-81.599,54.6C171.7,435.099,168.999,436,166,436c-4.799,0-9.6-2.401-12.599-6.601c-4.501-6.899-2.701-16.199,4.199-21L241,352.899   V241c0-8.401,6.599-15,15-15s15,6.599,15,15v111.899l83.401,55.499C361.3,413.2,363.1,422.5,358.599,429.399z"/>
	<path style="fill:#2C3B73;" d="M358.599,429.399c-2.999,4.2-7.8,6.601-12.599,6.601c-2.999,0-5.7-0.901-8.401-2.401L256,378.999   V226c8.401,0,15,6.599,15,15v111.899l83.401,55.499C361.3,413.2,363.1,422.5,358.599,429.399z"/>
	<path style="fill:#979FEF;" d="M91,376c-49.501,0-91,40.499-91,90v15c0,8.399,6.599,15,15,15h151c8.401,0,15-6.601,15-15v-15   C181,416.499,140.501,376,91,376z"/>
	<path style="fill:#FCCED3;" d="M91,256c-32.999,0-61,26.999-61,60c0,32.999,28.001,60,61,60s60-27.001,60-60   C151,282.999,123.999,256,91,256z"/>
	<path style="fill:#FAAAAA;" d="M91,376V256c32.999,0,60,26.999,60,60C151,348.999,123.999,376,91,376z"/>
	<path style="fill:#737EE6;" d="M181,466v15c0,8.399-6.599,15-15,15H91V376C140.501,376,181,416.499,181,466z"/>
	<path style="fill:#979FEF;" d="M421,376c-49.501,0-90,40.499-90,90v15c0,8.399,6.599,15,15,15h151c8.401,0,15-6.601,15-15v-15   C512,416.499,470.501,376,421,376z"/>
	<path style="fill:#FCCED3;" d="M421,256c-32.999,0-60,26.999-60,60c0,32.999,27.001,60,60,60s61-27.001,61-60   C482,282.999,453.999,256,421,256z"/>
	<path style="fill:#FAAAAA;" d="M421,376V256c32.999,0,61,26.999,61,60C482,348.999,453.999,376,421,376z"/>
	<path style="fill:#737EE6;" d="M512,466v15c0,8.399-6.599,15-15,15h-76V376C470.501,376,512,416.499,512,466z"/>
	<path style="fill:#979FEF;" d="M256,136c-49.501,0-90,40.499-90,90v15c0,8.399,6.599,15,15,15h150c8.401,0,15-6.601,15-15v-15   C346,176.499,305.501,136,256,136z"/>
	<path style="fill:#FCCED3;" d="M256,16c-32.999,0-60,26.999-60,60c0,32.999,27.001,60,60,60s60-27.001,60-60   C316,42.999,288.999,16,256,16z"/>
	<path style="fill:#FAAAAA;" d="M256,136V16c32.999,0,60,26.999,60,60C316,108.999,288.999,136,256,136z"/>
	<path style="fill:#737EE6;" d="M346,226v15c0,8.399-6.599,15-15,15h-75V136C305.501,136,346,176.499,346,226z"/>
</g>















</svg>
