<?xml version="1.0" encoding="iso-8859-1"?>
<!-- Generator: Adobe Illustrator 21.0.0, SVG Export Plug-In . SVG Version: 6.00 Build 0)  -->
<svg xmlns="http://www.w3.org/2000/svg" xmlns:xlink="http://www.w3.org/1999/xlink" version="1.1" id="Capa_1" x="0px" y="0px" viewBox="0 0 512 512" style="enable-background:new 0 0 512 512;" xml:space="preserve" width="512" height="512">
<g>
	<path style="fill:#76E2F8;" d="M440.799,60.899l-180-60C259.3,0.3,257.8,0,256,0s-3.3,0.3-4.799,0.899l-180,60   C65.2,62.699,61,68.399,61,75v172.4c0,119.7,76.5,225.899,190.201,263.699C252.7,511.7,254.5,512,256,512s3.3-0.3,4.799-0.901   C374.5,473.299,451,367.099,451,247.4V75C451,68.399,446.8,62.699,440.799,60.899z"/>
	<path style="fill:#25D9F8;" d="M451,75v172.4c0,119.7-76.5,225.899-190.201,263.699C259.3,511.7,257.5,512,256,512V0   c1.8,0,3.3,0.3,4.799,0.899l180,60C446.8,62.699,451,68.399,451,75z"/>
	<path style="fill:#737EE6;" d="M380.799,104.099l-120-40.199C259.3,63.6,257.8,63.3,256,63.3s-3.3,0.3-4.799,0.601l-120,40.199   c-6,2.1-10.201,7.8-10.201,14.101v129.2c0,85.8,50.7,163.801,129,198.9c1.8,0.899,3.9,1.5,6,1.5s4.2-0.601,6-1.5   c78.3-35.099,129-113.101,129-198.9V118.2C391,111.899,386.8,106.199,380.799,104.099z"/>
	<path style="fill:#615AD3;" d="M391,118.2v129.2c0,85.8-50.7,163.801-129,198.9c-1.8,0.899-3.9,1.5-6,1.5V63.3   c1.8,0,3.3,0.3,4.799,0.601l120,40.199C386.8,106.199,391,111.899,391,118.2z"/>
	<path style="fill:#EDF5FF;" d="M311.499,237.499L256,293l-4.501,4.499C248.8,300.5,244.9,302,241,302s-7.8-1.5-10.499-4.501l-30-30   c-6-5.7-6-15.3,0-21c5.7-5.999,15.298-5.999,20.999,0l19.501,19.2l15-15l34.501-34.2c5.7-5.999,15.298-5.999,20.999,0   C317.5,222.199,317.5,231.799,311.499,237.499z"/>
	<path style="fill:#D7E9FF;" d="M311.499,237.499L256,293v-42.301l34.501-34.2c5.7-5.999,15.298-5.999,20.999,0   C317.5,222.199,317.5,231.799,311.499,237.499z"/>
</g>















</svg>
