<?xml version="1.0" encoding="iso-8859-1"?>
<!-- Generator: Adobe Illustrator 21.0.0, SVG Export Plug-In . SVG Version: 6.00 Build 0)  -->
<svg xmlns="http://www.w3.org/2000/svg" xmlns:xlink="http://www.w3.org/1999/xlink" version="1.1" id="Capa_1" x="0px" y="0px" viewBox="0 0 512 512" style="enable-background:new 0 0 512 512;" xml:space="preserve" width="512" height="512">
<g>
	<path style="fill:#FDE4E4;" d="M479.492,308.399l-58.5-116.999c-1.8-106.8-88.801-191.1-195-191.4c-13.5,0-27.599,1.199-41.7,4.2   C110.493,19.799,50.493,79.799,35.193,153.9c-13.801,67.5,6.899,134.7,55.8,181.5V497c0,8.399,6.599,15,15,15h180   c8.401,0,15-6.601,15-15v-46h75c24.901,0,45-21.101,45-46v-75h45c5.099,0,9.901-2.701,12.9-7.2   C481.593,318.6,481.593,312.9,479.492,308.399z"/>
	<path style="fill:#FCCED3;" d="M478.892,322.8c-2.999,4.499-7.8,7.2-12.9,7.2h-45v75c0,24.899-20.099,46-45,46h-75v46   c0,8.399-6.599,15-15,15h-60V0c106.199,0.3,193.2,84.6,195,191.4l58.5,116.999C481.593,312.9,481.593,318.6,478.892,322.8z"/>
	<g>
		<path style="fill:#979FEF;" d="M352.591,233.399L314.492,211.5c0.899-5.4,1.5-10.8,1.5-16.5s-0.601-11.1-1.5-16.5l38.099-21.901    c7.202-4.2,9.6-13.5,5.7-20.7l-15-25.8c-4.199-7.2-13.499-9.6-20.7-5.7l-38.399,22.5c-8.401-7.2-17.701-12.599-28.2-16.5V75    c0-8.401-6.599-15-15-15h-30c-8.401,0-15,6.599-15,15v35.4c-10.499,3.9-19.799,9.3-28.2,16.5l-38.399-22.5    c-7.202-3.9-16.501-1.5-20.7,5.7l-15,25.8c-3.9,7.2-1.501,16.5,5.7,20.7l38.099,21.901c-0.899,5.4-1.5,10.8-1.5,16.5    s0.601,11.1,1.5,16.5l-38.099,21.899c-7.202,4.2-9.6,13.5-5.7,20.7l15,25.8c4.199,7.202,13.499,9.6,20.7,5.7l38.399-22.5    c8.401,7.202,17.701,12.601,28.2,16.501V315c0,8.399,6.599,15,15,15h30c8.401,0,15-6.601,15-15v-35.4    c10.499-3.9,19.799-9.3,28.2-16.501l38.399,22.5c7.202,3.9,16.501,1.501,20.7-5.7l15-25.8    C362.191,246.899,359.793,237.599,352.591,233.399z M225.992,240c-24.901,0-45-20.101-45-45c0-24.901,20.099-45,45-45    s45,20.099,45,45C270.992,219.899,250.893,240,225.992,240z"/>
	</g>
	<path style="fill:#737EE6;" d="M358.291,254.099l-15,25.8c-4.199,7.202-13.499,9.6-20.7,5.7l-38.399-22.5   c-8.401,7.202-17.701,12.601-28.2,16.501V315c0,8.399-6.599,15-15,15h-15v-90c24.901,0,45-20.101,45-45c0-24.901-20.099-45-45-45   V60h15c8.401,0,15,6.599,15,15v35.4c10.499,3.9,19.799,9.3,28.2,16.5l38.399-22.5c7.202-3.9,16.501-1.5,20.7,5.7l15,25.8   c3.9,7.2,1.501,16.5-5.7,20.7L314.492,178.5c0.899,5.4,1.5,10.8,1.5,16.5s-0.601,11.1-1.5,16.5l38.099,21.899   C359.793,237.599,362.191,246.899,358.291,254.099z"/>
</g>















</svg>
