<?xml version="1.0" encoding="iso-8859-1"?>
<!-- Generator: Adobe Illustrator 21.0.0, SVG Export Plug-In . SVG Version: 6.00 Build 0)  -->
<svg xmlns="http://www.w3.org/2000/svg" xmlns:xlink="http://www.w3.org/1999/xlink" version="1.1" id="Capa_1" x="0px" y="0px" viewBox="0 0 512 512" style="enable-background:new 0 0 512 512;" xml:space="preserve" width="512" height="512">
<g>
	<path style="fill:#B0D5F7;" d="M346.029,240.971c0-29.379-14.163-55.488-35.984-71.924c-4.543-3.422-10.633-3.981-15.721-1.441   c-5.09,2.542-8.295,7.742-8.295,13.431v29.934L286,241l30.015,30l30.013-30C346.027,240.991,346.029,240.98,346.029,240.971z"/>
	<path style="fill:#D7E9FF;" d="M226,180.934c-0.042-5.643-3.217-10.796-8.271-13.319c-5.087-2.54-11.175-1.989-15.716,1.432   c-21.821,16.436-35.984,42.545-35.984,71.924c0,0.009,0.002,0.02,0.002,0.029l29.984,30L226,241V180.934z"/>
	<path style="fill:#EDF5FF;" d="M346,241c0,39-25.201,71.999-60,84.6V451h-60V325.6C191.201,312.999,166,280,166,241H346z"/>
	<path style="fill:#D7E9FF;" d="M346,241c0,39-25.201,71.999-60,84.6V451h-30V241H346z"/>
	<path style="fill:#9BFCFF;" d="M499.999,211.3l-24.399-4.801c-5.7-25.199-15.601-48.9-29.399-70.8l13.2-19.801   c3.898-5.999,3.3-13.799-1.802-18.898L415,54.399c-5.099-5.099-12.9-5.7-18.9-1.8l-19.799,13.2C354.401,52,330.7,42.1,305.501,36.4   L300.7,11.999C299.2,5.099,293.2,0,286,0h-60c-7.2,0-13.2,5.099-14.7,11.999L206.499,36.4C181.3,42.1,157.599,52,135.7,65.799   l-19.799-13.2c-6-3.9-13.801-3.3-18.9,1.8L54.401,97c-5.101,5.099-5.7,12.9-1.802,18.898l13.2,19.801   C52,157.599,42.1,181.3,36.4,206.499L13.001,211.3C6.099,212.8,0,218.8,0,226v60c0,7.2,6.099,13.2,13.001,14.7l23.399,4.799   C42.1,330.7,52,354.399,65.799,376.3l-13.2,19.799c-3.898,6-3.3,13.801,1.802,18.9L97,457.599c4.799,5.101,12.9,5.7,18.9,1.8   l19.799-13.2C157.599,460,181.3,469.9,206.499,475.6l4.801,24.399C212.8,506.899,218.8,512,226,512h60   c7.2,0,13.2-5.101,14.7-12.001l4.801-24.399c25.199-5.7,48.9-15.601,70.8-29.401l19.799,13.2c6,3.9,13.801,3.301,18.9-1.8   L457.599,415c5.101-5.099,5.7-12.9,1.802-18.9l-13.2-19.799C460,354.399,469.9,330.7,475.6,305.499l24.399-4.799   C506.901,299.2,512,293.2,512,286v-60C512,218.8,506.901,212.8,499.999,211.3z M256,406c-82.8,0-150-67.2-150-150s67.2-150,150-150   s150,67.2,150,150S338.8,406,256,406z"/>
	<path style="fill:#76E2F8;" d="M512,226v60c0,7.2-5.099,13.2-12.001,14.7l-24.399,4.799c-5.7,25.201-15.601,48.9-29.399,70.801   l13.2,19.799c3.898,6,3.3,13.801-1.802,18.9L415,457.599c-5.099,5.101-12.9,5.7-18.9,1.8l-19.799-13.2   C354.401,460,330.7,469.9,305.501,475.6l-4.801,24.399C299.2,506.899,293.2,512,286,512h-30V406c82.8,0,150-67.2,150-150   s-67.2-150-150-150V0h30c7.2,0,13.2,5.099,14.7,11.999l4.801,24.401c25.199,5.7,48.9,15.601,70.8,29.399l19.799-13.2   c6-3.9,13.801-3.3,18.9,1.8L457.599,97c5.101,5.099,5.7,12.9,1.802,18.898l-13.2,19.801C460,157.599,469.9,181.3,475.6,206.499   l24.399,4.801C506.901,212.8,512,218.8,512,226z"/>
	<path style="fill:#979FEF;" d="M256,91c-90.901,0-165,74.099-165,165c0,90.899,74.099,165,165,165s165-74.101,165-165   C421,165.099,346.901,91,256,91z M256,391c-74.399,0-135-60.601-135-135c0-74.401,60.601-135,135-135s135,60.599,135,135   C391,330.399,330.399,391,256,391z"/>
	<path style="fill:#737EE6;" d="M421,256c0,90.899-74.099,165-165,165v-30c74.399,0,135-60.601,135-135c0-74.401-60.601-135-135-135   V91C346.901,91,421,165.099,421,256z"/>
</g>















</svg>
