<?xml version="1.0" encoding="iso-8859-1"?>
<!-- Generator: Adobe Illustrator 21.0.0, SVG Export Plug-In . SVG Version: 6.00 Build 0)  -->
<svg xmlns="http://www.w3.org/2000/svg" xmlns:xlink="http://www.w3.org/1999/xlink" version="1.1" id="Capa_1" x="0px" y="0px" viewBox="0 0 512 512" style="enable-background:new 0 0 512 512;" xml:space="preserve" width="512" height="512">
<g>
	<path style="fill:#D7E9FF;" d="M331,376v60c0,41.4-33.6,76-75,76s-75-34.6-75-76v-60c0-8.401,6.599-15,15-15h120   C324.401,361,331,367.599,331,376z"/>
	<path style="fill:#B0D5F7;" d="M331,376v60c0,41.4-33.6,76-75,76V361h60C324.401,361,331,367.599,331,376z"/>
	<path style="fill:#FFDA2D;" d="M421,165c0,34.501-10.8,67.8-31.199,96c-18.9,25.8-28.801,54-28.801,81V345   c0,24.901-20.099,46-45,46h-45l-15-30l-15,30h-45c-24.901,0-45-21.099-45-46v-5.7c0-25.8-9.6-52.5-27.599-76.8   C95.799,225.601,85.3,180,93.701,134.399C105.7,69.3,156.7,16.8,220.901,3.6C232.599,1.199,244.3,0,256,0   c38.101,0,74.399,12.599,104.099,36.899C398.8,68.401,421,115.201,421,165z"/>
	<path style="fill:#FDBF00;" d="M421,165c0,34.501-10.8,67.8-31.199,96c-18.9,25.8-28.801,54-28.801,81V345   c0,24.901-20.099,46-45,46h-45l-15-30V0c38.101,0,74.399,12.599,104.099,36.899C398.8,68.401,421,115.201,421,165z"/>
	<path style="fill:#FDBF00;" d="M462.733,95.142l29.975-7.764c7.998-2.139,12.744-10.371,10.605-18.369   c-2.139-8.013-10.327-12.759-18.369-10.605l-29.975,7.764c-7.998,2.139-12.744,10.371-10.605,18.369   C446.511,92.595,454.804,97.28,462.733,95.142z"/>
	<path style="fill:#FFDA2D;" d="M48.267,234.858l-28.975,7.764c-7.998,2.139-12.744,10.371-10.605,18.369   c2.147,8.059,10.44,12.744,18.369,10.605l29.975-7.764c7.998-2.139,12.744-10.371,10.605-18.369   C65.512,237.451,56.294,232.69,48.267,234.858z"/>
	<path style="fill:#FDBF00;" d="M492.708,242.622l-29.975-7.764c-7.939-2.139-16.23,2.593-18.369,10.605   c-2.139,7.998,2.607,16.23,10.605,18.369l29.975,7.764c7.923,2.137,16.221-2.54,18.369-10.605   C505.452,252.993,500.706,244.761,492.708,242.622z"/>
	<path style="fill:#FFDA2D;" d="M57.03,66.167l-29.975-7.764c-7.954-2.139-16.23,2.593-18.369,10.605   c-2.139,7.998,2.607,16.23,10.605,18.369l28.975,7.764c7.923,2.137,17.221-2.54,19.369-10.605   C69.774,76.538,65.028,68.306,57.03,66.167z"/>
	<path style="fill:#FDBF00;" d="M497,150h-30c-8.291,0-16,6.709-16,15s7.709,15,16,15h30c8.291,0,15-6.709,15-15   S505.291,150,497,150z"/>
	<path style="fill:#FFDA2D;" d="M45,180c8.291,0,16-6.709,16-15s-7.709-15-16-15H15c-8.291,0-15,6.709-15,15s6.709,15,15,15H45z"/>
	<path style="fill:#FDBF00;" d="M322.599,151.5c-7.2-3.6-16.199-0.599-20.099,6.901L286,191.4l-16.5-32.999   c-2.701-5.101-8.101-7.8-13.5-7.8s-10.8,2.699-13.5,7.8L226,191.4l-16.5-32.999c-3.9-7.5-12.9-10.501-20.099-6.901   c-7.5,3.9-10.501,12.9-6.901,20.099c2.1,3.9,58.5,117.301,58.5,117.301V391h30V288.6c1.8-3.3,58.5-117.299,58.5-117.299   C333.1,164.099,330.099,155.4,322.599,151.5z M256,251.4L242.8,225l13.2-26.4l13.2,26.4L256,251.4z"/>
	<path style="fill:#FF9100;" d="M329.5,171.301c0,0-56.7,114-58.5,117.299V391h-15V251.4l13.2-26.4L256,198.6v-47.999   c5.4,0,10.8,2.699,13.5,7.8L286,191.4l16.5-32.999c3.9-7.5,12.9-10.501,20.099-6.901C330.099,155.4,333.1,164.099,329.5,171.301z"/>
	<path style="fill:#EDF5FF;" d="M361,436c0,8.401-6.599,15-15,15H166c-8.401,0-15-6.599-15-15s6.599-15,15-15h180   C354.401,421,361,427.599,361,436z"/>
	<path style="fill:#D7E9FF;" d="M361,436c0,8.401-6.599,15-15,15h-90v-30h90C354.401,421,361,427.599,361,436z"/>
</g>















</svg>
