<?xml version="1.0" encoding="iso-8859-1"?>
<!-- Generator: Adobe Illustrator 21.0.0, SVG Export Plug-In . SVG Version: 6.00 Build 0)  -->
<svg xmlns="http://www.w3.org/2000/svg" xmlns:xlink="http://www.w3.org/1999/xlink" version="1.1" id="Capa_1" x="0px" y="0px" viewBox="0 0 512 512" style="enable-background:new 0 0 512 512;" xml:space="preserve" width="512" height="512">
<g>
	<g>
		<path style="fill:#FF641A;" d="M256,0C156.7,0,76,80.7,76,180c0,35.4,10.201,69.6,29.399,98.399L243.1,504.8    c2.999,4.499,7.8,7.2,12.9,7.2s9.901-2.701,12.9-7.2L406.3,279c19.499-29.399,29.7-63.6,29.7-99C436,80.7,355.3,0,256,0z"/>
	</g>
	<path style="fill:#F03800;" d="M436,180c0,35.4-10.201,69.6-29.7,99L268.9,504.8c-2.999,4.499-7.8,7.2-12.9,7.2V0   C355.3,0,436,80.7,436,180z"/>
	<path style="fill:#47568C;" d="M376,180c0,38.099-18.3,71.7-46.199,93.9H182.199C154.3,251.7,136,218.099,136,180   c0-66.301,53.699-120,120-120S376,113.699,376,180z"/>
	<path style="fill:#2C3B73;" d="M376,180c0,38.099-18.3,71.7-46.199,93.9H256V60C322.301,60,376,113.699,376,180z"/>
	<path style="fill:#FCCED3;" d="M256,120c-24.901,0-45,20.099-45,45c0,24.899,20.099,45,45,45s45-20.101,45-45   C301,140.099,280.901,120,256,120z"/>
	<path style="fill:#FAAAAA;" d="M256,210v-90c24.901,0,45,20.099,45,45C301,189.899,280.901,210,256,210z"/>
	<path style="fill:#979FEF;" d="M329.801,273.9C309.401,290.099,283.9,300,256,300s-53.401-9.901-73.801-26.1   c5.4-36,36.301-63.9,73.801-63.9S324.401,237.9,329.801,273.9z"/>
	<path style="fill:#737EE6;" d="M329.801,273.9C309.401,290.099,283.9,300,256,300v-90C293.5,210,324.401,237.9,329.801,273.9z"/>
</g>















</svg>
