<?xml version="1.0" encoding="iso-8859-1"?>
<!-- Generator: Adobe Illustrator 21.0.0, SVG Export Plug-In . SVG Version: 6.00 Build 0)  -->
<svg xmlns="http://www.w3.org/2000/svg" xmlns:xlink="http://www.w3.org/1999/xlink" version="1.1" id="Capa_1" x="0px" y="0px" viewBox="0 0 512.011 512.011" style="enable-background:new 0 0 512.011 512.011;" xml:space="preserve" width="512" height="512">
<g>
	<path style="fill:#FFDA2D;" d="M256.011,0.006c-140.7,0-256,115.3-256,256c0,48.9,13.801,96,39.901,137.1l-38.701,98.2   c-2.399,5.7-1.199,11.999,3.301,16.199c4.199,4.2,10.499,5.7,16.199,3.3l98.2-38.699c41.1,26.1,88.2,39.901,137.1,39.901   c140.7,0,256-115.3,256-256S396.711,0.006,256.011,0.006z"/>
	<path style="fill:#FDBF00;" d="M512.011,256.006c0,140.7-115.3,256-256,256v-512C396.711,0.006,512.011,115.306,512.011,256.006z"/>
	<path style="fill:#F03800;" d="M376.011,241.006h-240c-8.401,0-15,6.599-15,15c0,74.399,60.601,135,135,135s135-60.601,135-135   C391.011,247.605,384.412,241.006,376.011,241.006z"/>
	<path style="fill:#47568C;" d="M226.011,211.006c-8.291,0-15-6.709-15-15v-30c0-8.276-6.724-15-15-15s-15,6.724-15,15v30   c0,8.291-6.709,15-15,15s-15-6.709-15-15v-30c0-24.814,20.186-45,45-45s45,20.186,45,45v30   C241.011,204.297,234.302,211.006,226.011,211.006z"/>
	<path style="fill:#2C3B73;" d="M346.011,211.006c-8.291,0-15-6.709-15-15v-30c0-8.276-6.724-15-15-15s-15,6.724-15,15v30   c0,8.291-6.709,15-15,15s-15-6.709-15-15v-30c0-24.814,20.186-45,45-45s45,20.186,45,45v30   C361.011,204.297,354.302,211.006,346.011,211.006z"/>
	<path style="fill:#CD0000;" d="M391.011,256.006c0,74.399-60.601,135-135,135v-150h120   C384.412,241.006,391.011,247.605,391.011,256.006z"/>
</g>















</svg>
