<?xml version="1.0" encoding="iso-8859-1"?>
<!-- Generator: Adobe Illustrator 21.0.0, SVG Export Plug-In . SVG Version: 6.00 Build 0)  -->
<svg xmlns="http://www.w3.org/2000/svg" xmlns:xlink="http://www.w3.org/1999/xlink" version="1.1" id="Capa_1" x="0px" y="0px" viewBox="0 0 511.838 511.838" style="enable-background:new 0 0 511.838 511.838;" xml:space="preserve" width="512" height="512">
<g>
	<path style="fill:#47568C;" d="M498.563,498.563c-17.401,17.701-45.899,17.701-63.6,0l-81.301-81.301l1.8-61.8l61.8-1.8   l81.301,81.301C516.264,452.662,516.264,481.162,498.563,498.563z"/>
	<path style="fill:#2C3B73;" d="M498.563,498.563c-17.401,17.701-45.899,17.701-63.6,0l-81.301-81.301l1.8-61.8L498.563,498.563z"/>
	<path style="fill:#FDBF00;" d="M417.262,353.662l-63.6,63.6l-65.099-65.099c-5.7-5.7-5.7-15.3,0-21l42.599-42.599   c5.7-5.7,15.3-5.7,21,0L417.262,353.662z"/>
	<path style="fill:#FF9100;" d="M385.462,385.462l-31.8,31.8l-65.099-65.099c-5.7-5.7-5.7-15.3,0-21l21.301-21.301L385.462,385.462z   "/>
	<path style="fill:#47568C;" d="M332.664,57.262c-76.201-76.5-199.2-76.199-275.402,0c-76.5,76.201-76.199,199.2,0,275.4   c76.201,76.501,199.2,76.201,275.402,0C409.163,256.463,408.863,133.463,332.664,57.262z"/>
	<path style="fill:#2C3B73;" d="M332.664,332.662c-76.201,76.201-199.2,76.501-275.402,0c-76.199-76.199-76.5-199.199,0-275.4   L332.664,332.662z"/>
	<path style="fill:#EDF5FF;" d="M311.663,311.663c-64.501,64.499-168.9,64.499-233.401,0c-64.499-64.501-64.499-168.9,0-233.401   c64.501-64.501,168.9-64.501,233.401,0C376.162,142.763,376.162,247.163,311.663,311.663z"/>
	<path style="fill:#D7E9FF;" d="M311.663,311.663c-64.501,64.499-168.9,64.499-233.401,0c-64.499-64.501-64.499-168.9,0-233.401   L311.663,311.663z"/>
	<path style="fill:#979FEF;" d="M299.963,152.662v-47.699c0-8.401-6.599-15-15-15h-60c-8.401,0-15,6.599-15,15   c0,8.399-6.599,15-15,15s-15-6.601-15-15c0-8.401-6.599-15-15-15h-60c-4.2,0-7.8,1.8-10.8,4.2c-2.401,2.999-4.2,6.599-4.2,10.8   v47.699c-17.401,6-30,22.8-30,42.301c0,19.499,12.599,36.299,30,42.299v47.701c0,8.399,6.599,15,15,15h60c8.401,0,15-6.601,15-15   c0-8.401,6.599-15,15-15s15,6.599,15,15c0,8.399,6.599,15,15,15h60c4.2,0,7.8-1.8,10.8-4.2c2.401-2.999,4.2-6.599,4.2-10.8v-47.701   c17.401-6,30-22.8,30-42.299C329.963,175.462,317.363,158.662,299.963,152.662z"/>
	<path style="fill:#737EE6;" d="M94.163,94.163l201.599,201.599c-2.999,2.401-6.599,4.2-10.8,4.2h-60c-8.401,0-15-6.601-15-15   c0-8.401-6.599-15-15-15s-15,6.599-15,15c0,8.399-6.599,15-15,15h-60c-8.401,0-15-6.601-15-15v-47.701c-17.401-6-30-22.8-30-42.299   c0-19.501,12.599-36.301,30-42.301v-47.699C89.963,100.763,91.763,97.163,94.163,94.163z"/>
</g>















</svg>
