<?xml version="1.0" encoding="iso-8859-1"?>
<!-- Generator: Adobe Illustrator 21.0.0, SVG Export Plug-In . SVG Version: 6.00 Build 0)  -->
<svg xmlns="http://www.w3.org/2000/svg" xmlns:xlink="http://www.w3.org/1999/xlink" version="1.1" id="Capa_1" x="0px" y="0px" viewBox="0 0 511.963 511.963" style="enable-background:new 0 0 511.963 511.963;" xml:space="preserve" width="512" height="512">
<g>
	<path style="fill:#47568C;" d="M498.687,498.687c-17.401,17.701-45.899,17.701-63.6,0l-81.425-81.425l1.8-61.8l61.8-1.8   l81.425,81.425C516.388,452.786,516.388,481.287,498.687,498.687z"/>
	<path style="fill:#2C3B73;" d="M498.687,498.687c-17.401,17.701-45.899,17.701-63.6,0l-81.425-81.425l1.8-61.8L498.687,498.687z"/>
	<path style="fill:#FDBF00;" d="M417.262,353.662l-63.6,63.6l-65.099-65.099c-5.7-5.7-5.7-15.3,0-21l42.599-42.599   c5.7-5.7,15.3-5.7,21,0L417.262,353.662z"/>
	<path style="fill:#FF9100;" d="M385.462,385.462l-31.8,31.8l-65.099-65.099c-5.7-5.7-5.7-15.3,0-21l21.301-21.301L385.462,385.462z   "/>
	<path style="fill:#47568C;" d="M332.664,57.262c-76.201-76.5-199.2-76.199-275.402,0c-76.5,76.201-76.199,199.2,0,275.4   c76.201,76.501,199.2,76.201,275.402,0C409.163,256.463,408.863,133.463,332.664,57.262z"/>
	<path style="fill:#2C3B73;" d="M332.664,332.662c-76.201,76.201-199.2,76.501-275.402,0c-76.199-76.199-76.5-199.199,0-275.4   L332.664,332.662z"/>
	<path style="fill:#EDF5FF;" d="M311.663,311.663c-64.501,64.499-168.9,64.499-233.401,0c-64.499-64.501-64.499-168.9,0-233.401   c64.501-64.501,168.9-64.501,233.401,0C376.162,142.763,376.162,247.163,311.663,311.663z"/>
	<path style="fill:#D7E9FF;" d="M311.663,311.663c-64.501,64.499-168.9,64.499-233.401,0c-64.499-64.501-64.499-168.9,0-233.401   L311.663,311.663z"/>
	<g>
		<path style="fill:#979FEF;" d="M321.562,233.362l-38.099-21.899c0.899-5.4,1.5-10.8,1.5-16.5s-0.601-11.1-1.5-16.5l38.099-21.901    c7.202-4.2,9.6-13.5,5.7-20.7l-15-25.8c-4.199-7.2-13.499-9.6-20.7-5.7l-38.399,22.5c-8.401-7.2-17.701-12.599-28.2-16.5v-35.4    c0-8.401-6.599-15-15-15h-30c-8.401,0-15,6.599-15,15v35.4c-10.499,3.9-19.799,9.3-28.2,16.5l-24-14.099l-14.399-8.401    c-7.202-3.9-16.501-1.5-20.7,5.7l-15,25.8c-3.9,7.2-1.501,16.5,5.7,20.7l38.099,21.901c-0.899,5.4-1.5,10.8-1.5,16.5    s0.601,11.1,1.5,16.5l-38.099,21.899c-7.202,4.2-9.6,13.5-5.7,20.7l15,25.8c4.199,7.202,13.499,9.6,20.7,5.7l38.399-22.5    c8.401,7.202,17.701,12.601,28.2,16.501v35.4c0,8.399,6.599,15,15,15h30c8.401,0,15-6.601,15-15v-35.4    c10.499-3.9,19.799-9.3,28.2-16.501l24,14.101l14.399,8.399c7.202,3.9,16.501,1.501,20.7-5.7l15-25.8    C331.162,246.862,328.764,237.562,321.562,233.362z M194.963,239.963c-24.901,0-45-20.101-45-45c0-12.601,5.099-23.701,13.2-31.8    c8.101-8.101,19.2-13.2,31.8-13.2c24.901,0,45,20.099,45,45c0,12.599-5.099,23.699-13.2,31.8    C218.662,234.862,207.562,239.963,194.963,239.963z"/>
	</g>
	<path style="fill:#737EE6;" d="M277.163,277.163l-24-14.101c-8.401,7.202-17.701,12.601-28.2,16.501v35.4c0,8.399-6.599,15-15,15   h-30c-8.401,0-15-6.601-15-15v-35.4c-10.499-3.9-19.799-9.3-28.2-16.501l-38.399,22.5c-7.202,3.9-16.501,1.501-20.7-5.7l-15-25.8   c-3.9-7.2-1.501-16.5,5.7-20.7l38.099-21.899c-0.899-5.4-1.5-10.8-1.5-16.5s0.601-11.1,1.5-16.5l-38.099-21.901   c-7.202-4.2-9.6-13.5-5.7-20.7l15-25.8c4.199-7.2,13.499-9.6,20.7-5.7l14.399,8.401l50.4,50.4c-8.101,8.099-13.2,19.199-13.2,31.8   c0,24.899,20.099,45,45,45c12.599,0,23.699-5.101,31.8-13.2L277.163,277.163z"/>
</g>















</svg>
