<?xml version="1.0" encoding="iso-8859-1"?>
<!-- Generator: Adobe Illustrator 21.0.0, SVG Export Plug-In . SVG Version: 6.00 Build 0)  -->
<svg xmlns="http://www.w3.org/2000/svg" xmlns:xlink="http://www.w3.org/1999/xlink" version="1.1" id="Capa_1" x="0px" y="0px" viewBox="0 0 512 512" style="enable-background:new 0 0 512 512;" xml:space="preserve" width="512" height="512">
<g>
	<g>
		<path style="fill:#2C3B73;" d="M512,31v315l-30,30H30L0,346V31c0-8.401,6.599-15,15-15h482C505.401,16,512,22.599,512,31z"/>
		<path style="fill:#293939;" d="M512,31v315l-30,30H256V16h241C505.401,16,512,22.599,512,31z"/>
		<rect x="30" y="46" style="fill:#979FEF;" width="452" height="330"/>
		<rect x="256" y="46" style="fill:#737EE6;" width="226" height="330"/>
		<rect x="181" y="391" style="fill:#D7E9FF;" width="150" height="90"/>
		<rect x="256" y="391" style="fill:#B0D5F7;" width="75" height="90"/>
		<path style="fill:#EDF5FF;" d="M391,481c0,8.399-6.599,15-15,15H136c-8.401,0-15-6.601-15-15c0-8.401,6.599-15,15-15h240    C384.401,466,391,472.599,391,481z"/>
		<path style="fill:#D7E9FF;" d="M391,481c0,8.399-6.599,15-15,15H256v-30h120C384.401,466,391,472.599,391,481z"/>
		<path style="fill:#EDF5FF;" d="M512,346v45c0,8.399-6.599,15-15,15H15c-8.401,0-15-6.601-15-15v-45H512z"/>
		<path style="fill:#D7E9FF;" d="M512,346v45c0,8.399-6.599,15-15,15H256v-60H512z"/>
	</g>
	<path style="fill:#EDF5FF;" d="M299.5,127.599l-60,120c-3.325,6.647-11.307,10.668-20.099,6.901   c-7.5-3.9-10.501-12.902-6.901-20.101L256,147.4l16.5-33.001c3.9-7.5,12.9-10.499,20.099-6.899   C300.099,111.4,303.1,120.399,299.5,127.599z"/>
	<path style="fill:#EDF5FF;" d="M155.395,251.605l-60-60c-5.859-5.859-5.859-15.352,0-21.211l60-60   c5.859-5.859,15.352-5.859,21.211,0s5.859,15.352,0,21.211L127.211,181l49.395,49.395c5.859,5.859,5.859,15.352,0,21.211   C170.746,257.465,161.254,257.465,155.395,251.605z"/>
	<path style="fill:#D7E9FF;" d="M335.395,251.605c-5.859-5.859-5.859-15.352,0-21.211L384.789,181l-49.395-49.395   c-5.859-5.859-5.859-15.352,0-21.211s15.352-5.859,21.211,0l60,60c5.859,5.859,5.859,15.352,0,21.211l-60,60   C350.746,257.465,341.254,257.465,335.395,251.605z"/>
	<path style="fill:#D7E9FF;" d="M299.5,127.599L256,214.6v-67.2l16.5-33.001c3.9-7.5,12.9-10.499,20.099-6.899   C300.099,111.4,303.1,120.399,299.5,127.599z"/>
</g>















</svg>
