<?xml version="1.0" encoding="iso-8859-1"?>
<!-- Generator: Adobe Illustrator 21.0.0, SVG Export Plug-In . SVG Version: 6.00 Build 0)  -->
<svg xmlns="http://www.w3.org/2000/svg" xmlns:xlink="http://www.w3.org/1999/xlink" version="1.1" id="Capa_1" x="0px" y="0px" viewBox="0 0 512 512" style="enable-background:new 0 0 512 512;" xml:space="preserve" width="512" height="512">
<g>
	<g>
		<path style="fill:#2C3B73;" d="M512,31v315l-30,30H30L0,346V31c0-8.401,6.599-15,15-15h482C505.401,16,512,22.599,512,31z"/>
		<path style="fill:#293939;" d="M512,31v315l-30,30H256V16h241C505.401,16,512,22.599,512,31z"/>
		<rect x="30" y="46" style="fill:#979FEF;" width="452" height="330"/>
		<rect x="256" y="46" style="fill:#737EE6;" width="226" height="330"/>
		<rect x="181" y="391" style="fill:#D7E9FF;" width="150" height="90"/>
		<rect x="256" y="391" style="fill:#B0D5F7;" width="75" height="90"/>
		<path style="fill:#EDF5FF;" d="M391,481c0,8.399-6.599,15-15,15H136c-8.401,0-15-6.601-15-15c0-8.401,6.599-15,15-15h240    C384.401,466,391,472.599,391,481z"/>
		<path style="fill:#D7E9FF;" d="M391,481c0,8.399-6.599,15-15,15H256v-30h120C384.401,466,391,472.599,391,481z"/>
		<path style="fill:#EDF5FF;" d="M512,346v45c0,8.399-6.599,15-15,15H15c-8.401,0-15-6.601-15-15v-45H512z"/>
		<path style="fill:#D7E9FF;" d="M512,346v45c0,8.399-6.599,15-15,15H256v-60H512z"/>
	</g>
	<path style="fill:#EDF5FF;" d="M286,76H75c-8.401,0-15,6.599-15,15v60c0,8.399,6.599,15,15,15h211c8.401,0,15-6.601,15-15V91   C301,82.599,294.401,76,286,76z"/>
	<path style="fill:#EDF5FF;" d="M286,196H75c-8.401,0-15,6.599-15,15v60c0,8.399,6.599,15,15,15h211c8.401,0,15-6.601,15-15v-60   C301,202.599,294.401,196,286,196z"/>
	<path style="fill:#D7E9FF;" d="M437,286h-91c-8.291,0-15-6.709-15-15V91c0-8.291,6.709-15,15-15h91c8.291,0,15,6.709,15,15v180   C452,279.291,445.291,286,437,286z"/>
	<path style="fill:#D7E9FF;" d="M301,91v60c0,8.399-6.599,15-15,15h-30V76h30C294.401,76,301,82.599,301,91z"/>
	<path style="fill:#D7E9FF;" d="M301,211v60c0,8.399-6.599,15-15,15h-30v-90h30C294.401,196,301,202.599,301,211z"/>
</g>















</svg>
