<?xml version="1.0" encoding="iso-8859-1"?>
<!-- Generator: Adobe Illustrator 21.0.0, SVG Export Plug-In . SVG Version: 6.00 Build 0)  -->
<svg xmlns="http://www.w3.org/2000/svg" xmlns:xlink="http://www.w3.org/1999/xlink" version="1.1" id="Capa_1" x="0px" y="0px" viewBox="0 0 512 512" style="enable-background:new 0 0 512 512;" xml:space="preserve" width="512" height="512">
<g>
	<path style="fill:#EDF5FF;" d="M407.8,106C384.101,51.7,330.399,16,271,16c-5.099,0-9.901,0.3-15,0.901   C212.8,21.099,174.101,43.9,148.9,79.6C70.901,59.5,0,120.7,0,196c0,66.301,54.699,120,121,120h285c57.9,0,106-47.1,106-105   C512,153.701,464.801,106.901,407.8,106z"/>
	<path style="fill:#76E2F8;" d="M372.7,447.7C341.499,478.9,300.099,496,256,496s-85.499-17.1-116.7-48.3c-5.7-6-5.7-15.3,0-21.301   c6-6,15.3-6,21.301,0C186.099,451.901,220,466,256,466s69.901-14.099,95.4-39.6c6-6,15.3-6,21.301,0   C378.401,432.4,378.401,441.7,372.7,447.7z"/>
	<path style="fill:#76E2F8;" d="M330.099,405.099C310.3,425.2,283.9,436,256,436s-54.3-10.8-74.099-30.901   c-6-5.698-6-15.298,0-20.999c5.698-6,15.298-6,20.999,0C217,398.2,236.499,405.399,256,405.399s39-7.2,53.101-21.299   c5.7-6,15.3-6,20.999,0C336.099,389.801,336.099,399.401,330.099,405.099z"/>
	<path style="fill:#76E2F8;" d="M287.8,362.8c-8.399,8.401-19.799,13.2-31.8,13.2s-23.401-4.799-31.8-13.2c-6-6-6-15.3,0-21.301   c6-5.7,15.3-5.7,21.301,0c2.699,2.701,6.599,4.2,10.499,4.2s7.8-1.5,10.499-4.2c6-5.7,15.3-5.7,21.301,0   C293.8,347.5,293.8,356.8,287.8,362.8z"/>
	<path style="fill:#25D9F8;" d="M287.8,362.8c-8.399,8.401-19.799,13.2-31.8,13.2v-30.3c3.9,0,7.8-1.5,10.499-4.2   c6-5.7,15.3-5.7,21.301,0C293.8,347.5,293.8,356.8,287.8,362.8z"/>
	<path style="fill:#25D9F8;" d="M330.099,405.099C310.3,425.2,283.9,436,256,436v-30.601c19.501,0,39-7.2,53.101-21.299   c5.7-6,15.3-6,20.999,0C336.099,389.801,336.099,399.401,330.099,405.099z"/>
	<path style="fill:#25D9F8;" d="M372.7,426.4c5.7,6,5.7,15.3,0,21.301C341.499,478.9,300.099,496,256,496v-30   c36,0,69.901-14.099,95.4-39.6C357.4,420.399,366.7,420.399,372.7,426.4z"/>
	<path style="fill:#D7E9FF;" d="M512,211c0,57.9-48.1,105-106,105H256V16.901C261.099,16.3,265.901,16,271,16   c59.399,0,113.101,35.7,136.8,90C464.801,106.901,512,153.701,512,211z"/>
</g>















</svg>
