<?xml version="1.0" encoding="iso-8859-1"?>
<!-- Generator: Adobe Illustrator 21.0.0, SVG Export Plug-In . SVG Version: 6.00 Build 0)  -->
<svg xmlns="http://www.w3.org/2000/svg" xmlns:xlink="http://www.w3.org/1999/xlink" version="1.1" id="Capa_1" x="0px" y="0px" viewBox="0 0 512 512" style="enable-background:new 0 0 512 512;" xml:space="preserve" width="512" height="512">
<g>
	<path style="fill:#9BFCFF;" d="M512,256c0,91.199-48.999,172-121,217H121C48.999,428,0,347.199,0,256C0,115.3,115.3,0,256,0   S512,115.3,512,256z"/>
	<path style="fill:#76E2F8;" d="M512,256c0,91.199-48.999,172-121,217H256V0C396.7,0,512,115.3,512,256z"/>
	<path style="fill:#737EE6;" d="M391,421v52c-39.3,24.598-85.499,39-135,39s-95.7-14.401-135-39v-52c0-33.001,27.001-60,60-60h150   C363.999,361,391,387.999,391,421z"/>
	<path style="fill:#615AD3;" d="M391,421v52c-39.3,24.598-85.499,39-135,39V361h75C363.999,361,391,387.999,391,421z"/>
	<path style="fill:#EDF5FF;" d="M331,361v75c0,5.7-3.3,10.8-8.401,13.5c-5.099,2.399-11.1,1.8-15.599-1.501L256,409.6l-51,38.399   c-4.499,3.301-10.499,3.9-15.599,1.501C184.3,446.8,181,441.7,181,436v-75l30-30h90L331,361z"/>
	<path style="fill:#D7E9FF;" d="M331,361v75c0,5.7-3.3,10.8-8.401,13.5c-5.099,2.399-11.1,1.8-15.599-1.501L256,409.6V331h45   L331,361z"/>
	<polygon style="fill:#FCCED3;" points="301,301 301,331 256,391 211,331 211,301  "/>
	<polygon style="fill:#FAAAAA;" points="256,301 301,301 301,331 256,391  "/>
	<path style="fill:#FDE4E4;" d="M361,211v15c0,57.9-47.1,105-105,105s-105-47.1-105-105v-15l86.4-30   c6.301,0,12.599-0.901,18.6-2.701c11.4-2.999,21.599-8.699,30-17.1C298.599,173.8,316,181,334.6,181L361,211z"/>
	<path style="fill:#FCCED3;" d="M361,211v15c0,57.9-47.1,105-105,105V178.299c11.4-2.999,21.599-8.699,30-17.1   C298.599,173.8,316,181,334.6,181L361,211z"/>
	<path style="fill:#FDBF00;" d="M361,196v15h-26.4c-18.6,0-36-7.2-48.6-19.801c-8.401,8.401-18.6,14.101-30,17.1   c-6,1.8-12.299,2.701-18.6,2.701H151v-15c0-56.1,46.199-105,105-105C315.099,91,361,140.2,361,196z"/>
	<path style="fill:#FF9100;" d="M361,196v15h-26.4c-18.6,0-36-7.2-48.6-19.801c-8.401,8.401-18.6,14.101-30,17.1V91   C315.099,91,361,140.2,361,196z"/>
	<path style="fill:#FCCED3;" d="M284.5,262.599c-5.4,10.8-16.5,17.701-28.5,17.701s-23.101-6.901-28.5-17.701   c-3.6-7.2-0.599-16.199,6.901-20.099c13.499-6.601,19.799,7.8,21.599,7.8c3.6-7.5,13.5-11.1,21-7.2   C284.2,246.7,288.1,255.399,284.5,262.599z"/>
	<path style="fill:#FAAAAA;" d="M284.5,262.599c-5.4,10.8-16.5,17.701-28.5,17.701v-30c3.6-7.5,13.5-11.1,21-7.2   C284.2,246.7,288.1,255.399,284.5,262.599z"/>
</g>















</svg>
