<?xml version="1.0" encoding="iso-8859-1"?>
<!-- Generator: Adobe Illustrator 21.0.0, SVG Export Plug-In . SVG Version: 6.00 Build 0)  -->
<svg xmlns="http://www.w3.org/2000/svg" xmlns:xlink="http://www.w3.org/1999/xlink" version="1.1" id="Capa_1" x="0px" y="0px" viewBox="0 0 512 512" style="enable-background:new 0 0 512 512;" xml:space="preserve" width="512" height="512">
<g>
	<path style="fill:#2C3B73;" d="M306.099,271c0,8.399-6.599,15-15,15h-70.199c-8.401,0-15-6.601-15-15c0-8.401,6.599-15,15-15   h70.199C299.5,256,306.099,262.599,306.099,271z"/>
	<path style="fill:#2C3B73;" d="M306.099,211c0,8.399-6.599,15-15,15h-70.199c-8.401,0-15-6.601-15-15c0-8.401,6.599-15,15-15   h70.199C299.5,196,306.099,202.599,306.099,211z"/>
	<path style="fill:#2C3B73;" d="M51.127,226H15c-8.291,0-15-6.709-15-15s6.709-15,15-15h36.127c8.291,0,15,6.709,15,15   S59.418,226,51.127,226z"/>
	<path style="fill:#293939;" d="M497,226h-36.127c-8.291,0-15-6.709-15-15s6.709-15,15-15H497c8.291,0,15,6.709,15,15   S505.291,226,497,226z"/>
	<path style="fill:#2C3B73;" d="M4.395,371.605c-5.859-5.859-5.859-15.352,0-21.211l57.367-56.367   c5.859-5.859,15.352-5.859,21.211,0s5.859,15.352,0,21.211l-57.367,56.367C19.746,377.465,10.254,377.465,4.395,371.605z"/>
	<path style="fill:#293939;" d="M485.395,371.605l-56.367-56.367c-5.859-5.859-5.859-15.352,0-21.211s15.352-5.859,21.211,0   l57.367,56.367c5.859,5.859,5.859,15.352,0,21.211C501.746,377.465,491.254,377.465,485.395,371.605z"/>
	<path style="fill:#293939;" d="M306.099,271c0,8.399-6.599,15-15,15H256v-30h35.099C299.5,256,306.099,262.599,306.099,271z"/>
	<path style="fill:#293939;" d="M291.099,226H256v-30h35.099c8.401,0,15,6.599,15,15C306.099,219.399,299.5,226,291.099,226z"/>
	<path style="fill:#2C3B73;" d="M376,346c-57.891,0-105-47.109-105-105s47.109-105,105-105s105,47.109,105,105S433.891,346,376,346z   "/>
	<path style="fill:#76E2F8;" d="M376,166c-41.353,0-75,33.647-75,75s33.647,75,75,75s75-33.647,75-75S417.353,166,376,166z"/>
	<path style="fill:#47568C;" d="M136,346c-57.891,0-105-47.109-105-105s47.109-105,105-105s105,47.109,105,105S193.891,346,136,346z   "/>
	<path style="fill:#9BFCFF;" d="M136,166c-41.353,0-75,33.647-75,75s33.647,75,75,75s75-33.647,75-75S177.353,166,136,166z"/>
</g>















</svg>
