<?xml version="1.0" encoding="iso-8859-1"?>
<!-- Generator: Adobe Illustrator 21.0.0, SVG Export Plug-In . SVG Version: 6.00 Build 0)  -->
<svg xmlns="http://www.w3.org/2000/svg" xmlns:xlink="http://www.w3.org/1999/xlink" version="1.1" id="Capa_1" x="0px" y="0px" viewBox="0 0 512 512" style="enable-background:new 0 0 512 512;" xml:space="preserve" width="512" height="512">
<g>
	<path style="fill:#EDF5FF;" d="M392,121v376c0,8.401-6.599,15-15,15H15c-8.401,0-15-6.599-15-15V15C0,6.599,6.599,0,15,0h256   L392,121z"/>
	<path style="fill:#D7E9FF;" d="M392,121v376c0,8.401-6.599,15-15,15H196V0h75L392,121z"/>
	<path style="fill:#B0D5F7;" d="M387.605,95.395l-91-91C293.793,1.582,289.984,0,286,0h-15v106c0,8.284,6.716,15,15,15h106v-15   C392,102.016,390.418,98.207,387.605,95.395z"/>
	<path style="fill:#D7E9FF;" d="M241,106c0,8.399-6.599,15-15,15H76c-8.401,0-15-6.601-15-15c0-8.401,6.599-15,15-15h150   C234.401,91,241,97.599,241,106z"/>
	<path style="fill:#B0D5F7;" d="M316,301h-30c-8.291,0-15-6.709-15-15s6.709-15,15-15h30c8.291,0,15,6.709,15,15   S324.291,301,316,301z"/>
	<path style="fill:#B0D5F7;" d="M316,361h-30c-8.291,0-15-6.709-15-15s6.709-15,15-15h30c8.291,0,15,6.709,15,15   S324.291,361,316,361z"/>
	<path style="fill:#737EE6;" d="M301,211h-60c-8.291,0-15-6.709-15-15s6.709-15,15-15h60c8.291,0,15,6.709,15,15   S309.291,211,301,211z"/>
	<path style="fill:#979FEF;" d="M151,181h-15v-15c0-8.291-6.709-15-15-15s-15,6.709-15,15v15H91c-8.291,0-15,6.709-15,15   s6.709,15,15,15h15v15c0,8.291,6.709,15,15,15s15-6.709,15-15v-15h15c8.291,0,15-6.709,15-15S159.291,181,151,181z"/>
	<circle style="fill:#737EE6;" cx="226" cy="286" r="15"/>
	<circle style="fill:#737EE6;" cx="226" cy="346" r="15"/>
	<path style="fill:#D7E9FF;" d="M166,301h-30c-8.291,0-15-6.709-15-15s6.709-15,15-15h30c8.291,0,15,6.709,15,15   S174.291,301,166,301z"/>
	<path style="fill:#D7E9FF;" d="M166,361h-30c-8.291,0-15-6.709-15-15s6.709-15,15-15h30c8.291,0,15,6.709,15,15   S174.291,361,166,361z"/>
	<path style="fill:#D7E9FF;" d="M166,421h-30c-8.291,0-15-6.709-15-15s6.709-15,15-15h30c8.291,0,15,6.709,15,15   S174.291,421,166,421z"/>
	<circle style="fill:#979FEF;" cx="76" cy="286" r="15"/>
	<circle style="fill:#979FEF;" cx="76" cy="346" r="15"/>
	<circle style="fill:#979FEF;" cx="76" cy="406" r="15"/>
	<path style="fill:#B0D5F7;" d="M241,106c0,8.399-6.599,15-15,15h-30V91h30C234.401,91,241,97.599,241,106z"/>
	<path style="fill:#FF641A;" d="M512,76v255l-45,30l-45-30V76c0-8.401,6.599-15,15-15h60C505.401,61,512,67.599,512,76z"/>
	<path style="fill:#F03800;" d="M512,76v255l-45,30V61h30C505.401,61,512,67.599,512,76z"/>
	<path style="fill:#FDE4E4;" d="M512,331l-30.901,109.799c-1.8,6-7.5,10.201-14.099,10.201s-12.299-4.2-14.099-10.201L422,331H512z"/>
	<path style="fill:#FCCED3;" d="M512,331l-30.901,109.799c-1.8,6-7.5,10.201-14.099,10.201V331H512z"/>
</g>















</svg>
