<?xml version="1.0" encoding="iso-8859-1"?>
<!-- Generator: Adobe Illustrator 21.0.0, SVG Export Plug-In . SVG Version: 6.00 Build 0)  -->
<svg xmlns="http://www.w3.org/2000/svg" xmlns:xlink="http://www.w3.org/1999/xlink" version="1.1" id="Capa_1" x="0px" y="0px" viewBox="0 0 512 512" style="enable-background:new 0 0 512 512;" xml:space="preserve" width="512" height="512">
<g>
	<path style="fill:#47568C;" d="M451,75v422c0,8.399-6.599,15-15,15H76c-8.401,0-15-6.601-15-15V75c0-8.401,6.599-15,15-15h360   C444.401,60,451,66.599,451,75z"/>
	<path style="fill:#2C3B73;" d="M451,75v422c0,8.399-6.599,15-15,15H256V60h180C444.401,60,451,66.599,451,75z"/>
	<polygon style="fill:#EDF5FF;" points="421,90 421,482 91,482 91,90 196,90 226,60 286,60 316,90  "/>
	<polygon style="fill:#D7E9FF;" points="421,90 421,482 256,482 256,60 286,60 316,90  "/>
	<path style="fill:#D7E9FF;" d="M391,166c0,8.399-6.599,15-15,15H196c-8.401,0-15-6.601-15-15c0-8.401,6.599-15,15-15h180   C384.401,151,391,157.599,391,166z"/>
	<circle style="fill:#D7E9FF;" cx="136" cy="166" r="15"/>
	<path style="fill:#D7E9FF;" d="M391,226c0,8.399-6.599,15-15,15H196c-8.401,0-15-6.601-15-15c0-8.401,6.599-15,15-15h180   C384.401,211,391,217.599,391,226z"/>
	<circle style="fill:#D7E9FF;" cx="136" cy="226" r="15"/>
	<path style="fill:#D7E9FF;" d="M391,286c0,8.399-6.599,15-15,15H196c-8.401,0-15-6.601-15-15c0-8.401,6.599-15,15-15h180   C384.401,271,391,277.599,391,286z"/>
	<circle style="fill:#D7E9FF;" cx="136" cy="286" r="15"/>
	<path style="fill:#979FEF;" d="M376,331H136c-8.401,0-15,6.599-15,15v91c0,8.399,6.599,15,15,15h240c8.401,0,15-6.601,15-15v-91   C391,337.599,384.401,331,376,331z"/>
	<path style="fill:#76E2F8;" d="M316,45v45H196V45c0-8.401,6.599-15,15-15h15c0-16.5,13.5-30,30-30s30,13.5,30,30h15   C309.401,30,316,36.599,316,45z"/>
	<path style="fill:#25D9F8;" d="M316,90h-60V0c16.5,0,30,13.5,30,30h15c8.401,0,15,6.599,15,15V90z"/>
	<path style="fill:#B0D5F7;" d="M391,286c0,8.399-6.599,15-15,15H256v-30h120C384.401,271,391,277.599,391,286z"/>
	<path style="fill:#B0D5F7;" d="M391,226c0,8.399-6.599,15-15,15H256v-30h120C384.401,211,391,217.599,391,226z"/>
	<path style="fill:#B0D5F7;" d="M376,181H256v-30h120c8.401,0,15,6.599,15,15C391,174.399,384.401,181,376,181z"/>
	<path style="fill:#737EE6;" d="M391,346v91c0,8.399-6.599,15-15,15H256V331h120C384.401,331,391,337.599,391,346z"/>
</g>















</svg>
