<?xml version="1.0" encoding="iso-8859-1"?>
<!-- Generator: Adobe Illustrator 21.0.0, SVG Export Plug-In . SVG Version: 6.00 Build 0)  -->
<svg xmlns="http://www.w3.org/2000/svg" xmlns:xlink="http://www.w3.org/1999/xlink" version="1.1" id="Capa_1" x="0px" y="0px" viewBox="0 0 512 512" style="enable-background:new 0 0 512 512;" xml:space="preserve" width="512" height="512">
<g>
	<path style="fill:#47568C;" d="M497,263.5C458.599,158.2,365.2,91.3,256,91h-3.9C113.8,93.1,0,207.4,0,346.599   C0,387.7,35.799,421,78.1,421h355.499c21,0,41.501-8.101,56.201-23.101c14.099-14.099,22.2-32.999,22.2-52.5V344.2   C511.7,316.899,506.901,289.9,497,263.5z"/>
	<path style="fill:#2C3B73;" d="M512,344.2v1.199c0,19.501-8.101,38.401-22.2,52.5c-14.7,15-35.2,23.101-56.201,23.101H256V91   c109.2,0.3,202.599,67.2,241,172.5C506.901,289.9,511.7,316.899,512,344.2z"/>
	<path style="fill:#979FEF;" d="M196,301c-8.291,0-15-6.709-15-15v-30c0-8.291,6.709-15,15-15s15,6.709,15,15v30   C211,294.291,204.291,301,196,301z"/>
	<path style="fill:#737EE6;" d="M316,301c-8.291,0-15-6.709-15-15v-30c0-8.291,6.709-15,15-15s15,6.709,15,15v30   C331,294.291,324.291,301,316,301z"/>
	<path style="fill:#979FEF;" d="M271,256v30c0,8.399-6.599,15-15,15s-15-6.601-15-15v-30c0-8.401,6.599-15,15-15   S271,247.599,271,256z"/>
	<path style="fill:#737EE6;" d="M271,256v30c0,8.399-6.599,15-15,15v-60C264.401,241,271,247.599,271,256z"/>
	<path style="fill:#9BFCFF;" d="M451,346c0,8.399-6.599,15-15,15s-15-6.601-15-15c0-90.901-74.099-165-165-165S91,255.099,91,346   c0,8.399-6.599,15-15,15s-15-6.601-15-15c0-107.401,87.599-195,195-195S451,238.599,451,346z"/>
	<path style="fill:#F03800;" d="M277.211,369.789c-3.838,0-7.676-1.465-10.605-4.395c-5.859-5.859-5.859-15.352,0-21.211   l118.286-118.286c5.859-5.859,15.352-5.859,21.211,0s5.859,15.352,0,21.211L287.816,365.395   C284.887,368.324,281.049,369.789,277.211,369.789z"/>
	<path style="fill:#76E2F8;" d="M451,346c0,8.399-6.599,15-15,15s-15-6.601-15-15c0-90.901-74.099-165-165-165v-30   C363.401,151,451,238.599,451,346z"/>
	<path style="fill:#EDF5FF;" d="M256,331c-24.901,0-45,20.099-45,45c0,24.899,20.099,45,45,45s45-20.101,45-45   C301,351.099,280.901,331,256,331z"/>
	<path style="fill:#D7E9FF;" d="M301,376c0,24.899-20.099,45-45,45v-90C280.901,331,301,351.099,301,376z"/>
</g>















</svg>
