<?xml version="1.0" encoding="iso-8859-1"?>
<!-- Generator: Adobe Illustrator 21.0.0, SVG Export Plug-In . SVG Version: 6.00 Build 0)  -->
<svg xmlns="http://www.w3.org/2000/svg" xmlns:xlink="http://www.w3.org/1999/xlink" version="1.1" id="Capa_1" x="0px" y="0px" viewBox="0 0 512 512" style="enable-background:new 0 0 512 512;" xml:space="preserve" width="512" height="512">
<g>
	<path style="fill:#979FEF;" d="M256,0C115.3,0,0,115.3,0,256s115.3,256,256,256s256-115.3,256-256S396.7,0,256,0z"/>
	<path style="fill:#737EE6;" d="M512,256c0,140.7-115.3,256-256,256V0C396.7,0,512,115.3,512,256z"/>
	<path style="fill:#47568C;" d="M391,196v30c0,24.899-20.099,45-45,45H166c-8.401,0-15,6.599-15,15v30c0,8.399-6.599,15-15,15   s-15-6.601-15-15v-30c0-24.901,20.099-45,45-45h180c8.401,0,15-6.601,15-15v-30c0-8.401,6.599-15,15-15S391,187.599,391,196z"/>
	<path style="fill:#2C3B73;" d="M391,196v30c0,24.899-20.099,45-45,45h-90v-30h90c8.401,0,15-6.601,15-15v-30   c0-8.401,6.599-15,15-15S391,187.599,391,196z"/>
	<path style="fill:#EDF5FF;" d="M176.605,125.395c-5.859-5.859-15.352-5.859-21.211,0L136,144.789l-19.395-19.395   c-5.859-5.859-15.352-5.859-21.211,0s-5.859,15.352,0,21.211L114.789,166l-19.395,19.395c-5.859,5.859-5.859,15.352,0,21.211   c5.859,5.859,15.351,5.86,21.211,0L136,187.211l19.395,19.395c5.859,5.859,15.351,5.86,21.211,0c5.859-5.859,5.859-15.352,0-21.211   L157.211,166l19.395-19.395C182.465,140.746,182.465,131.254,176.605,125.395z"/>
	<path style="fill:#D7E9FF;" d="M397.211,346l19.395-19.395c5.859-5.859,5.859-15.352,0-21.211s-15.352-5.859-21.211,0L376,324.789   l-19.395-19.395c-5.859-5.859-15.352-5.859-21.211,0s-5.859,15.352,0,21.211L354.789,346l-19.395,19.395   c-5.859,5.859-5.859,15.352,0,21.211c5.859,5.859,15.351,5.86,21.211,0L376,367.211l19.395,19.395   c5.859,5.859,15.351,5.86,21.211,0c5.859-5.859,5.859-15.352,0-21.211L397.211,346z"/>
	<path style="fill:#EDF5FF;" d="M296.499,425.499c6,5.7,6,15.3,0,21c-5.7,6-15.298,6-20.999,0L256,427.299l-19.501,19.2   c-5.7,6-15.298,6-20.999,0c-6-5.7-6-15.3,0-21L234.699,406l-19.199-19.501c-6-5.7-6-15.3,0-21c5.7-5.999,15.298-5.999,20.999,0   l19.501,19.2l19.501-19.2c5.7-5.999,15.298-5.999,20.999,0c6,5.7,6,15.3,0,21L277.301,406L296.499,425.499z"/>
	<path style="fill:#D7E9FF;" d="M296.499,386.499L277.301,406l19.199,19.499c6,5.7,6,15.3,0,21c-5.7,6-15.298,6-20.999,0   L256,427.299v-42.599l19.501-19.2c5.7-5.999,15.298-5.999,20.999,0C302.5,371.199,302.5,380.799,296.499,386.499z"/>
	<path style="fill:#EDF5FF;" d="M296.499,125.499c6,5.7,6,15.3,0,21c-5.7,6-15.298,6-20.999,0L256,127.299l-19.501,19.2   c-5.7,6-15.298,6-20.999,0c-6-5.7-6-15.3,0-21L234.699,106l-19.199-19.501c-6-5.7-6-15.3,0-21c5.7-5.999,15.298-5.999,20.999,0   L256,84.699l19.501-19.2c5.7-5.999,15.298-5.999,20.999,0c6,5.7,6,15.3,0,21L277.301,106L296.499,125.499z"/>
	<path style="fill:#D7E9FF;" d="M275.501,146.499L256,127.299V84.699l19.501-19.2c5.7-5.999,15.298-5.999,20.999,0   c6,5.7,6,15.3,0,21L277.301,106l19.199,19.499c6,5.7,6,15.3,0,21C290.799,152.5,281.201,152.5,275.501,146.499z"/>
	<path style="fill:#9BFCFF;" d="M136,391c-24.814,0-45-20.186-45-45s20.186-45,45-45s45,20.186,45,45S160.814,391,136,391z"/>
	<path style="fill:#76E2F8;" d="M376,211c-24.814,0-45-20.186-45-45s20.186-45,45-45s45,20.186,45,45S400.814,211,376,211z"/>
</g>















</svg>
