<?xml version="1.0" encoding="iso-8859-1"?>
<!-- Generator: Adobe Illustrator 21.0.0, SVG Export Plug-In . SVG Version: 6.00 Build 0)  -->
<svg xmlns="http://www.w3.org/2000/svg" xmlns:xlink="http://www.w3.org/1999/xlink" version="1.1" id="Capa_1" x="0px" y="0px" viewBox="0 0 512 512" style="enable-background:new 0 0 512 512;" xml:space="preserve" width="512" height="512">
<g>
	<path style="fill:#737EE6;" d="M345,61H15C6.599,61,0,67.599,0,76v421c0,8.399,6.599,15,15,15h330c8.401,0,15-6.601,15-15V76   C360,67.599,353.401,61,345,61z"/>
	<path style="fill:#615AD3;" d="M360,76v421c0,8.399-6.599,15-15,15H180V61h165C353.401,61,360,67.599,360,76z"/>
	<path style="fill:#EDF5FF;" d="M420,121v315c0,8.399-6.599,15-15,15H75c-8.401,0-15-6.601-15-15V15c0-8.401,6.599-15,15-15h225   L420,121z"/>
	<path style="fill:#D7E9FF;" d="M420,121v315c0,8.399-6.599,15-15,15H240V0h60L420,121z"/>
	<path style="fill:#D7E9FF;" d="M270,106c0,8.399-6.599,15-15,15H135c-8.401,0-15-6.601-15-15c0-8.401,6.599-15,15-15h120   C263.401,91,270,97.599,270,106z"/>
	<path style="fill:#D7E9FF;" d="M195,301h-60c-8.291,0-15-6.709-15-15s6.709-15,15-15h60c8.291,0,15,6.709,15,15   S203.291,301,195,301z"/>
	<path style="fill:#D7E9FF;" d="M360,166c0,8.399-6.599,15-15,15H135c-8.401,0-15-6.601-15-15c0-8.401,6.599-15,15-15h210   C353.401,151,360,157.599,360,166z"/>
	<path style="fill:#D7E9FF;" d="M360,226c0,8.399-6.599,15-15,15H135c-8.401,0-15-6.601-15-15c0-8.401,6.599-15,15-15h210   C353.401,211,360,217.599,360,226z"/>
	<path style="fill:#FF641A;" d="M497,391H300l-30-45l30-45h197c8.401,0,15,6.599,15,15v60C512,384.401,505.401,391,497,391z"/>
	<path style="fill:#F03800;" d="M497,391H300l-30-45h242v30C512,384.401,505.401,391,497,391z"/>
	<path style="fill:#FDE4E4;" d="M300,391l-109.799-30.901c-6-1.8-10.201-7.5-10.201-14.099s4.2-12.299,10.201-14.099L300,301V391z"/>
	<path style="fill:#FCCED3;" d="M300,391l-109.799-30.901c-6-1.8-10.201-7.5-10.201-14.099h120V391z"/>
	<path style="fill:#B0D5F7;" d="M415.605,95.395l-90-91C322.793,1.582,318.984,0,315,0h-15v106c0,8.284,6.716,15,15,15h105v-15   C420,102.016,418.418,98.207,415.605,95.395z"/>
	<path style="fill:#B0D5F7;" d="M255,121h-15V91h15c8.401,0,15,6.599,15,15C270,114.399,263.401,121,255,121z"/>
	<path style="fill:#B0D5F7;" d="M360,226c0,8.399-6.599,15-15,15H240v-30h105C353.401,211,360,217.599,360,226z"/>
	<path style="fill:#B0D5F7;" d="M345,181H240v-30h105c8.401,0,15,6.599,15,15C360,174.399,353.401,181,345,181z"/>
</g>















</svg>
