<?xml version="1.0" encoding="iso-8859-1"?>
<!-- Generator: Adobe Illustrator 21.0.0, SVG Export Plug-In . SVG Version: 6.00 Build 0)  -->
<svg xmlns="http://www.w3.org/2000/svg" xmlns:xlink="http://www.w3.org/1999/xlink" version="1.1" id="Capa_1" x="0px" y="0px" viewBox="0 0 512 512" style="enable-background:new 0 0 512 512;" xml:space="preserve" width="512" height="512">
<g>
	<path style="fill:#47568C;" d="M196,482H46c-8.291,0-15-6.709-15-15s6.709-15,15-15h150c8.291,0,15,6.709,15,15   S204.291,482,196,482z"/>
	<path style="fill:#2C3B73;" d="M466,482H316c-8.291,0-15-6.709-15-15s6.709-15,15-15h150c8.291,0,15,6.709,15,15   S474.291,482,466,482z"/>
	<path style="fill:#47568C;" d="M271,377v60c0,8.401-6.599,15-15,15s-15-6.599-15-15v-60c0-8.401,6.599-15,15-15   S271,368.599,271,377z"/>
	<path style="fill:#2C3B73;" d="M271,377v60c0,8.401-6.599,15-15,15v-90C264.401,362,271,368.599,271,377z"/>
	<path style="fill:#FDBF00;" d="M268.599,90L256,101.4L235.6,120H61L31,90V15c0-8.401,6.599-15,15-15h171.899   c5.7,0,11.1,3.3,13.5,8.699L256,62.401L268.599,90z"/>
	<polygon style="fill:#FF9100;" points="268.599,90 256,101.4 256,62.401  "/>
	<g>
		<path style="fill:#FFDA2D;" d="M466,90H31v287c0,8.401,6.599,15,15,15h420c8.401,0,15-6.599,15-15V105    C481,96.599,474.401,90,466,90z"/>
	</g>
	<path style="fill:#FDBF00;" d="M481,105v272c0,8.401-6.599,15-15,15H256V90h210C474.401,90,481,96.599,481,105z"/>
	<path style="fill:#F03800;" d="M406,272h-60c-8.291,0-15-6.709-15-15s6.709-15,15-15h60c8.291,0,15,6.709,15,15   S414.291,272,406,272z"/>
	<path style="fill:#F03800;" d="M406,332h-60c-8.291,0-15-6.709-15-15s6.709-15,15-15h60c8.291,0,15,6.709,15,15   S414.291,332,406,332z"/>
	<path style="fill:#979FEF;" d="M316,422H196c-8.401,0-15,6.599-15,15v60c0,8.401,6.599,15,15,15h120c8.401,0,15-6.599,15-15v-60   C331,428.599,324.401,422,316,422z"/>
	<path style="fill:#737EE6;" d="M331,437v60c0,8.401-6.599,15-15,15h-60v-90h60C324.401,422,331,428.599,331,437z"/>
</g>















</svg>
