<?xml version="1.0" encoding="iso-8859-1"?>
<!-- Generator: Adobe Illustrator 21.0.0, SVG Export Plug-In . SVG Version: 6.00 Build 0)  -->
<svg xmlns="http://www.w3.org/2000/svg" xmlns:xlink="http://www.w3.org/1999/xlink" version="1.1" id="Capa_1" x="0px" y="0px" viewBox="0 0 512 512" style="enable-background:new 0 0 512 512;" xml:space="preserve" width="512" height="512">
<g>
	<path style="fill:#EDF5FF;" d="M511.963,121v376c0,8.401-6.599,15-15,15h-360c-8.401,0-15-6.599-15-15V15c0-8.401,6.599-15,15-15   h255L511.963,121z"/>
	<path style="fill:#D7E9FF;" d="M511.963,121v376c0,8.401-6.599,15-15,15h-180V0h75L511.963,121z"/>
	<path style="fill:#979FEF;" d="M451.963,166v240c0,8.401-6.599,15-15,15h-240c-8.401,0-15-6.599-15-15V166c0-8.401,6.599-15,15-15   h240C445.364,151,451.963,157.599,451.963,166z"/>
	<path style="fill:#737EE6;" d="M451.963,166v240c0,8.401-6.599,15-15,15h-120V151h120C445.364,151,451.963,157.599,451.963,166z"/>
	<path style="fill:#FFDA2D;" d="M328.964,277c-3.001-3.9-72.601-96-162.001-96s-161,92.1-164.001,96c-3.9,5.4-3.9,12.599,0,17.999   c3.001,3.9,74.601,96,164.001,96s159-92.1,162.001-96C332.864,289.6,332.864,282.4,328.964,277z"/>
	<path style="fill:#FDBF00;" d="M328.964,295c-3.001,3.9-72.601,96-162.001,96V181c89.399,0,159,92.1,162.001,96   C332.864,282.4,332.864,289.6,328.964,295z"/>
	<path style="fill:#47568C;" d="M166.963,241c-24.901,0-45,20.099-45,45s20.099,45,45,45s45-20.099,45-45S191.863,241,166.963,241z"/>
	<path style="fill:#2C3B73;" d="M211.963,286c0,24.901-20.099,45-45,45v-90C191.863,241,211.963,261.099,211.963,286z"/>
	<path style="fill:#EDF5FF;" d="M181.963,286c0,8.401-6.599,15-15,15s-15-6.599-15-15s6.599-15,15-15S181.963,277.599,181.963,286z"/>
	<path style="fill:#D7E9FF;" d="M181.963,286c0,8.401-6.599,15-15,15v-30C175.364,271,181.963,277.599,181.963,286z"/>
	<path style="fill:#B0D5F7;" d="M507.568,95.395l-90-91C414.756,1.582,410.947,0,406.963,0h-15v106c0,8.284,6.716,15,15,15h105v-15   C511.963,102.016,510.381,98.207,507.568,95.395z"/>
	<path style="fill:#D7E9FF;" d="M361.963,106c0,8.401-6.599,15-15,15h-150c-8.401,0-15-6.599-15-15s6.599-15,15-15h150   C355.364,91,361.963,97.599,361.963,106z"/>
	<path style="fill:#B0D5F7;" d="M346.963,121h-30V91h30c8.401,0,15,6.599,15,15S355.364,121,346.963,121z"/>
</g>















</svg>
