<?xml version="1.0" encoding="iso-8859-1"?>
<!-- Generator: Adobe Illustrator 21.0.0, SVG Export Plug-In . SVG Version: 6.00 Build 0)  -->
<svg xmlns="http://www.w3.org/2000/svg" xmlns:xlink="http://www.w3.org/1999/xlink" version="1.1" id="Capa_1" x="0px" y="0px" viewBox="0 0 512 512" style="enable-background:new 0 0 512 512;" xml:space="preserve" width="512" height="512">
<g>
	<path style="fill:#FFDA2D;" d="M490.404,123.861c1.062-4.879-0.425-9.757-4.031-13.363l-31.82-31.82l53.033-53.033   c5.091-5.091,5.94-13.152,1.697-19.091c-0.425-0.849-1.06-1.485-1.697-2.122c-4.243-4.243-10.819-5.728-16.335-3.182   l-148.492,63.64c-4.879,1.908-8.061,5.94-8.908,11.031c-1.062,4.879,0.423,9.759,4.029,13.364l31.82,31.82l-53.033,53.033   c-5.091,5.091-5.94,13.152-1.697,19.091c0.425,0.849,1.06,1.485,1.697,2.122c4.243,4.243,10.819,5.728,16.335,3.182l148.492-63.64   C486.374,132.984,489.556,128.953,490.404,123.861z"/>
	<path style="fill:#FDBF00;" d="M316.667,195.35L507.586,4.432c0.637,0.637,1.273,1.273,1.697,2.122   c4.243,5.939,3.394,14-1.697,19.091l-53.033,53.033l31.82,31.82c3.606,3.606,5.092,8.485,4.031,13.363   c-0.848,5.092-4.029,9.123-8.909,11.033l-148.492,63.64C327.486,201.078,320.91,199.593,316.667,195.35z"/>
	<path style="fill:#FF641A;" d="M428.188,359.583l-95.459,95.459c-75.942,75.942-199.828,75.944-275.772,0   s-75.942-199.829,0-275.772l95.459-95.459l63.64,21.213l21.213,63.64l-95.459,95.459c-29.274,29.274-29.274,76.792,0,106.066   s76.792,29.274,106.066,0l95.459-95.459l63.64,21.213L428.188,359.583z"/>
	<path style="fill:#F03800;" d="M428.188,359.583l-95.459,95.459c-75.942,75.942-199.828,75.944-275.772,0l84.853-84.853   c29.274,29.274,76.792,29.274,106.066,0l95.459-95.459l63.64,21.213L428.188,359.583z"/>
	<path style="fill:#EDF5FF;" d="M290.302,115.632c5.863-5.863,5.863-15.351,0-21.213l-63.64-63.64   c-5.863-5.863-15.351-5.863-21.213,0l-53.033,53.033l84.853,84.853L290.302,115.632z"/>
	<path style="fill:#D7E9FF;" d="M481.221,285.337l-63.64-63.64c-5.863-5.863-15.351-5.863-21.213,0l-53.033,53.033l84.853,84.853   l53.033-53.033C487.084,300.688,487.084,291.2,481.221,285.337z"/>
</g>















</svg>
