<?xml version="1.0" encoding="iso-8859-1"?>
<!-- Generator: Adobe Illustrator 21.0.0, SVG Export Plug-In . SVG Version: 6.00 Build 0)  -->
<svg xmlns="http://www.w3.org/2000/svg" xmlns:xlink="http://www.w3.org/1999/xlink" version="1.1" id="Capa_1" x="0px" y="0px" viewBox="0 0 512 512" style="enable-background:new 0 0 512 512;" xml:space="preserve" width="512" height="512">
<g>
	<g>
		<polygon style="fill:#2C3B73;" points="512,121 512,391 482,421 301,421 271,391 271,121 301,91 482,91   "/>
		<polygon style="fill:#293939;" points="512,121 512,391 482,421 391,421 391,91 482,91   "/>
		<rect x="301" y="151" style="fill:#979FEF;" width="181" height="210"/>
		<rect x="391" y="151" style="fill:#737EE6;" width="91" height="210"/>
		<path style="fill:#EDF5FF;" d="M512,76v45H271V76c0-8.401,6.599-15,15-15h211C505.401,61,512,67.599,512,76z"/>
		<path style="fill:#D7E9FF;" d="M512,76v45H391V61h106C505.401,61,512,67.599,512,76z"/>
		<path style="fill:#EDF5FF;" d="M512,391v45c0,8.399-6.599,15-15,15H286c-8.401,0-15-6.601-15-15v-45H512z"/>
		<path style="fill:#D7E9FF;" d="M512,391v45c0,8.399-6.599,15-15,15H391v-60H512z"/>
	</g>
	<g>
		<polygon style="fill:#2C3B73;" points="241,121 241,391 211,421 30,421 0,391 0,121 30,91 211,91   "/>
		<polygon style="fill:#293939;" points="241,121 241,391 211,421 121,421 121,91 211,91   "/>
		<rect x="30" y="151" style="fill:#76E2F8;" width="181" height="210"/>
		<rect x="121" y="151" style="fill:#25D9F8;" width="90" height="210"/>
		<path style="fill:#EDF5FF;" d="M241,76v45H0V76c0-8.401,6.599-15,15-15h211C234.401,61,241,67.599,241,76z"/>
		<path style="fill:#D7E9FF;" d="M241,76v45H121V61h105C234.401,61,241,67.599,241,76z"/>
		<path style="fill:#EDF5FF;" d="M241,391v45c0,8.399-6.599,15-15,15H15c-8.401,0-15-6.601-15-15v-45H241z"/>
		<path style="fill:#D7E9FF;" d="M241,391v45c0,8.399-6.599,15-15,15H121v-60H241z"/>
	</g>
	<path style="fill:#EDF5FF;" d="M175,297.7c3.6-2.701,6-6.901,6-11.7c0-8.401-6.599-15-15-15h-0.901l-30-80.4   c-2.098-6-8.099-8.701-14.099-8.701s-12.001,2.701-14.099,8.701l-30,80.4H76c-8.401,0-15,6.599-15,15c0,4.799,2.401,9,6,11.7   l-5.099,12.9c-2.701,7.798,1.199,16.5,8.699,19.499c7.8,2.701,16.5-1.199,19.499-8.699l7.5-20.4h46.802l7.5,20.4   C154.3,327.4,160,331,166,331c1.8,0,3.6-0.3,5.4-0.901c7.5-2.999,11.4-11.7,8.699-19.499L175,297.7z M108.999,271L121,238.599   L133.001,271H108.999z"/>
	<path style="fill:#EDF5FF;" d="M417.7,242.8c2.1-5.099,3.3-10.8,3.3-16.8c0-19.501-12.599-36.301-30-42.301   c-4.799-1.8-9.6-2.699-15-2.699h-30c-8.401,0-15,6.599-15,15v120c0,8.399,6.599,15,15,15h60c24.901,0,45-20.101,45-45   C451,265.3,436.901,247.899,417.7,242.8z M361,211h15c8.401,0,15,6.599,15,15c0,8.399-6.599,15-15,15h-15V211z M406,301h-45v-30h45   c8.401,0,15,6.599,15,15C421,294.399,414.401,301,406,301z"/>
	<path style="fill:#D7E9FF;" d="M180.099,310.6c2.701,7.798-1.199,16.5-8.699,19.499C169.6,330.7,167.8,331,166,331   c-6,0-11.7-3.6-14.099-9.6l-7.5-20.4H121v-30h12.001L121,238.599v-56.7c6,0,12.001,2.701,14.099,8.701l30,80.4H166   c8.401,0,15,6.599,15,15c0,4.799-2.401,9-6,11.7L180.099,310.6z"/>
	<path style="fill:#D7E9FF;" d="M451,286c0,24.899-20.099,45-45,45h-15v-30h15c8.401,0,15-6.601,15-15c0-8.401-6.599-15-15-15h-15   v-87.301c17.401,6,30,22.8,30,42.301c0,6-1.199,11.7-3.3,16.8C436.901,247.899,451,265.3,451,286z"/>
</g>















</svg>
