<?xml version="1.0" encoding="iso-8859-1"?>
<!-- Generator: Adobe Illustrator 21.0.0, SVG Export Plug-In . SVG Version: 6.00 Build 0)  -->
<svg xmlns="http://www.w3.org/2000/svg" xmlns:xlink="http://www.w3.org/1999/xlink" version="1.1" id="Capa_1" x="0px" y="0px" viewBox="0 0 512 512" style="enable-background:new 0 0 512 512;" xml:space="preserve" width="512" height="512">
<g>
	<path style="fill:#2C3B73;" d="M512,76v285l-30,30H30L0,361V76c0-8.401,6.599-15,15-15h482C505.401,61,512,67.599,512,76z"/>
	<path style="fill:#293939;" d="M512,76v285l-30,30H256V61h241C505.401,61,512,67.599,512,76z"/>
	<rect x="30" y="91" style="fill:#979FEF;" width="452" height="300"/>
	<rect x="256" y="91" style="fill:#737EE6;" width="226" height="300"/>
	<path style="fill:#EDF5FF;" d="M421,15v361c0,8.399-6.599,15-15,15H106c-8.401,0-15-6.601-15-15V15c0-8.401,6.599-15,15-15h300   C414.401,0,421,6.599,421,15z"/>
	<path style="fill:#D7E9FF;" d="M421,15v361c0,8.399-6.599,15-15,15H256V0h150C414.401,0,421,6.599,421,15z"/>
	<rect x="181" y="406" style="fill:#EDF5FF;" width="150" height="91"/>
	<rect x="256" y="406" style="fill:#D7E9FF;" width="75" height="91"/>
	<path style="fill:#D7E9FF;" d="M391,497c0,8.399-6.599,15-15,15H136c-8.401,0-15-6.601-15-15c0-8.401,6.599-15,15-15h240   C384.401,482,391,488.599,391,497z"/>
	<path style="fill:#979FEF;" d="M196,136c-3.838,0-7.676-1.465-10.605-4.395l-30-30c-5.859-5.859-5.859-15.352,0-21.211   s15.352-5.859,21.211,0L196,99.789l34.395-34.395c5.859-5.859,15.352-5.859,21.211,0s5.859,15.352,0,21.211l-45,45   C203.676,134.535,199.838,136,196,136z"/>
	<path style="fill:#979FEF;" d="M196,226c-3.838,0-7.676-1.465-10.605-4.395l-30-30c-5.859-5.859-5.859-15.352,0-21.211   s15.352-5.859,21.211,0L196,189.789l34.395-34.395c5.859-5.859,15.352-5.859,21.211,0s5.859,15.352,0,21.211l-45,45   C203.676,224.535,199.838,226,196,226z"/>
	<path style="fill:#979FEF;" d="M196,316c-3.838,0-7.676-1.465-10.605-4.395l-30-30c-5.859-5.859-5.859-15.352,0-21.211   s15.352-5.859,21.211,0L196,279.789l34.395-34.395c5.859-5.859,15.352-5.859,21.211,0s5.859,15.352,0,21.211l-45,45   C203.676,314.535,199.838,316,196,316z"/>
	<path style="fill:#B0D5F7;" d="M346,121h-60c-8.291,0-15-6.709-15-15s6.709-15,15-15h60c8.291,0,15,6.709,15,15   S354.291,121,346,121z"/>
	<path style="fill:#B0D5F7;" d="M346,211h-60c-8.291,0-15-6.709-15-15s6.709-15,15-15h60c8.291,0,15,6.709,15,15   S354.291,211,346,211z"/>
	<path style="fill:#B0D5F7;" d="M346,301h-60c-8.291,0-15-6.709-15-15s6.709-15,15-15h60c8.291,0,15,6.709,15,15   S354.291,301,346,301z"/>
	<path style="fill:#B0D5F7;" d="M391,497c0,8.399-6.599,15-15,15H256v-30h120C384.401,482,391,488.599,391,497z"/>
	<path style="fill:#D7E9FF;" d="M512,361v45c0,8.399-6.599,15-15,15H15c-8.401,0-15-6.601-15-15v-45H512z"/>
	<path style="fill:#B0D5F7;" d="M512,361v45c0,8.399-6.599,15-15,15H256v-60H512z"/>
</g>















</svg>
