<?xml version="1.0" encoding="iso-8859-1"?>
<!-- Generator: Adobe Illustrator 21.0.0, SVG Export Plug-In . SVG Version: 6.00 Build 0)  -->
<svg xmlns="http://www.w3.org/2000/svg" xmlns:xlink="http://www.w3.org/1999/xlink" version="1.1" id="Capa_1" x="0px" y="0px" viewBox="0 0 512 512" style="enable-background:new 0 0 512 512;" xml:space="preserve" width="512" height="512">
<g>
	<path style="fill:#2C3B73;" d="M512,31v315l-30,30H30L0,346V31c0-8.401,6.599-15,15-15h482C505.401,16,512,22.599,512,31z"/>
	<path style="fill:#293939;" d="M512,31v315l-30,30H256V16h241C505.401,16,512,22.599,512,31z"/>
	<rect x="30" y="46" style="fill:#979FEF;" width="452" height="330"/>
	<rect x="256" y="46" style="fill:#737EE6;" width="226" height="330"/>
	<rect x="181" y="391" style="fill:#D7E9FF;" width="150" height="90"/>
	<rect x="256" y="391" style="fill:#B0D5F7;" width="75" height="90"/>
	<path style="fill:#EDF5FF;" d="M391,481c0,8.399-6.599,15-15,15H136c-8.401,0-15-6.601-15-15c0-8.401,6.599-15,15-15h240   C384.401,466,391,472.599,391,481z"/>
	<path style="fill:#D7E9FF;" d="M391,481c0,8.399-6.599,15-15,15H256v-30h120C384.401,466,391,472.599,391,481z"/>
	<path style="fill:#FFDA2D;" d="M316,91v270c0,8.399-6.599,15-15,15h-90c-8.401,0-15-6.601-15-15v-75l30-15l-30-15v-30l30-15l-30-15   v-30l30-15l-30-15V91c0-8.401,6.599-15,15-15h90C309.401,76,316,82.599,316,91z"/>
	<path style="fill:#FDBF00;" d="M316,91v270c0,8.399-6.599,15-15,15h-45V76h45C309.401,76,316,82.599,316,91z"/>
	<path style="fill:#FDBF00;" d="M256,271c0-8.291-6.709-15-15-15h-45v30h45C249.291,286,256,279.291,256,271z"/>
	<path style="fill:#FDBF00;" d="M256,211c0-8.291-6.709-15-15-15h-45v30h45C249.291,226,256,219.291,256,211z"/>
	<path style="fill:#FDBF00;" d="M256,151c0-8.291-6.709-15-15-15h-45v30h45C249.291,166,256,159.291,256,151z"/>
	<rect x="361" y="166" style="fill:#FDBF00;" width="60" height="210"/>
	<rect x="391" y="166" style="fill:#FF9100;" width="30" height="210"/>
	<path style="fill:#47568C;" d="M402.1,81.099C399.401,77.8,395.2,76.3,391,76.3s-8.401,1.5-11.1,4.799   c-8.101,9-48.9,55.8-48.9,84.901c0,32.999,27.001,60,60,60s60-27.001,60-60C451,136.899,410.2,90.099,402.1,81.099z"/>
	<path style="fill:#2C3B73;" d="M451,166c0,32.999-27.001,60-60,60V76.3c4.2,0,8.401,1.5,11.1,4.799   C410.2,90.099,451,136.899,451,166z"/>
	<g>
		<path style="fill:#FF641A;" d="M166,361V196l-45-30l-45,30v165c0,8.401,6.599,15,15,15h60C159.401,376,166,369.401,166,361z"/>
		<path style="fill:#F03800;" d="M166,361V196l-45-30v210h30C159.401,376,166,369.401,166,361z"/>
	</g>
	<path style="fill:#FDE4E4;" d="M166,196L135.099,86.201C133.299,80.2,127.599,76,121,76s-12.299,4.2-14.099,10.201L76,196H166z"/>
	<path style="fill:#FCCED3;" d="M166,196L135.099,86.201C133.299,80.2,127.599,76,121,76v120H166z"/>
	<path style="fill:#EDF5FF;" d="M512,346v45c0,8.399-6.599,15-15,15H15c-8.401,0-15-6.601-15-15v-45H512z"/>
	<path style="fill:#D7E9FF;" d="M512,346v45c0,8.399-6.599,15-15,15H256v-60H512z"/>
</g>















</svg>
