<?xml version="1.0" encoding="iso-8859-1"?>
<!-- Generator: Adobe Illustrator 21.0.0, SVG Export Plug-In . SVG Version: 6.00 Build 0)  -->
<svg xmlns="http://www.w3.org/2000/svg" xmlns:xlink="http://www.w3.org/1999/xlink" version="1.1" id="Capa_1" x="0px" y="0px" viewBox="0 0 512.067 512.067" style="enable-background:new 0 0 512.067 512.067;" xml:space="preserve" width="512" height="512">
<g>
	<path style="fill:#FFDA2D;" d="M511.2,194.084c-1.8-6-6.899-9.901-13.2-10.501l-166.7-10.8l-61.8-155.4   c-2.1-5.4-7.8-8.101-13.5-8.401c-6,0-12.001,2.701-14.399,8.401l-61.8,155.4l-165.616,10.8c-6.301,0.601-11.4,4.501-13.5,10.501   c-1.8,5.7,0,12.299,4.799,16.199l127.517,106.8l-41.4,162.001c-1.501,5.7,0.899,11.999,5.7,15.599c5.099,3.6,11.699,3.9,16.8,0.601   L256,406.183l140.7,89.101c5.4,3.3,12.001,2.999,17.1-0.601c4.799-3.6,7.2-9.6,5.7-15.599l-41.4-162.001l128.599-106.8   C511.5,206.383,513.3,199.784,511.2,194.084z"/>
	<path style="fill:#FDBF00;" d="M506.699,210.284L378.1,317.083l41.4,162.001c1.5,5.999-0.901,11.999-5.7,15.599   c-5.099,3.6-11.7,3.9-17.1,0.601L256,406.183V8.983c5.7,0.3,11.4,3.001,13.5,8.401l61.8,155.4l166.7,10.8   c6.301,0.601,11.4,4.501,13.2,10.501C513.3,199.784,511.5,206.383,506.699,210.284z"/>
	<path style="fill:#979FEF;" d="M271,488.084c0,8.399-6.599,15-15,15s-15-6.601-15-15c0-8.401,6.599-15,15-15   S271,479.683,271,488.084z"/>
	
		<ellipse transform="matrix(0.309 -0.9511 0.9511 0.309 -11.2948 670.4088)" style="fill:#737EE6;" cx="455.722" cy="342.977" rx="15" ry="15"/>
	
		<ellipse transform="matrix(0.5878 -0.809 0.809 0.5878 68.8809 351.5669)" style="fill:#737EE6;" cx="379.435" cy="108.19" rx="15" ry="15"/>
	
		<ellipse transform="matrix(0.809 -0.5878 0.5878 0.809 -38.275 98.5823)" style="fill:#979FEF;" cx="132.565" cy="108.19" rx="15" ry="15"/>
	
		<ellipse transform="matrix(0.9511 -0.309 0.309 0.9511 -103.2314 34.1774)" style="fill:#979FEF;" cx="56.278" cy="342.977" rx="15" ry="15"/>
	<path style="fill:#737EE6;" d="M271,488.084c0,8.399-6.599,15-15,15v-30C264.401,473.084,271,479.683,271,488.084z"/>
	<path style="fill:#FDBF00;" d="M357.1,244.184c-1.8-6-7.2-9.901-13.2-10.501l-54.3-3.3l-20.099-50.7c-2.1-5.4-7.8-8.099-13.5-8.399   c-6-0.3-12.001,2.399-14.399,8.399l-20.101,50.7l-54.3,3.3c-5.999,0.601-11.4,4.501-13.2,10.501c-2.098,5.7,0,12.299,4.501,16.199   l42.001,34.801l-13.5,52.5c-1.5,5.999,0.899,12.299,5.7,15.899c5.099,3.6,11.7,3.9,16.8,0.601l46.5-29.101l45.601,29.101   c5.099,3.3,11.699,2.999,16.8-0.601c4.799-3.6,7.2-9.901,5.7-15.899l-13.5-52.5l41.7-34.801   C357.1,256.483,358.9,249.884,357.1,244.184z"/>
	<path style="fill:#FF9100;" d="M352.301,260.383l-41.7,34.801l13.5,52.5c1.5,5.999-0.901,12.299-5.7,15.899   c-5.101,3.6-11.7,3.9-16.8,0.601L256,335.083V171.284c5.7,0.3,11.4,2.999,13.5,8.399l20.099,50.7l54.3,3.3   c6,0.601,11.4,4.501,13.2,10.501C358.9,249.884,357.1,256.483,352.301,260.383z"/>
</g>















</svg>
