<?xml version="1.0" encoding="iso-8859-1"?>
<!-- Generator: Adobe Illustrator 21.0.0, SVG Export Plug-In . SVG Version: 6.00 Build 0)  -->
<svg xmlns="http://www.w3.org/2000/svg" xmlns:xlink="http://www.w3.org/1999/xlink" version="1.1" id="Capa_1" x="0px" y="0px" viewBox="0 0 512 512" style="enable-background:new 0 0 512 512;" xml:space="preserve" width="512" height="512">
<g>
	<path style="fill:#EDF5FF;" d="M512,467c0,24.899-20.099,45-45,45H15c-8.401,0-15-6.601-15-15V76c0-8.401,6.599-15,15-15h452v91   C491.901,152,512,442.099,512,467z"/>
	<path style="fill:#D7E9FF;" d="M512,467c0,24.899-20.099,45-45,45H166V61h301v91C491.901,152,512,442.099,512,467z"/>
	<path style="fill:#B0D5F7;" d="M452,0c33.137,0,60,27.863,60,61v406c0-24.901-20.099-45-45-45c-17.842,0-37.839,14.5-43.459,34.126   C421.7,462.556,415.818,467,409.128,467H407c-8.401,0-15-6.601-15-15V61C392,27.863,418.863,0,452,0L452,0z"/>
	<path style="fill:#2C3B73;" d="M286,302h-77.578c-8.291,0-15-6.709-15-15s6.709-15,15-15H286c8.291,0,15,6.709,15,15   S294.291,302,286,302z"/>
	<path style="fill:#47568C;" d="M241,407c0,8.399-6.599,15-15,15h-60c-8.401,0-15-6.601-15-15v-77.701c0-8.099,6.599-15,15-15   s15,6.901,15,15V392h45C234.401,392,241,398.599,241,407z"/>
	<path style="fill:#2C3B73;" d="M316,272c-8.291,0-15-6.709-15-15v-75h-45c-8.291,0-15-6.709-15-15s6.709-15,15-15h60   c8.291,0,15,6.709,15,15v90C331,265.291,324.291,272,316,272z"/>
	<path style="fill:#2C3B73;" d="M241,407c0,8.399-6.599,15-15,15h-60V314.299c8.401,0,15,6.901,15,15V392h45   C234.401,392,241,398.599,241,407z"/>
	<path style="fill:#979FEF;" d="M226,122h-90c-24.901,0-45,20.099-45,45c0,24.899,20.099,45,45,45h90c24.901,0,45-20.101,45-45   C271,142.099,250.901,122,226,122z"/>
	<path style="fill:#737EE6;" d="M271,167c0,24.899-20.099,45-45,45h-60v-90h60C250.901,122,271,142.099,271,167z"/>
	<path style="fill:#FFDA2D;" d="M219.101,276.499l-42.601-42.599c-2.699-2.699-6.599-4.2-10.499-4.2s-7.8,1.501-10.499,4.2   l-42.601,42.599c-5.7,5.7-5.7,15.3,0,21l42.601,42.599c2.699,3.001,6.599,4.2,10.499,4.2s7.8-1.199,10.499-4.2l42.601-42.599   C224.801,291.799,224.801,282.199,219.101,276.499z"/>
	<path style="fill:#FDBF00;" d="M219.101,276.499c5.7,5.7,5.7,15.3,0,21l-42.601,42.599c-2.699,3.001-6.599,4.2-10.499,4.2v-114.6   c3.9,0,7.8,1.501,10.499,4.2L219.101,276.499z"/>
	<path style="fill:#F03800;" d="M256,452c-24.814,0-45-20.186-45-45s20.186-45,45-45s45,20.186,45,45S280.814,452,256,452z"/>
	<path style="fill:#F03800;" d="M316,332c-24.814,0-45-20.186-45-45s20.186-45,45-45s45,20.186,45,45S340.814,332,316,332z"/>
</g>















</svg>
