<?xml version="1.0" encoding="iso-8859-1"?>
<!-- Generator: Adobe Illustrator 21.0.0, SVG Export Plug-In . SVG Version: 6.00 Build 0)  -->
<svg xmlns="http://www.w3.org/2000/svg" xmlns:xlink="http://www.w3.org/1999/xlink" version="1.1" id="Capa_1" x="0px" y="0px" viewBox="0 0 512 512" style="enable-background:new 0 0 512 512;" xml:space="preserve" width="512" height="512">
<g>
	<path style="fill:#FDE4E4;" d="M462.4,377c18.6,0,33.6,15,33.6,33.6c0,18.9-15,33.39-33.6,33.39h-30c18.6,0,33.6,15.51,33.6,34.41   c0,18.6-15,33.6-33.6,33.6h-81.601c-42.9,0-85.499-6.899-126.299-20.4c-18.9-6.301-38.701-9.6-58.5-9.6h-30l-30-30V332l30-30h30   c19.2,0,37.8-7.8,51.301-21.301c23.399-22.798,28.499-30.298,43.2-40.199c70.8-49.2,80.4-88.599,95.7-138.1   c2.098-7.5,9.598-12.001,17.399-10.201c0.901,0.3,1.5,0.3,2.401,0.601c10.8,2.999,19.799,10.201,25.499,20.4   C427,160,379.6,220.101,376,240.5c-0.3,0.599-0.3,0.899-0.3,1.5h86.7c18.6,0,33.6,15,33.6,33.6c0,18.9-15,33.9-33.6,33.9   c18.6,0,33.6,15,33.6,33.9C496,362,481,377,462.4,377z"/>
	<path style="fill:#FCCED3;" d="M376,240.5V92.8c10.8,2.999,19.799,10.201,25.499,20.4C427,160,379.6,220.101,376,240.5z"/>
	<path style="fill:#FCCED3;" d="M462.4,377c18.6,0,33.6,15,33.6,33.6c0,18.9-15,33.39-33.6,33.39h-30c18.6,0,33.6,15.51,33.6,34.41   c0,18.6-15,33.6-33.6,33.6H376V242h86.4c18.6,0,33.6,15,33.6,33.6c0,18.9-15,33.9-33.6,33.9c18.6,0,33.6,15,33.6,33.9   C496,362,481,377,462.4,377z"/>
	<path style="fill:#979FEF;" d="M391,15v46c0,8.401-6.599,15-15,15s-15-6.599-15-15V15c0-8.401,6.599-15,15-15S391,6.599,391,15z"/>
	<path style="fill:#979FEF;" d="M305.395,86.605l-30-30c-5.859-5.859-5.859-15.352,0-21.211s15.352-5.859,21.211,0l30,30   c5.859,5.859,5.859,15.352,0,21.211C320.746,92.465,311.254,92.465,305.395,86.605z"/>
	<path style="fill:#737EE6;" d="M425.395,86.605c-5.859-5.859-5.859-15.352,0-21.211l30-30c5.859-5.859,15.352-5.859,21.211,0   s5.859,15.352,0,21.211l-30,30C440.746,92.465,431.254,92.465,425.395,86.605z"/>
	<path style="fill:#737EE6;" d="M391,15v46c0,8.401-6.599,15-15,15V0C384.401,0,391,6.599,391,15z"/>
	<path style="fill:#47568C;" d="M136,302H31c-8.291,0-15,6.709-15,15v150c0,8.291,6.709,15,15,15h105V302z"/>
	<circle style="fill:#979FEF;" cx="91" cy="407" r="15"/>
</g>















</svg>
