<?xml version="1.0" encoding="iso-8859-1"?>
<!-- Generator: Adobe Illustrator 21.0.0, SVG Export Plug-In . SVG Version: 6.00 Build 0)  -->
<svg xmlns="http://www.w3.org/2000/svg" xmlns:xlink="http://www.w3.org/1999/xlink" version="1.1" id="Capa_1" x="0px" y="0px" viewBox="0 0 512 512" style="enable-background:new 0 0 512 512;" xml:space="preserve" width="512" height="512">
<g>
	<path style="fill:#47568C;" d="M271,76v56.4c0,8.101-6.599,15-15,15s-15-6.899-15-15V76c0-8.401,6.599-15,15-15S271,67.599,271,76z   "/>
	<path style="fill:#2C3B73;" d="M271,76v56.4c0,8.101-6.599,15-15,15V61C264.401,61,271,67.599,271,76z"/>
	<path style="fill:#2C3B73;" d="M436,271c-8.291,0-15-6.709-15-15v-45H319.647c-8.291,0-15-6.709-15-15s6.709-15,15-15H436   c8.291,0,15,6.709,15,15v60C451,264.291,444.291,271,436,271z"/>
	<path style="fill:#47568C;" d="M76,271c-8.291,0-15-6.709-15-15v-60c0-8.291,6.709-15,15-15h116.353c8.291,0,15,6.709,15,15   s-6.709,15-15,15H91v45C91,264.291,84.291,271,76,271z"/>
	<path style="fill:#47568C;" d="M271,376v60c0,8.401-6.599,15-15,15s-15-6.599-15-15v-60c0-8.401,6.599-15,15-15   S271,367.599,271,376z"/>
	<path style="fill:#2C3B73;" d="M271,376v60c0,8.401-6.599,15-15,15v-90C264.401,361,271,367.599,271,376z"/>
	<path style="fill:#47568C;" d="M451,316v60c0,8.401-6.599,15-15,15H76c-8.401,0-15-6.599-15-15v-60c0-8.401,6.599-15,15-15   s15,6.599,15,15v45h330v-45c0-8.401,6.599-15,15-15S451,307.599,451,316z"/>
	<path style="fill:#2C3B73;" d="M451,316v60c0,8.401-6.599,15-15,15H256v-30h165v-45c0-8.401,6.599-15,15-15S451,307.599,451,316z"/>
	<path style="fill:#76E2F8;" d="M316,0H196c-8.401,0-15,6.599-15,15v61c0,8.401,6.599,15,15,15h120c8.401,0,15-6.599,15-15V15   C331,6.599,324.401,0,316,0z"/>
	<path style="fill:#979FEF;" d="M316,421H196c-8.401,0-15,6.599-15,15v61c0,8.401,6.599,15,15,15h120c8.401,0,15-6.599,15-15v-61   C331,427.599,324.401,421,316,421z"/>
	<path style="fill:#737EE6;" d="M497,331H376c-8.291,0-15-6.709-15-15v-60c0-8.291,6.709-15,15-15h121c8.291,0,15,6.709,15,15v60   C512,324.291,505.291,331,497,331z"/>
	<path style="fill:#979FEF;" d="M136,331H15c-8.291,0-15-6.709-15-15v-60c0-8.291,6.709-15,15-15h121c8.291,0,15,6.709,15,15v60   C151,324.291,144.291,331,136,331z"/>
	<path style="fill:#FFDA2D;" d="M330.399,185.501l-63.9-63.9c-2.699-3.001-6.599-4.2-10.499-4.2s-7.8,1.199-10.499,4.2l-63.9,63.9   c-5.7,5.7-5.7,15.298,0,20.999l63.9,63.9c2.699,2.701,6.599,4.2,10.499,4.2s7.8-1.5,10.499-4.2l63.9-63.9   C336.099,200.799,336.099,191.201,330.399,185.501z"/>
	<path style="fill:#25D9F8;" d="M316,91h-60V0h60c8.401,0,15,6.599,15,15v61C331,84.401,324.401,91,316,91z"/>
	<path style="fill:#737EE6;" d="M331,436v61c0,8.401-6.599,15-15,15h-60v-91h60C324.401,421,331,427.599,331,436z"/>
	<path style="fill:#FDBF00;" d="M266.499,270.399c-2.699,2.701-6.599,4.2-10.499,4.2V117.4c3.9,0,7.8,1.199,10.499,4.2l63.9,63.9   c5.7,5.7,5.7,15.298,0,20.999L266.499,270.399z"/>
</g>















</svg>
