<?xml version="1.0" encoding="iso-8859-1"?>
<!-- Generator: Adobe Illustrator 21.0.0, SVG Export Plug-In . SVG Version: 6.00 Build 0)  -->
<svg xmlns="http://www.w3.org/2000/svg" xmlns:xlink="http://www.w3.org/1999/xlink" version="1.1" id="Capa_1" x="0px" y="0px" viewBox="0 0 512 512" style="enable-background:new 0 0 512 512;" xml:space="preserve" width="512" height="512">
<g>
	<path style="fill:#EDF5FF;" d="M429.699,398.8l6.601,37.5C390.099,482.5,326.201,512,256,512s-134.099-29.5-180.3-75.7l6.601-37.5   C50.2,360.099,31,310.3,31,256C31,131.8,131.8,30,256,30s226,101.8,226,226C482,310.3,461.8,360.099,429.699,398.8z"/>
	<path style="fill:#D7E9FF;" d="M429.699,398.8l6.601,37.5C390.099,482.5,326.201,512,256,512V30c124.2,0,226,101.8,226,226   C482,310.3,461.8,360.099,429.699,398.8z"/>
	<path style="fill:#FF641A;" d="M271,165v61c0,8.399-6.599,15-15,15s-15-6.601-15-15v-61c0-8.401,6.599-15,15-15   S271,156.599,271,165z"/>
	<path style="fill:#47568C;" d="M331,421c0,16.5-13.5,30-30,30h-90c-16.5,0-30-13.5-30-30s13.5-30,30-30h90   C317.5,391,331,404.5,331,421z"/>
	<path style="fill:#2C3B73;" d="M331,421c0,16.5-13.5,30-30,30h-45v-60h45C317.5,391,331,404.5,331,421z"/>
	<path style="fill:#F03800;" d="M271,165v61c0,8.399-6.599,15-15,15v-91C264.401,150,271,156.599,271,165z"/>
	<path style="fill:#979FEF;" d="M108.391,383.288C78.873,349.105,61,304.599,61,256l-34.687-30L0,256   c0,70.305,29.597,134.055,75.771,180.229l32.242-32.242C113.696,398.304,113.644,389.371,108.391,383.288z"/>
	<path style="fill:#737EE6;" d="M118.18,117.18l8.444-51.556l-50.853,9.147C29.597,120.945,0,185.695,0,256h61   C61,202.24,82.87,152.49,118.18,117.18z"/>
	<path style="fill:#FFDA2D;" d="M256,60l30-30L256,0C185.695,0,121.945,28.597,75.771,74.771l42.409,42.409   C153.49,81.87,202.24,60,256,60z"/>
	<path style="fill:#FDBF00;" d="M256,60c53.76,0,102.51,21.87,137.82,57.18l48.743,11.257l-6.334-53.666   C390.055,28.597,326.305,0,256,0V60z"/>
	<path style="fill:#F03800;" d="M451,256l36.625,30L512,256c0-70.305-29.597-135.055-75.771-181.229L393.82,117.18   C429.13,152.49,451,202.24,451,256z"/>
	<path style="fill:#CD0000;" d="M403.987,403.987l32.242,32.242C482.403,390.055,512,326.305,512,256h-61   c0,48.599-17.873,93.105-47.391,127.288C398.356,389.371,398.304,398.304,403.987,403.987z"/>
	<path style="fill:#47568C;" d="M256,211c-24.901,0-45,20.099-45,45c0,24.899,20.099,45,45,45s45-20.101,45-45   C301,231.099,280.901,211,256,211z"/>
	<path style="fill:#2C3B73;" d="M256,301v-90c24.901,0,45,20.099,45,45C301,280.899,280.901,301,256,301z"/>
</g>















</svg>
