<?xml version="1.0" encoding="iso-8859-1"?>
<!-- Generator: Adobe Illustrator 21.0.0, SVG Export Plug-In . SVG Version: 6.00 Build 0)  -->
<svg xmlns="http://www.w3.org/2000/svg" xmlns:xlink="http://www.w3.org/1999/xlink" version="1.1" id="Capa_1" x="0px" y="0px" viewBox="0 0 512 512" style="enable-background:new 0 0 512 512;" xml:space="preserve" width="512" height="512">
<g>
	<path style="fill:#979FEF;" d="M241,285v212h-90V285c0-8.401,6.599-15,15-15h60C234.401,270,241,276.599,241,285z"/>
	<path style="fill:#737EE6;" d="M241,285v212h-45V270h30C234.401,270,241,276.599,241,285z"/>
	<path style="fill:#FFDA2D;" d="M362,195v302h-91V195c0-8.401,6.599-15,15-15h61C355.401,180,362,186.599,362,195z"/>
	<path style="fill:#FDBF00;" d="M362,195v302h-46V180h31C355.401,180,362,186.599,362,195z"/>
	<path style="fill:#FF641A;" d="M482,135v362h-90V135c0-8.401,6.599-15,15-15h60C475.401,120,482,126.599,482,135z"/>
	<path style="fill:#F03800;" d="M482,135v362h-45V120h30C475.401,120,482,126.599,482,135z"/>
	<path style="fill:#FDE4E4;" d="M121,375v122H30V375c0-8.401,6.599-15,15-15h61C114.401,360,121,366.599,121,375z"/>
	<path style="fill:#47568C;" d="M196,30H75c-8.291,0-15-6.709-15-15S66.709,0,75,0h121c8.291,0,15,6.709,15,15S204.291,30,196,30z"/>
	<circle style="fill:#47568C;" cx="15" cy="15" r="15"/>
	<path style="fill:#47568C;" d="M196,90H75c-8.291,0-15-6.709-15-15s6.709-15,15-15h121c8.291,0,15,6.709,15,15S204.291,90,196,90z"/>
	<circle style="fill:#47568C;" cx="15" cy="75" r="15"/>
	<path style="fill:#47568C;" d="M196,150H75c-8.291,0-15-6.709-15-15s6.709-15,15-15h121c8.291,0,15,6.709,15,15   S204.291,150,196,150z"/>
	<circle style="fill:#47568C;" cx="15" cy="135" r="15"/>
	<path style="fill:#FCCED3;" d="M121,375v122H76V360h30C114.401,360,121,366.599,121,375z"/>
	<path style="fill:#47568C;" d="M512,497c0,8.399-6.599,15-15,15H15c-8.401,0-15-6.601-15-15c0-8.401,6.599-15,15-15h482   C505.401,482,512,488.599,512,497z"/>
	<path style="fill:#2C3B73;" d="M512,497c0,8.399-6.599,15-15,15H256v-30h241C505.401,482,512,488.599,512,497z"/>
</g>















</svg>
