<?xml version="1.0" encoding="iso-8859-1"?>
<!-- Generator: Adobe Illustrator 21.0.0, SVG Export Plug-In . SVG Version: 6.00 Build 0)  -->
<svg xmlns="http://www.w3.org/2000/svg" xmlns:xlink="http://www.w3.org/1999/xlink" version="1.1" id="Capa_1" x="0px" y="0px" viewBox="0 0 512 512" style="enable-background:new 0 0 512 512;" xml:space="preserve" width="512" height="512">
<g>
	<rect x="121" y="421" style="fill:#2C3B73;" width="240" height="30"/>
	<rect x="256" y="421" style="fill:#293939;" width="105" height="30"/>
	<path style="fill:#2C3B73;" d="M436,482h-17.529l-44.229-111.566l-62.49,11.133l48.003,121c2.285,5.698,7.793,9.434,13.931,9.434   H436c8.291,0,15-6.709,15-15S444.291,482,436,482z"/>
	<path style="fill:#47568C;" d="M137.758,370.434L93.529,482H76c-8.291,0-15,6.709-15,15s6.709,15,15,15h62.314   c6.138,0,11.646-3.735,13.931-9.434l48.003-121L137.758,370.434z"/>
	<path style="fill:#47568C;" d="M286,15v76h-60V15c0-8.401,6.599-15,15-15h30C279.401,0,286,6.599,286,15z"/>
	<path style="fill:#2C3B73;" d="M286,91h-30V0h15c8.401,0,15,6.599,15,15V91z"/>
	<path style="fill:#EDF5FF;" d="M466,61H46c-8.401,0-15,6.599-15,15v300c0,8.399,6.599,15,15,15h420c8.401,0,15-6.601,15-15V76   C481,67.599,474.401,61,466,61z"/>
	<path style="fill:#D7E9FF;" d="M481,76v300c0,8.399-6.599,15-15,15H256V61h210C474.401,61,481,67.599,481,76z"/>
	<path style="fill:#47568C;" d="M271,196v60c0,8.399-6.599,15-15,15s-15-6.601-15-15v-60c0-8.401,6.599-15,15-15   S271,187.599,271,196z"/>
	<path style="fill:#47568C;" d="M136,271c-8.291,0-15-6.709-15-15v-90c0-8.291,6.709-15,15-15h90c8.291,0,15,6.709,15,15   s-6.709,15-15,15h-75v75C151,264.291,144.291,271,136,271z"/>
	<path style="fill:#2C3B73;" d="M376,271c-8.291,0-15-6.709-15-15v-75h-75c-8.291,0-15-6.709-15-15s6.709-15,15-15h90   c8.291,0,15,6.709,15,15v90C391,264.291,384.291,271,376,271z"/>
	<path style="fill:#2C3B73;" d="M271,196v60c0,8.399-6.599,15-15,15v-90C264.401,181,271,187.599,271,196z"/>
	<path style="fill:#76E2F8;" d="M286,121h-60c-8.401,0-15,6.599-15,15v60c0,8.399,6.599,15,15,15h60c8.401,0,15-6.601,15-15v-60   C301,127.599,294.401,121,286,121z"/>
	<path style="fill:#979FEF;" d="M166,331h-60c-8.291,0-15-6.709-15-15v-60c0-8.291,6.709-15,15-15h60c8.291,0,15,6.709,15,15v60   C181,324.291,174.291,331,166,331z"/>
	<path style="fill:#979FEF;" d="M286,241h-60c-8.401,0-15,6.599-15,15v60c0,8.399,6.599,15,15,15h60c8.401,0,15-6.601,15-15v-60   C301,247.599,294.401,241,286,241z"/>
	<path style="fill:#737EE6;" d="M406,331h-60c-8.291,0-15-6.709-15-15v-60c0-8.291,6.709-15,15-15h60c8.291,0,15,6.709,15,15v60   C421,324.291,414.291,331,406,331z"/>
	<path style="fill:#25D9F8;" d="M286,211h-30v-90h30c8.401,0,15,6.599,15,15v60C301,204.399,294.401,211,286,211z"/>
	<path style="fill:#737EE6;" d="M286,331h-30v-90h30c8.401,0,15,6.599,15,15v60C301,324.399,294.401,331,286,331z"/>
</g>















</svg>
