<?xml version="1.0" encoding="iso-8859-1"?>
<!-- Generator: Adobe Illustrator 21.0.0, SVG Export Plug-In . SVG Version: 6.00 Build 0)  -->
<svg xmlns="http://www.w3.org/2000/svg" xmlns:xlink="http://www.w3.org/1999/xlink" version="1.1" id="Capa_1" x="0px" y="0px" viewBox="0 0 512 512" style="enable-background:new 0 0 512 512;" xml:space="preserve" width="512" height="512">
<g>
	<path style="fill:#D7E9FF;" d="M15.038,452c-5.685,0-10.882,3.214-13.422,8.3s-1.989,11.175,1.432,15.716   C19.483,497.837,46.592,512,75.972,512l30-30l-30-30H15.038z"/>
	<path style="fill:#D7E9FF;" d="M3.048,367.984c-3.422,4.543-3.981,10.633-1.441,15.721C4.148,388.796,9.348,392,15.038,392h60.934   l30-30l-30-30C46.592,332,19.483,346.163,3.048,367.984z"/>
	<path style="fill:#47568C;" d="M330.972,135v30c0,8.399-6.599,15-15,15h-120c-8.401,0-15-6.601-15-15v-30c0-41.4,33.6-75,75-75   S330.972,93.6,330.972,135z"/>
	<path style="fill:#47568C;" d="M360.972,15c0,41.4-33.6,75-75,75h-60c-41.4,0-75-33.6-75-75c0-8.401,6.599-15,15-15s15,6.599,15,15   c0,24.899,20.099,45,45,45h60c24.901,0,45-20.101,45-45c0-8.401,6.599-15,15-15S360.972,6.599,360.972,15z"/>
	<path style="fill:#2C3B73;" d="M315.972,180h-60V60c41.4,0,75,33.6,75,75v30C330.972,173.399,324.372,180,315.972,180z"/>
	<path style="fill:#2C3B73;" d="M360.972,15c0,41.4-33.6,75-75,75h-30V60h30c24.901,0,45-20.101,45-45c0-8.401,6.599-15,15-15   S360.972,6.599,360.972,15z"/>
	<path style="fill:#47568C;" d="M165.972,210c-57.891,0-105-47.109-105-105V75c0-8.291,6.709-15,15-15s15,6.709,15,15v30   c0,41.353,33.647,75,75,75c8.291,0,15,6.709,15,15S174.263,210,165.972,210z"/>
	<path style="fill:#47568C;" d="M165.972,270h-90c-8.291,0-15-6.709-15-15s6.709-15,15-15h90c8.291,0,15,6.709,15,15   S174.263,270,165.972,270z"/>
	<path style="fill:#2C3B73;" d="M345.972,210c-8.291,0-15-6.709-15-15s6.709-15,15-15c41.353,0,75-33.647,75-75V75   c0-8.291,6.709-15,15-15s15,6.709,15,15v30C450.972,162.891,403.862,210,345.972,210z"/>
	<path style="fill:#2C3B73;" d="M435.972,270h-90c-8.291,0-15-6.709-15-15s6.709-15,15-15h90c8.291,0,15,6.709,15,15   S444.263,270,435.972,270z"/>
	<path style="fill:#FF641A;" d="M360.972,195v227h-210V195c0-24.901,20.099-45,45-45h120C340.872,150,360.972,170.099,360.972,195z"/>
	<path style="fill:#F03800;" d="M360.972,195v227h-105V150h60C340.872,150,360.972,170.099,360.972,195z"/>
	<path style="fill:#B0D5F7;" d="M496.964,392c5.687,0,10.887-3.204,13.429-8.295c2.54-5.089,1.981-11.179-1.441-15.721   C492.518,346.163,465.408,332,436.028,332c-0.02,0-0.037,0.004-0.057,0.004l-30,29.996l30,30H496.964z"/>
	<path style="fill:#B0D5F7;" d="M496.964,452h-60.993l-30,30l30,29.996c0.02,0,0.037,0.004,0.057,0.004   c29.379,0,56.49-14.163,72.924-35.984c3.42-4.541,3.972-10.629,1.432-15.716S502.648,452,496.964,452z"/>
	<path style="fill:#EDF5FF;" d="M435.972,332v180c-39,0-72.001-25.201-84.3-60h-191.1c-12.599,34.799-45.601,60-84.6,60V332   c39,0,72.001,25.199,84.6,60h191.1C363.971,357.199,396.972,332,435.972,332z"/>
	<path style="fill:#D7E9FF;" d="M435.972,332v180c-39,0-72.001-25.201-84.3-60h-95.7v-60h95.7   C363.971,357.199,396.972,332,435.972,332z"/>
</g>















</svg>
