<?xml version="1.0" encoding="iso-8859-1"?>
<!-- Generator: Adobe Illustrator 21.0.0, SVG Export Plug-In . SVG Version: 6.00 Build 0)  -->
<svg xmlns="http://www.w3.org/2000/svg" xmlns:xlink="http://www.w3.org/1999/xlink" version="1.1" id="Capa_1" x="0px" y="0px" viewBox="0 0 512 512" style="enable-background:new 0 0 512 512;" xml:space="preserve" width="512" height="512">
<g>
	<path style="fill:#EDF5FF;" d="M391,60v241l-90,60H15c-8.401,0-15-6.601-15-15V60l30-30h331L391,60z"/>
	<polygon style="fill:#D7E9FF;" points="391,60 391,301 301,361 196,361 196,30 361,30  "/>
	<path style="fill:#979FEF;" d="M225.099,170.799L196,258.1l-0.901,2.699c-2.399,7.8-10.8,12.001-18.898,9.3   c-7.8-2.399-12.001-11.1-9.3-18.9L196,163.9l0.901-2.701c2.399-7.8,10.8-11.999,18.898-9.3   C223.599,154.3,227.8,162.999,225.099,170.799z"/>
	<path style="fill:#979FEF;" d="M127.006,267.997l-60-45C63.227,220.17,61,215.717,61,211s2.227-9.17,6.006-11.997l60-45   c6.621-4.995,16.011-3.647,20.991,3.003c4.98,6.621,3.633,16.025-3.003,20.991L101.005,211l43.989,33.003   c6.636,4.966,7.983,14.37,3.003,20.991C143.049,271.616,133.65,272.98,127.006,267.997z"/>
	<path style="fill:#737EE6;" d="M244.003,264.994c-4.98-6.621-3.633-16.025,3.003-20.991L290.995,211l-43.989-33.003   c-6.636-4.966-7.983-14.37-3.003-20.991c4.995-6.636,14.385-7.954,20.991-3.003l60,45C328.773,201.83,331,206.283,331,211   s-2.227,9.17-6.006,11.997l-60,45C258.354,272.977,248.954,271.621,244.003,264.994z"/>
	<path style="fill:#737EE6;" d="M225.099,170.799L196,258.1v-94.2l0.901-2.701c2.399-7.8,10.8-11.999,18.898-9.3   C223.599,154.3,227.8,162.999,225.099,170.799z"/>
	<g>
		<path style="fill:#979FEF;" d="M504.442,414.399L465.5,392.5c0.899-5.4,1.5-10.8,1.5-16.5s-0.601-11.1-1.5-16.5l38.941-21.901    c7.202-4.2,9.6-13.5,5.7-20.7l-15-25.8c-4.199-7.2-13.499-9.6-20.7-5.7l-39.242,22.5c-8.401-7.2-18.701-12.599-29.2-16.5V256    c0-8.401-6.599-15-15-15h-30c-8.401,0-15,6.599-15,15v35.4c-10.499,3.9-19.799,9.3-28.2,16.5l-38.399-22.5    c-7.202-3.9-16.501-1.5-20.7,5.7l-15,25.8c-3.9,7.2-1.501,16.5,5.7,20.7L287.5,359.5c-0.899,5.4-1.5,10.8-1.5,16.5    s0.601,11.1,1.5,16.5l-38.099,21.899c-7.202,4.2-9.6,13.5-5.7,20.7l15,25.8c4.199,7.202,13.499,9.6,20.7,5.7l38.399-22.5    c8.401,7.202,17.701,12.601,28.2,16.501V497c0,8.399,6.599,15,15,15h30c8.401,0,15-6.601,15-15v-36.4    c10.499-3.9,20.799-9.3,29.2-16.501l39.242,22.5c7.202,3.9,16.501,1.501,20.7-5.7l15-25.8    C514.042,427.899,511.643,418.599,504.442,414.399z M376,421c-24.901,0-45-20.101-45-45c0-24.901,20.099-45,45-45s45,20.099,45,45    C421,400.899,400.901,421,376,421z"/>
	</g>
	<path style="fill:#737EE6;" d="M510.142,435.099l-15,25.8c-4.199,7.202-13.499,9.6-20.7,5.7l-39.242-22.5   C426.799,451.3,416.499,456.7,406,460.6V497c0,8.399-6.599,15-15,15h-15v-91c24.901,0,45-20.101,45-45c0-24.901-20.099-45-45-45   v-90h15c8.401,0,15,6.599,15,15v35.4c10.499,3.9,20.799,9.3,29.2,16.5l39.242-22.5c7.202-3.9,16.501-1.5,20.7,5.7l15,25.8   c3.9,7.2,1.501,16.5-5.7,20.7L465.5,359.5c0.899,5.4,1.5,10.8,1.5,16.5s-0.601,11.1-1.5,16.5l38.941,21.899   C511.643,418.599,514.042,427.899,510.142,435.099z"/>
	<path style="fill:#737EE6;" d="M301,0h75c8.284,0,15,6.716,15,15v45h-90l-30-30.937L301,0z"/>
	<path style="fill:#47568C;" d="M301,0v60H0V15C0,6.599,6.599,0,15,0H301z"/>
	<rect x="196" style="fill:#2C3B73;" width="105" height="60"/>
</g>















</svg>
