<?xml version="1.0" encoding="iso-8859-1"?>
<!-- Generator: Adobe Illustrator 21.0.0, SVG Export Plug-In . SVG Version: 6.00 Build 0)  -->
<svg xmlns="http://www.w3.org/2000/svg" xmlns:xlink="http://www.w3.org/1999/xlink" version="1.1" id="Capa_1" x="0px" y="0px" viewBox="0 0 512.075 512.075" style="enable-background:new 0 0 512.075 512.075;" xml:space="preserve" width="512" height="512">
<g>
	<path style="fill:#EDF5FF;" d="M391,60v287c0,8.399-6.599,15-15,15H15c-8.401,0-15-6.601-15-15V60l30-30h331L391,60z"/>
	<path style="fill:#D7E9FF;" d="M391,60v287c0,8.399-6.599,15-15,15H196V30h165L391,60z"/>
	<path style="fill:#979FEF;" d="M225.099,171.799L196,259.1l-0.901,2.699c-2.399,7.8-10.8,12.001-18.898,9.3   c-7.8-2.399-12.001-11.1-9.3-18.9L196,164.9l0.901-2.701c2.399-7.8,10.8-11.999,18.898-9.3   C223.599,155.3,227.8,163.999,225.099,171.799z"/>
	<path style="fill:#979FEF;" d="M127.006,268.997l-60-45C63.227,221.17,61,216.717,61,212s2.227-9.17,6.006-11.997l60-45   c6.621-4.995,16.011-3.647,20.991,3.003c4.98,6.621,3.633,16.025-3.003,20.991L101.005,212l43.989,33.003   c6.636,4.966,7.983,14.37,3.003,20.991C143.049,272.617,133.65,273.98,127.006,268.997z"/>
	<path style="fill:#737EE6;" d="M244.003,265.994c-4.98-6.621-3.633-16.025,3.003-20.991L290.995,212l-43.989-33.003   c-6.636-4.966-7.983-14.37-3.003-20.991c4.995-6.636,14.385-7.954,20.991-3.003l60,45C328.773,202.83,331,207.283,331,212   s-2.227,9.17-6.006,11.997l-60,45C258.354,273.977,248.954,272.621,244.003,265.994z"/>
	<path style="fill:#737EE6;" d="M225.099,171.799L196,259.1v-94.2l0.901-2.701c2.399-7.8,10.8-11.999,18.898-9.3   C223.599,155.3,227.8,163.999,225.099,171.799z"/>
	<path style="fill:#737EE6;" d="M301,0h75c8.284,0,15,6.716,15,15v45h-90l-30-30.937L301,0z"/>
	<path style="fill:#47568C;" d="M301,0v60H0V15C0,6.599,6.599,0,15,0H301z"/>
	<rect x="196" y="0" style="fill:#2C3B73;" width="105" height="60"/>
	<path style="fill:#2C3B73;" d="M503.301,503.299c-11.7,11.7-30.901,11.7-42.601,0l-90-90L392,392l21.301-21.301l90,90   C514.999,472.4,514.999,491.6,503.301,503.299z"/>
	<path style="fill:#293939;" d="M503.301,503.299c-11.7,11.7-30.901,11.7-42.601,0l-90-90L392,392L503.301,503.299z"/>
	<path style="fill:#47568C;" d="M421.099,272.899c-41.1-41.1-107.399-41.1-148.198,0c-41.102,41.1-41.102,107.401,0,148.2   c41.1,41.1,107.399,41.1,148.198,0C462.201,380,462.201,313.701,421.099,272.899z"/>
	<path style="fill:#2C3B73;" d="M421.099,421.099c-40.8,41.1-107.098,41.1-148.198,0c-41.102-40.8-41.102-107.1,0-148.2   L421.099,421.099z"/>
	<path style="fill:#9BFCFF;" d="M400.101,400.099c-29.401,29.101-76.8,29.401-106.201,0c-29.099-29.399-29.399-76.8,0-106.199   c29.401-29.099,76.8-29.399,106.201,0C429.2,323.299,429.5,370.7,400.101,400.099z"/>
	<path style="fill:#76E2F8;" d="M400.101,400.099c-29.401,29.101-76.8,29.401-106.201,0c-29.099-29.399-29.399-76.8,0-106.199   L400.101,400.099z"/>
</g>















</svg>
