<?xml version="1.0" encoding="iso-8859-1"?>
<!-- Generator: Adobe Illustrator 21.0.0, SVG Export Plug-In . SVG Version: 6.00 Build 0)  -->
<svg xmlns="http://www.w3.org/2000/svg" xmlns:xlink="http://www.w3.org/1999/xlink" version="1.1" id="Capa_1" x="0px" y="0px" viewBox="0 0 512 512" style="enable-background:new 0 0 512 512;" xml:space="preserve" width="512" height="512">
<g>
	<path style="fill:#EDF5FF;" d="M391,60v286c0,8.399-6.599,15-15,15H15c-8.401,0-15-6.601-15-15V60l30-30h331L391,60z"/>
	<path style="fill:#D7E9FF;" d="M391,60v286c0,8.399-6.599,15-15,15H196V30h165L391,60z"/>
	<path style="fill:#979FEF;" d="M225.099,170.799L196,258.1l-0.901,2.699c-2.399,7.8-10.8,12.001-18.898,9.3   c-7.8-2.399-12.001-11.1-9.3-18.9L196,163.9l0.901-2.701c2.399-7.8,10.8-11.999,18.898-9.3   C223.599,154.3,227.8,162.999,225.099,170.799z"/>
	<path style="fill:#979FEF;" d="M127.006,267.997l-60-45C63.227,220.17,61,215.717,61,211s2.227-9.17,6.006-11.997l60-45   c6.621-4.995,16.011-3.647,20.991,3.003c4.98,6.621,3.633,16.025-3.003,20.991L101.005,211l43.989,33.003   c6.636,4.966,7.983,14.37,3.003,20.991C143.049,271.616,133.65,272.98,127.006,267.997z"/>
	<path style="fill:#737EE6;" d="M244.003,264.994c-4.98-6.621-3.633-16.025,3.003-20.991L290.995,211l-43.989-33.003   c-6.636-4.966-7.983-14.37-3.003-20.991c4.995-6.636,14.385-7.954,20.991-3.003l60,45C328.773,201.83,331,206.283,331,211   s-2.227,9.17-6.006,11.997l-60,45C258.354,272.977,248.954,271.621,244.003,264.994z"/>
	<path style="fill:#737EE6;" d="M225.099,170.799L196,258.1v-94.2l0.901-2.701c2.399-7.8,10.8-11.999,18.898-9.3   C223.599,154.3,227.8,162.999,225.099,170.799z"/>
	<path style="fill:#737EE6;" d="M301,0h75c8.284,0,15,6.716,15,15v45h-90l-30-30.937L301,0z"/>
	<path style="fill:#47568C;" d="M301,0v60H0V15C0,6.599,6.599,0,15,0H301z"/>
	<rect x="196" style="fill:#2C3B73;" width="105" height="60"/>
	<path style="fill:#FFDA2D;" d="M497,301h-54.699l-55.801-55.501C383.5,242.5,379.9,241,376,241c-2.1,0-3.9,0.3-5.7,1.199   C364.6,244.6,361,250,361,256v45H256c-8.401,0-15,6.599-15,15v181c0,8.399,6.599,15,15,15h241c8.401,0,15-6.601,15-15V316   C512,307.599,505.401,301,497,301z"/>
	<path style="fill:#FDBF00;" d="M512,316v181c0,8.399-6.599,15-15,15H376V241c3.9,0,7.5,1.5,10.499,4.499L442.301,301H497   C505.401,301,512,307.599,512,316z"/>
	<circle style="fill:#47568C;" cx="316" cy="406" r="15"/>
	<path style="fill:#47568C;" d="M391,406c0,8.399-6.599,15-15,15s-15-6.601-15-15c0-8.401,6.599-15,15-15S391,397.599,391,406z"/>
	<circle style="fill:#2C3B73;" cx="436" cy="406" r="15"/>
	<path style="fill:#2C3B73;" d="M391,406c0,8.399-6.599,15-15,15v-30C384.401,391,391,397.599,391,406z"/>
</g>















</svg>
